<svg width="120" height="45" viewBox="0 0 120 45" fill="none" xmlns="http://www.w3.org/2000/svg">
<path fill-rule="evenodd" clip-rule="evenodd" d="M0.836914 15.9667C0.836914 7.48939 7.70912 0.617188 16.1864 0.617188C24.6637 0.617188 31.5359 7.48939 31.5359 15.9667V29.4743C31.5359 37.9515 24.6637 44.8238 16.1864 44.8238C7.70912 44.8238 0.836914 37.9515 0.836914 29.4743V15.9667ZM16.1864 3.3801C9.23503 3.3801 3.59982 9.01531 3.59982 15.9667V20.2907C4.72018 18.347 6.16573 16.4309 7.89927 14.6519C11.2792 11.1833 15.208 8.79557 18.8831 7.78537C21.2478 7.13535 23.6267 7.03306 25.6734 7.69486C23.3661 5.05075 19.9714 3.3801 16.1864 3.3801ZM16.1864 42.0608C12.206 42.0608 8.65712 40.2132 6.35068 37.3287C8.36606 37.9425 10.6916 37.8306 13.0036 37.195C16.6787 36.1848 20.6075 33.7971 23.9874 30.3285C25.9833 28.2803 27.5974 26.0504 28.773 23.8058V29.4743C28.773 36.4256 23.1378 42.0608 16.1864 42.0608ZM15.2958 12.3088C15.5392 12.2916 15.785 12.2828 16.0328 12.2828C21.7036 12.2828 26.3024 16.8727 26.3169 22.5401C27.0401 21.162 27.5656 19.799 27.8849 18.5075C28.6715 15.3258 28.1615 12.8571 26.7091 11.4419C25.2567 10.0266 22.7757 9.58076 19.6154 10.4495C18.2291 10.8305 16.7657 11.4546 15.2958 12.3088ZM16.2812 32.8482C14.9158 33.6123 13.5602 34.1767 12.2713 34.531C9.11101 35.3997 6.62995 34.9538 5.17755 33.5386C3.72515 32.1233 3.21519 29.6546 4.00174 26.4729C4.34832 25.0709 4.93799 23.5848 5.75963 22.0865C5.7523 22.2457 5.7486 22.4059 5.7486 22.567C5.7486 28.2468 10.353 32.8511 16.0328 32.8511C16.1158 32.8511 16.1986 32.8502 16.2812 32.8482ZM8.51151 22.567C8.51151 18.4131 11.8789 15.0457 16.0328 15.0457C20.1866 15.0457 23.554 18.4131 23.554 22.567C23.554 26.7208 20.1866 30.0882 16.0328 30.0882C11.8789 30.0882 8.51151 26.7208 8.51151 22.567Z" fill="black"/>
<path d="M52.1998 19.2501C50.8547 19.542 49.6429 19.6879 48.5644 19.6879C47.4858 19.6879 46.623 19.5546 45.9758 19.2882C45.3287 19.0217 44.8211 18.5966 44.4532 18.0129C44.0852 17.4292 43.8314 16.744 43.6918 15.9573C43.5522 15.1706 43.4825 14.1809 43.4825 12.9881C43.4825 10.4884 43.8314 8.75002 44.5293 7.77297C45.2399 6.78324 46.5405 6.28837 48.4311 6.28837C49.5224 6.28837 50.7849 6.45967 52.2188 6.80227L52.1427 8.89594C50.8864 8.70561 49.8396 8.61044 49.0021 8.61044C48.1774 8.61044 47.5873 8.72464 47.232 8.95304C46.8767 9.16875 46.6103 9.58749 46.4326 10.2092C46.2677 10.831 46.1852 11.8905 46.1852 13.3878C46.1852 14.8851 46.3565 15.9256 46.6991 16.5093C47.0544 17.0803 47.7523 17.3658 48.7928 17.3658C49.846 17.3658 50.9626 17.277 52.1427 17.0993L52.1998 19.2501ZM54.3309 19.4595V6.51677H56.9575V19.4595H54.3309ZM64.1356 19.4595H59.777V6.51677H64.1356C65.2522 6.51677 66.1722 6.63731 66.8955 6.8784C67.6187 7.1068 68.177 7.49382 68.5704 8.03944C68.9764 8.57238 69.2556 9.20682 69.4079 9.94278C69.5601 10.666 69.6363 11.6114 69.6363 12.7788C69.6363 13.9461 69.5665 14.9168 69.4269 15.6909C69.2873 16.4522 69.0209 17.1374 68.6275 17.7465C68.2468 18.3428 67.6885 18.7806 66.9526 19.0598C66.2166 19.3262 65.2776 19.4595 64.1356 19.4595ZM66.8955 14.3205C66.9208 13.9144 66.9335 13.3561 66.9335 12.6455C66.9335 11.9223 66.9081 11.3449 66.8574 10.9135C66.8066 10.4821 66.6861 10.0887 66.4958 9.73341C66.3054 9.37812 66.0199 9.13703 65.6393 9.01014C65.2713 8.87057 64.7701 8.80078 64.1356 8.80078H62.4036V17.1755H64.1356C65.0873 17.1755 65.7788 16.9344 66.2103 16.4522C66.5782 16.0588 66.8066 15.3483 66.8955 14.3205ZM52.1998 39.2501C50.8547 39.542 49.6429 39.6879 48.5644 39.6879C47.4858 39.6879 46.623 39.5546 45.9758 39.2882C45.3287 39.0217 44.8211 38.5966 44.4532 38.0129C44.0852 37.4292 43.8314 36.744 43.6918 35.9573C43.5522 35.1706 43.4825 34.1809 43.4825 32.9881C43.4825 30.4884 43.8314 28.75 44.5293 27.773C45.2399 26.7832 46.5405 26.2884 48.4311 26.2884C49.5224 26.2884 50.7849 26.4597 52.2188 26.8023L52.1427 28.8959C50.8864 28.7056 49.8396 28.6104 49.0021 28.6104C48.1774 28.6104 47.5873 28.7246 47.232 28.953C46.8767 29.1688 46.6103 29.5875 46.4326 30.2092C46.2677 30.831 46.1852 31.8905 46.1852 33.3878C46.1852 34.8851 46.3565 35.9256 46.6991 36.5093C47.0544 37.0803 47.7523 37.3658 48.7928 37.3658C49.846 37.3658 50.9626 37.277 52.1427 37.0993L52.1998 39.2501ZM61.7729 39.4595V34.0921H56.9575V39.4595H54.3309V26.5168H56.9575V31.8081H61.7729V26.5168H64.3996V39.4595H61.7729ZM67.2119 39.4595V26.5168H75.5866V28.8008H69.8385V31.8271H74.4446V34.073H69.8385V37.1755H75.5866V39.4595H67.2119ZM85.8613 39.2501C84.5163 39.542 83.3045 39.6879 82.226 39.6879C81.1474 39.6879 80.2846 39.5546 79.6374 39.2882C78.9903 39.0217 78.4827 38.5966 78.1147 38.0129C77.7468 37.4292 77.493 36.744 77.3534 35.9573C77.2138 35.1706 77.144 34.1809 77.144 32.9881C77.144 30.4884 77.493 28.75 78.1909 27.773C78.9015 26.7832 80.2021 26.2884 82.0927 26.2884C83.184 26.2884 84.4465 26.4597 85.8804 26.8023L85.8042 28.8959C84.548 28.7056 83.5012 28.6104 82.6637 28.6104C81.8389 28.6104 81.2489 28.7246 80.8936 28.953C80.5383 29.1688 80.2719 29.5875 80.0942 30.2092C79.9293 30.831 79.8468 31.8905 79.8468 33.3878C79.8468 34.8851 80.0181 35.9256 80.3607 36.5093C80.716 37.0803 81.4139 37.3658 82.4544 37.3658C83.5075 37.3658 84.6242 37.277 85.8042 37.0993L85.8613 39.2501ZM90.6191 39.4595H87.9925V26.5168H90.6191V32.2078L92.3702 32.0174L94.5019 26.5168H97.4901L94.6732 33.0072L97.5663 39.4595H94.54L92.3702 34.3014L90.6191 34.4918V39.4595ZM99.275 39.4595V26.5168H107.65V28.8008H101.902V31.8271H106.508V34.073H101.902V37.1755H107.65V39.4595H99.275ZM112.441 35.1199V39.4595H109.814V26.5168H114.839C117.884 26.5168 119.407 27.9379 119.407 30.7802C119.407 32.4679 118.772 33.7114 117.503 34.5108L119.35 39.4595H116.476L114.972 35.1199H112.441ZM114.877 32.8739C115.499 32.8739 115.962 32.6836 116.266 32.3029C116.571 31.9223 116.723 31.421 116.723 30.7993C116.723 30.1775 116.558 29.6827 116.228 29.3147C115.911 28.9467 115.448 28.7627 114.839 28.7627H112.441V32.8739H114.877Z" fill="black"/>
</svg>
