<svg width="158" height="42" fill="none" xmlns="http://www.w3.org/2000/svg"><path fill-rule="evenodd" clip-rule="evenodd" d="M23.04 6.65a1.1 1.1 0 0 0-1.909.021L6.247 33.243c-.413.738.118 1.65.96 1.65h30.585c.854 0 1.384-.934.948-1.672L23.04 6.649Zm-2.87-.521c.832-1.485 2.953-1.51 3.818-.045l15.7 26.572C40.56 34.132 39.501 36 37.792 36H7.208c-1.686 0-2.748-1.824-1.922-3.3L20.171 6.13Z" fill="#000"/><path fill-rule="evenodd" clip-rule="evenodd" d="m26.458 24.987 1.784-1.485c1.034-.86.898-2.495-.263-3.171-1.176-.685-2.666.043-2.861 1.398l-.322 2.23a3.34 3.34 0 0 1-1.224 2.137l-1.794 1.428c-1.047.833-.93 2.468.225 3.14 1.182.689 2.682-.024 2.908-1.381l.375-2.25c.133-.802.55-1.529 1.172-2.046Zm2.458-.66c1.604-1.335 1.394-3.873-.407-4.922-1.824-1.062-4.137.068-4.44 2.17l-.322 2.23a2.27 2.27 0 0 1-.832 1.453l-1.794 1.427c-1.635 1.301-1.451 3.855.353 4.905 1.822 1.06 4.134-.038 4.482-2.13l.375-2.25a2.317 2.317 0 0 1 .802-1.4l1.783-1.484ZM22 17.887a1.887 1.887 0 1 0 0-3.774 1.887 1.887 0 0 0 0 3.774ZM22 19a3 3 0 1 0 0-6 3 3 0 0 0 0 6ZM18 23.887A1.87 1.87 0 0 0 19.853 22 1.87 1.87 0 0 0 18 20.113 1.87 1.87 0 0 0 16.147 22 1.87 1.87 0 0 0 18 23.887ZM18 25a3 3 0 1 0 0-6 3 3 0 0 0 0 6Z" fill="#000"/><path fill-rule="evenodd" clip-rule="evenodd" d="M30 30.92a1.92 1.92 0 1 0 0-3.84 1.92 1.92 0 0 0 0 3.84ZM30 32a3 3 0 1 0 0-6 3 3 0 0 0 0 6ZM23.073 27.148h-9.146c-.998 0-1.807.83-1.807 1.852 0 1.023.809 1.852 1.807 1.852h9.146c.998 0 1.807-.83 1.807-1.852 0-1.023-.809-1.852-1.807-1.852ZM11 29c0 1.657 1.31 3 2.927 3h9.146C24.689 32 26 30.657 26 29s-1.31-3-2.927-3h-9.146C12.31 26 11 27.343 11 29Z" fill="#000"/><path d="M52.652 29C57.061 29 60 26.029 60 21s-2.94-8-7.348-8h-4.825a.832.832 0 0 0-.827.836v14.328c0 .462.37.836.827.836h4.825Zm-3.391-13.943h3.165c3.391 0 5.313 2.057 5.313 5.943 0 3.886-1.922 5.943-5.313 5.943h-3.165V15.057Z" fill="#000"/><path d="M73.708 29c.206 0 .347-.198.272-.38l-6.352-15.443a.292.292 0 0 0-.272-.177H64.69c-.12 0-.227.07-.271.176L58.02 28.62c-.076.183.065.381.271.381h1.812c.12 0 .229-.07.272-.178l1.603-3.936h7.993l1.603 3.936a.291.291 0 0 0 .272.178h1.86Zm-7.732-13.897 3.159 7.726h-6.318l3.159-7.726ZM79.857 29c2.857 0 4.524-1.393 5-2.101v1.577c0 .159.13.288.29.288h1.563a.29.29 0 0 0 .29-.288v-6.087c0-1.299-.714-2.007-2.024-2.007h-4.59a.29.29 0 0 0-.29.288v1.525c0 .16.13.288.29.288h4.471v.449c0 2.125-1.666 3.943-4.643 3.943h-.238c-3.333 0-5.595-2.361-5.595-6.375 0-4.014 2.262-6.375 5.595-6.375h.238c2.404 0 3.927 1.178 4.253 3.284a.302.302 0 0 0 .295.258h1.806a.28.28 0 0 0 .284-.309C86.495 14.299 84.242 12 80.095 12c-5 0-8.095 3.542-8.095 8.5s3.095 8.5 7.857 8.5ZM95.898 29a.272.272 0 0 0 .264-.279V22.03h7.676v6.692c0 .154.118.279.264.279h1.634a.272.272 0 0 0 .264-.279V13.28a.271.271 0 0 0-.264-.279h-1.634a.271.271 0 0 0-.264.279v6.692h-7.676V13.28a.271.271 0 0 0-.264-.279h-1.634a.271.271 0 0 0-.264.279V28.72c0 .154.118.279.264.279h1.635ZM113.5 29c3.094 0 5.5-2.423 5.5-6s-2.406-6-5.5-6-5.5 2.423-5.5 6 2.406 6 5.5 6Zm-.092-1.846c-1.856 0-3.231-1.5-3.231-4.154s1.375-4.154 3.231-4.154h.184c1.856 0 3.231 1.5 3.231 4.154s-1.375 4.154-3.231 4.154h-.184ZM124 29c2.047 0 3.318-1.177 3.765-2.47v1.948c0 .158.128.287.287.287h1.661a.287.287 0 0 0 .287-.287V17.287a.287.287 0 0 0-.287-.287h-1.661a.287.287 0 0 0-.287.287v6.066c0 2.353-1.459 3.765-2.965 3.765h-.188c-1.6 0-2.377-.941-2.377-2.824v-7.007a.287.287 0 0 0-.287-.287h-1.661a.287.287 0 0 0-.287.287v7.478c0 2.47 1.365 4.235 4 4.235ZM135.533 29c2.57 0 4.364-1.385 4.364-3.462 0-2.076-1.373-3.023-3.057-3.369l-1.75-.369c-1.108-.23-1.551-.67-1.551-1.477 0-.808.775-1.477 2.016-1.477h.177c1.324 0 1.955.78 2.134 1.713.028.14.142.249.279.249h1.593a.263.263 0 0 0 .261-.282c-.122-2.048-1.601-3.526-4.378-3.526-2.215 0-4.187 1.246-4.187 3.554 0 1.961 1.44 2.93 3.235 3.3l1.617.323c1.108.23 1.507.738 1.507 1.477 0 .923-.909 1.5-2.061 1.5h-.177c-1.223 0-2.213-.505-2.426-1.705-.026-.144-.141-.257-.282-.257h-1.585a.262.262 0 0 0-.261.282c.131 2.047 1.713 3.526 4.532 3.526ZM146.303 29c2.204 0 4.081-1.192 4.606-3.317a.265.265 0 0 0-.259-.33h-1.58a.3.3 0 0 0-.28.228c-.307 1.067-1.299 1.573-2.329 1.573h-.18c-1.371 0-3.011-1.177-3.146-3.808h7.591a.277.277 0 0 0 .274-.281v-.988c0-3-1.843-5.077-4.764-5.077-2.652 0-5.236 1.985-5.236 5.977 0 4.038 2.517 6.023 5.303 6.023Zm-3.033-7.385c.404-2.053 1.708-2.769 2.876-2.769h.18c1.281 0 2.449.762 2.539 2.77h-5.595Z" fill="#000"/></svg>