<svg width="150" height="67" viewBox="0 0 150 67" fill="none" xmlns="http://www.w3.org/2000/svg">
<path d="M10.81 41V29.228H14.752C17.83 29.228 19.972 31.676 19.972 35.168C19.972 38.66 17.866 41 14.752 41H10.81ZM12.322 39.542H14.554C17.056 39.542 18.46 37.94 18.46 35.078C18.46 32.252 17.074 30.65 14.554 30.65H12.322V39.542ZM24.2269 36.356H28.3489L26.6029 31.37L26.4049 30.362H26.1709L25.9729 31.37L24.2269 36.356ZM23.7589 37.778L22.6249 41H21.0229L25.0909 29.228H27.4669L31.5529 41H29.9509L28.8169 37.778H23.7589ZM36.7237 35.096H41.6737V40.982H40.2877L40.7017 37.814L40.3777 37.76C39.9817 39.794 38.6137 41.252 36.6157 41.252C34.1137 41.252 32.1157 39.092 32.1157 35.33C32.1157 31.28 34.0957 29.066 36.8857 29.066C39.1177 29.066 40.8817 30.452 41.6197 33.008L40.1617 33.314C39.6757 31.46 38.6137 30.452 36.9757 30.452C34.9057 30.452 33.6457 32.144 33.6457 35.168C33.6457 38.174 35.0677 39.848 37.0117 39.848C38.7937 39.848 40.1617 38.552 40.1617 36.464H36.7237V35.096ZM43.5433 29.228H45.0553V34.358H50.7433V29.228H52.2733V41H50.7433V35.798H45.0553V41H43.5433V29.228ZM55.6788 35.114C55.6788 38.138 56.9388 39.848 59.0268 39.848C61.1328 39.848 62.3748 38.138 62.3748 35.114C62.3748 32.126 61.1328 30.326 59.0268 30.326C56.9388 30.326 55.6788 32.126 55.6788 35.114ZM54.1488 35.114C54.1488 31.226 56.0748 28.94 59.0268 28.94C61.7268 28.94 63.9048 31.226 63.9048 35.114C63.9048 39.02 61.9788 41.252 59.0268 41.252C56.0748 41.252 54.1488 39.02 54.1488 35.114ZM67.2818 29.228V36.95C67.2818 38.786 68.2898 39.812 70.0718 39.812C71.8358 39.812 72.8078 38.786 72.8078 36.95V29.228H74.3378V37.148C74.3378 39.542 72.5558 41.27 70.0718 41.27C67.5158 41.27 65.7698 39.596 65.7698 37.148V29.228H67.2818ZM84.3531 37.958C84.3531 39.974 82.8051 41.306 80.5011 41.306C78.3411 41.306 76.8291 40.19 76.2171 37.922L77.6211 37.616C78.0891 39.074 79.0971 39.956 80.4291 39.956C81.8331 39.956 82.8231 39.164 82.8231 38.048C82.8231 36.752 81.5631 36.356 79.9791 35.96C77.9271 35.456 76.3251 34.592 76.3251 32.45C76.3251 30.398 77.8191 29.066 80.1771 29.066C82.2471 29.066 83.7231 30.092 84.2631 32.198L82.8771 32.522C82.5351 31.154 81.5271 30.434 80.2491 30.434C78.7551 30.434 77.8371 31.226 77.8371 32.342C77.8371 33.656 79.0071 34.106 80.5731 34.484C82.6791 35.042 84.3531 35.816 84.3531 37.958ZM86.2209 29.228H94.2129V30.668H87.7329V34.412H94.0329V35.852H87.7329V39.56H94.2129V41H86.2209V29.228ZM100.397 29.228H101.909V39.56H108.515V41H100.397V29.228ZM110.598 35.114C110.598 38.138 111.858 39.848 113.946 39.848C116.052 39.848 117.294 38.138 117.294 35.114C117.294 32.126 116.052 30.326 113.946 30.326C111.858 30.326 110.598 32.126 110.598 35.114ZM109.068 35.114C109.068 31.226 110.994 28.94 113.946 28.94C116.646 28.94 118.824 31.226 118.824 35.114C118.824 39.02 116.898 41.252 113.946 41.252C110.994 41.252 109.068 39.02 109.068 35.114ZM125.009 35.096H129.959V40.982H128.573L128.987 37.814L128.663 37.76C128.267 39.794 126.899 41.252 124.901 41.252C122.399 41.252 120.401 39.092 120.401 35.33C120.401 31.28 122.381 29.066 125.171 29.066C127.403 29.066 129.167 30.452 129.905 33.008L128.447 33.314C127.961 31.46 126.899 30.452 125.261 30.452C123.191 30.452 121.931 32.144 121.931 35.168C121.931 38.174 123.353 39.848 125.297 39.848C127.079 39.848 128.447 38.552 128.447 36.464H125.009V35.096ZM133.071 35.114C133.071 38.138 134.331 39.848 136.419 39.848C138.525 39.848 139.767 38.138 139.767 35.114C139.767 32.126 138.525 30.326 136.419 30.326C134.331 30.326 133.071 32.126 133.071 35.114ZM131.541 35.114C131.541 31.226 133.467 28.94 136.419 28.94C139.119 28.94 141.297 31.226 141.297 35.114C141.297 39.02 139.371 41.252 136.419 41.252C133.467 41.252 131.541 39.02 131.541 35.114Z" fill="black"/>
<rect x="0.5" y="0.5" width="149" height="66" stroke="black"/>
</svg>
