<svg width="112" height="43" viewBox="0 0 112 43" fill="none" xmlns="http://www.w3.org/2000/svg">
<path d="M15.3509 35.1979C15.3509 36.4782 14.3131 37.516 13.0329 37.516C11.7527 37.516 10.7148 36.4782 10.7148 35.1979C10.7148 33.9177 11.7527 32.8799 13.0329 32.8799C14.3131 32.8799 15.3509 33.9177 15.3509 35.1979Z" fill="black"/>
<path d="M15.3509 23.8408C15.3509 25.121 14.3131 26.1588 13.0329 26.1588C11.7527 26.1588 10.7148 25.121 10.7148 23.8408C10.7148 22.5605 11.7527 21.5227 13.0329 21.5227C14.3131 21.5227 15.3509 22.5605 15.3509 23.8408Z" fill="black"/>
<path d="M15.6909 1.8042C20.5371 1.8042 24.1839 5.42657 24.1839 10.2482C24.1839 15.0699 20.5371 18.6923 15.6909 18.6923H9.25391V1.8042H15.6909ZM15.6665 16.8321C19.8028 16.8321 22.8867 14.0175 22.8867 10.2482C22.8867 6.47902 19.8028 3.66434 15.6665 3.66434H10.5022V16.8321H15.6665Z" fill="black"/>
<path d="M29.8378 16.8321H40.3132V18.6923H28.5895V1.8042H40.1909V3.66434H29.8378V9.29369H39.3832V11.1049H29.8378V16.8321Z" fill="black"/>
<path d="M58.2811 18.6923L56.3231 14.2622H46.6063L44.6483 18.6923H43.2042L50.3266 1.8042H52.5294L59.6273 18.6923H58.2811ZM47.414 12.4021H55.5154L51.8196 4.05594H51.0853L47.414 12.4021Z" fill="black"/>
<path d="M64.6608 16.8321H73.9125V18.6923H63.4125V1.8042H64.6608V16.8321Z" fill="black"/>
<path d="M82.5852 18.986C78.9139 18.986 76.1727 16.8566 76.1727 14.0419H77.4698C77.4698 15.8286 79.6971 17.1748 82.6342 17.1748C85.3265 17.1748 87.5293 16.0244 87.5293 14.2622C87.5293 12.0594 84.0537 11.3252 82.1691 10.958C78.5468 10.2482 76.5398 8.60838 76.5398 6.16083C76.5398 3.34616 79.1587 1.5105 82.4628 1.5105C85.9139 1.5105 88.4838 3.56644 88.4838 6.25874H87.1866C87.1866 4.59441 85.1551 3.32168 82.4139 3.32168C79.8929 3.32168 77.837 4.3986 77.837 6.06293C77.837 8.21677 81.4104 8.95104 82.83 9.22027C86.6481 9.95453 88.8509 11.5454 88.8509 14.1398C88.8509 17.1014 85.9873 18.986 82.5852 18.986Z" fill="black"/>
<path fill-rule="evenodd" clip-rule="evenodd" d="M8.46484 19.4818V1.01465H15.6914C20.9691 1.01465 24.9739 4.98599 24.9739 10.2482C24.9739 15.5104 20.9691 19.4818 15.6914 19.4818H8.46484ZM15.6669 16.0426C19.4372 16.0426 22.0977 13.5146 22.0977 10.2482C22.0977 6.98183 19.4372 4.45385 15.6669 4.45385H11.2922V16.0426H15.6669ZM15.6669 16.8321C19.8033 16.8321 22.8872 14.0174 22.8872 10.2482C22.8872 6.479 19.8033 3.66432 15.6669 3.66432H10.5026V16.8321H15.6669ZM41.1033 16.0426V19.4818H27.8005V1.01465H40.9809V4.45385H30.6278V8.50414H40.1732V11.8944H30.6278V16.0426H41.1033ZM29.8382 16.8321V11.1049H39.3837V9.29367H29.8382V3.66432H40.1913V1.80418H28.59V18.6922H40.3137V16.8321H29.8382ZM57.7673 19.4818L55.8093 15.0517H47.121L45.163 19.4818H42.0148L49.8032 1.01465H53.0544L60.816 19.4818H57.7673ZM46.6068 14.2622H56.3235L58.2816 18.6922H59.6277L52.5298 1.80418H50.3271L43.2047 18.6922H44.6487L46.6068 14.2622ZM55.5159 12.4021L51.8201 4.05592H51.0858L47.4145 12.4021H55.5159ZM48.6243 11.6125H54.3028L51.4541 5.17947L48.6243 11.6125ZM74.7025 16.0426V19.4818H62.6235V1.01465H65.4508V16.0426H74.7025ZM64.6613 16.8321V1.80418H63.413V18.6922H73.913V16.8321H64.6613ZM75.3836 13.2524H78.2599V14.0419C78.2599 14.5689 78.5833 15.1323 79.3603 15.6031C80.1348 16.0724 81.2765 16.3852 82.6347 16.3852C83.8808 16.3852 84.9607 16.1171 85.6996 15.6941C86.4368 15.2721 86.7402 14.7649 86.7402 14.2622C86.7402 13.658 86.2769 13.1191 85.2282 12.6398C84.2207 12.1793 82.9691 11.9181 82.0186 11.733L82.0178 11.7328C80.1344 11.3638 78.5828 10.7379 77.4877 9.81474C76.3669 8.86995 75.7507 7.63222 75.7507 6.16081C75.7507 4.48203 76.5414 3.09585 77.7853 2.15134C79.0152 1.21745 80.6728 0.720947 82.4633 0.720947C86.1689 0.720947 89.2738 2.96867 89.2738 6.25872V7.04825H86.3976V6.25872C86.3976 5.7844 86.1133 5.2706 85.4133 4.83748C84.7139 4.40476 83.6726 4.11119 82.4144 4.11119C81.2537 4.11119 80.2543 4.36104 79.5744 4.75242C78.898 5.14181 78.627 5.60542 78.627 6.06291C78.627 6.6307 79.0956 7.16038 80.1282 7.62948C81.1033 8.07248 82.2665 8.30968 82.9776 8.44454L82.9796 8.44492C84.9488 8.82363 86.5943 9.43837 87.7628 10.3635C88.9628 11.3135 89.6409 12.5804 89.6409 14.1398C89.6409 15.9047 88.7775 17.3397 87.4629 18.3089C86.1624 19.2677 84.4235 19.7755 82.5857 19.7755C78.6797 19.7755 75.3836 17.4699 75.3836 14.0419V13.2524ZM76.2471 14.8314C76.7074 17.2454 79.2664 18.986 82.5857 18.986C85.9878 18.986 88.8514 17.1013 88.8514 14.1398C88.8514 11.5454 86.6486 9.95451 82.8305 9.22025C81.4109 8.95102 77.8375 8.21675 77.8375 6.06291C77.8375 4.39858 79.8934 3.32166 82.4144 3.32166C85.1556 3.32166 87.1871 4.59438 87.1871 6.25872H88.4843C88.4843 5.98866 88.4584 5.725 88.4084 5.46919C87.9599 3.17465 85.5682 1.51048 82.4633 1.51048C79.1591 1.51048 76.5403 3.34614 76.5403 6.16081C76.5403 8.60836 78.5472 10.2482 82.1696 10.958C84.0542 11.3251 87.5297 12.0594 87.5297 14.2622C87.5297 16.0244 85.327 17.1748 82.6347 17.1748C79.6976 17.1748 77.4703 15.8286 77.4703 14.0419H76.1731C76.1731 14.3118 76.1983 14.5754 76.2471 14.8314ZM24.1844 10.2482C24.1844 5.42655 20.5376 1.80418 15.6914 1.80418H9.25437V18.6922H15.6914C20.5376 18.6922 24.1844 15.0699 24.1844 10.2482Z" fill="black"/>
<path d="M40.3723 41.618L35.5996 35.2789H30.2395V41.618H28.9912V24.73H36.4807C39.5157 24.73 41.8163 27.0062 41.8163 30.0167C41.8163 32.7824 39.8583 34.9118 37.1905 35.23L41.9387 41.618H40.3723ZM30.2395 26.5901V33.4432H36.4562C38.8059 33.4432 40.5191 31.9992 40.5191 30.0167C40.5191 28.0097 38.8059 26.5901 36.4562 26.5901H30.2395Z" fill="black"/>
<path d="M59.6389 41.618L57.6808 37.188H47.9641L46.006 41.618H44.562L51.6844 24.73H53.8871L60.985 41.618H59.6389ZM48.7718 35.3279H56.8731L53.1774 26.9817H52.4431L48.7718 35.3279Z" fill="black"/>
<path d="M71.6469 41.9118C66.654 41.9118 62.8603 38.1425 62.8603 33.174C62.8603 28.2055 66.654 24.4363 71.6469 24.4363C75.7344 24.4363 79.0141 26.9817 80.0665 30.6041H78.6959C77.6679 28.0831 75.0001 26.3209 71.6469 26.3209C67.3882 26.3209 64.1575 29.2824 64.1575 33.174C64.1575 37.0656 67.3882 40.0271 71.6469 40.0271C75.0001 40.0271 77.6679 38.2649 78.6959 35.7439H80.0665C79.0141 39.3663 75.7344 41.9118 71.6469 41.9118Z" fill="black"/>
<path d="M85.5693 39.7579H94.821V41.618H84.321V24.73H85.5693V39.7579Z" fill="black"/>
<path d="M100.053 39.7579H110.528V41.618H98.8046V24.73H110.406V26.5901H100.053V32.2195H109.598V34.0307H100.053V39.7579Z" fill="black"/>
<path fill-rule="evenodd" clip-rule="evenodd" d="M39.9789 42.4076L35.2062 36.0684H31.0295V42.4076H28.2021V23.9404H36.4812C39.945 23.9404 42.6063 26.563 42.6063 30.0167C42.6063 32.7339 40.9456 34.9285 38.5475 35.7315L43.4223 42.2898L51.1609 23.9404H54.4122L62.1738 42.4076H59.1251L57.1671 37.9775H48.4788L46.5208 42.4076H39.9789ZM47.9646 37.188H57.6813L59.6393 41.618H60.9855L53.8876 24.73H51.6848L44.5625 41.618H46.0065L47.9646 37.188ZM37.191 35.2299C37.4859 35.1948 37.7722 35.1374 38.0481 35.0596C40.2678 34.4331 41.8168 32.4766 41.8168 30.0167C41.8168 27.0062 39.5161 24.73 36.4812 24.73H28.9917V41.618H30.2399V35.2789H35.6001L40.3728 41.618H41.9392L37.191 35.2299ZM30.2399 33.4432V26.5901H36.4567C38.8063 26.5901 40.5196 28.0097 40.5196 30.0167C40.5196 31.9992 38.8063 33.4432 36.4567 33.4432H30.2399ZM31.0295 27.3796V32.6537H36.4567C38.5018 32.6537 39.7301 31.4423 39.7301 30.0167C39.7301 28.5699 38.5058 27.3796 36.4567 27.3796H31.0295ZM56.8736 35.3278L53.1778 26.9817H52.4436L48.7722 35.3278H56.8736ZM49.9821 34.5383H55.6605L52.8119 28.1053L49.9821 34.5383ZM81.1185 31.3936H78.1656L77.9653 30.9022C77.0749 28.7187 74.7255 27.1104 71.6474 27.1104C67.7577 27.1104 64.9475 29.7826 64.9475 33.174C64.9475 36.5654 67.7577 39.2376 71.6474 39.2376C74.7255 39.2376 77.0749 37.6293 77.9653 35.4458L78.1656 34.9544H81.1185L80.8252 35.9642C79.6733 39.9287 76.0809 42.7013 71.6474 42.7013C66.2227 42.7013 62.0712 38.5829 62.0712 33.174C62.0712 27.7651 66.2227 23.6467 71.6474 23.6467C76.0809 23.6467 79.6733 26.4193 80.8252 30.3838L81.1185 31.3936ZM78.6963 30.6041C77.6684 28.0831 75.0006 26.3209 71.6474 26.3209C67.3887 26.3209 64.1579 29.2824 64.1579 33.174C64.1579 37.0656 67.3887 40.0271 71.6474 40.0271C75.0006 40.0271 77.6684 38.2649 78.6963 35.7439H80.067C79.9887 36.0133 79.8982 36.2766 79.7959 36.5335C78.5224 39.7307 75.4309 41.9117 71.6474 41.9117C66.6544 41.9117 62.8607 38.1425 62.8607 33.174C62.8607 28.2055 66.6544 24.4363 71.6474 24.4363C75.4309 24.4363 78.5224 26.6173 79.7959 29.8145C79.8982 30.0714 79.9887 30.3347 80.067 30.6041H78.6963ZM95.611 38.9684V42.4076H83.532V23.9404H86.3593V38.9684H95.611ZM85.5697 39.7579V24.73H84.3215V41.618H94.8215V39.7579H85.5697ZM111.318 38.9684V42.4076H98.0155V23.9404H111.196V27.3796H100.843V31.4299H110.388V34.8202H100.843V38.9684H111.318ZM100.053 39.7579V34.0306H109.599V32.2195H100.053V26.5901H110.406V24.73H98.805V41.618H110.529V39.7579H100.053Z" fill="black"/>
<path fill-rule="evenodd" clip-rule="evenodd" d="M13.1545 42.8592C20.3084 42.8592 26.1078 39.5016 26.1078 35.3599C26.1078 31.2181 20.3084 27.8606 13.1545 27.8606C6.00057 27.8606 0.201172 31.2181 0.201172 35.3599C0.201172 39.5016 6.00057 42.8592 13.1545 42.8592ZM13.1404 40.1227C19.1699 40.1227 24.0578 37.9503 24.0578 35.2705C24.0578 32.5907 19.1699 30.4183 13.1404 30.4183C7.11084 30.4183 2.22292 32.5907 2.22292 35.2705C2.22292 37.9503 7.11084 40.1227 13.1404 40.1227Z" fill="black"/>
<path fill-rule="evenodd" clip-rule="evenodd" d="M19.9683 31.4842C22.4616 32.3734 24.0578 33.7391 24.0578 35.2705C24.0578 35.3004 24.0572 35.3302 24.056 35.3599C24.0128 36.4234 23.1998 37.4033 21.8541 38.1943C19.8611 39.3658 16.6996 40.1227 13.1404 40.1227C9.67705 40.1227 6.59037 39.406 4.59031 38.2881C3.1471 37.4814 2.26967 36.4658 2.22474 35.3599C2.22353 35.3302 2.22292 35.3004 2.22292 35.2705C2.22292 33.7067 3.88741 32.3157 6.47194 31.4284C8.31638 30.7951 10.6294 30.4183 13.1404 30.4183C15.7243 30.4183 18.0985 30.8173 19.9683 31.4842ZM3.37499 40.2777C1.39802 38.9611 0.201172 37.2414 0.201172 35.3599C0.201172 35.3301 0.201473 35.3003 0.202072 35.2705C0.252152 32.7869 2.38767 30.5935 5.64217 29.2499C7.76091 28.3751 10.3539 27.8606 13.1545 27.8606C16.0243 27.8606 18.6761 28.4009 20.823 29.3154C23.9895 30.6641 26.0576 32.8268 26.1069 35.2705C26.1075 35.3003 26.1078 35.3301 26.1078 35.3599C26.1078 37.1864 24.9799 38.8604 23.1053 40.1612C20.7292 41.81 17.1535 42.8592 13.1545 42.8592C9.25048 42.8592 5.74986 41.8593 3.37499 40.2777Z" fill="black"/>
</svg>
