<svg width="170" height="43" fill="none" xmlns="http://www.w3.org/2000/svg"><mask id="a" style="mask-type:luminance" maskUnits="userSpaceOnUse" x="0" y="0" width="170" height="43"><path d="M170 .626H0v41.421h170V.626Z" fill="#fff"/></mask><g mask="url(#a)" fill="#000"><path d="M22.234 19.324h-9.41a2.11 2.11 0 0 0-2.11 2.097c0 1.162.96 2.097 2.127 2.097h9.41a2.11 2.11 0 0 0 2.11-2.097 2.137 2.137 0 0 0-2.127-2.097Z"/><path d="M22.285 26.5c1.168 0 2.126.953 2.126 2.096a2.099 2.099 0 0 1-2.108 2.097H7.75a13.718 13.718 0 0 0 9.986 4.299c7.546 0 13.628-6.084 13.593-13.588 0-.71-.07-1.404-.174-2.08h4.2c.087.676.122 1.37.14 2.08.051 9.792-7.878 17.712-17.724 17.712-8.07 0-14.9-5.32-17.131-12.634h21.644v.017ZM17.58 3.709c8.07 0 14.9 5.32 17.131 12.634H12.788c-1.168 0-2.126-.953-2.126-2.097 0-1.16.94-2.097 2.108-2.097h14.813a13.717 13.717 0 0 0-9.985-4.298c-7.546 0-13.628 6.083-13.594 13.588 0 .728.07 1.42.175 2.114H-.004a17.004 17.004 0 0 1-.14-2.114c-.052-9.81 7.878-17.73 17.724-17.73ZM48.706 20.832c1.917 0 3.416 1.213 3.468 3.12h-6.866c.261-1.96 1.655-3.12 3.398-3.12Zm5.803 6.707h-2.77c-.471.97-1.36 1.716-2.928 1.716-1.9 0-3.346-1.23-3.538-3.276h9.48c.07-.433.087-.832.087-1.248 0-3.622-2.492-6.066-6.03-6.066-3.677 0-6.186 2.479-6.186 6.36 0 3.883 2.631 6.379 6.187 6.379 3.05.017 5.001-1.716 5.698-3.865Zm2.858 3.674h2.562V14.644h-2.562v16.569Zm11.171-10.381c1.917 0 3.416 1.213 3.468 3.12H65.14c.261-1.96 1.656-3.12 3.398-3.12Zm5.804 6.707H71.57c-.47.97-1.36 1.716-2.928 1.716-1.9 0-3.346-1.23-3.538-3.276h9.48c.07-.433.088-.832.088-1.248 0-3.622-2.492-6.066-6.03-6.066-3.677 0-6.187 2.479-6.187 6.36 0 3.883 2.632 6.379 6.187 6.379 3.05.017 5.001-1.716 5.699-3.865Zm20.442 3.674h2.544v-7.279c0-3.449-2.213-5.269-5.106-5.269-1.795 0-3.555.936-4.322 2.444-.854-1.612-2.492-2.444-4.461-2.444-1.482 0-2.841.607-3.677 1.612v-1.404H77.2v12.34h2.561v-6.898c0-2.253 1.238-3.431 3.137-3.431 1.865 0 3.103 1.16 3.103 3.431v6.898h2.544v-6.898c0-2.253 1.237-3.431 3.137-3.431 1.864 0 3.102 1.16 3.102 3.431v6.898Zm11.032-10.381c1.916 0 3.415 1.213 3.467 3.12h-6.866c.278-1.96 1.673-3.12 3.399-3.12Zm5.82 6.707h-2.771c-.47.97-1.359 1.716-2.928 1.716-1.9 0-3.346-1.23-3.537-3.276h9.48a7.61 7.61 0 0 0 .087-1.248c0-3.622-2.492-6.066-6.03-6.066-3.677 0-6.186 2.479-6.186 6.36 0 3.883 2.632 6.379 6.186 6.379 3.032.017 5.002-1.716 5.699-3.865Zm11.659 3.674h2.545v-7.279c0-3.449-2.179-5.269-5.089-5.269-1.482 0-2.858.607-3.695 1.612v-1.404h-2.562v12.34h2.562v-6.898c0-2.253 1.237-3.431 3.136-3.431 1.865 0 3.103 1.16 3.103 3.431v6.898Zm6.204-3.414c0 2.513 1.376 3.431 3.572 3.431h2.022V29.1h-1.568c-1.081 0-1.447-.382-1.447-1.3V20.97h3.015v-2.08h-3.015v-3.084h-2.596v3.067h-1.465v2.08h1.465v6.846h.017Zm19.205-8.926h-2.562v6.88c0 2.254-1.237 3.432-3.136 3.432-1.865 0-3.103-1.16-3.103-3.431v-6.88h-2.545v7.261c0 3.449 2.214 5.269 5.106 5.269 1.465 0 2.859-.607 3.678-1.664v1.473h2.562v-12.34Zm12.634 8.891c-.138-4.454-7.145-3.067-7.145-5.546 0-.832.715-1.386 2.092-1.386 1.394 0 2.231.745 2.317 1.82h2.562c-.14-2.462-1.986-3.97-4.792-3.97-2.928 0-4.775 1.595-4.775 3.553 0 4.524 7.197 3.137 7.197 5.546 0 .85-.784 1.474-2.265 1.474-1.412 0-2.388-.832-2.476-1.837h-2.648c.105 2.235 2.213 3.986 5.176 3.986 2.945.017 4.757-1.56 4.757-3.64Z"/></g></svg>