<svg xmlns="http://www.w3.org/2000/svg" width="125" height="26" fill="none"><g fill="#000" clip-path="url(#a)"><path d="M5.217 15.359h10.458v-4.99H5.217V6.053h11.186v-4.99H0v24.476h16.779v-5.015H5.217v-5.165ZM73.962 1.063l-5.593 8.832-5.593-8.832H39.5v4.99h7.224v14.446H39.05a10.61 10.61 0 0 0 1.028-1.572c.903-1.746 1.38-3.742 1.38-5.913 0-1.771-.326-3.468-.928-4.965-.627-1.522-1.505-2.87-2.609-3.967-1.103-1.123-2.432-1.996-3.962-2.62C32.454.838 30.799.54 29.068.54c-1.756 0-3.41.324-4.916.923a12.176 12.176 0 0 0-3.962 2.62 12.283 12.283 0 0 0-2.609 3.967c-.627 1.522-.928 3.194-.928 4.965 0 1.796.326 3.468.928 4.965.627 1.522 1.505 2.87 2.609 3.967 1.103 1.123 2.432 1.996 3.962 2.62 1.505.624 3.16.923 4.916.923h22.873V6.03h7.75l6.07 9.156V25.49h5.216V15.235l9.355-14.172h-6.37Zm-38.423 14.87c-.326.898-.778 1.697-1.38 2.37a6.729 6.729 0 0 1-2.182 1.622c-.852.4-1.83.6-2.934.6s-2.107-.2-2.96-.6c-.852-.399-1.605-.948-2.181-1.622a6.79 6.79 0 0 1-1.38-2.37 8.71 8.71 0 0 1-.502-2.919 8.71 8.71 0 0 1 .502-2.919c.326-.898.778-1.697 1.38-2.37a6.73 6.73 0 0 1 2.181-1.622c.853-.4 1.856-.599 2.96-.599 1.104 0 2.082.2 2.934.599.853.4 1.606.948 2.182 1.622a6.788 6.788 0 0 1 1.38 2.37 8.71 8.71 0 0 1 .501 2.92 8.71 8.71 0 0 1-.501 2.918Z"/><path d="m98.867 2.56-8.603 19.66h-8.778V2.56h-2.007v21.482h12.115l2.433-5.714h11.437l2.357 5.714h2.257l-9.08-21.482h-2.132Zm-4.064 13.947L99.846 4.73l4.89 11.777h-9.931Zm29.821-.549c-.226-.623-.552-1.172-1.004-1.622a4.878 4.878 0 0 0-1.53-1.097 5.498 5.498 0 0 0-1.956-.5v-.05c1.279-.274 2.257-.798 2.884-1.596.653-.799.979-1.772.979-2.844 0-1.223-.201-2.196-.627-2.92-.427-.748-.954-1.322-1.606-1.721a5.581 5.581 0 0 0-2.232-.823c-.827-.125-1.655-.2-2.458-.2h-6.22v21.482h6.898c.727 0 1.529-.075 2.357-.25.853-.15 1.63-.474 2.358-.898a5.322 5.322 0 0 0 1.805-1.846c.477-.774.728-1.796.728-3.019a6.8 6.8 0 0 0-.376-2.096Zm-7.299-11.577c.627 0 1.229.05 1.806.175.577.125 1.078.324 1.505.624.426.3.777.698 1.028 1.172.251.5.376 1.123.376 1.872 0 .349-.05.723-.175 1.147-.126.425-.376.799-.728 1.173-.376.374-.877.674-1.529.923-.653.25-1.505.374-2.534.374h-4.188l-.025-7.46h4.464Zm5.443 14.995c-.126.474-.402.923-.778 1.348-.376.424-.953.773-1.655 1.073-.728.274-1.681.424-2.859.424h-4.615v-8.558h4.916a6.95 6.95 0 0 1 1.881.25 4.573 4.573 0 0 1 1.655.773 4.2 4.2 0 0 1 1.179 1.372c.301.574.451 1.247.451 2.021.025.4-.05.823-.175 1.297Z"/></g><defs><clipPath id="a"><path fill="#fff" d="M0 .538h125v25H0z"/></clipPath></defs></svg>