<svg width="151" height="42" viewBox="0 0 151 42" fill="none" xmlns="http://www.w3.org/2000/svg">
<path d="M40.0596 23.0321V8.79053H50.242V11.0949H42.7447V14.9148H49.4986V17.2191H42.7447V23.032L40.0596 23.0321Z" fill="#191919"/>
<path fill-rule="evenodd" clip-rule="evenodd" d="M52.9263 10.4267V8.01855H55.4459V10.4267H52.9263ZM52.9263 23.0261V12.1064H55.4459V23.0261H52.9263Z" fill="#191919"/>
<path d="M58.647 23.0281V8.01855H61.167V23.0281H58.647Z" fill="#191919"/>
<path fill-rule="evenodd" clip-rule="evenodd" d="M69.0337 23.2796C67.8774 23.2796 66.9135 23.0753 66.1423 22.6672C65.371 22.2591 64.7928 21.6327 64.4077 20.7885C64.0221 19.9442 63.8291 18.8714 63.8291 17.5706C63.8291 16.2556 64.0221 15.1799 64.4077 14.3422C64.7928 13.5049 65.371 12.8821 66.1423 12.4737C66.9135 12.0659 67.8774 11.8613 69.0337 11.8613C70.0801 11.8613 70.9579 12.0585 71.667 12.4531C72.3763 12.8475 72.9095 13.453 73.2677 14.2695C73.6258 15.0862 73.8051 16.145 73.8051 17.4457V18.1934H66.4109C66.4383 18.8714 66.5416 19.4423 66.7206 19.9062C66.8994 20.37 67.178 20.7153 67.5574 20.9441C67.9356 21.1725 68.4351 21.2863 69.0547 21.2863C69.371 21.2863 69.667 21.2452 69.9426 21.1619C70.2182 21.0788 70.459 20.9512 70.6655 20.7778C70.8719 20.6051 71.0337 20.3871 71.1508 20.1239C71.2676 19.8611 71.3266 19.5566 71.3266 19.2104H73.8051C73.8051 19.9029 73.684 20.5047 73.4436 21.0168C73.2024 21.5288 72.8652 21.9509 72.4316 22.2831C71.9978 22.6151 71.4917 22.8644 70.9135 23.0303C70.335 23.1967 69.7083 23.2796 69.0337 23.2796ZM66.452 16.407H71.1819C71.1819 15.9503 71.1301 15.5631 71.0268 15.2446C70.9236 14.9262 70.7791 14.6634 70.5932 14.4557C70.4072 14.2482 70.1834 14.0993 69.922 14.0095C69.6602 13.9194 69.3645 13.8744 69.0337 13.8744C68.4968 13.8744 68.0458 13.9644 67.6811 14.1443C67.316 14.3244 67.0373 14.601 66.8443 14.9748C66.6517 15.3482 66.5209 15.8259 66.452 16.407Z" fill="#191919"/>
<path d="M80.9944 23.2796C79.8652 23.2796 78.9254 23.0753 78.175 22.6672C77.4245 22.2591 76.8636 21.6327 76.4918 20.7885C76.12 19.9442 75.9341 18.8714 75.9341 17.5706C75.9341 16.2556 76.1235 15.1799 76.5021 14.3422C76.8806 13.5049 77.4454 12.8821 78.1957 12.4737C78.9459 12.0659 79.879 11.8613 80.9944 11.8613C81.7241 11.8613 82.3711 11.9514 82.936 12.1311C83.5003 12.3112 83.9855 12.5848 84.3918 12.9514C84.798 13.318 85.1045 13.7712 85.311 14.3109C85.5177 14.8507 85.6208 15.4809 85.6208 16.2H83.0597C83.0597 15.6884 82.9839 15.2659 82.8326 14.9337C82.6808 14.6017 82.4505 14.3494 82.1408 14.1758C81.831 14.0032 81.4348 13.9165 80.9533 13.9165C80.3884 13.9165 79.9269 14.0482 79.5692 14.3109C79.211 14.5741 78.9459 14.9649 78.774 15.4841C78.6019 16.0032 78.5158 16.6571 78.5158 17.4457V17.7157C78.5158 18.4909 78.6019 19.1413 78.774 19.6674C78.9459 20.1934 79.2182 20.5841 79.5897 20.8402C79.9616 21.0967 80.4501 21.2243 81.0564 21.2243C81.5244 21.2243 81.9132 21.1381 82.2232 20.9647C82.533 20.7917 82.7704 20.5323 82.936 20.1863C83.101 19.8405 83.1835 19.4253 83.1835 18.9409H85.6208C85.6208 19.6191 85.5177 20.2278 85.311 20.7674C85.1045 21.3076 84.8016 21.764 84.4022 22.1379C84.0028 22.5114 83.5172 22.7952 82.9461 22.9889C82.3747 23.1824 81.7241 23.2796 80.9944 23.2796Z" fill="#191919"/>
<path fill-rule="evenodd" clip-rule="evenodd" d="M93.1165 23.2796C91.9321 23.2796 90.9406 23.0753 90.1423 22.6672C89.3436 22.2591 88.7446 21.6327 88.3457 20.7885C87.9458 19.9442 87.7466 18.8714 87.7466 17.5706C87.7466 16.2556 87.9458 15.1799 88.3457 14.3422C88.7446 13.5049 89.3436 12.8821 90.1423 12.4737C90.9406 12.0659 91.9321 11.8613 93.1165 11.8613C94.3146 11.8613 95.309 12.0659 96.1008 12.4737C96.8927 12.8821 97.488 13.5049 97.8873 14.3422C98.2867 15.1799 98.4864 16.2556 98.4864 17.5706C98.4864 18.8714 98.2867 19.9442 97.8873 20.7885C97.488 21.6327 96.8927 22.2591 96.1008 22.6672C95.309 23.0753 94.3146 23.2796 93.1165 23.2796ZM93.1173 21.2043C93.778 21.2043 94.3117 21.0762 94.7178 20.8198C95.1238 20.5641 95.4202 20.1765 95.6062 19.6574C95.7918 19.1383 95.8849 18.4916 95.8849 17.7163V17.4257C95.8849 16.6506 95.7918 16.0037 95.6062 15.4846C95.4202 14.9655 95.1238 14.5783 94.7178 14.3222C94.3117 14.0662 93.778 13.9382 93.1173 13.9382C92.4565 13.9382 91.9225 14.0662 91.5166 14.3222C91.1104 14.5783 90.8142 14.9655 90.6283 15.4846C90.4427 16.0037 90.3496 16.6506 90.3496 17.4257V17.7163C90.3496 18.4916 90.4427 19.1383 90.6283 19.6574C90.8142 20.1765 91.1105 20.5641 91.5166 20.8198C91.9225 21.0762 92.4565 21.2043 93.1173 21.2043Z" fill="#191919"/>
<path fill-rule="evenodd" clip-rule="evenodd" d="M101.15 10.4267V8.01855H103.671V10.4267H101.15ZM101.15 23.0261V12.1064H103.671V23.0261H101.15Z" fill="#191919"/>
<path d="M106.872 23.0303V12.1105H108.978L109.184 13.5638H109.329C109.577 13.2315 109.87 12.9376 110.207 12.6815C110.545 12.4255 110.93 12.2248 111.364 12.0793C111.798 11.934 112.276 11.8613 112.799 11.8613C113.488 11.8613 114.097 11.986 114.627 12.2349C115.157 12.4843 115.574 12.8858 115.877 13.4393C116.18 13.9926 116.331 14.7334 116.331 15.6603V23.0303H113.791V16.1175C113.791 15.7298 113.746 15.4082 113.656 15.1518C113.567 14.8961 113.436 14.6884 113.264 14.5291C113.092 14.3702 112.882 14.2557 112.635 14.1864C112.386 14.1175 112.11 14.0827 111.808 14.0827C111.353 14.0827 110.944 14.1937 110.579 14.4148C110.214 14.6366 109.925 14.9412 109.712 15.3283C109.498 15.716 109.392 16.166 109.392 16.6777V23.0303H106.872Z" fill="#191919"/>
<path d="M40.0596 41.7146V27.4731H50.242V29.7774H42.7447V33.5974H49.4986V35.9017H42.7447V41.7146H40.0596Z" fill="#191919"/>
<path fill-rule="evenodd" clip-rule="evenodd" d="M57.1418 41.9652C55.9575 41.9652 54.966 41.7608 54.1677 41.3526C53.369 40.9446 52.77 40.318 52.3706 39.4739C51.9712 38.6296 51.772 37.5568 51.772 36.2561C51.772 34.9412 51.9712 33.8654 52.3706 33.0276C52.77 32.1904 53.369 31.5674 54.1677 31.1592C54.966 30.7512 55.9575 30.5469 57.1418 30.5469C58.3395 30.5469 59.3344 30.7512 60.1261 31.1592C60.9176 31.5674 61.5131 32.1904 61.9127 33.0276C62.3116 33.8654 62.5118 34.9412 62.5118 36.2561C62.5118 37.5568 62.3116 38.6296 61.9127 39.4739C61.5131 40.318 60.9176 40.9446 60.1261 41.3526C59.3344 41.7608 58.3395 41.9652 57.1418 41.9652ZM57.1425 39.8898C57.8033 39.8898 58.3367 39.7615 58.7432 39.5053C59.1492 39.2493 59.4452 38.8618 59.6311 38.3429C59.8171 37.8238 59.9098 37.177 59.9098 36.4018V36.111C59.9098 35.3362 59.8171 34.689 59.6311 34.1701C59.4452 33.651 59.1492 33.2638 58.7432 33.0074C58.3367 32.7517 57.8033 32.6236 57.1425 32.6236C56.4814 32.6236 55.9479 32.7517 55.542 33.0074C55.1354 33.2638 54.8396 33.651 54.6536 34.1701C54.4676 34.689 54.375 35.3362 54.375 36.111V36.4018C54.375 37.177 54.4676 37.8238 54.6536 38.3429C54.8396 38.8618 55.1354 39.2493 55.542 39.5053C55.9479 39.7615 56.4814 39.8898 57.1425 39.8898Z" fill="#191919"/>
<path d="M68.6226 41.9633C67.5762 41.9633 66.7259 41.6761 66.0719 41.1016C65.4177 40.5275 65.0908 39.5484 65.0908 38.1639V30.7939H67.6104V37.7074C67.6104 38.0951 67.6552 38.4167 67.7448 38.6724C67.8344 38.9287 67.965 39.1363 68.1372 39.2954C68.3092 39.4547 68.5193 39.569 68.7673 39.638C69.0152 39.7072 69.2903 39.7416 69.5936 39.7416C70.0479 39.7416 70.4571 39.6309 70.8223 39.4097C71.187 39.1883 71.4762 38.8802 71.6897 38.486C71.9029 38.0915 72.0098 37.645 72.0098 37.1467V30.7939H74.5294V41.714H72.4436L72.237 40.2607H72.0927C71.8446 40.5929 71.552 40.8871 71.2149 41.143C70.8772 41.3994 70.4918 41.5999 70.0582 41.7452C69.6242 41.8902 69.1458 41.9633 68.6226 41.9633Z" fill="#191919"/>
<path d="M77.7314 41.7139V30.7938H79.8384L80.0451 32.2474H80.1894C80.437 31.9151 80.7294 31.6212 81.0671 31.3648C81.4044 31.109 81.79 30.9083 82.2238 30.7629C82.6574 30.6176 83.1358 30.5449 83.6595 30.5449C84.3477 30.5449 84.9567 30.6694 85.4872 30.9185C86.0167 31.1679 86.4335 31.5694 86.7365 32.1227C87.0395 32.6761 87.191 33.417 87.191 34.3439V41.7139H84.6505V34.8009C84.6505 34.4134 84.6057 34.0918 84.5163 33.8354C84.4267 33.5797 84.2958 33.372 84.1241 33.2127C83.9514 33.0538 83.7416 32.9393 83.494 32.87C83.2464 32.8011 82.9704 32.7662 82.6678 32.7662C82.2137 32.7662 81.8038 32.8773 81.4391 33.0984C81.0742 33.3202 80.7849 33.6245 80.5715 34.0119C80.358 34.3995 80.2516 34.8496 80.2516 35.3613V41.7139H77.7314Z" fill="#191919"/>
<path fill-rule="evenodd" clip-rule="evenodd" d="M94.0864 41.9668C93.2054 41.9668 92.4409 41.7657 91.7939 41.3647C91.1464 40.9633 90.6478 40.3405 90.2966 39.4963C89.9456 38.6522 89.77 37.5653 89.77 36.2365C89.77 34.922 89.9488 33.846 90.307 33.0085C90.6649 32.1712 91.1606 31.5521 91.7939 31.1503C92.4272 30.7492 93.1432 30.5485 93.9421 30.5485C94.4378 30.5485 94.892 30.6037 95.305 30.7144C95.7181 30.8256 96.0828 30.9945 96.3999 31.2233C96.7165 31.4517 96.9849 31.7318 97.2054 32.0638H97.3293V26.708H99.8489V41.7175H97.7629L97.5564 40.2643H97.4118C97.0674 40.8321 96.6028 41.2577 96.0179 41.5412C95.4321 41.8246 94.7887 41.9668 94.0864 41.9668ZM94.8719 39.7857C95.4504 39.7857 95.9183 39.6543 96.2765 39.3911C96.6343 39.1283 96.8993 38.7477 97.0716 38.2494C97.2435 37.7509 97.3298 37.142 97.3298 36.4224V36.1527C97.3298 35.6125 97.2814 35.1284 97.1851 34.6994C97.0884 34.2703 96.9406 33.9103 96.7413 33.6196C96.5412 33.3287 96.2866 33.1079 95.9768 32.9554C95.667 32.8033 95.2987 32.7271 94.8719 32.7271C94.2523 32.7271 93.7597 32.8484 93.395 33.0905C93.0301 33.3326 92.7685 33.7064 92.6105 34.2113C92.452 34.7169 92.373 35.3568 92.373 36.1316V36.4224C92.373 37.1838 92.452 37.8133 92.6105 38.3114C92.7685 38.8097 93.0301 39.1804 93.395 39.4223C93.7597 39.6645 94.2523 39.7857 94.8719 39.7857Z" fill="#191919"/>
<path fill-rule="evenodd" clip-rule="evenodd" d="M105.84 41.9652C105.538 41.9652 105.19 41.9267 104.798 41.8509C104.405 41.7747 104.026 41.6327 103.662 41.4251C103.297 41.2175 102.997 40.9097 102.763 40.5013C102.528 40.0936 102.412 39.5566 102.412 38.8924C102.412 38.1452 102.577 37.5261 102.908 37.0345C103.238 36.5431 103.703 36.1554 104.302 35.8716C104.901 35.5881 105.616 35.3874 106.45 35.27C107.283 35.1523 108.195 35.0932 109.187 35.0932V34.2007C109.187 33.8823 109.138 33.5986 109.042 33.3497C108.945 33.1003 108.77 32.9032 108.515 32.7575C108.26 32.6124 107.878 32.5397 107.368 32.5397C106.859 32.5397 106.46 32.6018 106.17 32.7267C105.882 32.8512 105.682 33.0036 105.572 33.1833C105.461 33.3634 105.406 33.5504 105.406 33.7437V34.0344H102.969C102.956 33.9654 102.949 33.8961 102.949 33.8269V33.5777C102.949 32.9551 103.135 32.4153 103.507 31.9585C103.879 31.5018 104.395 31.1524 105.056 30.9103C105.716 30.6681 106.481 30.5469 107.348 30.5469C108.339 30.5469 109.155 30.6851 109.796 30.9621C110.436 31.2391 110.915 31.6335 111.231 32.1453C111.547 32.6574 111.706 33.2802 111.706 34.0138V39.1626C111.706 39.4253 111.782 39.6122 111.933 39.7228C112.085 39.834 112.249 39.8892 112.429 39.8892H113.09V41.6327C112.952 41.6882 112.752 41.7539 112.491 41.8301C112.229 41.9059 111.905 41.9441 111.52 41.9441C111.162 41.9441 110.842 41.8853 110.559 41.7676C110.277 41.6506 110.04 41.4807 109.847 41.2591C109.654 41.0378 109.517 40.7746 109.434 40.4701H109.31C109.076 40.7608 108.797 41.0204 108.474 41.2487C108.15 41.4771 107.772 41.6538 107.338 41.7782C106.904 41.9027 106.404 41.9652 105.84 41.9652ZM106.605 39.8872C107.018 39.8872 107.386 39.8248 107.71 39.7003C108.033 39.5758 108.302 39.4025 108.515 39.1812C108.729 38.9598 108.894 38.6901 109.011 38.3715C109.128 38.0532 109.187 37.7073 109.187 37.3335V36.835C108.43 36.835 107.731 36.8837 107.091 36.9808C106.45 37.0776 105.94 37.2575 105.562 37.5205C105.183 37.7837 104.994 38.157 104.994 38.6415C104.994 38.8904 105.052 39.1085 105.169 39.2953C105.287 39.4821 105.465 39.6276 105.706 39.7315C105.947 39.8352 106.247 39.8872 106.605 39.8872Z" fill="#191919"/>
<path d="M117.922 41.9606C117.248 41.9606 116.718 41.8255 116.332 41.5556C115.946 41.2858 115.674 40.9401 115.516 40.5176C115.358 40.0954 115.278 39.6631 115.278 39.22V32.8674H113.978V30.7912H115.34L115.794 27.7397H117.799V30.7912H119.678V32.8674H117.799V38.9711C117.799 39.2616 117.874 39.4869 118.026 39.6457C118.177 39.805 118.404 39.8846 118.708 39.8846H119.678V41.6282C119.54 41.6837 119.371 41.7352 119.172 41.7839C118.972 41.8326 118.762 41.874 118.542 41.9088C118.322 41.9428 118.115 41.9606 117.922 41.9606Z" fill="#191919"/>
<path fill-rule="evenodd" clip-rule="evenodd" d="M122.052 29.1161V26.708H124.572V29.1161H122.052ZM122.052 41.7158V30.7958H124.572V41.7158H122.052Z" fill="#191919"/>
<path fill-rule="evenodd" clip-rule="evenodd" d="M132.606 41.9652C131.421 41.9652 130.43 41.7608 129.632 41.3526C128.833 40.9446 128.234 40.318 127.835 39.4739C127.435 38.6296 127.236 37.5568 127.236 36.2561C127.236 34.9412 127.435 33.8654 127.835 33.0276C128.234 32.1904 128.833 31.5674 129.632 31.1592C130.43 30.7512 131.421 30.5469 132.606 30.5469C133.804 30.5469 134.799 30.7512 135.591 31.1592C136.383 31.5674 136.978 32.1904 137.377 33.0276C137.777 33.8654 137.976 34.9412 137.976 36.2561C137.976 37.5568 137.777 38.6296 137.377 39.4739C136.978 40.318 136.383 40.9446 135.591 41.3526C134.799 41.7608 133.804 41.9652 132.606 41.9652ZM132.607 39.8898C133.267 39.8898 133.801 39.7615 134.207 39.5053C134.613 39.2493 134.91 38.8618 135.096 38.3429C135.282 37.8238 135.374 37.177 135.374 36.4018V36.111C135.374 35.3362 135.282 34.689 135.096 34.1701C134.91 33.651 134.613 33.2638 134.207 33.0074C133.801 32.7517 133.267 32.6236 132.607 32.6236C131.946 32.6236 131.412 32.7517 131.006 33.0074C130.6 33.2638 130.304 33.651 130.118 34.1701C129.932 34.689 129.84 35.3362 129.84 36.111V36.4018C129.84 37.177 129.932 37.8238 130.118 38.3429C130.304 38.8618 130.6 39.2493 131.006 39.5053C131.412 39.7615 131.946 39.8898 132.607 39.8898Z" fill="#191919"/>
<path d="M140.639 41.7139V30.7938H142.745L142.952 32.2474H143.096C143.344 31.9151 143.636 31.6212 143.974 31.3648C144.311 31.109 144.697 30.9083 145.131 30.7629C145.564 30.6176 146.042 30.5449 146.567 30.5449C147.254 30.5449 147.864 30.6694 148.394 30.9185C148.924 31.1679 149.34 31.5694 149.643 32.1227C149.946 32.6761 150.097 33.417 150.097 34.3439V41.7139H147.557V34.8009C147.557 34.4134 147.512 34.0918 147.423 33.8354C147.333 33.5797 147.202 33.372 147.031 33.2127C146.858 33.0538 146.648 32.9393 146.4 32.87C146.153 32.8011 145.877 32.7662 145.575 32.7662C145.121 32.7662 144.71 32.8773 144.346 33.0984C143.981 33.3202 143.692 33.6245 143.478 34.0119C143.265 34.3995 143.158 34.8496 143.158 35.3613V41.7139H140.639Z" fill="#191919"/>
<path d="M24.0478 0.875488C23.3722 0.875488 21.3001 0.875488 18.8035 3.25401C16.4747 5.47284 15.1831 9.40667 14.8419 10.5639L14.8215 10.6359L14.5648 11.4928C12.3487 11.5108 10.5874 12.1867 9.96352 12.5443C7.92863 13.5564 4.19445 16.8178 4.62462 21.9167C5.05142 26.9774 8.58066 29.6123 10.4297 30.3197C10.1223 31.7231 9.74055 33.1007 9.33515 34.5605L9.22254 34.962C8.89141 36.0744 8.46297 37.1555 7.94215 38.1929C7.28338 39.5076 6.08857 40.0283 5.54804 40.1205C4.9343 40.2476 4.4467 40.1858 4.10886 39.9451C3.98416 39.8513 3.8799 39.7331 3.80245 39.5978C3.72501 39.4625 3.676 39.3128 3.65842 39.1579C3.50076 37.8668 2.69898 37.1808 2.23052 37.0503C1.60552 36.8895 1.09201 36.9604 0.702378 37.2606C0.515932 37.4166 0.365382 37.6108 0.261014 37.8301C0.156648 38.0495 0.100926 38.2887 0.0976562 38.5314C0.0976562 41.0055 3.12014 41.6803 4.71471 41.6938C5.39039 41.6938 7.46243 41.6938 9.95902 39.3153C12.2776 37.1066 13.7112 33.0176 14.1571 31.1271C19.5625 31.0811 22.4488 27.5542 23.2212 25.6975C23.809 24.6393 24.6852 21.7378 23.7674 18.3292C22.8609 14.9499 19.8013 12.9435 18.2674 12.334L18.718 10.637L18.7281 10.5943C18.9533 9.72606 19.1931 8.85112 19.4285 8.00768L19.5411 7.6062C19.872 6.49372 20.3005 5.41255 20.8215 4.37523C21.4802 3.06058 22.6751 2.53989 23.2156 2.44768C23.8305 2.32509 24.3135 2.38694 24.6525 2.63211C24.7786 2.72519 24.8841 2.84305 24.9628 2.97845C25.0413 3.11384 25.0914 3.26388 25.1097 3.41933C25.2685 4.71036 26.0691 5.39636 26.5376 5.52682C27.1627 5.68763 27.6762 5.61678 28.0658 5.31652C28.2522 5.16065 28.4027 4.96641 28.5071 4.74709C28.6115 4.52777 28.6672 4.28853 28.6705 4.04573C28.6671 1.56374 25.6446 0.886734 24.0478 0.875488ZM13.9736 13.9455L10.9624 27.8433C9.04799 26.8907 5.9433 23.8353 7.4399 18.8263C7.85431 17.3182 9.75294 14.3718 13.9736 13.9455ZM21.6638 22.7478C20.6729 27.4373 16.8553 28.6485 14.826 28.6485H14.7236L17.7641 14.645C21.8192 17.0101 22.0906 20.9731 21.6638 22.7478Z" fill="#191919"/>
</svg>
