<svg width="100" height="100" viewBox="0 0 100 100" fill="none" xmlns="http://www.w3.org/2000/svg">
<path fill-rule="evenodd" clip-rule="evenodd" d="M18.4627 8.25137C18.4627 3.69426 22.157 0 26.7141 0L73.2883 0C77.8454 0 81.5396 3.69426 81.5396 8.25136V9.53284C81.5396 13.2403 84.5451 16.2457 88.2525 16.2457H91.7486C96.3057 16.2457 100 19.94 100 24.4971L100 71.0713C100 75.6284 96.3057 79.3227 91.7486 79.3227H88.2525C84.5451 79.3227 81.5396 82.3281 81.5396 86.0356V91.7486C81.5396 96.3057 77.8454 100 73.2883 100H26.7141C22.157 100 18.4627 96.3057 18.4627 91.7486V86.0356C18.4627 82.3281 15.4573 79.3227 11.7498 79.3227H8.25136C3.69426 79.3227 -1.83399e-07 75.6284 0 71.0713L1.77286e-06 24.4971C1.95625e-06 19.94 3.69426 16.2457 8.25137 16.2457L11.7498 16.2457C15.4573 16.2457 18.4627 13.2403 18.4627 9.53284V8.25137ZM26.7141 1.53846C23.0067 1.53846 20.0012 4.54393 20.0012 8.25137V9.53284C20.0012 14.0899 16.3069 17.7842 11.7498 17.7842H8.25137C4.54393 17.7842 1.53846 20.7897 1.53846 24.4971L1.53846 71.0713C1.53846 74.7787 4.54393 77.7842 8.25136 77.7842H11.7498C16.3069 77.7842 20.0012 81.4785 20.0012 86.0356V91.7486C20.0012 95.456 23.0067 98.4615 26.7141 98.4615H73.2883C76.9957 98.4615 80.0012 95.456 80.0012 91.7486V86.0356C80.0012 81.4785 83.6954 77.7842 88.2525 77.7842H91.7486C95.4561 77.7842 98.4615 74.7787 98.4615 71.0713L98.4615 24.4971C98.4615 20.7897 95.4561 17.7842 91.7486 17.7842H88.2525C83.6954 17.7842 80.0012 14.0899 80.0012 9.53284V8.25136C80.0012 4.54393 76.9957 1.53846 73.2883 1.53846L26.7141 1.53846Z" fill="#1A1A1A"/>
<path d="M20.169 49.5446L20.1172 43.5662H28.0654V45.4496H22.398L22.3807 48.7153H27.7544V50.495H22.3807L22.4325 55.5404H20.1172L20.169 49.5446Z" fill="#1A1A1A"/>
<path d="M29.4813 50.9442L29.4295 46.3826C29.8211 46.4287 30.1782 46.4517 30.5008 46.4517C30.8233 46.4517 31.1804 46.4287 31.572 46.3826L31.5375 50.9442L31.572 55.5404H29.4295L29.4813 50.9442ZM29.2394 44.3783C29.2394 44.0097 29.3431 43.7332 29.5504 43.5489C29.7578 43.3646 30.0803 43.2725 30.518 43.2725C30.9443 43.2725 31.261 43.3646 31.4684 43.5489C31.6757 43.7332 31.7794 44.0097 31.7794 44.3783C31.7794 44.7584 31.6757 45.0407 31.4684 45.225C31.2725 45.3977 30.9558 45.4841 30.518 45.4841C30.0803 45.4841 29.7578 45.3977 29.5504 45.225C29.3431 45.0407 29.2394 44.7584 29.2394 44.3783Z" fill="#1A1A1A"/>
<path d="M33.5648 49.4582L33.5129 43.5489H35.6555L35.6209 49.4582L35.6555 55.5404H33.5129L33.5648 49.4582Z" fill="#1A1A1A"/>
<path d="M41.5187 55.7995C40.6202 55.7995 39.8311 55.6037 39.1515 55.2121C38.4834 54.8204 37.965 54.2617 37.5964 53.536C37.2393 52.7988 37.0607 51.9464 37.0607 50.9788C37.0607 49.4928 37.4466 48.3179 38.2184 47.4539C38.9902 46.59 40.05 46.158 41.3977 46.158C42.8491 46.158 43.8974 46.6533 44.5424 47.644C45.199 48.6231 45.5273 49.896 45.5273 51.4626L39.2206 51.4799C39.2897 52.3208 39.5316 52.9716 39.9463 53.4324C40.3725 53.8816 40.9081 54.1062 41.5532 54.1062C42.0946 54.1062 42.5439 53.9277 42.901 53.5706C43.2696 53.2135 43.5115 52.7297 43.6267 52.1192L45.4755 52.603C45.3142 53.49 44.8938 54.2445 44.2141 54.8665C43.546 55.4885 42.6475 55.7995 41.5187 55.7995ZM43.4539 50.063C43.4308 49.3834 43.2408 48.842 42.8837 48.4388C42.5381 48.0356 42.0543 47.834 41.4323 47.834C40.8563 47.834 40.3783 48.0184 39.9981 48.387C39.618 48.7556 39.3761 49.3143 39.2724 50.063H43.4539Z" fill="#1A1A1A"/>
<path d="M50.9017 55.7995C49.9917 55.7995 49.1969 55.6037 48.5172 55.2121C47.8376 54.8204 47.3135 54.2617 46.9449 53.536C46.5762 52.8103 46.3919 51.9579 46.3919 50.9788C46.3919 49.9996 46.5705 49.1472 46.9276 48.4215C47.2962 47.6843 47.8146 47.1199 48.4827 46.7282C49.1623 46.3366 49.9514 46.1407 50.8499 46.1407C51.9787 46.1407 52.8887 46.4402 53.5799 47.0392C54.271 47.6382 54.6915 48.41 54.8412 49.3546L52.9406 49.8557C52.8369 49.2221 52.6065 48.7325 52.2494 48.387C51.8923 48.0414 51.4373 47.8686 50.8844 47.8686C50.1702 47.8686 49.6 48.1393 49.1738 48.6807C48.7591 49.2106 48.5518 49.9766 48.5518 50.9788C48.5518 51.9579 48.7591 52.7182 49.1738 53.2596C49.6 53.801 50.1702 54.0717 50.8844 54.0717C51.4258 54.0717 51.8751 53.8989 52.2322 53.5533C52.6008 53.2077 52.8369 52.7124 52.9406 52.0673L54.8412 52.5684C54.6915 53.513 54.2768 54.2905 53.5972 54.901C52.9175 55.5 52.019 55.7995 50.9017 55.7995Z" fill="#1A1A1A"/>
<path d="M59.9444 55.7995C59.0574 55.7995 58.2741 55.6037 57.5945 55.2121C56.9264 54.8204 56.408 54.2617 56.0394 53.536C55.6823 52.7988 55.5038 51.9406 55.5038 50.9615C55.5038 49.9824 55.6823 49.13 56.0394 48.4042C56.408 47.6785 56.9264 47.1199 57.5945 46.7282C58.2626 46.3366 59.0459 46.1407 59.9444 46.1407C60.8544 46.1407 61.6435 46.3366 62.3116 46.7282C62.9912 47.1199 63.5153 47.6785 63.884 48.4042C64.2526 49.13 64.4369 49.9824 64.4369 50.9615C64.4369 51.9406 64.2526 52.7988 63.884 53.536C63.5153 54.2617 62.9912 54.8204 62.3116 55.2121C61.632 55.6037 60.8429 55.7995 59.9444 55.7995ZM57.6463 50.9615C57.6463 51.9406 57.8479 52.7009 58.2511 53.2423C58.6658 53.7837 59.236 54.0544 59.9617 54.0544C60.6874 54.0544 61.2576 53.7837 61.6723 53.2423C62.087 52.7009 62.2943 51.9406 62.2943 50.9615C62.2943 49.9939 62.087 49.2451 61.6723 48.7153C61.2576 48.1739 60.6874 47.9032 59.9617 47.9032C59.236 47.9032 58.6658 48.1739 58.2511 48.7153C57.8479 49.2451 57.6463 49.9939 57.6463 50.9615Z" fill="#1A1A1A"/>
<path d="M65.8949 50.9442L65.8431 46.3826C66.2347 46.4287 66.5918 46.4517 66.9144 46.4517C67.2369 46.4517 67.594 46.4287 67.9856 46.3826L67.9511 50.9442L67.9856 55.5404H65.8431L65.8949 50.9442ZM65.653 44.3783C65.653 44.0097 65.7567 43.7332 65.964 43.5489C66.1714 43.3646 66.4939 43.2725 66.9316 43.2725C67.3578 43.2725 67.6746 43.3646 67.882 43.5489C68.0893 43.7332 68.193 44.0097 68.193 44.3783C68.193 44.7584 68.0893 45.0407 67.882 45.225C67.6861 45.3977 67.3694 45.4841 66.9316 45.4841C66.4939 45.4841 66.1714 45.3977 65.964 45.225C65.7567 45.0407 65.653 44.7584 65.653 44.3783Z" fill="#1A1A1A"/>
<path d="M69.9784 51.1343L69.9265 46.3826H72.0691L72.0345 47.7131H72.0691C72.311 47.2408 72.6854 46.8607 73.1922 46.5727C73.7106 46.2847 74.3038 46.1407 74.9719 46.1407C75.9971 46.1407 76.7689 46.446 77.2873 47.0565C77.8056 47.667 78.0648 48.6231 78.0648 49.9248V51.1343L78.0994 55.5404H75.9741L76.0086 51.1343V50.1667C76.0086 49.441 75.8474 48.8938 75.5248 48.5252C75.2023 48.1451 74.7588 47.955 74.1944 47.955C73.5723 47.955 73.054 48.1911 72.6393 48.6634C72.2361 49.1357 72.0345 49.752 72.0345 50.5123V51.1343L72.0691 55.5404H69.9265L69.9784 51.1343Z" fill="#1A1A1A"/>
<path d="M81.0625 46.0957L83.3433 46.1129L83.3087 43.8667H85.0539L85.0366 46.1129L87.3001 46.0957V47.7371L85.0366 47.7199L85.0539 49.9315H83.3087L83.3433 47.7199L81.0625 47.7371V46.0957Z" fill="#1A1A1A"/>
</svg>
