<svg xmlns="http://www.w3.org/2000/svg" width="80" height="41" fill="none"><g fill="#191919" clip-path="url(#a)"><path d="M39.916 25.193a6.233 6.233 0 0 0-8.994-.045 6.227 6.227 0 0 0-1.86 4.525 6.344 6.344 0 0 0 10.03 5.197 6.265 6.265 0 0 0 2.317-3.104h-1.65a4.157 4.157 0 0 1-1.704 2.096 4.829 4.829 0 0 1-2.664.78 4.599 4.599 0 0 1-3.22-1.315c-.944-.876-1.445-1.91-1.506-3.104h11.101c0-.058.004-.133.01-.222 0-.09.013-.173.013-.223a6.381 6.381 0 0 0-1.873-4.585Zm-9.251 3.642a4.918 4.918 0 0 1 1.617-2.987 4.751 4.751 0 0 1 6.274 0 5.046 5.046 0 0 1 1.622 2.987h-9.513Zm22.045-5.27-4.146 9.719-3.878-9.719h-1.649l4.747 11.792-2.117 4.686h1.628l7.07-16.472-1.654-.006Zm25.06 1.583a6.147 6.147 0 0 0-4.503-1.896 6.02 6.02 0 0 0-4.502 1.917 6.346 6.346 0 0 0-1.86 4.572c0 1.709.629 3.187 1.884 4.435a6.38 6.38 0 0 0 10.863-4.525 6.147 6.147 0 0 0-1.883-4.503Zm-1.035 8.014a4.493 4.493 0 0 1-3.449 1.483 4.559 4.559 0 0 1-3.41-1.46 4.828 4.828 0 0 1-1.404-3.467 5.058 5.058 0 0 1 1.393-3.555 4.483 4.483 0 0 1 3.421-1.506 4.569 4.569 0 0 1 3.399 1.46 4.815 4.815 0 0 1 1.415 3.467 5.084 5.084 0 0 1-1.376 3.578h.01ZM21.21 29.353l6.668-5.787h-2.295l-5.625 4.895v-7.587c-.485.442-1.004.846-1.552 1.207v13.622h1.552v-5.466l6.111 5.461h2.197l-7.056-6.345Zm38.004 0 6.666-5.787h-2.292l-5.623 4.895v-9.573h-1.552v16.81h1.552v-5.46l6.108 5.46h2.197l-7.056-6.345Zm-42.926-7.681-.248.116c-.09.04-.173.079-.27.115l-.253.105h-.022l-.241.09-.047.016-.188.067-.105.034-.252.078c-.095.03-.19.057-.286.083l-.288.079-.292.066a11.564 11.564 0 0 1-4.561.06c-.098-.02-.196-.038-.294-.06l-.282-.066-.269-.07c-.02 0-.04-.013-.062-.016-.074-.023-.148-.042-.22-.066l-.062-.019a4.632 4.632 0 0 1-.19-.058c-.064-.021-.122-.038-.183-.062-.327-.113-.65-.24-.964-.382l-.248-.115 9.827.005Zm3.662-2.792a10.07 10.07 0 0 1-.356.392c-.059.062-.117.122-.173.183-.124.124-.251.248-.382.367l-.195.172a9.252 9.252 0 0 1-.405.34H4.32l-.164-.133-.041-.034a4.59 4.59 0 0 1-.2-.173c-.066-.06-.131-.112-.195-.172a12.858 12.858 0 0 1-.384-.367 2.942 2.942 0 0 1-.173-.183 13.48 13.48 0 0 1-.36-.395l17.147.003Zm1.87-2.969c-.019.052-.041.102-.063.152-.052.115-.107.23-.163.345v.012c-.056.114-.115.227-.172.345-.057.117-.122.226-.186.345-.062.103-.124.207-.188.31l-.01.015H1.725l-.01-.015a11.21 11.21 0 0 1-.785-1.5l20.89-.009Zm.73-2.383c0 .021 0 .04-.01.059a6.822 6.822 0 0 1-.086.393 7.63 7.63 0 0 1-.158.614l-.057.184H.507a6.445 6.445 0 0 1-.056-.184c-.017-.062-.037-.126-.053-.19a7.632 7.632 0 0 1-.107-.424c-.014-.052-.022-.102-.034-.153-.02-.08-.035-.16-.05-.24l-.01-.059h22.352Zm.193-1.805v.05c0 .07 0 .14-.01.208-.01.07 0 .09 0 .133 0 .081 0 .162-.016.241a11.41 11.41 0 0 1-.062.56.362.362 0 0 1 0 .048H.105a.379.379 0 0 1 0-.047 6.124 6.124 0 0 1-.065-.56c0-.035 0-.068-.009-.102-.008-.035 0-.093-.01-.14-.01-.046 0-.088 0-.133 0-.044 0-.138-.01-.208v-.05h22.732Zm.005-.303H0a11.38 11.38 0 0 1 22.748 0Z"/></g><defs><clipPath id="a"><path fill="#fff" d="M0 .038h79.655v40H0z"/></clipPath></defs></svg>