<svg xmlns="http://www.w3.org/2000/svg" xmlns:xlink="http://www.w3.org/1999/xlink" viewBox="0 0 120 41">
<style type="text/css">
	.st0{clip-path:url(#SVGID_00000140733846673699083360000013184066260846268857_);}
	.st1{fill:#191919;}
</style>
<g>
	<defs>
		<rect id="SVGID_1_" x="20.3" y="0.5" width="79.7" height="40"/>
	</defs>
	<clipPath id="SVGID_00000072989454835767183700000000496565151023395214_">
		<use xlink:href="#SVGID_1_"  style="overflow:visible;"/>
	</clipPath>
	<g style="clip-path:url(#SVGID_00000072989454835767183700000000496565151023395214_);">
		<path class="st1" d="M60.2,25.7c-2.4-2.5-6.3-2.6-8.8-0.2c-0.1,0.1-0.1,0.1-0.2,0.2c-1.2,1.2-1.9,2.8-1.9,4.5
			c0,3.5,2.8,6.4,6.3,6.4c1.3,0,2.6-0.4,3.7-1.2c1.1-0.8,1.9-1.9,2.3-3.1H60c-0.3,0.9-0.9,1.6-1.7,2.1c-0.8,0.5-1.7,0.8-2.7,0.8
			c-1.2,0-2.4-0.5-3.2-1.3c-0.9-0.9-1.4-1.9-1.5-3.1H62c0-0.1,0-0.1,0-0.2c0-0.1,0-0.2,0-0.2C62.1,28.5,61.4,26.9,60.2,25.7z
			 M50.9,29.3c0.2-1.2,0.7-2.2,1.6-3c1.8-1.6,4.5-1.6,6.3,0c0.9,0.8,1.4,1.8,1.6,3H50.9z M73,24l-4.1,9.7L65,24h-1.6l4.7,11.8
			l-2.1,4.7h1.6L74.6,24L73,24L73,24z M98,25.6c-1.2-1.2-2.8-1.9-4.5-1.9c-1.7,0-3.3,0.7-4.5,1.9c-1.2,1.2-1.9,2.9-1.9,4.6
			c0,1.7,0.6,3.2,1.9,4.4c2.5,2.5,6.5,2.5,9-0.1c1.2-1.2,1.8-2.8,1.8-4.5C99.9,28.4,99.3,26.8,98,25.6L98,25.6z M97,33.6
			c-0.9,1-2.1,1.5-3.4,1.5c-1.3,0-2.5-0.5-3.4-1.5c-0.9-0.9-1.4-2.2-1.4-3.5c0-1.3,0.5-2.6,1.4-3.6c0.9-1,2.1-1.5,3.4-1.5
			c1.3,0,2.5,0.5,3.4,1.5c0.9,0.9,1.4,2.2,1.4,3.5C98.4,31.4,97.9,32.7,97,33.6L97,33.6L97,33.6z M41.5,29.8l6.7-5.8h-2.3l-5.6,4.9
			v-7.6c-0.5,0.4-1,0.8-1.6,1.2v13.6h1.6v-5.5l6.1,5.5h2.2C48.5,36.2,41.5,29.8,41.5,29.8z M79.5,29.8l6.7-5.8h-2.3l-5.6,4.9v-9.6
			h-1.6v16.8h1.6v-5.5l6.1,5.5h2.2C86.5,36.2,79.5,29.8,79.5,29.8z M36.6,22.1l-0.2,0.1c-0.1,0-0.2,0.1-0.3,0.1l-0.3,0.1h0l-0.2,0.1
			l0,0l-0.2,0.1l-0.1,0l-0.3,0.1c-0.1,0-0.2,0.1-0.3,0.1l-0.3,0.1L34.1,23c-1.5,0.3-3.1,0.3-4.6,0.1c-0.1,0-0.2,0-0.3-0.1l-0.3-0.1
			l-0.3-0.1c0,0,0,0-0.1,0c-0.1,0-0.1,0-0.2-0.1l-0.1,0c-0.1,0-0.1,0-0.2-0.1c-0.1,0-0.1,0-0.2-0.1c-0.3-0.1-0.6-0.2-1-0.4l-0.2-0.1
			C26.7,22.1,36.6,22.1,36.6,22.1z M40.2,19.3c-0.1,0.1-0.2,0.3-0.4,0.4c-0.1,0.1-0.1,0.1-0.2,0.2c-0.1,0.1-0.3,0.2-0.4,0.4
			l-0.2,0.2c-0.1,0.1-0.3,0.2-0.4,0.3H24.6l-0.2-0.1l0,0c-0.1-0.1-0.1-0.1-0.2-0.2c-0.1-0.1-0.1-0.1-0.2-0.2
			c-0.1-0.1-0.3-0.2-0.4-0.4c-0.1-0.1-0.1-0.1-0.2-0.2c-0.1-0.1-0.2-0.3-0.4-0.4C23.1,19.3,40.2,19.3,40.2,19.3z M42.1,16.4
			c0,0.1,0,0.1-0.1,0.2c-0.1,0.1-0.1,0.2-0.2,0.3v0c-0.1,0.1-0.1,0.2-0.2,0.3c-0.1,0.1-0.1,0.2-0.2,0.3c-0.1,0.1-0.1,0.2-0.2,0.3
			l0,0H22l0,0c-0.3-0.5-0.6-1-0.8-1.5C21.2,16.4,42.1,16.4,42.1,16.4z M42.8,14C42.8,14,42.8,14,42.8,14c0,0.2-0.1,0.3-0.1,0.5
			c0,0.2-0.1,0.4-0.2,0.6l-0.1,0.2H20.8c0-0.1,0-0.1-0.1-0.2c0-0.1,0-0.1-0.1-0.2c0-0.1-0.1-0.3-0.1-0.4c0-0.1,0-0.1,0-0.2
			c0-0.1,0-0.2,0-0.2l0-0.1L42.8,14L42.8,14z M43,12.2L43,12.2c0,0.1,0,0.2,0,0.3c0,0.1,0,0.1,0,0.1c0,0.1,0,0.2,0,0.2
			c0,0.2,0,0.4-0.1,0.6c0,0,0,0,0,0H20.4c0,0,0,0,0,0c0-0.2-0.1-0.4-0.1-0.6c0,0,0-0.1,0-0.1c0,0,0-0.1,0-0.1c0,0,0-0.1,0-0.1
			c0,0,0-0.1,0-0.2v-0.1C20.3,12.2,43,12.2,43,12.2z M43,11.9H20.3c0.2-6.3,5.5-11.2,11.7-11C38,1.1,42.8,5.9,43,11.9z"/>
	</g>
</g>
</svg>
