<svg width="150" height="67" viewBox="0 0 150 67" fill="none" xmlns="http://www.w3.org/2000/svg">
<path d="M21.81 15.228H23.322V25.56H29.928V27H21.81V15.228ZM34.4007 22.356H38.5227L36.7767 17.37L36.5787 16.362H36.3447L36.1467 17.37L34.4007 22.356ZM33.9327 23.778L32.7987 27H31.1967L35.2647 15.228H37.6407L41.7267 27H40.1247L38.9907 23.778H33.9327ZM44.2829 15.228V22.95C44.2829 24.786 45.2909 25.812 47.0729 25.812C48.8369 25.812 49.8089 24.786 49.8089 22.95V15.228H51.3389V23.148C51.3389 25.542 49.5569 27.27 47.0729 27.27C44.5169 27.27 42.7709 25.596 42.7709 23.148V15.228H44.2829ZM53.5062 27V15.228H57.4482C60.5262 15.228 62.6682 17.676 62.6682 21.168C62.6682 24.66 60.5622 27 57.4482 27H53.5062ZM55.0182 25.542H57.2502C59.7522 25.542 61.1562 23.94 61.1562 21.078C61.1562 18.252 59.7702 16.65 57.2502 16.65H55.0182V25.542ZM72.3883 23.958C72.3883 25.974 70.8403 27.306 68.5363 27.306C66.3763 27.306 64.8643 26.19 64.2523 23.922L65.6563 23.616C66.1243 25.074 67.1323 25.956 68.4643 25.956C69.8683 25.956 70.8583 25.164 70.8583 24.048C70.8583 22.752 69.5983 22.356 68.0143 21.96C65.9623 21.456 64.3603 20.592 64.3603 18.45C64.3603 16.398 65.8543 15.066 68.2123 15.066C70.2823 15.066 71.7583 16.092 72.2983 18.198L70.9123 18.522C70.5703 17.154 69.5623 16.434 68.2843 16.434C66.7903 16.434 65.8723 17.226 65.8723 18.342C65.8723 19.656 67.0423 20.106 68.6083 20.484C70.7143 21.042 72.3883 21.816 72.3883 23.958ZM74.2561 27V15.228H78.5761C80.8801 15.228 82.5001 16.74 82.5001 18.864C82.5001 20.952 80.8981 22.356 78.5761 22.356H75.7681V27H74.2561ZM75.7681 20.934H78.3961C80.0521 20.934 80.9701 20.16 80.9701 18.81C80.9701 17.424 80.0701 16.65 78.3961 16.65H75.7681V20.934ZM84.2531 15.228H92.2451V16.668H85.7651V20.412H92.0651V21.852H85.7651V25.56H92.2451V27H84.2531V15.228ZM96.7032 22.356H100.825L99.0792 17.37L98.8812 16.362H98.6472L98.4492 17.37L96.7032 22.356ZM96.2352 23.778L95.1012 27H93.4992L97.5672 15.228H99.9432L104.029 27H102.427L101.293 23.778H96.2352ZM105.653 15.246H107.165V21.06L112.511 15.228H114.491L109.685 20.646L114.491 27H112.457L108.479 21.672L107.165 22.914V27H105.653V15.246ZM116.108 15.228H124.1V16.668H117.62V20.412H123.92V21.852H117.62V25.56H124.1V27H116.108V15.228ZM125.894 27V15.228H130.358C132.644 15.228 134.138 16.866 134.138 18.99C134.138 20.7 133.148 21.942 131.492 22.284L134.138 27H132.482L129.926 22.482H127.406V27H125.894ZM127.406 21.042H130.16C131.798 21.042 132.608 20.286 132.608 18.936C132.608 17.55 131.816 16.65 130.16 16.65H127.406V21.042ZM21.81 39.228H23.322V49.56H29.928V51H21.81V39.228ZM32.0119 45.114C32.0119 48.138 33.2719 49.848 35.3599 49.848C37.4659 49.848 38.7079 48.138 38.7079 45.114C38.7079 42.126 37.4659 40.326 35.3599 40.326C33.2719 40.326 32.0119 42.126 32.0119 45.114ZM30.4819 45.114C30.4819 41.226 32.4079 38.94 35.3599 38.94C38.0599 38.94 40.2379 41.226 40.2379 45.114C40.2379 49.02 38.3119 51.252 35.3599 51.252C32.4079 51.252 30.4819 49.02 30.4819 45.114ZM46.4229 45.096H51.3729V50.982H49.9869L50.4009 47.814L50.0769 47.76C49.6809 49.794 48.3129 51.252 46.3149 51.252C43.8129 51.252 41.8149 49.092 41.8149 45.33C41.8149 41.28 43.7949 39.066 46.5849 39.066C48.8169 39.066 50.5809 40.452 51.3189 43.008L49.8609 43.314C49.3749 41.46 48.3129 40.452 46.6749 40.452C44.6049 40.452 43.3449 42.144 43.3449 45.168C43.3449 48.174 44.7669 49.848 46.7109 49.848C48.4929 49.848 49.8609 48.552 49.8609 46.464H46.4229V45.096ZM54.4845 45.114C54.4845 48.138 55.7445 49.848 57.8325 49.848C59.9385 49.848 61.1805 48.138 61.1805 45.114C61.1805 42.126 59.9385 40.326 57.8325 40.326C55.7445 40.326 54.4845 42.126 54.4845 45.114ZM52.9545 45.114C52.9545 41.226 54.8805 38.94 57.8325 38.94C60.5325 38.94 62.7105 41.226 62.7105 45.114C62.7105 49.02 60.7845 51.252 57.8325 51.252C54.8805 51.252 52.9545 49.02 52.9545 45.114Z" fill="black"/>
<rect x="0.5" y="0.5" width="149" height="66" stroke="black"/>
</svg>
