<svg width="150" height="39" viewBox="0 0 150 39" fill="none" xmlns="http://www.w3.org/2000/svg">
<g clip-path="url(#clip0_1436_3854)">
<path fill-rule="evenodd" clip-rule="evenodd" d="M23.6293 23.7379C23.6293 29.1275 19.28 33.4967 13.915 33.4967C8.54992 33.4967 4.20068 29.1275 4.20068 23.7379C4.20068 18.3482 8.54992 13.979 13.915 13.979C19.28 13.979 23.6293 18.3482 23.6293 23.7379ZM8.40178 22.4192C8.70811 21.2763 9.97708 18.8322 12.6026 18.1992V19.5179C11.7712 19.7377 10.0296 20.6784 9.71453 22.683L8.40178 22.4192ZM14.9655 29.5405C17.7551 28.8704 19.1033 26.2825 19.4288 25.0723L18.034 24.793C17.6993 26.9155 15.8489 27.9115 14.9655 28.1442V29.5405ZM6.30134 21.7599C6.60764 20.2653 8.16542 17.0387 11.9461 16.0892L12.0774 17.408C10.8959 17.6717 8.2967 18.9641 7.35152 22.0236L6.30134 21.7599ZM15.6274 31.6505C19.58 30.6376 21.2086 27.1959 21.5288 25.6015L20.4309 25.3202C19.4428 28.5837 16.7254 29.9625 15.4902 30.2438L15.6274 31.6505ZM16.2781 23.7379C16.2781 25.0489 15.2202 26.1117 13.9151 26.1117C12.6101 26.1117 11.5522 25.0489 11.5522 23.7379C11.5522 22.4269 12.6101 21.3641 13.9151 21.3641C15.2202 21.3641 16.2781 22.4269 16.2781 23.7379Z" fill="#191919"/>
<path d="M4.4629 34.5512C5.0427 34.5512 5.51272 34.079 5.51272 33.4965C5.51272 32.9141 5.0427 32.4419 4.4629 32.4419C3.8831 32.4419 3.41309 32.9141 3.41309 33.4965C3.41309 34.079 3.8831 34.5512 4.4629 34.5512Z" fill="#191919"/>
<path d="M23.3667 34.5512C23.9465 34.5512 24.4165 34.079 24.4165 33.4965C24.4165 32.9141 23.9465 32.4419 23.3667 32.4419C22.7869 32.4419 22.3169 32.9141 22.3169 33.4965C22.3169 34.079 22.7869 34.5512 23.3667 34.5512Z" fill="#191919"/>
<path d="M23.3667 5.53798C23.9465 5.53798 24.4165 5.0658 24.4165 4.48334C24.4165 3.90089 23.9465 3.42871 23.3667 3.42871C22.7869 3.42871 22.3169 3.90089 22.3169 4.48334C22.3169 5.0658 22.7869 5.53798 23.3667 5.53798Z" fill="#191919"/>
<path fill-rule="evenodd" clip-rule="evenodd" d="M17.0658 7.91259C17.0658 9.66058 15.6552 11.0776 13.9152 11.0776C12.1752 11.0776 10.7646 9.66058 10.7646 7.91259C10.7646 6.16459 12.1752 4.74756 13.9152 4.74756C15.6552 4.74756 17.0658 6.16459 17.0658 7.91259ZM14.9647 7.91231C14.9647 8.49477 14.4947 8.96694 13.9149 8.96694C13.3351 8.96694 12.865 8.49477 12.865 7.91231C12.865 7.32985 13.3351 6.85768 13.9149 6.85768C14.4947 6.85768 14.9647 7.32985 14.9647 7.91231Z" fill="#191919"/>
<path d="M24.5932 0.619141H2.97359C1.67326 0.619141 0.619141 1.67326 0.619141 2.97359V35.006C0.619141 36.3064 1.67326 37.3605 2.97359 37.3605H24.5932C25.8935 37.3605 26.9476 36.3064 26.9476 35.006V2.97359C26.9476 1.67326 25.8935 0.619141 24.5932 0.619141Z" stroke="#191919" stroke-width="1.23919"/>
<path d="M35.3601 13.5073V27.2623H32.7578V13.5073H35.3601ZM37.262 22.0763C37.262 21.0354 37.4665 20.1122 37.8754 19.3067C38.2967 18.5012 38.8606 17.8816 39.5669 17.4479C40.2856 17.0142 41.0849 16.7974 41.9647 16.7974C42.733 16.7974 43.4022 16.9523 43.9722 17.2621C44.5546 17.5719 45.0193 17.9622 45.3663 18.4331V16.9647H47.9871V27.2623H45.3663V25.7567C45.0317 26.24 44.567 26.6427 43.9722 26.9649C43.3898 27.2747 42.7144 27.4296 41.9461 27.4296C41.0787 27.4296 40.2856 27.2065 39.5669 26.7604C38.8606 26.3143 38.2967 25.6885 37.8754 24.883C37.4665 24.0652 37.262 23.1296 37.262 22.0763ZM45.3663 22.1135C45.3663 21.4815 45.2424 20.9424 44.9945 20.4963C44.7467 20.0378 44.4121 19.6909 43.9908 19.4554C43.5695 19.2076 43.1172 19.0837 42.6339 19.0837C42.1506 19.0837 41.7045 19.2014 41.2955 19.4368C40.8866 19.6723 40.552 20.0192 40.2918 20.4777C40.044 20.9238 39.9201 21.4567 39.9201 22.0763C39.9201 22.6959 40.044 23.2411 40.2918 23.712C40.552 24.1705 40.8866 24.5237 41.2955 24.7715C41.7169 25.0194 42.163 25.1433 42.6339 25.1433C43.1172 25.1433 43.5695 25.0256 43.9908 24.7901C44.4121 24.5423 44.7467 24.1953 44.9945 23.7492C45.2424 23.2907 45.3663 22.7455 45.3663 22.1135ZM60.2501 16.9647V27.2623H57.6293V25.9611C57.2947 26.4072 56.8548 26.7604 56.3095 27.0206C55.7767 27.2685 55.1943 27.3924 54.5623 27.3924C53.7568 27.3924 53.0443 27.2251 52.4247 26.8905C51.8051 26.5436 51.3156 26.0417 50.9562 25.3849C50.6093 24.7158 50.4358 23.9227 50.4358 23.0057V16.9647H53.0381V22.6339C53.0381 23.4518 53.2425 24.0838 53.6515 24.5299C54.0604 24.9636 54.618 25.1804 55.3244 25.1804C56.0431 25.1804 56.6069 24.9636 57.0159 24.5299C57.4248 24.0838 57.6293 23.4518 57.6293 22.6339V16.9647H60.2501ZM62.1486 22.0763C62.1486 21.0354 62.353 20.1122 62.762 19.3067C63.1833 18.5012 63.7533 17.8816 64.472 17.4479C65.1908 17.0142 65.99 16.7974 66.8699 16.7974C67.539 16.7974 68.1772 16.9461 68.7844 17.2435C69.3916 17.5285 69.8749 17.9126 70.2342 18.3959V13.5073H72.8737V27.2623H70.2342V25.7381C69.9121 26.2461 69.4598 26.6551 68.8773 26.9649C68.2949 27.2747 67.6196 27.4296 66.8513 27.4296C65.9838 27.4296 65.1908 27.2065 64.472 26.7604C63.7533 26.3143 63.1833 25.6885 62.762 24.883C62.353 24.0652 62.1486 23.1296 62.1486 22.0763ZM70.2528 22.1135C70.2528 21.4815 70.1289 20.9424 69.8811 20.4963C69.6332 20.0378 69.2987 19.6909 68.8773 19.4554C68.456 19.2076 68.0037 19.0837 67.5204 19.0837C67.0371 19.0837 66.591 19.2014 66.1821 19.4368C65.7732 19.6723 65.4386 20.0192 65.1784 20.4777C64.9305 20.9238 64.8066 21.4567 64.8066 22.0763C64.8066 22.6959 64.9305 23.2411 65.1784 23.712C65.4386 24.1705 65.7732 24.5237 66.1821 24.7715C66.6034 25.0194 67.0495 25.1433 67.5204 25.1433C68.0037 25.1433 68.456 25.0256 68.8773 24.7901C69.2987 24.5423 69.6332 24.1953 69.8811 23.7492C70.1289 23.2907 70.2528 22.7455 70.2528 22.1135ZM79.3559 27.4296C78.5132 27.4296 77.7573 27.2809 77.0882 26.9835C76.419 26.6737 75.8862 26.2585 75.4896 25.7381C75.1055 25.2176 74.8948 24.6414 74.8576 24.0094H77.4785C77.5281 24.406 77.7202 24.7343 78.0547 24.9946C78.4017 25.2548 78.8292 25.3849 79.3373 25.3849C79.833 25.3849 80.2171 25.2858 80.4897 25.0875C80.7748 24.8892 80.9173 24.6352 80.9173 24.3254C80.9173 23.9908 80.7438 23.743 80.3968 23.5819C80.0622 23.4084 79.5232 23.2225 78.7797 23.0243C78.0114 22.8384 77.3794 22.6463 76.8837 22.448C76.4004 22.2498 75.9791 21.9462 75.6197 21.5372C75.2728 21.1283 75.0993 20.5769 75.0993 19.8829C75.0993 19.3129 75.2604 18.7925 75.5826 18.3216C75.9171 17.8507 76.388 17.4789 76.9952 17.2063C77.6148 16.9337 78.3398 16.7974 79.17 16.7974C80.3968 16.7974 81.3758 17.1072 82.1069 17.7268C82.838 18.334 83.2407 19.158 83.3151 20.1989H80.8243C80.7871 19.79 80.6137 19.4678 80.3039 19.2324C80.0065 18.9845 79.6037 18.8606 79.0957 18.8606C78.6248 18.8606 78.2592 18.9473 77.999 19.1208C77.7511 19.2943 77.6272 19.536 77.6272 19.8458C77.6272 20.1927 77.8007 20.4592 78.1477 20.645C78.4947 20.8185 79.0337 20.9982 79.7648 21.1841C80.5083 21.37 81.1217 21.562 81.605 21.7603C82.0883 21.9586 82.5034 22.2684 82.8504 22.6897C83.2098 23.0986 83.3956 23.6439 83.408 24.3254C83.408 24.9202 83.2407 25.4531 82.9062 25.924C82.584 26.3949 82.1131 26.7666 81.4935 27.0392C80.8863 27.2995 80.1737 27.4296 79.3559 27.4296ZM88.1464 18.4517C88.481 17.9808 88.9395 17.5904 89.5219 17.2806C90.1167 16.9585 90.7921 16.7974 91.548 16.7974C92.4278 16.7974 93.2209 17.0142 93.9272 17.4479C94.6459 17.8816 95.2098 18.5012 95.6187 19.3067C96.04 20.0998 96.2507 21.023 96.2507 22.0763C96.2507 23.1296 96.04 24.0652 95.6187 24.883C95.2098 25.6885 94.6459 26.3143 93.9272 26.7604C93.2209 27.2065 92.4278 27.4296 91.548 27.4296C90.7921 27.4296 90.1229 27.2747 89.5405 26.9649C88.9705 26.6551 88.5058 26.2647 88.1464 25.7938V32.1695H85.5441V16.9647H88.1464V18.4517ZM93.5926 22.0763C93.5926 21.4567 93.4625 20.9238 93.2023 20.4777C92.9545 20.0192 92.6199 19.6723 92.1986 19.4368C91.7896 19.2014 91.3435 19.0837 90.8602 19.0837C90.3893 19.0837 89.9432 19.2076 89.5219 19.4554C89.113 19.6909 88.7784 20.0378 88.5182 20.4963C88.2703 20.9548 88.1464 21.4939 88.1464 22.1135C88.1464 22.7331 88.2703 23.2721 88.5182 23.7306C88.7784 24.1891 89.113 24.5423 89.5219 24.7901C89.9432 25.0256 90.3893 25.1433 90.8602 25.1433C91.3435 25.1433 91.7896 25.0194 92.1986 24.7715C92.6199 24.5237 92.9545 24.1705 93.2023 23.712C93.4625 23.2535 93.5926 22.7083 93.5926 22.0763ZM107.714 21.8904C107.714 22.2622 107.69 22.5967 107.64 22.8942H100.112C100.174 23.6377 100.434 24.2201 100.893 24.6414C101.351 25.0627 101.915 25.2734 102.584 25.2734C103.551 25.2734 104.238 24.8583 104.647 24.028H107.454C107.157 25.0194 106.587 25.8372 105.744 26.4816C104.901 27.1136 103.867 27.4296 102.64 27.4296C101.649 27.4296 100.756 27.2127 99.9633 26.779C99.1826 26.3329 98.5692 25.7071 98.1231 24.9016C97.6894 24.0962 97.4725 23.1668 97.4725 22.1135C97.4725 21.0478 97.6894 20.1122 98.1231 19.3067C98.5568 18.5012 99.164 17.8816 99.9447 17.4479C100.725 17.0142 101.624 16.7974 102.64 16.7974C103.619 16.7974 104.493 17.008 105.261 17.4293C106.041 17.8507 106.642 18.4517 107.064 19.2324C107.498 20.0007 107.714 20.8867 107.714 21.8904ZM105.019 21.1469C105.007 20.4777 104.765 19.9449 104.294 19.5484C103.823 19.1394 103.247 18.935 102.566 18.935C101.921 18.935 101.376 19.1332 100.93 19.5298C100.496 19.9139 100.23 20.453 100.131 21.1469H105.019ZM108.945 22.0763C108.945 21.0354 109.149 20.1122 109.558 19.3067C109.979 18.5012 110.543 17.8816 111.25 17.4479C111.968 17.0142 112.768 16.7974 113.647 16.7974C114.416 16.7974 115.085 16.9523 115.655 17.2621C116.237 17.5719 116.702 17.9622 117.049 18.4331V16.9647H119.67V27.2623H117.049V25.7567C116.714 26.24 116.25 26.6427 115.655 26.9649C115.072 27.2747 114.397 27.4296 113.629 27.4296C112.761 27.4296 111.968 27.2065 111.25 26.7604C110.543 26.3143 109.979 25.6885 109.558 24.883C109.149 24.0652 108.945 23.1296 108.945 22.0763ZM117.049 22.1135C117.049 21.4815 116.925 20.9424 116.677 20.4963C116.429 20.0378 116.095 19.6909 115.673 19.4554C115.252 19.2076 114.8 19.0837 114.317 19.0837C113.833 19.0837 113.387 19.2014 112.978 19.4368C112.569 19.6723 112.235 20.0192 111.974 20.4777C111.727 20.9238 111.603 21.4567 111.603 22.0763C111.603 22.6959 111.727 23.2411 111.974 23.712C112.235 24.1705 112.569 24.5237 112.978 24.7715C113.4 25.0194 113.846 25.1433 114.317 25.1433C114.8 25.1433 115.252 25.0256 115.673 24.7901C116.095 24.5423 116.429 24.1953 116.677 23.7492C116.925 23.2907 117.049 22.7455 117.049 22.1135ZM128.308 27.2623L124.814 22.8756V27.2623H122.212V13.5073H124.814V21.3328L128.271 16.9647H131.654L127.119 22.1321L131.691 27.2623H128.308ZM142.639 21.8904C142.639 22.2622 142.614 22.5967 142.565 22.8942H135.037C135.099 23.6377 135.359 24.2201 135.817 24.6414C136.276 25.0627 136.84 25.2734 137.509 25.2734C138.475 25.2734 139.163 24.8583 139.572 24.028H142.379C142.081 25.0194 141.511 25.8372 140.669 26.4816C139.826 27.1136 138.791 27.4296 137.565 27.4296C136.573 27.4296 135.681 27.2127 134.888 26.779C134.107 26.3329 133.494 25.7071 133.048 24.9016C132.614 24.0962 132.397 23.1668 132.397 22.1135C132.397 21.0478 132.614 20.1122 133.048 19.3067C133.482 18.5012 134.089 17.8816 134.869 17.4479C135.65 17.0142 136.549 16.7974 137.565 16.7974C138.544 16.7974 139.417 17.008 140.186 17.4293C140.966 17.8507 141.567 18.4517 141.989 19.2324C142.422 20.0007 142.639 20.8867 142.639 21.8904ZM139.944 21.1469C139.931 20.4777 139.69 19.9449 139.219 19.5484C138.748 19.1394 138.172 18.935 137.49 18.935C136.846 18.935 136.301 19.1332 135.855 19.5298C135.421 19.9139 135.154 20.453 135.055 21.1469H139.944ZM147.141 18.5632C147.475 18.018 147.909 17.5904 148.442 17.2806C148.987 16.9708 149.607 16.8159 150.301 16.8159V19.5484H149.613C148.795 19.5484 148.176 19.7404 147.754 20.1246C147.345 20.5087 147.141 21.1779 147.141 22.1321V27.2623H144.539V16.9647H147.141V18.5632Z" fill="#191919"/>
<path d="M4.4629 5.53798C5.0427 5.53798 5.51272 5.0658 5.51272 4.48334C5.51272 3.90089 5.0427 3.42871 4.4629 3.42871C3.8831 3.42871 3.41309 3.90089 3.41309 4.48334C3.41309 5.0658 3.8831 5.53798 4.4629 5.53798Z" fill="#F5F5F5"/>
</g>
<defs>
<clipPath id="clip0_1436_3854">
<rect width="150" height="38.0137" fill="white"/>
</clipPath>
</defs>
</svg>

