<svg width="97" height="37" viewBox="0 0 97 37" fill="none" xmlns="http://www.w3.org/2000/svg">
<path d="M35.2681 3.59424V15.3148C35.2681 15.9142 34.9783 16.2036 34.378 16.2036H31.7494C31.1492 16.2036 30.8594 15.9142 30.8594 15.3148V4.15236C30.8594 3.69759 30.6318 3.47021 30.2178 3.47021H28.3136C28.148 3.47021 28.0652 3.57357 28.0652 3.73893V15.3148C28.0652 15.9142 27.7755 16.2036 27.1752 16.2036H24.5466C23.9464 16.2036 23.6566 15.9142 23.6566 15.3148V3.73893C23.6566 3.57357 23.5738 3.47021 23.4083 3.47021H21.1108C20.9245 3.47021 20.8417 3.57357 20.8417 3.73893V15.3148C20.8417 15.9142 20.552 16.2036 19.9517 16.2036H15.7087C15.1085 16.2036 14.8187 15.9142 14.8187 15.3148V9.81625C14.8187 9.48552 14.9015 9.19612 15.0671 8.94807L16.2675 7.129C16.4538 6.86028 16.5366 6.55021 16.5366 6.21947V1.58914C16.5366 1.01034 16.8264 0.720947 17.4266 0.720947H32.3911C34.316 0.720947 35.2681 1.67182 35.2681 3.59424Z" fill="#1A1A1A"/>
<path d="M50.3694 3.59424V13.3304C50.3694 15.2528 49.4174 16.2036 47.4925 16.2036H40.8485C38.9236 16.2036 37.9715 15.2528 37.9715 13.3304V3.59424C37.9715 1.67182 38.9236 0.720947 40.8485 0.720947H47.4925C49.4174 0.720947 50.3694 1.67182 50.3694 3.59424ZM46.085 3.44954H43.7048C43.2494 3.44954 43.0218 3.73894 43.0218 4.3384V12.5448C43.0218 13.1443 43.2494 13.4337 43.7048 13.4337H46.0022C46.5197 13.4337 46.7887 13.1443 46.7887 12.5448V4.3384C46.7887 3.73894 46.5404 3.44954 46.085 3.44954Z" fill="#1A1A1A"/>
<path d="M65.4699 3.59424V13.3304C65.4699 15.2528 64.5178 16.2036 62.5929 16.2036H55.9489C54.0241 16.2036 53.072 15.2528 53.072 13.3304V3.59424C53.072 1.67182 54.0241 0.720947 55.9489 0.720947H62.5929C64.5178 0.720947 65.4699 1.67182 65.4699 3.59424ZM61.1855 3.44954H58.8052C58.3499 3.44954 58.1222 3.73894 58.1222 4.3384V12.5448C58.1222 13.1443 58.3499 13.4337 58.8052 13.4337H61.1027C61.6201 13.4337 61.8892 13.1443 61.8892 12.5448V4.3384C61.8892 3.73894 61.6408 3.44954 61.1855 3.44954Z" fill="#1A1A1A"/>
<path d="M81.6466 3.59424V15.3148C81.6466 15.9142 81.3568 16.2036 80.7566 16.2036H78.1073C77.5278 16.2036 77.238 15.9142 77.238 15.3148V4.15236C77.238 3.69759 77.0103 3.47021 76.5964 3.47021H74.1333C73.9471 3.47021 73.8643 3.57357 73.8643 3.73893V15.3148C73.8643 15.9142 73.5745 16.2036 72.9743 16.2036H68.7312C68.131 16.2036 67.8412 15.9142 67.8412 15.3148V9.81625C67.8412 9.48552 67.924 9.19612 68.0896 8.94807L69.2901 7.129C69.4764 6.86028 69.5592 6.55021 69.5592 6.21947V1.58914C69.5592 1.01034 69.8489 0.720947 70.4492 0.720947H78.7696C80.6945 0.720947 81.6466 1.67182 81.6466 3.59424Z" fill="#1A1A1A"/>
<path d="M5.90785 22.2603V33.2987C5.90785 33.6708 6.09413 33.8361 6.46669 33.8361H10.0267C10.3579 33.8361 10.5234 34.0222 10.5234 34.3736V36.1926C10.5234 36.5441 10.3579 36.7714 10.0474 36.8748H3.94157C1.8718 36.8748 0.836914 35.8619 0.836914 33.7948V22.2603C0.836914 21.6815 1.12668 21.3921 1.72691 21.3921H5.01785C5.61809 21.3921 5.90785 21.6815 5.90785 22.2603Z" fill="#1A1A1A"/>
<path d="M25.4609 22.9424V35.9859C25.4609 36.5854 25.1918 36.8748 24.5916 36.8748H22.232C21.6318 36.8748 21.342 36.5854 21.342 35.9859V31.9551C21.342 31.769 21.2386 31.645 21.0316 31.645H18.4237C18.2167 31.645 18.1339 31.7484 18.1339 31.9344V35.9859C18.1339 36.5854 17.8441 36.8748 17.2439 36.8748H13.0009C12.4006 36.8748 12.1109 36.5854 12.1109 35.9859V31.3556C12.1109 31.0249 12.1937 30.7355 12.3592 30.5081L13.5804 28.689C13.746 28.4203 13.7874 28.1102 13.8288 27.7795V26.5392C13.8288 26.0845 13.9944 25.6504 14.3048 25.2369L16.4574 22.343C16.9127 21.7228 17.5337 21.3921 18.3616 21.3921H23.9293C24.9641 21.3921 25.4609 21.8882 25.4609 22.9424ZM20.8453 24.4101H19.5413C19.2309 24.4101 19.0446 24.5548 18.8997 24.8028L18.3409 25.671C18.196 25.8777 18.1339 26.1051 18.1339 26.3118V28.689C18.1339 28.8957 18.2167 28.9784 18.403 28.9784H21.0316C21.2386 28.9784 21.342 28.8957 21.342 28.689V25.0096C21.342 24.6168 21.1765 24.4101 20.8453 24.4101Z" fill="#1A1A1A"/>
<path d="M41.6418 24.2654V35.9859C41.6418 36.5854 41.352 36.8748 40.7518 36.8748H38.1025C37.523 36.8748 37.2332 36.5854 37.2332 35.9859V24.8235C37.2332 24.3687 37.0055 24.1414 36.5916 24.1414H34.1285C33.9423 24.1414 33.8595 24.2447 33.8595 24.4101V35.9859C33.8595 36.5854 33.5697 36.8748 32.9695 36.8748H28.7264C28.1262 36.8748 27.8364 36.5854 27.8364 35.9859V30.4874C27.8364 30.1567 27.9192 29.8673 28.0848 29.6192L29.2853 27.8002C29.4715 27.5314 29.5543 27.2214 29.5543 26.8906V22.2603C29.5543 21.6815 29.8441 21.3921 30.4443 21.3921H38.7648C40.6897 21.3921 41.6418 22.343 41.6418 24.2654Z" fill="#1A1A1A"/>
<path d="M57.2523 24.2447V32.1618C57.2523 32.7612 57.0867 33.1747 56.7762 33.4641L53.8785 36.1513C53.3404 36.6474 52.6988 36.8748 51.995 36.8748H45.5373C44.8129 36.8748 44.4404 36.5027 44.4404 35.7586V22.2603C44.4404 21.6815 44.7301 21.3921 45.3304 21.3921H54.2511C56.2381 21.3921 57.2523 22.343 57.2523 24.2447ZM50.8981 24.4101H48.8904C48.6627 24.4101 48.5592 24.5341 48.5592 24.7202V33.4434C48.5592 33.7121 48.6627 33.8361 48.8904 33.8361H50.6497C50.9188 33.8361 51.1878 33.7121 51.3948 33.4641L51.9329 32.8026C52.0778 32.5959 52.1399 32.3478 52.1399 32.0584V25.5263C52.1399 24.8028 51.726 24.4101 50.8981 24.4101Z" fill="#1A1A1A"/>
<path d="M65.4377 22.2603V35.9859C65.4377 36.5854 65.1479 36.8748 64.5684 36.8748H60.3047C59.7045 36.8748 59.4147 36.5854 59.4147 35.9859V30.4874C59.4147 30.1567 59.4975 29.8673 59.6631 29.6192L60.8842 27.8002C61.0498 27.5314 61.1119 27.2214 61.1533 26.8906V22.2603C61.1533 21.6815 61.4431 21.3921 62.0433 21.3921H64.5684C65.1479 21.3921 65.4377 21.6815 65.4377 22.2603Z" fill="#1A1A1A"/>
<path d="M81.7081 24.2654V35.9859C81.7081 36.5854 81.4183 36.8748 80.8181 36.8748H78.1688C77.5892 36.8748 77.2995 36.5854 77.2995 35.9859V24.8235C77.2995 24.3687 77.0718 24.1414 76.6578 24.1414H74.1948C74.0085 24.1414 73.9257 24.2447 73.9257 24.4101V35.9859C73.9257 36.5854 73.636 36.8748 73.0357 36.8748H68.7927C68.1925 36.8748 67.9027 36.5854 67.9027 35.9859V30.4874C67.9027 30.1567 67.9855 29.8673 68.1511 29.6192L69.3515 27.8002C69.5378 27.5314 69.6206 27.2214 69.6206 26.8906V22.2603C69.6206 21.6815 69.9104 21.3921 70.5106 21.3921H78.8311C80.756 21.3921 81.7081 22.343 81.7081 24.2654Z" fill="#1A1A1A"/>
<path d="M94.6278 21.9089V23.8933C94.6278 24.2447 94.4829 24.4101 94.1311 24.4101H89.5155C89.2878 24.4101 89.1843 24.5341 89.1843 24.7408V33.5054C89.1843 33.7328 89.2878 33.8361 89.5155 33.8361H91.8336C92.0199 33.8361 92.1027 33.7328 92.1027 33.5261V30.26C92.1027 29.6606 92.3924 29.3712 92.9927 29.3712H95.3315C95.9318 29.3712 96.2215 29.6606 96.2215 30.26V36.0273C96.2215 36.5854 95.9318 36.8748 95.3729 36.8748H86.4315C85.1482 36.8748 84.5066 36.296 84.5066 35.1591V25.1749C84.5066 24.8442 84.5894 24.5548 84.755 24.3067L86.3694 21.8882C86.5764 21.5575 86.8661 21.3921 87.218 21.3921H94.1311C94.4829 21.3921 94.6278 21.5575 94.6278 21.9089Z" fill="#1A1A1A"/>
</svg>
