<svg width="94" height="34" viewBox="0 0 94 34" fill="none" xmlns="http://www.w3.org/2000/svg">
<path fill-rule="evenodd" clip-rule="evenodd" d="M1.82042 0.742353C2.77238 -0.209691 4.30928 -0.209691 5.24977 0.742353L5.74296 1.23558C5.915 1.40764 5.915 1.68293 5.74296 1.85498L3.87344 3.71319C3.17381 4.41288 2.04981 4.41288 1.36164 3.71319C0.662005 3.01349 0.662005 1.88939 1.36164 1.20117L1.82042 0.742353ZM9.23048 1.81335C6.51223 1.81335 4.29863 4.02714 4.29863 6.74562V9.57881C4.29863 12.2973 6.51223 14.5111 9.23048 14.5111H11.5129C14.2311 14.5111 16.4447 12.2973 16.4447 9.57881V2.04275C16.4447 1.91658 16.3415 1.81335 16.2154 1.81335H9.23048ZM11.3064 5.42653C9.96452 5.42653 8.87493 6.51621 8.87493 7.85825V8.51206C8.87493 9.49852 9.66632 10.29 10.6527 10.29C11.6391 10.29 12.4304 9.49852 12.4304 8.51206V5.87387C12.4304 5.63299 12.2355 5.438 11.9946 5.438H11.3064V5.42653ZM89.5 15.6222C90.4405 14.6701 91.9774 14.6701 92.9294 15.6222L93.3881 16.0924C94.0878 16.7807 94.0878 17.9048 93.3881 18.6045C92.7 19.3042 91.576 19.3042 90.8763 18.6045L89.0068 16.7348C88.8348 16.5627 88.8348 16.2874 89.0068 16.1154L89.5 15.6222ZM42.812 29.7002C40.0938 29.7002 37.8802 27.4864 37.8802 24.7679V21.9348C37.8802 19.2163 40.0938 17.0025 42.812 17.0025H45.0944C47.8127 17.0025 50.0263 19.2163 50.0263 21.9348V29.4708C50.0263 29.597 49.9231 29.7002 49.7969 29.7002H42.812ZM44.888 26.087C43.5461 26.087 42.4565 24.9974 42.4565 23.6553V23.0015C42.4565 22.015 43.2479 21.2236 44.2342 21.2236C45.2206 21.2236 46.012 22.015 46.012 23.0015V25.6397C46.012 25.8806 45.817 26.0756 45.5762 26.0756H44.888V26.087ZM78.2527 24.7679C78.2527 27.4864 80.4663 29.7002 83.1846 29.7002H90.1694C90.2956 29.7002 90.3988 29.5969 90.3988 29.4708V21.9347C90.3988 19.2162 88.1852 17.0024 85.467 17.0024H83.1846C80.4663 17.0024 78.2527 19.2162 78.2527 21.9347V24.7679ZM82.829 23.6553C82.829 24.9973 83.9186 26.087 85.2605 26.087V26.0755H85.9487C86.1896 26.0755 86.3845 25.8805 86.3845 25.6396V23.0014C86.3845 22.015 85.5931 21.2235 84.6068 21.2235C83.6204 21.2235 82.829 22.015 82.829 23.0014V23.6553ZM29.9061 6.74545C29.9061 4.02697 27.6925 1.81318 24.9743 1.81318H17.9894C17.8632 1.81318 17.76 1.91641 17.76 2.04259V9.57864C17.76 9.80805 17.7715 10.026 17.8059 10.2439V17.4588C17.8059 17.585 17.9091 17.6882 18.0353 17.6882H19.0675C20.6503 17.6882 21.9349 16.4035 21.9349 14.8206V14.4536C22.1872 14.488 22.4395 14.5109 22.6918 14.5109H24.9743C27.6925 14.5109 29.9061 12.2971 29.9061 9.57864V6.74545ZM25.5477 7.85808C25.5477 6.51605 24.4581 5.42636 23.1162 5.42636H22.428C22.1872 5.42636 21.9922 5.62135 21.9922 5.86223V8.50043C21.9922 9.48688 22.7836 10.2783 23.77 10.2783C24.7563 10.2783 25.5477 9.48688 25.5477 8.50043V7.85808ZM31.7411 17.1542C34.4593 17.1542 36.6729 19.368 36.6729 22.0865V24.9197C36.6729 27.6382 34.4593 29.852 31.7411 29.852H29.4587C29.1949 29.852 28.9425 29.829 28.7017 29.7946V30.1846C28.7017 31.7675 27.4171 33.0522 25.8343 33.0522H24.8021C24.6759 33.0522 24.5727 32.949 24.5727 32.8228V25.6079C24.5383 25.3785 24.5268 25.1491 24.5268 24.9197V17.3836C24.5268 17.2575 24.63 17.1542 24.7562 17.1542H31.7411ZM29.883 20.7674C31.225 20.7674 32.3146 21.8571 32.3146 23.1991V23.8415C32.3146 24.8279 31.5232 25.6194 30.5368 25.6194C29.5504 25.6194 28.759 24.8279 28.759 23.8415V21.2033C28.759 20.9624 28.954 20.7674 29.1949 20.7674H29.883ZM76.9794 24.9275L76.9909 14.0306C76.9909 13.9045 76.8877 13.8012 76.7615 13.8012H75.7293C74.1465 13.8012 72.8619 15.0859 72.8619 16.6688V17.1277C72.5981 17.0818 72.3228 17.0588 72.0476 17.0588H69.7652C67.0469 17.0588 64.8333 19.2726 64.8333 21.9911V24.8243C64.8333 27.5428 67.0469 29.7566 69.7652 29.7566H76.75C76.8762 29.7566 76.9794 29.6533 76.9794 29.5272V24.9275ZM69.1917 23.7231C69.1917 25.0652 70.2813 26.1549 71.6232 26.1549H72.3114C72.5522 26.1549 72.7472 25.9599 72.7472 25.719V23.0808C72.7472 22.0943 71.9558 21.3029 70.9695 21.3029C69.9831 21.3029 69.1917 22.0943 69.1917 23.0808V23.7231ZM44.9851 1.86614C44.7901 1.86614 44.641 2.01525 44.641 2.21025V14.128C44.641 14.323 44.7901 14.4721 44.9851 14.4721H48.5635C48.7585 14.4721 48.9076 14.323 48.9076 14.128V6.47724C48.9076 6.29372 49.0567 6.13313 49.2517 6.1446C51.6259 6.24783 52.6467 7.37193 52.6467 9.43661V14.1395C52.6467 14.3345 52.7958 14.4836 52.9907 14.4836H56.5692C56.7642 14.4836 56.9133 14.3345 56.9133 14.1395V10.3542C56.9133 4.10287 55.4796 1.86614 48.38 1.86614H44.9851ZM51.4138 17.4625C51.4138 17.3363 51.5171 17.2331 51.6432 17.2331H55.1529C62.2524 17.2331 63.6861 19.4698 63.6861 25.7212V29.5064C63.6861 29.7014 63.537 29.8505 63.342 29.8505H59.7636C59.5686 29.8505 59.4195 29.7014 59.4195 29.5064V24.8036C59.4195 22.7389 58.3987 21.6148 56.0245 21.5116C55.8296 21.5001 55.6805 21.6607 55.6805 21.8442V29.495C55.6805 29.69 55.5314 29.8391 55.3364 29.8391H51.7579C51.5629 29.8391 51.4138 29.69 51.4138 29.495V17.4625ZM43.3616 6.48892C43.3616 7.91125 42.2032 9.06976 40.781 9.06976V9.04682H39.3588H36.1474C36.0556 9.04682 35.9983 9.15005 36.0327 9.23035C36.4226 10.0677 37.2599 10.6412 38.2348 10.6412H38.923C38.9574 10.6412 38.9918 10.6412 39.0262 10.6297H39.9667C41.8362 10.6297 43.3616 12.1553 43.3616 14.025C43.3616 14.1512 43.2584 14.2544 43.1322 14.2544H36.1474C33.4291 14.2544 31.2155 12.0406 31.2155 9.32211V6.48892C31.2155 3.77043 33.4291 1.55664 36.1474 1.55664H38.4298C41.148 1.55664 43.3616 3.77043 43.3616 6.48892ZM38.3036 6.92479C38.4298 6.92479 38.533 6.82156 38.533 6.69539H38.5215V6.3398C38.5215 5.65158 37.8563 5.08953 37.1682 5.08953H36.7782C36.2735 5.08953 35.8606 5.50246 35.8606 6.00716C35.8606 6.51186 36.2735 6.92479 36.7782 6.92479H37.3058H38.3036Z" fill="#1A1A1A"/>
</svg>
