<svg width="40" height="44" viewBox="0 0 40 44" fill="none" xmlns="http://www.w3.org/2000/svg">
<path fill-rule="evenodd" clip-rule="evenodd" d="M21.0731 3.95871C21.0731 3.95809 21.0731 3.95746 21.0731 3.95683C21.0731 2.21217 19.6493 0.797852 17.8929 0.797852C16.1365 0.797852 14.7127 2.21217 14.7127 3.95683C14.7127 4.03447 14.7155 4.11145 14.721 4.18768L4.19469 16.3074C2.33026 16.3659 0.836914 17.8856 0.836914 19.7518C0.836914 21.655 2.39019 23.1979 4.30625 23.1979C4.47005 23.1979 4.63121 23.1867 4.78896 23.1648L17.9679 34.685H5.46243C4.18506 34.685 3.14954 35.7136 3.14954 36.9825V41.5773C3.14954 42.8462 4.18506 43.8748 5.46243 43.8748H36.6864C37.9638 43.8748 38.9993 42.8462 38.9993 41.5773V36.9825C38.9993 35.7136 37.9638 34.685 36.6864 34.685H23.7008L7.65432 20.6582C7.73339 20.3694 7.77559 20.0655 7.77559 19.7518C7.77559 19.2368 7.66185 18.7481 7.45797 18.3093L17.2381 7.04878C17.4494 7.09271 17.6685 7.11581 17.8929 7.11581C18.2133 7.11581 18.5226 7.06875 18.8142 6.98121L23.7915 10.9254L24.0062 18.2948L29.5695 23.826L32.2488 21.167L27.7485 16.6927L27.6078 11.864L32.5255 12.1826L36.4686 17.3934L39.4961 15.133L34.5078 8.54091L26.1743 8.00111L21.0731 3.95871Z" fill="black"/>
</svg>
