<svg xmlns="http://www.w3.org/2000/svg" fill="none" viewBox="0 0 42 42">
  <path fill="#111" d="M68.86 22.7c0-.3.1-.52.27-.65a.9.9 0 0 1 .53-.2h.93c.47 0 .82.25 1.07.76.24.51.8.76 1.64.76l2.73.06c.92 0 1.37-.3 1.37-.9 0-.45-.56-.8-1.67-1.07a35.6 35.6 0 0 0-1.65-.35c-.6-.12-1.2-.26-1.8-.44-.6-.18-1.14-.38-1.64-.62s-.9-.57-1.22-.99c-.3-.42-.46-.91-.46-1.48 0-1.04.37-1.84 1.12-2.4.74-.57 2.02-.85 3.83-.85l1.98.04c1.07 0 2.02.28 2.88.83.85.54 1.28 1.23 1.28 2.05 0 .3-.09.53-.27.66a.89.89 0 0 1-.52.2h-.93c-.47 0-.82-.25-1.07-.76-.24-.51-.79-.77-1.64-.77l-2.35-.05c-.91 0-1.37.3-1.37.9 0 .32.29.6.87.8.58.2 1.28.4 2.1.55.83.16 1.65.35 2.49.57.83.23 1.53.6 2.1 1.1.59.52.88 1.16.88 1.92 0 1.04-.37 1.85-1.12 2.41-.74.57-2.02.85-3.83.85l-2.36-.05a5.26 5.26 0 0 1-2.88-.82c-.86-.55-1.29-1.24-1.29-2.06Zm13.08 2.15v-9.72c0-.2.07-.38.22-.52a.71.71 0 0 1 .52-.22h1.45a.7.7 0 0 1 .53.22c.14.14.22.32.22.52v9.7a.7.7 0 0 1-.23.52.73.73 0 0 1-.52.21h-1.45a.74.74 0 0 1-.52-.2.69.69 0 0 1-.22-.51Zm5.17-.02v-9.7c0-.2.07-.38.21-.52a.69.69 0 0 1 .52-.22h2.29a1 1 0 0 1 .58.22c.2.14.37.32.5.52l4.7 7.24V15.1c0-.2.07-.37.21-.51a.73.73 0 0 1 .53-.21h1.34c.2 0 .37.07.51.2a.7.7 0 0 1 .22.54v9.7c0 .2-.07.38-.22.52a.7.7 0 0 1-.51.21h-2.6c-.2 0-.4-.07-.61-.2a1.73 1.73 0 0 1-.51-.53l-4.31-6.69v6.7c0 .2-.07.37-.22.51a.7.7 0 0 1-.51.21h-1.38a.73.73 0 0 1-.74-.73Zm18.56.8c-1.73 0-3.05-.47-3.97-1.4-.92-.93-1.38-2.35-1.38-4.26 0-1.92.48-3.34 1.44-4.26.96-.92 2.41-1.38 4.34-1.38h1.74c1.14 0 2.18.27 3.1.82.92.55 1.39 1.23 1.39 2.05 0 .3-.1.53-.28.66a.91.91 0 0 1-.53.2h-.92c-.45 0-.8-.26-1.07-.76-.27-.51-.92-.77-1.97-.77h-1.38c-1.14 0-1.91.25-2.32.73-.4.5-.6 1.4-.6 2.7 0 1.31.18 2.22.54 2.72.36.5 1.01.75 1.95.75h1.6c.83 0 1.43-.16 1.79-.48.36-.32.54-.78.55-1.38h-1.76a.73.73 0 0 1-.52-.2.73.73 0 0 1-.21-.53v-.6a.71.71 0 0 1 .73-.73h3.91c.2 0 .38.06.52.2.14.15.22.32.22.52v.87c0 1.45-.44 2.57-1.31 3.36-.88.78-2.16 1.17-3.85 1.17h-1.75Zm8.35-4.48v-6.02a.73.73 0 0 1 .75-.74h1.45c.2 0 .37.07.52.22.14.14.22.32.22.52v6.03c0 .76.16 1.33.5 1.7.33.38.85.57 1.55.57h1.25c.7 0 1.22-.19 1.55-.56.34-.38.5-.95.5-1.7v-6.04a.73.73 0 0 1 .74-.74h1.45c.21 0 .4.07.54.22.14.14.22.32.22.52v6.02c0 1.42-.42 2.52-1.26 3.3-.83.79-2.06 1.18-3.66 1.18h-1.4c-1.61 0-2.84-.4-3.68-1.17a4.34 4.34 0 0 1-1.24-3.31Zm13.3 3.7v-9.7c0-.22.08-.4.23-.54a.71.71 0 0 1 .52-.22h1.47c.2 0 .37.07.5.22a.7.7 0 0 1 .23.53v8.22h6.78c.2 0 .38.07.52.22.15.14.22.32.22.52v.73c0 .2-.07.38-.22.52a.7.7 0 0 1-.51.21h-9a.74.74 0 0 1-.51-.2.69.69 0 0 1-.22-.51Zm10.83 0 1.95-7.42c.53-2.02 2.26-3.04 5.18-3.04h4.2c.2 0 .35.07.47.22.13.14.2.31.2.5v9.74c0 .2-.07.37-.22.51a.74.74 0 0 1-.52.2h-1.47a.73.73 0 0 1-.53-.2.73.73 0 0 1-.2-.53v-1.96h-5.54l-.52 1.96a.93.93 0 0 1-.35.53.95.95 0 0 1-.58.2h-1.54c-.2 0-.34-.05-.43-.17-.1-.12-.13-.22-.13-.3 0-.1.01-.18.03-.24Zm4.1-4.19h4.96V16.6h-2.22a2.1 2.1 0 0 0-2.06 1.57l-.68 2.5Zm21.73 4.57c0 .22-.13.33-.4.33h-1.87c-.2 0-.41-.07-.65-.2a1.62 1.62 0 0 1-.54-.53l-1.32-2.07c-.55-.85-1.2-1.28-1.98-1.28h-1.9v3.35c0 .2-.08.38-.22.52a.7.7 0 0 1-.52.21h-1.46a.72.72 0 0 1-.52-.2.71.71 0 0 1-.22-.53v-9.7c0-.2.07-.38.2-.52a.69.69 0 0 1 .52-.22h6.43c1.2 0 2.17.32 2.93.96a3.2 3.2 0 0 1 1.14 2.58c0 1.52-.98 2.46-2.94 2.85.31.11.6.31.87.6.26.27.57.67.9 1.2l1.43 2.25c.08.15.12.28.12.4Zm-8.66-5.96h3.32a3 3 0 0 0 1.4-.31c.42-.22.62-.56.62-1.03 0-.46-.2-.8-.61-1.02a3 3 0 0 0-1.41-.32h-3.32v2.68Zm9.96 5.58v-9.72c0-.2.08-.38.22-.52a.71.71 0 0 1 .52-.22h1.45a.7.7 0 0 1 .53.22c.15.14.22.32.22.52v9.7a.7.7 0 0 1-.22.52.72.72 0 0 1-.53.21h-1.45a.74.74 0 0 1-.52-.2.69.69 0 0 1-.22-.51Zm4.22-8.99v-.73a.72.72 0 0 1 .74-.74h9.9a.72.72 0 0 1 .73.74v.73c0 .21-.07.4-.2.53a.73.73 0 0 1-.54.2h-3.47v8.26a.7.7 0 0 1-.22.51.72.72 0 0 1-.52.2h-1.47a.7.7 0 0 1-.73-.72V16.6h-3.48a.73.73 0 0 1-.53-.2.72.72 0 0 1-.21-.53Zm11.7-1.1c0-.25.13-.37.4-.37h1.48c.58 0 1.04.24 1.35.74l2.53 3.89 2.51-3.9c.33-.48.78-.73 1.36-.73h1.49c.27 0 .4.12.4.37 0 .12-.04.24-.13.37l-4.17 6.44v3.28a.7.7 0 0 1-.21.51.71.71 0 0 1-.52.2h-1.47a.74.74 0 0 1-.52-.2.69.69 0 0 1-.21-.51v-3.28l-4.17-6.44a.66.66 0 0 1-.13-.37Z"/>
  <mask id="a" fill="#fff">
    <path fill-rule="evenodd" d="M7.16 10.9.11 37.5c-.05.25-.1.53-.11.84 0 .32.16.7.48 1.12.32.41.84.62 1.57.62h38.66c.73 0 1.36-.25 1.89-.73.52-.5.78-1.12.78-1.84V2.6c0-.69-.23-1.3-.7-1.82A2.16 2.16 0 0 0 40.97 0H25.82C15.3.02 9.08 3.65 7.16 10.9Z" clip-rule="evenodd"/>
  </mask>
  <path fill="#111" d="m.11 37.5-1.25-.33-.01.02v.02l1.26.3Zm7.05-26.6 1.26.33-1.26-.33ZM0 38.34l-1.3-.07v.07H0Zm.48 1.12-1.05.78h.01l.01.02 1.03-.8Zm7.13.62v-1.3H7.6v1.3Zm27.8 0v-1.3 1.3Zm7.19-.73.88.96v-.01l.02-.01-.9-.94ZM42.68.78l-.99.85.01.01.01.01.97-.87ZM25.82 0v-1.3V0ZM1.37 37.84l7.05-26.6-2.51-.67-7.05 26.6 2.51.67Zm-.07.58c.01-.26.04-.47.08-.62l-2.53-.59c-.08.33-.13.69-.15 1.06l2.6.15Zm.22.27a1.75 1.75 0 0 1-.2-.34c-.03-.07-.02-.06-.02 0h-2.6c0 .72.35 1.37.73 1.89l2.1-1.55Zm.53.09c-.25 0-.4-.04-.47-.07-.06-.02-.07-.04-.08-.05l-2.05 1.6c.65.84 1.64 1.12 2.6 1.12v-2.6Zm5.54 0H2.05v2.6H7.6v-2.6Zm0 0v2.6h.02l-.01-2.6Zm27.82 0H7.61v2.6h27.8v-2.6Zm.02 0h-.01l-.02 2.6h.03v-2.6Zm5.28 0h-5.28v2.6h5.28v-2.6Zm1-.38a1.4 1.4 0 0 1-1 .38v2.6a4 4 0 0 0 2.77-1.07L41.7 38.4Zm.37-.9c0 .38-.12.65-.38.91l1.8 1.88a3.76 3.76 0 0 0 1.18-2.78h-2.6Zm0-34.9v34.9h2.6V2.6h-2.6Zm-.37-.95c.26.29.37.59.37.95h2.6c0-1.02-.35-1.93-1.03-2.69L41.7 1.65Zm-.74-.35c.31 0 .52.1.72.33l1.98-1.7a3.46 3.46 0 0 0-2.7-1.23v2.6Zm-15.15 0h15.15v-2.6H25.82v2.6Zm-17.4 9.93c.87-3.3 2.7-5.73 5.5-7.37 2.84-1.66 6.77-2.55 11.9-2.56v-2.6c-5.4 0-9.84.94-13.21 2.92-3.42 2-5.66 5-6.7 8.95l2.51.66Z" mask="url(#a)"/>
  <mask id="b" width="44" height="41" x="0" y="0" maskUnits="userSpaceOnUse" style="mask-type:alpha">
    <path fill="#111" fill-rule="evenodd" d="M7.16 10.9.11 37.5c-.05.25-.1.53-.11.84 0 .32.16.7.48 1.12.32.41.84.62 1.57.62h38.66c.73 0 1.36-.25 1.89-.73.52-.5.78-1.12.78-1.84V2.6c0-.69-.23-1.3-.7-1.82A2.16 2.16 0 0 0 40.97 0H25.82C15.3.02 9.08 3.65 7.16 10.9Z" clip-rule="evenodd"/>
  </mask>
  <g stroke="#111" stroke-miterlimit="10" mask="url(#b)">
    <path stroke-width=".59" d="M16.93 28.59a1.79 1.79 0 1 0-3.36-1.23 1.79 1.79 0 0 0 3.36 1.23Z"/>
    <path stroke-width=".29" d="M14.5 30.28c1.21 0 2.29-.79 2.72-1.93.42-1.14-.3-3.15-1.8-3.65a2.82 2.82 0 0 0-3.35 1.15"/>
    <path stroke-width=".29" d="M14.86 30.78a3.96 3.96 0 0 0 2.5-2.5 4.03 4.03 0 0 0-2.5-5.08c-2.08-.71-2.65-.21-3.65.57"/>
    <path stroke-width=".29" d="M15.07 31.28a5.07 5.07 0 0 0 2.36-2.79 5.01 5.01 0 0 0-3.22-6.43 5.12 5.12 0 0 0-3.58.07"/>
    <path stroke-width=".29" d="M15.35 31.71a6.25 6.25 0 0 0-5.08-11.01"/>
    <path stroke-width=".29" d="M15.85 32.07a7.29 7.29 0 0 0-5.72-12.37"/>
    <path stroke-width=".29" d="M16.28 32.5a8.47 8.47 0 0 0-6.3-13.73"/>
    <path stroke-width=".29" d="M16.78 33a9.5 9.5 0 0 0-4.8-14.52c-.96-.32-1.5-.36-2.21-.43"/>
    <path stroke-width=".29" d="M17.35 33.5c.43-.72.86-1.5 1.07-2.36a10.55 10.55 0 0 0-6.79-13.38c-1.34-.42-1.29-.35-1.93-.42"/>
    <path stroke-width=".29" d="M18.08 34.07c.43-.71.78-1.5 1.07-2.29 2-6.15-1.36-12.8-7.44-14.8a8.73 8.73 0 0 0-1.86-.43"/>
    <path stroke-width=".29" d="M18.86 35a12.79 12.79 0 0 0-6.94-18.81c-.7-.21-1.42-.43-2.07-.5"/>
    <path stroke-width=".29" d="M19.85 35.79a14 14 0 0 0-7.51-20.53 11.1 11.1 0 0 0-2.57-.57"/>
    <path stroke-width=".29" d="M21.07 36.65a18.96 18.96 0 0 0 1.65-3.44 15.04 15.04 0 0 0-12.6-19.6"/>
    <path stroke-width=".29" d="M22.43 37.72a16.08 16.08 0 0 0-12.37-25.46"/>
    <path stroke-width=".29" d="M24.22 38.43A17.29 17.29 0 0 0 10.2 10.75"/>
    <path stroke-width=".29" d="M29.79 32.31a18.31 18.31 0 1 0-35.1-10.46A18.31 18.31 0 0 0 29.8 32.3Z"/>
    <path stroke-width=".29" d="M33.05 32.14a19.45 19.45 0 1 0-37.17-11.5 19.45 19.45 0 0 0 37.17 11.5Z"/>
    <path stroke-width=".29" d="M36.81 31.2A20.53 20.53 0 1 0-2.34 18.84 20.53 20.53 0 0 0 36.8 31.19Z"/>
    <path stroke-width=".29" d="M41.29 30.02A21.67 21.67 0 1 0-.01 16.84a21.67 21.67 0 0 0 41.3 13.18Z"/>
    <path stroke-width=".29" d="M46.28 28.07a22.74 22.74 0 1 0-43.31-13.9 22.74 22.74 0 0 0 43.3 13.9Z"/>
    <path stroke-width=".29" d="M52.03 25.87A23.85 23.85 0 0 0 36.7-4.18a23.85 23.85 0 0 0-30 15.41A23.85 23.85 0 0 0 22.02 41.3a23.85 23.85 0 0 0 30-15.42Z"/>
    <path stroke-width=".59" d="M58.46 23.35A24.96 24.96 0 1 0 10.98 7.92a24.96 24.96 0 0 0 47.48 15.43Z"/>
  </g>
</svg>
