<svg xmlns="http://www.w3.org/2000/svg" width="77" height="52" fill="none"><path fill="#000" fill-rule="evenodd" d="M17.614 23.936c.816-10.888 9.908-19.468 21.004-19.468 11.096 0 20.188 8.58 21.004 19.468H17.614Zm.058 3.83c1.115 10.582 10.068 18.83 20.946 18.83 10.878 0 19.83-8.248 20.947-18.83H17.672Zm-9.58 0H1.916a1.915 1.915 0 0 1 0-3.83h6.002c2.933 0 5.296-2.312 6.068-5.141C16.94 7.963 26.849 0 38.618 0c11.769 0 21.678 7.963 24.633 18.795.772 2.83 3.135 5.14 6.068 5.14h5.361a1.915 1.915 0 1 1 0 3.83h-5.537c-2.88 0-5.217 2.233-6.031 4.995-3.118 10.58-12.904 18.303-24.494 18.303S17.242 43.34 14.124 32.76c-.814-2.762-3.152-4.994-6.031-4.994Z" clip-rule="evenodd"/><path stroke="#000" stroke-width="1.665" d="M56.197 25.532c0 9.337-7.691 16.928-17.206 16.928s-17.206-7.59-17.206-16.928c0-9.338 7.69-16.929 17.206-16.929 9.515 0 17.206 7.591 17.206 16.929Z"/><mask id="a" fill="#fff"><path d="M52.727 23.866c0 3.828-1.433 7.498-3.983 10.205-2.55 2.706-6.009 4.226-9.615 4.226-3.607 0-7.066-1.52-9.616-4.226-2.55-2.707-3.983-6.377-3.983-10.205h27.197Z"/></mask><path stroke="#000" stroke-width="5.55" d="M52.727 23.866c0 3.828-1.433 7.498-3.983 10.205-2.55 2.706-6.009 4.226-9.615 4.226-3.607 0-7.066-1.52-9.616-4.226-2.55-2.707-3.983-6.377-3.983-10.205h27.197Z" mask="url(#a)"/></svg>