<svg width="182" height="39" fill="none" xmlns="http://www.w3.org/2000/svg"><g clip-path="url(#a)" fill="#191919"><g filter="url(#b)" fill-rule="evenodd" clip-rule="evenodd"><path d="M25.715 19.946a2.392 2.392 0 0 1 3.277.882 2.417 2.417 0 0 1-.878 3.293L5.573 37.198a.354.354 0 0 1-.485-.13.358.358 0 0 1 .13-.488l3.639-2.111a.242.242 0 0 0 .087-.33.24.24 0 0 0-.327-.088l-3.74 2.17a.24.24 0 0 1-.327-.089.242.242 0 0 1 .088-.329l7.893-4.58a.242.242 0 0 0 .088-.328.24.24 0 0 0-.328-.089l-7.893 4.58a.24.24 0 0 1-.327-.089.242.242 0 0 1 .087-.329l5.816-3.374a.242.242 0 0 0 .088-.33.24.24 0 0 0-.327-.087L3.919 34.55a.24.24 0 0 1-.328-.089.242.242 0 0 1 .088-.329l2.077-1.205a.242.242 0 0 0 .088-.329.24.24 0 0 0-.328-.088l-1.97 1.142a.363.363 0 0 1-.497-.134c-.1-.175-.041-.399.133-.5l22.533-13.073ZM38.027 2.323a2.392 2.392 0 0 1 3.277.882 2.417 2.417 0 0 1-.878 3.293L17.884 19.575a.354.354 0 0 1-.485-.13.358.358 0 0 1 .13-.488l3.64-2.111a.242.242 0 0 0 .087-.33.24.24 0 0 0-.328-.088l-3.739 2.17a.24.24 0 0 1-.327-.089.242.242 0 0 1 .088-.329l7.893-4.58a.242.242 0 0 0 .088-.328.24.24 0 0 0-.328-.089l-7.893 4.58a.24.24 0 0 1-.328-.089.242.242 0 0 1 .088-.329l5.816-3.374a.242.242 0 0 0 .088-.33.24.24 0 0 0-.328-.088l-5.816 3.375a.24.24 0 0 1-.328-.088.242.242 0 0 1 .088-.33l2.077-1.205a.242.242 0 0 0 .088-.33.24.24 0 0 0-.328-.087l-1.969 1.142a.363.363 0 0 1-.498-.134.367.367 0 0 1 .134-.5L38.027 2.323Z"/><path d="M22.314 30.487c6 0 10.863-4.864 10.863-10.864 0-6-4.864-10.863-10.863-10.863-6 0-10.864 4.864-10.864 10.863 0 6 4.864 10.864 10.864 10.864Zm0 3.62c8 0 14.484-6.484 14.484-14.484S30.313 5.14 22.314 5.14c-8 0-14.485 6.485-14.485 14.484 0 8 6.485 14.485 14.485 14.485Z"/></g><path d="M56.09 27.917c-1.18 0-2.248-.202-3.203-.607-.938-.404-1.682-.986-2.232-1.747-.55-.76-.833-1.658-.85-2.693h3.64c.05.695.292 1.245.729 1.65.453.404 1.067.606 1.844.606.793 0 1.415-.186 1.868-.558.453-.388.68-.89.68-1.504 0-.502-.154-.914-.461-1.238a3.088 3.088 0 0 0-1.165-.752c-.453-.194-1.084-.405-1.893-.631-1.1-.324-1.998-.639-2.693-.946-.68-.324-1.27-.801-1.772-1.432-.485-.647-.728-1.505-.728-2.572 0-1.003.251-1.877.752-2.621.502-.744 1.206-1.31 2.112-1.699.906-.404 1.94-.606 3.106-.606 1.747 0 3.163.428 4.246 1.286 1.1.84 1.707 2.022 1.82 3.543h-3.737c-.032-.583-.283-1.06-.752-1.432-.453-.388-1.06-.582-1.82-.582-.663 0-1.197.17-1.602.51-.388.339-.582.832-.582 1.48 0 .452.146.832.437 1.14.307.291.68.534 1.116.728.453.178 1.084.388 1.893.63 1.1.324 1.998.648 2.693.971a4.838 4.838 0 0 1 1.796 1.456c.502.648.752 1.497.752 2.548 0 .906-.234 1.748-.703 2.524-.47.777-1.157 1.4-2.063 1.869-.906.453-1.982.679-3.227.679Zm12.895-10.823v6.504c0 .453.106.784.316.995.226.194.598.29 1.116.29h1.577v2.864H69.86c-2.863 0-4.295-1.391-4.295-4.174v-6.479h-1.602v-2.79h1.602v-3.325h3.421v3.325h3.01v2.79h-3.01Zm4.58 3.883c0-1.36.266-2.564.8-3.616.55-1.051 1.286-1.86 2.208-2.427.939-.566 1.982-.849 3.13-.849 1.004 0 1.877.202 2.621.607.76.404 1.367.914 1.82 1.529v-1.917h3.422v13.443h-3.422v-1.965c-.436.63-1.043 1.156-1.82 1.577-.76.404-1.642.607-2.645.607a5.774 5.774 0 0 1-3.106-.874c-.922-.582-1.658-1.4-2.208-2.45-.534-1.069-.8-2.29-.8-3.665Zm10.58.048c0-.825-.162-1.528-.486-2.11-.324-.6-.76-1.052-1.31-1.36a3.435 3.435 0 0 0-1.772-.485c-.63 0-1.213.154-1.747.461-.534.307-.97.76-1.31 1.359-.324.582-.486 1.278-.486 2.087 0 .809.162 1.52.486 2.135.34.599.776 1.06 1.31 1.384.55.323 1.133.485 1.747.485.631 0 1.222-.154 1.772-.461.55-.324.986-.777 1.31-1.36.324-.598.485-1.31.485-2.135Zm10.136-4.634a4.81 4.81 0 0 1 1.699-1.675c.712-.404 1.52-.606 2.427-.606v3.567h-.898c-1.068 0-1.877.25-2.427.752-.534.501-.8 1.375-.8 2.62v6.698h-3.398V14.304h3.397v2.086Zm9.811-.122c.437-.647 1.035-1.173 1.796-1.577.776-.405 1.658-.607 2.645-.607 1.148 0 2.184.283 3.106.85.938.566 1.674 1.375 2.208 2.426.55 1.035.825 2.24.825 3.616 0 1.375-.275 2.596-.825 3.664-.534 1.052-1.27 1.869-2.208 2.451-.922.582-1.958.874-3.106.874-1.003 0-1.885-.195-2.645-.583-.744-.404-1.343-.922-1.796-1.553v1.917h-3.397V9.79h3.397v6.48Zm7.11 4.708c0-.809-.17-1.505-.509-2.087-.324-.599-.761-1.052-1.311-1.359a3.44 3.44 0 0 0-1.747-.461 3.39 3.39 0 0 0-1.747.485c-.534.308-.971.76-1.311 1.36-.323.598-.485 1.302-.485 2.11 0 .81.162 1.513.485 2.112.34.598.777 1.06 1.311 1.383.55.307 1.132.46 1.747.46.631 0 1.213-.161 1.747-.485.55-.323.987-.784 1.311-1.383.339-.598.509-1.31.509-2.135Zm11.908 6.989c-1.294 0-2.459-.284-3.494-.85a6.377 6.377 0 0 1-2.451-2.45c-.582-1.052-.873-2.265-.873-3.64 0-1.376.299-2.589.897-3.64a6.322 6.322 0 0 1 2.5-2.427c1.051-.583 2.224-.874 3.519-.874 1.294 0 2.467.291 3.518.874a6.152 6.152 0 0 1 2.475 2.426c.615 1.052.922 2.265.922 3.64 0 1.376-.315 2.589-.946 3.64a6.45 6.45 0 0 1-2.524 2.451c-1.051.567-2.232.85-3.543.85Zm0-2.96a3.54 3.54 0 0 0 1.723-.438c.55-.307.987-.76 1.311-1.359.323-.598.485-1.326.485-2.184 0-1.278-.34-2.256-1.019-2.936-.663-.695-1.48-1.043-2.451-1.043-.971 0-1.788.348-2.451 1.043-.647.68-.971 1.658-.971 2.936s.316 2.265.947 2.96c.647.68 1.456 1.02 2.426 1.02Zm8.633-4.03c0-1.358.266-2.563.8-3.615.55-1.051 1.286-1.86 2.209-2.427.938-.566 1.981-.849 3.13-.849 1.003 0 1.877.202 2.621.607.76.404 1.367.914 1.82 1.529v-1.917h3.421v13.443h-3.421v-1.965c-.437.63-1.044 1.156-1.82 1.577-.761.404-1.642.607-2.645.607a5.772 5.772 0 0 1-3.106-.874c-.923-.582-1.659-1.4-2.209-2.45-.534-1.069-.8-2.29-.8-3.665Zm10.58.05c0-.826-.162-1.53-.486-2.112-.323-.598-.76-1.051-1.31-1.359a3.435 3.435 0 0 0-1.771-.485c-.631 0-1.214.154-1.748.461-.533.307-.97.76-1.31 1.359-.324.582-.485 1.278-.485 2.087 0 .809.161 1.52.485 2.135.34.599.777 1.06 1.31 1.384.55.323 1.133.485 1.748.485.63 0 1.221-.154 1.771-.461.55-.324.987-.777 1.31-1.36.324-.598.486-1.31.486-2.135Zm10.136-4.636a4.809 4.809 0 0 1 1.699-1.674c.712-.404 1.521-.606 2.427-.606v3.567h-.898c-1.068 0-1.877.25-2.427.752-.534.501-.801 1.375-.801 2.62v6.698h-3.397V14.304h3.397v2.086Zm5.54 4.587c0-1.36.267-2.564.801-3.616.55-1.051 1.294-1.86 2.232-2.427.938-.566 1.982-.849 3.131-.849.873 0 1.706.194 2.499.583.793.372 1.424.873 1.893 1.504V9.79h3.446v17.957h-3.446v-1.99c-.421.664-1.011 1.197-1.772 1.602-.76.404-1.642.607-2.645.607a5.774 5.774 0 0 1-3.106-.874c-.938-.582-1.682-1.4-2.232-2.45-.534-1.069-.801-2.29-.801-3.665Zm10.58.048c0-.825-.162-1.528-.485-2.11-.324-.6-.761-1.052-1.311-1.36a3.433 3.433 0 0 0-1.771-.485 3.44 3.44 0 0 0-1.747.461c-.534.307-.971.76-1.311 1.359-.323.582-.485 1.278-.485 2.087 0 .809.162 1.52.485 2.135.34.599.777 1.06 1.311 1.384.55.323 1.132.485 1.747.485.631 0 1.221-.154 1.771-.461.55-.324.987-.777 1.311-1.36.323-.598.485-1.31.485-2.135Z"/></g><defs><clipPath id="a"><path fill="#fff" d="M0 0h182v39H0z"/></clipPath><filter id="b" x="-3.741" y="-2.044" width="52.106" height="48.727" filterUnits="userSpaceOnUse" color-interpolation-filters="sRGB"><feFlood flood-opacity="0" result="BackgroundImageFix"/><feColorMatrix in="SourceAlpha" values="0 0 0 0 0 0 0 0 0 0 0 0 0 0 0 0 0 0 127 0" result="hardAlpha"/><feOffset dy="2.696"/><feGaussianBlur stdDeviation="3.37"/><feColorMatrix values="0 0 0 0 0.14902 0 0 0 0 0.2 0 0 0 0 0.301961 0 0 0 0.03 0"/><feBlend in2="BackgroundImageFix" result="effect1_dropShadow_1720_4817"/><feBlend in="SourceGraphic" in2="effect1_dropShadow_1720_4817" result="shape"/></filter></defs></svg>