<svg xmlns="http://www.w3.org/2000/svg" viewBox="0 0 190 38">
<style type="text/css">
	.st0{fill:#031131;}
	.st1{fill-rule:evenodd;clip-rule:evenodd;fill:#031131;}
</style>
<path class="st0" d="M141.4,28.9c0,0.2,0.2,0.4,0.4,0.4h4.3c0.2,0,0.4-0.2,0.4-0.4V0.6c0-0.2-0.2-0.4-0.4-0.4h-4.3
	c-0.2,0-0.4,0.2-0.4,0.4V28.9z"/>
<path class="st0" d="M30.8,29.5c0.7,0,1.5-0.1,2.2-0.2c0.2,0,0.3-0.2,0.3-0.4v-3.5c0-0.2-0.2-0.4-0.4-0.4c-0.3,0-0.7,0.1-0.9,0.1
	c-2.5,0-3.5-1.2-3.5-3.3v-8.9h4.4c0.2,0,0.4-0.2,0.4-0.4V8.7c0-0.2-0.2-0.4-0.4-0.4h-4.4V3.3c0-0.2-0.2-0.4-0.4-0.4h-4.3
	c-0.2,0-0.4,0.2-0.4,0.4v2c0,2-1.2,3.1-3.2,3.1h0c-0.2,0-0.4,0.2-0.4,0.4v3.7c0,0.2,0.2,0.4,0.4,0.4h3.2v9.2
	C23.4,26.7,26.1,29.5,30.8,29.5z"/>
<path class="st1" d="M35,18.8c0-6,4.9-10.9,10.9-10.9h10.9c6,0,10.9,4.9,10.9,10.9c0,6-4.9,10.9-10.9,10.9H45.9
	C39.9,29.7,35,24.8,35,18.8z M56.6,25.2c3.5,0,6.4-2.9,6.4-6.4c0-3.5-2.9-6.4-6.4-6.4c-3.5,0-6.4,2.9-6.4,6.4
	C50.3,22.3,53.1,25.2,56.6,25.2z"/>
<path class="st1" d="M90.7,28.2c0,5.5-4.3,9.5-10.2,9.5c-4.6,0-8.3-2.3-9.7-5.8c-0.1-0.2,0-0.4,0.2-0.5l4-1.5c0.2-0.1,0.4,0,0.5,0.2
	c0.7,1.7,2.6,2.9,5,2.9c3,0,5.2-1.8,5.2-4.9v-2.3c-1.5,1.6-3.5,2.5-6,2.5c-5.9,0-10.1-4.4-10.1-10.3c0-5.9,4.2-10.2,10-10.2
	c2.7,0,4.8,1,6.4,2.9v-2c0-0.2,0.2-0.4,0.4-0.4h4c0.2,0,0.4,0.2,0.4,0.4V28.2z M74.7,18.1c0,3.2,2.3,5.6,5.5,5.6
	c3.1,0,5.4-2.3,5.4-5.6s-2.3-5.6-5.4-5.6C77.1,12.5,74.7,14.9,74.7,18.1z"/>
<path class="st1" d="M104,37.7c5.9,0,10.2-4,10.2-9.5V8.7c0-0.2-0.2-0.4-0.4-0.4h-4c-0.2,0-0.4,0.2-0.4,0.4v2
	c-1.6-1.9-3.7-2.9-6.4-2.9c-5.8,0-10,4.3-10,10.2c0,5.9,4.3,10.3,10.1,10.3c2.5,0,4.6-0.8,6-2.5v2.3c0,3.1-2.1,4.9-5.2,4.9
	c-2.5,0-4.3-1.1-5-2.9c-0.1-0.2-0.3-0.3-0.5-0.2l-4,1.5c-0.2,0.1-0.3,0.3-0.2,0.5C95.7,35.4,99.4,37.7,104,37.7z M103.8,23.7
	c-3.2,0-5.5-2.4-5.5-5.6c0-3.2,2.3-5.6,5.5-5.6c3.1,0,5.4,2.4,5.4,5.6S106.9,23.7,103.8,23.7z"/>
<path class="st1" d="M137.7,28.2c0,5.5-4.3,9.5-10.2,9.5c-4.6,0-8.3-2.3-9.7-5.8c-0.1-0.2,0-0.4,0.2-0.5l4-1.5
	c0.2-0.1,0.4,0,0.5,0.2c0.7,1.7,2.6,2.9,5,2.9c3,0,5.2-1.8,5.2-4.9v-2.3c-1.5,1.6-3.5,2.5-6,2.5c-5.9,0-10.1-4.4-10.1-10.3
	c0-5.9,4.2-10.2,10-10.2c2.7,0,4.8,1,6.4,2.9v-2c0-0.2,0.2-0.4,0.4-0.4h4c0.2,0,0.4,0.2,0.4,0.4V28.2z M121.8,18.1
	c0,3.2,2.3,5.6,5.5,5.6c3.1,0,5.4-2.3,5.4-5.6s-2.3-5.6-5.4-5.6C124.1,12.5,121.8,14.9,121.8,18.1z"/>
<path class="st1" d="M168.8,24.9c-1.4,2.8-4.7,4.8-8.8,4.8c-6.4,0-10.7-4.8-10.7-10.9c0-6.3,4.5-10.9,10.4-10.9
	c6.5,0,10.2,4.6,10.2,10.2c0,0.7-0.1,1.4-0.2,1.9c0,0.1-0.1,0.2-0.3,0.2h-14.8c0.3,3.1,2.5,5.1,5.6,5.1c2.2,0,3.7-0.9,4.6-2.4
	c0.1-0.2,0.3-0.2,0.5-0.1l3.4,1.7C168.8,24.5,168.9,24.7,168.8,24.9z M164.4,16.4c-0.2-2.6-2.1-4.3-4.8-4.3c-2.5,0-4.4,1.6-5,4.3
	H164.4z"/>
</svg>
