<svg width="150" height="38" viewBox="0 0 150 38" fill="none" xmlns="http://www.w3.org/2000/svg">
<path d="M121.656 28.8549C121.656 29.0616 121.823 29.2291 122.03 29.2291H126.305C126.512 29.2291 126.679 29.0616 126.679 28.8549V0.575273C126.679 0.368671 126.512 0.201172 126.305 0.201172H122.03C121.823 0.201172 121.656 0.368671 121.656 0.575273V28.8549Z" fill="#031131"/>
<path d="M11.0053 29.4591C11.6663 29.4591 12.4981 29.3737 13.1818 29.2764C13.364 29.2505 13.4978 29.0935 13.4978 28.9094V25.3704C13.4978 25.1411 13.2933 24.9661 13.0655 24.9916C12.7215 25.0301 12.4002 25.0494 12.1556 25.0494C9.70157 25.0494 8.62782 23.899 8.62782 21.7899V12.8553H13.0469C13.2536 12.8553 13.4211 12.6878 13.4211 12.4812V8.74298C13.4211 8.53636 13.2536 8.36886 13.0469 8.36886H8.62782V3.27396C8.62782 3.06736 8.46033 2.89986 8.25368 2.89986H3.97865C3.77201 2.89986 3.60452 3.06736 3.60452 3.27396V5.22449C3.60452 7.25683 2.4158 8.36886 0.383491 8.36886H0.37413C0.167485 8.36886 0 8.53636 0 8.74296V12.4812C0 12.6878 0.167485 12.8553 0.37413 12.8553H3.60452V22.0584C3.60452 26.7366 6.28873 29.4591 11.0053 29.4591Z" fill="#031131"/>
<path fill-rule="evenodd" clip-rule="evenodd" d="M15.1935 18.799C15.1935 12.7844 20.0693 7.9087 26.0838 7.9087H36.9768C42.9913 7.9087 47.8671 12.7844 47.8671 18.799C47.8671 24.8135 42.9913 29.6892 36.9768 29.6892H26.0838C20.0693 29.6892 15.1935 24.8135 15.1935 18.799ZM36.8428 25.1642C40.3594 25.1642 43.2102 22.3134 43.2102 18.7968C43.2102 15.2801 40.3594 12.4294 36.8428 12.4294C33.3261 12.4294 30.4754 15.2801 30.4754 18.7968C30.4754 22.3134 33.3261 25.1642 36.8428 25.1642Z" fill="#031131"/>
<path fill-rule="evenodd" clip-rule="evenodd" d="M70.9045 28.1937C70.9045 33.6772 66.6482 37.6652 60.7045 37.6652C56.1369 37.6652 52.4323 35.3995 50.984 31.9129C50.9053 31.7236 51.0041 31.5099 51.1959 31.4376L55.1574 29.9439C55.3586 29.8681 55.5806 29.9778 55.6634 30.1761C56.3929 31.9234 58.2301 33.0636 60.7045 33.0636C63.7338 33.0636 65.8812 31.2614 65.8812 28.1937V25.9313C64.4241 27.5418 62.3534 28.3854 59.8609 28.3854C53.994 28.3854 49.7376 23.9757 49.7376 18.1087C49.7376 12.2418 53.9557 7.9087 59.746 7.9087C62.4302 7.9087 64.5776 8.86735 66.1497 10.7846V8.74296C66.1497 8.53634 66.3171 8.36886 66.5238 8.36886H70.5305C70.7371 8.36886 70.9045 8.53634 70.9045 8.74296V28.1937ZM54.9527 18.1471C54.9527 21.3681 57.2534 23.7456 60.4745 23.7456C63.6189 23.7456 65.8812 21.4065 65.8812 18.1471C65.8812 14.8877 63.6189 12.5102 60.4745 12.5102C57.2918 12.5102 54.9527 14.926 54.9527 18.1471Z" fill="#031131"/>
<path fill-rule="evenodd" clip-rule="evenodd" d="M84.2096 37.6652C90.1533 37.6652 94.4096 33.6772 94.4096 28.1937V8.74296C94.4096 8.53634 94.2421 8.36886 94.0356 8.36886H90.0289C89.8222 8.36886 89.6547 8.53634 89.6547 8.74296V10.7846C88.0826 8.86735 85.9353 7.9087 83.251 7.9087C77.4608 7.9087 73.2427 12.2418 73.2427 18.1087C73.2427 23.9757 77.4991 28.3854 83.366 28.3854C85.8585 28.3854 87.9292 27.5418 89.3863 25.9313V28.1937C89.3863 31.2614 87.2389 33.0636 84.2096 33.0636C81.7352 33.0636 79.898 31.9234 79.1685 30.1761C79.0857 29.9778 78.8637 29.8681 78.6625 29.9439L74.701 31.4376C74.5092 31.5099 74.4104 31.7236 74.4891 31.9129C75.9374 35.3995 79.642 37.6652 84.2096 37.6652ZM83.9796 23.7456C80.7585 23.7456 78.4578 21.3681 78.4578 18.1471C78.4578 14.926 80.7969 12.5102 83.9796 12.5102C87.124 12.5102 89.3863 14.8877 89.3863 18.1471C89.3863 21.4065 87.124 23.7456 83.9796 23.7456Z" fill="#031131"/>
<path fill-rule="evenodd" clip-rule="evenodd" d="M117.915 28.1937C117.915 33.6772 113.658 37.6652 107.715 37.6652C103.147 37.6652 99.4425 35.3995 97.9942 31.9129C97.9155 31.7236 98.0143 31.5099 98.2061 31.4376L102.168 29.9439C102.369 29.8681 102.591 29.9778 102.674 30.1761C103.403 31.9234 105.24 33.0636 107.715 33.0636C110.744 33.0636 112.891 31.2614 112.891 28.1937V25.9313C111.434 27.5418 109.364 28.3854 106.871 28.3854C101.004 28.3854 96.7478 23.9757 96.7478 18.1087C96.7478 12.2418 100.966 7.9087 106.756 7.9087C109.44 7.9087 111.588 8.86735 113.16 10.7846V8.74296C113.16 8.53634 113.327 8.36886 113.534 8.36886H117.541C117.747 8.36886 117.915 8.53634 117.915 8.74296V28.1937ZM101.963 18.1471C101.963 21.3681 104.264 23.7456 107.485 23.7456C110.629 23.7456 112.891 21.4065 112.891 18.1471C112.891 14.8877 110.629 12.5102 107.485 12.5102C104.302 12.5102 101.963 14.926 101.963 18.1471Z" fill="#031131"/>
<path fill-rule="evenodd" clip-rule="evenodd" d="M149.01 24.9113C147.642 27.7305 144.324 29.6892 140.222 29.6892C133.818 29.6892 129.485 24.8576 129.485 18.7606C129.485 12.5102 133.971 7.90872 139.838 7.90872C146.319 7.90872 150 12.5486 150 18.1087C150 18.7926 149.939 19.4764 149.79 20.0243C149.758 20.1408 149.65 20.2178 149.529 20.2178H134.7C135.007 23.2854 137.231 25.2794 140.26 25.2794C142.415 25.2794 143.964 24.3375 144.908 22.8948C145.017 22.7296 145.23 22.6629 145.407 22.7499L148.839 24.4334C149.017 24.5208 149.097 24.7327 149.01 24.9113ZM144.632 16.3832C144.401 13.814 142.484 12.0501 139.838 12.0501C137.307 12.0501 135.39 13.6223 134.815 16.3832H144.632Z" fill="#031131"/>
</svg>
