<svg width="325" height="453" viewBox="0 0 325 453" fill="none" xmlns="http://www.w3.org/2000/svg">
<path d="M162.509 452.998C162.541 453.001 162.573 453.001 162.604 452.998C169.929 452.907 177.209 451.844 184.252 449.837C184.318 449.828 184.382 449.81 184.442 449.783C204.496 444.232 224.345 432.313 243.736 420.66L243.759 420.66L243.818 420.629C250.034 416.889 256.3 413.127 262.602 409.554C262.744 409.527 262.874 409.454 262.969 409.346C269.312 405.733 275.71 402.364 282.121 399.41C282.261 399.394 282.393 399.334 282.497 399.238C289.041 396.172 295.821 393.635 302.772 391.651C302.825 391.642 302.876 391.628 302.926 391.61C309.885 389.619 317.081 388.574 324.32 388.503L325 388.503L325 387.825C324.928 380.459 323.853 373.138 321.806 366.06L321.774 365.956C316.201 346.025 304.24 326.211 292.56 306.853C288.799 300.625 285.007 294.347 281.41 288.033C281.38 287.928 281.325 287.832 281.251 287.753C277.626 281.38 274.21 274.971 271.22 268.544C271.2 268.465 271.166 268.39 271.12 268.323C265.312 255.794 261.153 243.198 260.405 230.66C259.889 222.137 261.062 213.623 263.404 205.137C263.428 205.083 263.445 205.027 263.454 204.97C265.43 198.067 267.959 191.334 271.016 184.835C271.085 184.774 271.141 184.699 271.179 184.615C271.218 184.531 271.238 184.44 271.238 184.347C274.192 177.997 277.581 171.67 281.147 165.378C281.227 165.321 281.295 165.247 281.344 165.161C281.393 165.075 281.423 164.98 281.432 164.881C284.98 158.662 288.718 152.483 292.433 146.364C292.515 146.286 292.574 146.187 292.605 146.079C308.535 119.775 325 92.581 325 65.2336L325 64.5561L324.32 64.5561C317.086 64.486 309.895 63.4439 302.94 61.4578C302.879 61.4308 302.815 61.4126 302.749 61.4036C295.81 59.4257 289.042 56.8943 282.511 53.8339C282.4 53.7287 282.259 53.6621 282.107 53.6442C275.701 50.6859 269.317 47.294 262.969 43.7079C262.871 43.6008 262.741 43.5279 262.598 43.5001C256.305 39.9276 250.043 36.1653 243.836 32.4302C217.413 16.4779 190.147 0.091987 162.6 0.00165563C162.57 -0.000561344 162.539 -0.000561345 162.509 0.00165563C162.483 -0.000523767 162.458 -0.000523769 162.432 0.00165563C161.049 0.00165556 159.662 0.0422991 158.273 0.123596C132.253 1.69534 106.255 17.2863 81.1141 32.4031C74.8888 36.1428 68.6138 39.9095 62.3024 43.4866C62.249 43.5064 62.1986 43.5338 62.1529 43.5679C55.7283 47.2082 49.2629 50.6362 42.7794 53.6307C42.7147 53.6527 42.6524 53.6815 42.5937 53.7165C28.6707 60.1299 14.6525 64.5154 0.697782 64.5154L0.0181551 64.5154L0.0181551 65.1929C0.0181539 92.5404 16.5011 119.779 32.4402 146.12C32.461 146.162 32.4852 146.203 32.5127 146.242C36.2506 152.416 40.0156 158.644 43.5859 164.904C43.6128 165.061 43.6946 165.203 43.8169 165.306C47.4144 171.629 50.8124 177.993 53.7846 184.379C53.7991 184.521 53.8595 184.654 53.9567 184.758C60.9749 199.952 65.5464 215.29 64.6131 230.624C64.2197 236.47 63.2113 242.259 61.6047 247.895L61.5684 248.008C59.5759 254.936 57.0306 261.695 53.9567 268.219C53.8587 268.321 53.798 268.453 53.7846 268.594C50.817 274.976 47.4415 281.335 43.8169 287.658C43.682 287.763 43.5941 287.918 43.5723 288.087C40.0247 294.315 36.2868 300.507 32.5761 306.645C32.4858 306.73 32.4215 306.838 32.3904 306.957C20.7418 326.238 8.83046 345.998 3.23952 365.87C3.21696 365.927 3.20177 365.986 3.1942 366.047C1.14674 373.116 0.0721574 380.431 1.35668e-05 387.789L1.35372e-05 388.466L0.679609 388.466C7.83186 388.514 14.9464 389.504 21.8383 391.411C21.9024 391.479 21.9798 391.532 22.0655 391.569C22.1512 391.605 22.2435 391.624 22.3367 391.624C22.3966 391.623 22.4561 391.614 22.5133 391.596C29.3359 393.539 35.9855 396.04 42.3943 399.076C42.4551 399.169 42.5383 399.246 42.6363 399.3C42.7344 399.354 42.8443 399.382 42.9561 399.383C42.9802 399.385 43.0045 399.385 43.0286 399.383C49.5483 402.441 55.914 405.9 62.1348 409.428C62.1714 409.454 62.2109 409.477 62.2525 409.495C62.9714 409.902 63.6903 410.311 64.4092 410.724C69.7328 413.768 75.052 416.966 80.6792 420.349C105.992 435.56 132.171 451.296 158.255 452.867C159.641 452.955 161.027 452.995 162.414 452.989C162.445 452.996 162.477 452.999 162.509 452.998ZM120.917 441.03C121.17 431.464 121.578 423.054 122.09 415.1C128.016 418.262 133.92 421.171 137.345 422.575C138.125 422.878 138.92 423.139 139.728 423.356C140.059 423.447 140.381 423.542 140.698 423.637C140.426 432.344 140.245 440.501 140.186 448.288C133.589 446.355 127.148 443.929 120.917 441.03ZM101.344 430.922C101.702 420.918 102.345 412.007 103.12 403.881C104.42 404.69 105.721 405.489 107.007 406.275C108.403 407.13 109.795 407.987 111.185 408.845C114.016 410.606 117.369 412.526 120.776 414.378C120.251 422.367 119.834 430.804 119.576 440.402C113.477 437.556 107.397 434.332 101.344 430.922ZM82.3147 419.725C82.6455 409.622 83.4791 400.196 84.485 391.723C87.1083 393.417 89.8811 395.255 92.9303 397.274L97.0352 399.984C98.6164 401.031 100.207 402.057 101.847 403.068C101.063 411.198 100.406 420.127 100.035 430.167C94.072 426.794 88.1594 423.248 82.3147 419.725ZM43.681 398.213C43.7979 390.14 44.5661 382.09 45.9781 374.14C47.2257 374.615 48.5012 375.013 49.7975 375.333C50.6538 375.563 51.4603 375.784 52.2396 376.033C56.87 377.546 60.848 379.059 64.5179 380.662C63.148 389.64 62.2858 398.687 61.9354 407.761C56.0953 404.446 49.9924 401.167 43.6629 398.213L43.681 398.213ZM23.048 390.391C23.1336 383.232 23.9887 376.104 25.5988 369.127C29.6266 369.859 33.5231 370.69 37.1975 371.503C38.5341 371.796 39.8888 372.121 41.2163 372.464C41.5108 372.537 41.8189 372.605 42.1224 372.672C42.9307 372.803 43.7153 373.051 44.4512 373.408C44.5283 373.454 44.6098 373.494 44.6914 373.539C43.2682 381.482 42.4743 389.523 42.3172 397.59C36.0857 394.694 29.637 392.287 23.0299 390.391L23.048 390.391ZM62.7555 248.812C67.5626 248.757 72.9497 248.635 77.0863 245.587C77.3989 245.352 77.7025 245.135 77.9924 244.86C75.9219 251.571 73.3665 257.998 70.7976 264.104C69.9917 264.701 69.1455 265.241 68.2649 265.721C64.5044 267.763 59.9691 267.903 55.547 267.98C58.4311 261.781 60.8408 255.373 62.7555 248.812ZM79.4921 222.882C75.8177 225.732 70.6888 225.823 66.0856 225.827C65.9511 218.969 64.9572 212.155 63.127 205.543C67.7031 205.58 72.7413 205.458 76.7193 202.743C77.7654 202.019 78.734 201.19 79.6099 200.268C81.0071 205.295 81.9681 210.433 82.4824 215.624C82.6096 216.966 82.6625 218.314 82.641 219.662C81.7275 220.86 80.67 221.941 79.4921 222.882ZM42.3082 55.3469C42.4525 61.393 43.2331 67.4074 44.637 73.291C41.5335 74.9983 38.3166 76.6739 35.05 78.2592C32.0879 79.699 29.0475 80.9731 25.9431 82.0756C24.3664 75.7932 23.2247 68.9778 23.0435 62.5508C29.638 60.637 36.078 58.2289 42.3082 55.3469ZM61.8629 45.2932C61.8629 47.5063 61.9853 49.8729 62.2345 52.637C62.529 55.8889 62.973 59.0324 63.5167 62.0494L63.3264 62.1669C58.3879 65.2878 52.3892 68.9868 45.8784 72.609C44.4983 66.7438 43.7555 60.7474 43.6629 54.7237C49.7568 51.8918 55.828 48.6896 61.8629 45.2932ZM80.9827 34.0652C81.3167 40.1424 82.0324 46.1929 83.1258 52.1809C76.7748 54.7116 70.6398 57.7506 64.7807 61.2681C64.2869 58.4498 63.8746 55.5231 63.6118 52.506C63.3539 49.8492 63.2329 47.181 63.2494 44.5118C69.1756 41.1425 75.1018 37.5971 80.9827 34.0652ZM100.012 22.8236C100.374 29.788 101.045 37.0957 101.992 44.4667C101.226 44.7783 100.46 45.0854 99.7264 45.37C97.6513 46.2146 95.5038 47.0862 93.3834 47.8902C90.8145 48.8567 88.1323 49.9678 85.4138 51.1917C85.1284 51.3227 84.7976 51.4627 84.417 51.6208C83.3234 45.5566 82.6212 39.4286 82.3148 33.2748C88.1685 29.7519 94.0947 26.2064 100.03 22.8236L100.012 22.8236ZM119.576 12.5801C120.029 22.0919 120.618 30.5332 121.238 37.7642C116.449 39.223 111.81 40.7993 107.864 42.2129C106.332 42.7594 104.805 43.3466 103.297 43.9473C102.345 36.4905 101.679 29.1015 101.335 22.0738C107.406 18.6594 113.491 15.43 119.594 12.5801L119.576 12.5801ZM140.218 4.70785C140.363 7.55325 140.503 11.0626 140.671 15.412C140.866 20.2446 141.101 26.0303 141.423 33.0264C141.21 33.058 141.002 33.0851 140.789 33.1122C135.311 33.8755 128.85 35.5059 122.57 37.3758C121.95 30.0816 121.356 21.568 120.912 11.9839C127.154 9.07525 133.607 6.64291 140.218 4.70785ZM161.829 33.3787L161.829 64.4929C161.018 64.3122 160.207 64.1496 159.387 64.0186C154.402 63.2299 149.362 62.8298 144.314 62.8218C143.684 51.5305 143.213 42.1091 142.85 34.1916C149.923 33.2522 155.69 32.796 161.829 33.3787ZM302.006 62.5463C302.312 69.8796 301.856 77.2248 300.647 84.4649C294.567 83.6278 288.535 82.4776 282.574 81.0188C283.252 72.5014 283.328 63.9471 282.801 55.4192C289.012 58.2763 295.433 60.6588 302.006 62.5463ZM254.483 228.334C253.261 229.764 252.303 231.399 251.652 233.162L251.81 231.879C252.413 227.692 253.237 222.724 254.415 216.672L254.551 216.293C254.551 216.238 254.619 216.076 254.656 215.927C255.167 214.391 255.648 212.842 256.105 211.302C256.74 209.941 257.591 208.69 258.624 207.598C259.495 206.669 260.612 206.003 261.846 205.679C260.041 212.258 259.066 219.035 258.942 225.854C257.196 226.095 255.605 226.98 254.483 228.334ZM253.101 263.856C253.944 259.177 255.245 253.956 258.511 250.722C259.518 249.679 260.857 249.016 262.299 248.848C264.225 255.433 266.649 261.863 269.548 268.083C267.942 268.312 266.427 268.971 265.167 269.989C261.588 272.817 259.667 277.505 258.402 281.466C256.696 277.235 255.238 273.049 254.03 268.906C253.623 267.551 253.26 266.141 252.929 264.737L253.101 263.856ZM282.864 397.545C283.305 392.57 283.09 387.559 282.225 382.64C282.547 382.437 282.859 382.234 283.186 382.03C288.6 378.621 294.182 375.256 299.913 372.546C301.354 378.392 302.058 384.394 302.011 390.413C295.452 392.31 289.045 394.697 282.846 397.554L282.864 397.545ZM71.527 351.54C72.1568 348.644 72.6053 346.395 73.0131 344.358C74.0144 339.318 74.8254 335.181 77.7432 324.748C83.2617 325.773 87.3031 328.036 93.3517 332.493L93.2792 332.773C92.0604 337.498 90.9051 341.974 87.9057 359.99C83.7788 357.092 79.3527 354.642 74.7031 352.682C73.7063 352.276 72.6235 351.892 71.527 351.54ZM53.771 348.03C53.1958 348.026 52.6217 347.978 52.0538 347.886L52.2713 347.127L53.3995 343.198C54.7225 338.577 56.0907 333.794 57.6992 329.196C58.1522 327.878 58.6959 326.355 59.2894 324.68C59.4798 324.68 59.6701 324.68 59.8694 324.644L60.6759 324.558C63.0809 324.253 65.501 324.081 67.9251 324.043C70.7546 324.013 73.5828 324.182 76.3885 324.549C73.5024 334.937 72.6778 339.065 71.672 344.11C71.2733 346.115 70.8338 348.324 70.2222 351.147C65.1977 349.678 60.0514 348.66 54.8448 348.107C54.5276 348.053 54.1697 348.044 53.771 348.03ZM32.6305 346.115C35.0288 339.867 37.8681 333.38 41.1483 326.654L41.4519 326.608C42.059 326.518 42.6797 326.477 43.3412 326.437C44.0027 326.396 44.5826 326.36 45.2124 326.279C49.2901 325.737 51.3561 325.421 52.883 325.19C54.4098 324.96 55.2843 324.824 56.9606 324.648C57.2619 324.621 57.5646 324.613 57.8668 324.626C57.3322 326.139 56.8429 327.521 56.426 328.727C54.804 333.388 53.4312 338.184 52.1037 342.827C51.7276 344.132 51.3561 345.442 50.9755 346.748L50.8623 347.145C49.6979 346.748 46.0551 346.562 37.2428 346.273C35.648 346.219 34.0622 346.183 32.6441 346.115L32.6305 346.115ZM51.3108 306.325C51.4467 306.284 51.5872 306.239 51.7276 306.207L51.7865 306.207C54.4053 305.58 55.6014 305.304 62.982 302.21C63.2992 302.079 63.6209 301.93 63.9471 301.759C64.6912 301.381 65.4714 301.078 66.2759 300.855C66.3348 300.855 66.3891 300.855 66.4435 300.828L66.3982 300.946C63.6481 308.524 60.617 316.866 58.338 323.262C57.8283 323.224 57.3164 323.224 56.8066 323.262C55.1167 323.438 54.1969 323.578 52.6791 323.808C51.1613 324.039 49.0817 324.355 45.0357 324.892C44.4558 324.973 43.8486 325.01 43.2597 325.046C42.8066 325.073 42.3309 325.109 41.8597 325.159C47.2467 314.269 49.7432 309.333 51.3244 306.325L51.3108 306.325ZM81.318 255.46L82.7452 253.811C81.173 259.312 79.7232 263.897 78.7264 266.909C77.7795 269.777 76.7011 272.654 75.6545 275.441C75.6117 275.459 75.5678 275.474 75.5232 275.486C75.3817 275.528 75.2438 275.58 75.1108 275.644C74.214 276.137 73.3687 276.718 72.5872 277.378C72.2656 277.636 71.9484 277.889 71.6312 278.119C68.9268 280.159 66.1137 282.051 63.204 283.787C65.7503 278.896 67.984 274.303 71.9257 264.954C75.2966 262.429 78.2371 259.014 81.318 255.46ZM90.5199 226.834C92.2494 223.691 94.1979 220.673 96.351 217.801C97.5603 216.211 98.9398 214.757 100.465 213.465C99.8714 219.215 99.1057 225.208 98.0908 231.531C97.6649 234.259 97.2119 237.028 96.7316 239.837C94.5953 240.82 92.6117 242.104 90.8416 243.649C88.9901 245.215 87.2279 246.883 85.5633 248.644C87.362 241.992 89.1607 234.44 90.5199 226.834ZM93.0436 201.375C94.5421 197.467 96.3072 193.665 98.3264 189.998C99.3102 188.254 100.473 186.618 101.797 185.115C101.874 187.663 101.883 190.273 101.797 192.965C101.661 198.927 101.28 205.114 100.646 211.618C98.6032 213.146 96.7945 214.963 95.2772 217.011C93.7861 218.959 92.4094 220.992 91.1543 223.099C91.6526 219.974 92.0604 216.862 92.3549 213.822C92.795 209.687 93.0248 205.533 93.0436 201.375ZM88.6578 182.771C86.0572 188.074 83.3976 193.493 80.2215 197.481C78.3187 191.227 75.9905 185.11 73.2532 179.171C75.6319 176.823 78.1283 173.567 81.0869 169.055L81.8073 167.971C82.4416 167.022 83.094 166.056 83.6468 165.066C86.1659 170.834 87.8423 176.891 89.0293 181.601L89.0928 181.854L88.6578 182.771ZM63.6616 160.189C64.4001 159.659 65.0804 159.054 65.6914 158.382C65.9089 158.152 66.1218 157.93 66.3257 157.736C69.686 154.341 72.8476 150.757 75.795 147L75.8539 147.149C76.5109 148.83 77.3173 150.487 78.0921 152.091C78.6494 153.238 79.2248 154.43 79.7367 155.604C80.2487 156.779 80.7743 158.12 81.2591 159.362C81.7937 160.717 82.3465 162.131 82.9536 163.499C82.2899 164.797 81.5328 166.045 80.6882 167.234L79.9542 168.336C77.1905 172.559 74.8526 175.635 72.6643 177.871C69.9322 171.895 66.8649 166.01 63.6707 160.18L63.6616 160.189ZM85.9666 52.4519C88.6533 51.2369 91.3083 50.1349 93.8546 49.1774C96.0021 48.3689 98.1588 47.4927 100.238 46.6481C100.886 46.3862 101.534 46.1197 102.191 45.8577C103.143 53.0254 104.348 60.2338 105.775 67.2344C104.642 67.4738 103.51 67.7176 102.4 67.9615C100.325 68.4132 98.1724 68.8649 96.0565 69.2849C94.2805 69.6236 92.5497 70.1159 90.8733 70.5901C90.2526 70.7663 89.6274 70.9379 89.0067 71.105C87.5251 65.9472 85.9394 59.8138 84.6617 53.0119C85.1601 52.7996 85.5995 52.6099 85.9666 52.4519ZM159.17 65.3555C160.076 65.5 160.946 65.6762 161.829 65.8794L161.829 96.5601L161.757 96.533C156.638 94.9027 151.412 93.6275 146.117 92.7165C145.437 82.0892 144.866 72.6226 144.391 64.1767C149.34 64.1895 154.281 64.5836 159.17 65.3555ZM294.667 108.791C292.456 115.706 289.873 122.616 287.105 129.526C286.389 129.793 285.678 130.068 284.957 130.344C284.237 130.619 283.408 130.94 282.619 131.247C281.831 131.554 281.165 131.807 280.445 132.096C278.696 132.818 276.912 133.45 275.098 133.988C274.618 134.124 274.142 134.259 273.662 134.399L273.712 134.133C274.12 131.969 274.7 129.269 275.375 126.148C276.403 121.378 277.64 115.665 278.804 109.283C278.841 109.281 278.877 109.281 278.913 109.283C279.982 109.324 281.047 109.364 282.121 109.391C285.56 109.455 289.982 109.134 294.667 108.791ZM250.406 285.273C250.94 279.736 251.498 274.045 252.404 268.083L252.748 269.289C254.18 274.121 255.854 278.879 257.764 283.544C255.824 290.016 254.397 295.919 253.07 301.61C251.825 296.957 250.858 292.235 250.175 287.468L250.406 285.273ZM266.118 301.171C264.238 304.97 262.571 308.899 260.962 312.711L259.449 316.275C259.118 317.051 258.81 317.783 258.543 318.492C257.048 314.81 255.742 311.055 254.628 307.242C254.363 306.302 254.098 305.355 253.835 304.401L253.903 304.116C255.263 298.245 256.681 292.17 258.611 285.526C260.774 290.708 263.27 295.923 266.1 301.171L266.118 301.171ZM163.207 377.952L163.207 356.883C164.439 357.592 165.726 358.337 167.094 359.118C171.278 361.517 175.633 363.607 180.125 365.369C180.578 373.847 180.827 376.927 181.117 380.811L181.375 384.293C175.442 382.879 169.661 380.888 164.117 378.35C163.764 378.196 163.465 378.06 163.189 377.943L163.207 377.952ZM96.197 332.927C95.7439 332.588 95.3225 332.263 94.8967 331.947C95.3724 330.091 95.8844 328.022 96.5368 324.982C97.6921 319.599 98.8882 314.034 100.161 308.497C100.469 307.187 100.769 305.869 101.068 304.55C101.679 305.074 102.309 305.62 102.957 306.198C106.038 308.944 110.387 313.362 114.542 317.63L114.402 318.555C114.139 320.312 113.862 322.133 113.536 323.912L113.119 326.125C112.752 328.085 112.372 330.118 112.036 332.128C111.878 333.085 111.733 334.047 111.583 335.009C111.312 336.78 111.035 338.622 110.677 340.388C110.464 341.477 110.224 342.52 109.993 343.627L109.839 344.34L107.574 342.385C103.102 338.546 99.2416 335.235 96.197 332.927ZM60.54 323.194L59.7969 323.271C62.0623 316.948 65.0072 308.818 67.6895 301.433L68.0021 300.58C68.4099 300.449 68.8086 300.295 69.1982 300.128C69.3658 300.06 69.529 299.993 69.6966 299.929C72.1835 298.999 74.7331 298.244 77.3264 297.671C79.4508 297.142 81.6257 296.839 83.8144 296.768C83.3613 298.633 82.8494 300.498 82.3374 302.346C81.6487 304.834 81.0054 307.377 80.3801 309.834C79.6416 312.747 78.8804 315.764 78.0377 318.695C77.5846 320.303 77.1542 321.789 76.7646 323.171C73.8375 322.785 70.8866 322.607 67.9341 322.638C65.461 322.687 62.9925 322.873 60.54 323.194ZM76.751 276.412C77.0092 276.249 77.3219 276.033 77.6979 275.775C80.0545 274.125 82.5271 272.646 85.0966 271.349C86.8364 270.429 88.6697 269.696 90.5653 269.163C89.2604 274.131 88.0643 279.176 86.9089 284.067C86.0254 287.812 85.0966 291.633 84.1542 295.44C81.7445 295.485 79.3476 295.802 77.0092 296.384C74.3561 296.963 71.7474 297.728 69.2027 298.674C69.0306 298.742 68.8584 298.809 68.6862 298.882C68.6583 298.89 68.6311 298.901 68.6047 298.913C71.1057 292.03 73.371 285.775 74.4947 282.541C75.2196 280.495 75.9717 278.435 76.751 276.412ZM103.097 183.796C105.571 181.579 108.154 180.712 110.8 181.231C114.093 181.872 116.717 184.108 118.955 186.773C118.955 188.209 118.864 189.69 118.715 192.12L118.579 194.379C118.194 200.864 117.605 207.504 116.803 214.4C114.705 212.228 112.177 210.335 109.178 209.658C106.764 209.123 104.237 209.501 102.087 210.719C102.667 204.559 103.016 198.674 103.147 192.992C103.229 189.824 103.212 186.759 103.097 183.796ZM90.017 179.975C88.762 175.134 87.0177 169.136 84.4351 163.495C84.7515 162.9 85.1088 162.328 85.5044 161.783C85.7355 161.444 85.9575 161.105 86.175 160.776C88.7847 156.598 91.707 152.357 94.9239 149.394C96.3329 153.5 97.7284 157.836 98.5847 161.191C98.932 162.555 99.2507 163.937 99.5407 165.337C95.8255 168.842 92.8487 174.325 90.017 179.975ZM76.751 145.745C77.4759 144.842 78.1102 143.983 78.6766 143.27L78.9393 142.927C81.6125 139.431 84.7478 135.343 88.5309 132.213C88.5717 132.367 88.608 132.525 88.6578 132.665C89.0147 133.757 89.4337 134.827 89.9128 135.872C90.1756 136.477 90.4474 137.105 90.683 137.71C91.4487 139.693 92.9213 143.622 94.439 147.98C93.8908 148.464 93.3381 148.988 92.7853 149.561C89.7724 152.673 87.1717 156.607 85.0196 160.044C84.8248 160.36 84.6073 160.676 84.3853 161.002C84.1633 161.327 83.9594 161.616 83.7601 161.932C83.307 160.898 82.9128 159.854 82.5141 158.829C82.0203 157.574 81.5174 156.282 80.9691 155.026C80.4209 153.771 79.8636 152.623 79.3018 151.458C78.5361 149.877 77.7478 148.247 77.1044 146.617L76.751 145.745ZM91.2404 71.8954C92.8895 71.4438 94.5931 70.9424 96.3057 70.6172C98.4442 70.2108 100.605 69.741 102.694 69.2849C103.8 69.041 104.923 68.8016 106.051 68.5622C106.233 69.4339 106.414 70.3056 106.604 71.1683L106.745 71.8141C107.483 75.5944 108.258 79.316 109.046 82.8751C109.196 83.5661 109.363 84.2526 109.531 84.9436C109.821 86.1315 110.125 87.3554 110.328 88.5568C110.396 88.9588 110.455 89.3562 110.51 89.7537C109.44 89.7537 108.326 89.7853 107.152 89.8485C105.739 89.9253 104.298 89.8802 102.907 89.8485C101.874 89.8169 100.805 89.7808 99.7355 89.7943C98.2766 89.7943 96.8313 89.9705 95.4313 90.124C95.2093 90.1466 94.9782 90.1737 94.7607 90.1963C94.7607 90.1421 94.7381 90.0924 94.7335 90.0382C94.2956 87.8268 93.6634 85.658 92.8442 83.557C92.4682 82.5002 92.0785 81.4027 91.7614 80.3458L91.2132 78.5392C90.6559 76.7326 90.0306 74.664 89.3737 72.4148L91.2404 71.8954ZM111.592 67.5144C115.924 66.8143 120.156 66.1595 124.319 65.613L124.424 66.4304C125.425 74.795 126.44 82.8118 127.491 90.6028C125.869 90.4899 124.229 90.3905 122.602 90.3454C121.379 90.3092 120.033 90.2144 118.611 90.1105C116.567 89.966 114.352 89.8079 111.882 89.7672C111.819 89.293 111.751 88.8188 111.669 88.34C111.457 87.0889 111.148 85.8424 110.854 84.632C110.686 83.95 110.523 83.277 110.374 82.595C109.585 79.0405 108.815 75.3325 108.077 71.5657L107.932 70.8928L107.379 68.2958C108.783 68.0022 110.188 67.7357 111.592 67.5144ZM161.829 98.0008L161.829 128.641C158.175 126.731 154.404 125.052 150.539 123.614C149.633 123.271 148.813 122.945 147.993 122.634C147.725 117.562 147.458 112.95 147.191 109.026C146.84 103.82 146.513 98.8514 146.207 94.1212C151.329 95.0153 156.384 96.2573 161.336 97.8382C161.499 97.8744 161.666 97.9331 161.829 97.9918L161.829 98.0008ZM260.097 139.377C260.518 139.34 260.953 139.304 261.384 139.246C262.928 138.996 264.445 138.602 265.914 138.067C266.748 137.791 267.609 137.507 268.479 137.285C269.616 136.992 270.744 136.658 271.877 136.328C270.178 144.941 268.039 153.572 265.987 161.462L265.81 161.593C263.916 163.007 261.764 164.606 260.124 166.042C258.563 167.395 256.777 168.465 254.846 169.204L254.769 169.24L255.113 166.611C255.942 160.288 256.722 154.308 257.442 148.504C257.809 145.528 258.117 142.52 258.407 139.557C258.967 139.465 259.531 139.402 260.097 139.368L260.097 139.377ZM259.25 187.432C259.204 187.663 259.168 187.884 259.132 188.128L258.357 189.239C257.56 190.391 256.817 191.578 256.092 192.73C254.529 195.232 253.038 197.599 251.008 199.663C251.008 199.333 251.058 199.008 251.099 198.678C252.195 189.049 253.364 179.813 254.551 170.857C254.809 170.713 255.075 170.587 255.349 170.477C257.424 169.677 259.343 168.52 261.017 167.058C262.281 165.952 263.88 164.728 265.425 163.572C264.664 166.449 263.916 169.213 263.21 171.828C261.47 178.282 259.961 183.86 259.25 187.423L259.25 187.432ZM248.335 269.064C248.376 270.03 248.408 270.726 248.385 271.037C248.358 271.489 248.317 271.941 248.276 272.392C248.222 273.038 248.163 273.702 248.136 274.37C248.1 275.274 248.077 276.222 248.077 277.144C248.077 278.228 248.113 279.307 248.158 280.382C247.995 283.751 247.705 287.193 247.289 290.571C246.564 281.99 246.346 273.106 246.446 264.375C247.134 262.117 247.719 259.832 248.208 257.542C248.072 263.079 248.24 266.882 248.335 269.055L248.335 269.064ZM252.413 304.437C250.868 311.081 249.459 317.083 247.511 322.815C247.352 321.527 247.193 320.154 247.057 318.677C246.781 316.026 246.627 313.38 246.604 310.76C248.163 304.852 249.024 298.863 249.699 292.694C250.406 296.691 251.357 300.611 252.395 304.428L252.413 304.437ZM241.149 395.124C236.262 397.751 231.095 399.825 225.745 401.307C225.627 401.339 225.509 401.366 225.391 401.397C225.21 399.139 224.997 396.822 224.757 394.41L224.666 393.507C224.527 391.699 224.285 389.9 223.942 388.119C230.102 387.297 236.057 385.348 241.507 382.369L241.824 382.193C242.121 383.308 242.36 384.437 242.54 385.576C242.993 388.476 243.32 391.194 243.587 393.778C242.749 394.23 241.938 394.69 241.131 395.115L241.149 395.124ZM203.286 387.206L202.941 387.166C202.819 386.434 202.706 385.698 202.611 384.966C202.248 382.179 201.963 379.33 201.705 376.575C201.546 375.007 201.383 373.413 201.211 371.814C203.659 372.588 206.192 373.069 208.754 373.246C209.448 373.314 210.164 373.381 210.929 373.476C211.49 373.55 212.045 373.658 212.592 373.801C213.775 374.086 214.993 374.379 218.423 374.339C218.903 374.339 219.379 374.339 219.855 374.339C220.308 376.281 220.761 378.259 221.11 380.233C221.237 380.983 221.345 381.75 221.445 382.491C221.625 383.989 221.896 385.475 222.256 386.94C221.558 387.017 220.897 387.08 220.29 387.143C219.891 387.179 219.51 387.22 219.153 387.256C217.67 387.389 216.182 387.448 214.694 387.432C213.571 387.432 212.429 387.432 211.26 387.518C208.598 387.686 205.926 387.581 203.286 387.206ZM130.404 331.468C130.522 329.562 130.803 327.625 131.084 325.746C131.256 324.59 131.437 323.393 131.573 322.214C132.13 317.449 132.792 312.625 133.435 307.96L133.675 306.221C137.468 310.557 141.645 315.06 146.361 319.635L146.176 321.893C145.936 324.761 145.691 327.724 145.514 330.66C145.197 336.012 144.952 340.226 144.758 343.622C140.408 340.388 136.09 336.698 130.404 331.468ZM116.001 317.169C116.182 315.972 116.372 314.771 116.59 313.556L117.106 310.719C117.926 306.266 118.769 301.655 119.535 297.102C119.893 294.961 120.332 292.802 120.776 290.68L122.271 292.522C125.407 296.388 128.764 300.521 132.488 304.834L132.09 307.752C131.446 312.427 130.78 317.237 130.223 322.033C130.092 323.189 129.91 324.377 129.738 325.524C129.507 327.074 129.285 328.686 129.126 330.258C128.451 329.63 127.767 328.989 127.047 328.316C124.723 326.13 121.311 322.616 117.695 318.89L116.001 317.169ZM88.2319 284.384C89.4326 279.28 90.6785 273.996 92.0468 268.851C96.4915 268.147 100.8 269.61 106.446 274.669C104.783 281.299 103.301 288.074 101.874 294.632C101.339 297.075 100.796 299.568 100.243 302.061C95.5944 298.263 91.3128 295.783 85.5497 295.476C86.483 291.759 87.3711 288.033 88.2319 284.384ZM107.977 274.118C110.242 265.161 111.896 255.952 113.387 246.874C114.293 247.872 115.14 248.929 116.005 250.008C118.724 253.378 121.388 257.176 124.161 261.209C123.042 269.718 121.954 277.383 121.392 280.712C121.003 283.033 120.523 285.364 120.033 287.644C117.016 283.968 114.103 280.504 111.207 277.442C110.093 276.263 109.019 275.183 107.963 274.181L107.977 274.118ZM102.993 162.84C102.194 163.264 101.436 163.76 100.728 164.321C100.48 163.156 100.21 162.003 99.9167 160.862C99.0106 157.325 97.5245 152.732 96.0429 148.441C98.2313 146.671 100.547 145.533 102.989 145.424C105.036 145.346 107.075 145.743 108.942 146.585C110.22 147.181 111.253 147.678 112.168 148.175C113.649 153.31 115.108 158.892 116.318 165.197C111.37 161.535 106.998 160.758 103.007 162.84L102.993 162.84ZM89.7225 131.292C90.9617 130.357 92.2931 129.551 93.696 128.885C95.9931 127.819 98.3083 127.683 100.275 127.692C102.119 127.692 103.822 128.239 105.63 128.808C105.888 128.889 106.151 128.966 106.414 129.047L106.495 129.499C106.933 131.71 107.566 133.879 108.385 135.98C108.761 137.042 109.15 138.135 109.468 139.191L109.921 140.736C110.478 142.57 111.049 144.453 111.62 146.391C110.981 146.07 110.26 145.74 109.495 145.37C107.429 144.436 105.173 143.997 102.907 144.087C100.447 144.191 98.0183 145.185 95.5491 147.091C94.0811 142.904 92.6857 139.173 91.9245 137.254C91.6753 136.621 91.3989 135.98 91.1316 135.366C90.6736 134.369 90.2727 133.346 89.9309 132.304C89.8358 131.992 89.7679 131.676 89.6908 131.337L89.7225 131.292ZM95.5853 91.4519C96.9445 91.3029 98.3672 91.1493 99.7582 91.1312C100.791 91.1312 101.842 91.1312 102.862 91.1854C104.284 91.2351 105.752 91.2848 107.225 91.1854C108.444 91.1177 109.594 91.0906 110.704 91.0906C110.795 91.6868 110.895 92.2965 111.031 92.8972C111.937 96.962 112.712 100.124 113.523 103.47C114.143 106.018 114.8 108.728 115.58 112.052C114.388 111.781 113.396 111.6 112.539 111.437C111.774 111.297 111.112 111.175 110.519 111.026C109.925 110.877 109.246 110.665 108.584 110.453C108.077 110.295 107.556 110.128 107.025 109.979C105.298 109.546 103.537 109.261 101.761 109.125C101.543 109.102 101.308 109.075 101.108 109.053C99.9892 105.95 98.8429 102.752 97.742 99.5997C97.4928 98.8816 97.23 98.1634 96.9627 97.4408C96.2068 95.4878 95.5654 93.4926 95.0417 91.4654C95.2229 91.4925 95.4041 91.4519 95.5853 91.4519ZM131.424 118.303C132.502 126.432 133.336 134.661 134.088 142.773L133.716 142.556C131.356 141.156 128.914 139.706 126.594 138.139C125.067 137.105 123.472 136.183 121.882 135.312C121.551 132.868 121.021 130.447 120.5 128.085C120.332 127.327 120.165 126.568 120.006 125.827C118.991 121.049 118.144 117.21 117.401 113.958C118.502 114.26 119.743 114.64 121.157 115.127C123.422 115.909 125.493 116.523 127.881 117.237C128.982 117.562 130.155 117.91 131.424 118.303ZM254.882 140.266C255.598 140.17 256.309 140.038 257.012 139.869C256.735 142.678 256.436 145.528 256.105 148.342C255.39 154.141 254.592 160.103 253.763 166.426L253.31 170.039L253.079 170.188C251.987 170.902 250.628 171.792 245.866 173.273C243.994 173.851 242.062 174.21 240.107 174.343C240.887 164.588 241.689 154.52 242.409 144.3C242.5 142.994 242.54 141.68 242.567 140.393C246.662 140.846 250.797 140.804 254.882 140.266ZM249.59 201.095C249.268 201.442 248.956 201.79 248.648 202.138C247.928 202.999 247.142 203.802 246.296 204.541C244.627 205.987 242.804 207.247 240.859 208.298C239.788 208.83 238.66 209.24 237.498 209.522C237.498 208.538 237.556 207.549 237.624 206.573C238.354 196.185 239.188 185.77 239.989 175.703C242.115 175.572 244.217 175.187 246.251 174.556C250.202 173.327 251.955 172.451 253.047 171.782C251.923 180.395 250.782 189.27 249.735 198.511C249.649 199.396 249.613 200.237 249.59 201.095ZM246.641 232.638C244.729 236.138 242.857 239.413 239.903 242.123C238.69 243.24 237.316 244.171 235.826 244.882C235.93 243.45 235.953 242.001 235.975 240.582C235.975 239.544 236.011 238.469 236.061 237.421C236.392 230.569 236.791 223.646 237.28 216.257C237.389 214.649 237.411 213.027 237.439 211.46L237.439 210.954C238.825 210.62 240.169 210.129 241.444 209.491C243.486 208.397 245.401 207.081 247.153 205.566C248.009 204.823 248.806 204.016 249.536 203.15C249.509 204.053 249.237 206.537 248.865 209.924C248.276 215.371 247.402 223.302 246.641 232.638ZM253.124 353.829C250.56 357.542 246.015 363.725 240.017 367.573L239.595 365.672L239.391 364.768C239.183 363.829 239.006 362.858 238.834 361.918C238.626 360.798 238.417 359.66 238.145 358.504C237.973 357.786 237.788 357.077 237.602 356.368C241.888 353.409 245.685 349.114 248.829 343.563C249.228 342.863 249.59 342.208 249.948 341.563C250.043 341.874 250.129 342.168 250.202 342.466C250.419 343.274 250.623 344.092 250.827 344.905C251.131 346.124 251.448 347.389 251.815 348.626C252.182 349.864 252.485 351.169 252.78 352.42C252.902 352.863 253.02 353.346 253.124 353.829ZM256.962 366.187L257.301 367.09C255.852 368.738 254.474 370.251 252.984 371.697C249.907 374.66 246.541 377.69 242.654 380.084C242.531 379.592 242.404 379.095 242.296 378.593C242.037 377.437 241.811 376.24 241.589 375.084C241.421 374.208 241.254 373.336 241.072 372.464C240.832 371.308 240.583 370.143 240.329 368.987C246.251 365.328 250.8 359.502 253.573 355.555C253.613 355.699 253.645 355.848 253.69 356.006C253.989 357.05 254.334 358.088 254.669 359.096C255.063 360.279 255.467 361.498 255.797 362.709C256.126 363.889 256.519 365.05 256.975 366.187L256.962 366.187ZM220.657 371.927C220.24 370.242 219.814 368.494 219.442 366.765C219.302 366.114 219.184 365.441 219.075 364.786C218.875 363.442 218.572 362.115 218.169 360.816C224.493 361.832 230.971 360.525 236.401 357.14C236.546 357.691 236.691 358.242 236.822 358.798C237.085 359.9 237.276 361.056 237.498 362.144C237.67 363.097 237.851 364.082 238.064 365.044L238.268 365.947L238.789 368.3C234.714 370.599 230.236 372.102 225.595 372.726C224.038 372.927 222.467 373.007 220.897 372.966L220.657 371.927ZM121.134 288.999C121.696 286.366 122.271 283.647 122.725 280.937C123.255 277.776 124.247 270.807 125.298 262.894L126.929 265.297C129.625 269.271 132.438 273.427 135.537 277.69C135.27 280.49 134.976 283.562 134.659 286.967C134.156 292.333 133.467 297.743 132.751 303.055C129.348 299.089 126.254 295.273 123.345 291.691L121.134 288.999ZM129.566 183.349C130.694 185.011 131.587 186.393 132.529 187.866C133.793 189.83 135.103 191.863 137.191 194.884L138.55 196.786C138.668 199.076 138.777 201.366 138.859 203.651L138.981 206.903C139.144 211.221 139.312 215.651 139.28 220.041C137.15 216.013 134.862 211.568 132.321 206.555L132.148 206.212L130.613 203.186C130.594 198.118 130.341 191.718 129.566 183.349ZM120.622 136.165L120.704 136.911C120.991 139.295 121.422 141.66 121.995 143.992C122.267 145.207 122.548 146.463 122.774 147.682C123.046 149.114 123.273 150.605 123.495 152.045C123.717 153.486 123.948 154.918 124.206 156.359C123.798 156.002 123.386 155.654 122.983 155.315C122.077 154.534 121.103 153.726 120.233 152.867C117.26 149.927 115.584 148.545 113.323 147.262C112.63 144.869 111.932 142.565 111.253 140.33L110.8 138.785C110.473 137.701 110.079 136.59 109.699 135.515C108.944 133.56 108.347 131.549 107.914 129.499C109.831 130.14 111.661 131.014 113.364 132.1C115.217 133.27 117.161 134.309 119.046 135.321C119.567 135.592 120.092 135.876 120.622 136.165ZM124.836 151.842C124.614 150.388 124.383 148.888 124.111 147.434C123.88 146.192 123.594 144.923 123.318 143.699C122.777 141.481 122.364 139.234 122.081 136.969C123.354 137.687 124.623 138.437 125.833 139.259C128.184 140.853 130.64 142.308 133.018 143.717L134.237 144.444C134.446 146.702 134.654 148.961 134.853 151.219C135.075 153.68 135.306 156.137 135.519 158.594L135.624 159.714L136.439 168.68L134.871 167.18C133.385 165.735 131.936 164.19 130.536 162.695C129.045 161.105 127.504 159.475 125.896 157.93C125.47 155.93 125.144 153.856 124.836 151.842ZM179.585 177.004C179.092 191.362 178.802 201.542 178.652 209.554C175.644 206.555 172.064 202.946 167.38 198.168L166.134 196.872C165.191 195.892 164.217 194.889 163.202 193.931L163.202 163.409C164.108 164.109 165.132 164.958 166.759 166.299C170.66 169.515 174.593 172.812 178.398 176.001L179.585 177.004ZM214.436 205.819L214.78 206.049C214.749 206.867 214.703 207.856 214.626 209.211C214.441 212.589 214.173 216.437 213.901 220.904C213.512 226.902 213.068 233.781 212.655 241.355C207.042 237.778 201.809 232.724 196.703 227.525C197.187 216.379 197.772 204.911 198.402 193.2C199.856 194.555 201.351 195.955 202.901 197.265C204.129 198.299 205.406 199.302 206.643 200.268C207.205 200.705 207.764 201.146 208.32 201.591C209.584 202.594 210.92 203.47 212.216 204.301C212.95 204.816 213.707 205.304 214.436 205.819ZM236.089 211.239L236.089 211.442C236.089 212.996 236.039 214.604 235.934 216.171C235.441 223.569 235.028 230.502 234.711 237.358C234.661 238.41 234.643 239.499 234.625 240.551C234.625 242.177 234.571 243.839 234.421 245.46C232.732 246.053 230.96 246.382 229.17 246.436C223.733 246.63 218.713 244.945 213.978 242.163C214.404 234.309 214.862 227.182 215.261 220.999C215.551 216.532 215.8 212.679 215.99 209.297C216.044 208.321 216.081 207.549 216.112 206.889C219.611 209.008 223.475 210.459 227.507 211.166C230.342 211.683 233.244 211.712 236.089 211.252L236.089 211.239ZM233.307 281.245C229.514 283.083 224.29 283.462 219.773 282.184C217.295 281.468 214.916 280.447 212.692 279.144C212.855 266.349 213.335 254.367 213.892 243.69C218.645 246.377 223.697 247.99 229.211 247.786C230.916 247.736 232.606 247.454 234.235 246.951L234.149 247.488C233.787 250.002 233.636 252.542 233.696 255.08C233.696 255.984 233.696 256.959 233.651 257.876C233.511 262.393 233.325 270.071 233.325 279.104L233.307 281.245ZM223.466 346.196C220.736 346.185 218.02 345.815 215.387 345.094L215.243 344.137C214.513 339.508 214.033 335.732 213.729 332.241C216.62 333.42 219.7 334.073 222.822 334.169C226.593 334.23 230.307 333.246 233.551 331.328C233.566 335.16 233.787 338.988 234.213 342.796C231.047 344.965 227.307 346.153 223.466 346.21L223.466 346.196ZM196.943 335.167C196.771 332.006 196.521 328.844 196.277 325.773C196.114 323.695 195.946 321.577 195.824 319.45C200.653 324.129 206.149 328.858 212.334 331.644C212.637 335.366 213.131 339.368 213.92 344.345L213.969 344.67C212.308 344.149 210.696 343.483 209.153 342.678C202.91 339.408 199.43 337.06 196.943 335.167ZM161.829 194.523L161.829 224.964C158.141 220.499 154.526 215.983 150.983 211.415L150.928 207.906C150.815 201.059 150.625 192.884 150.376 184.113C154.367 187.934 157.625 190.942 160.928 193.733C161.231 193.977 161.53 194.252 161.829 194.523ZM178.593 211.433C178.38 224.133 178.534 231.333 178.765 242.095L178.824 244.887C173.492 238.803 168.263 232.737 163.166 226.599L163.166 195.815C163.832 196.474 164.48 197.147 165.119 197.811L166.383 199.116C171.67 204.482 175.553 208.384 178.616 211.433L178.593 211.433ZM195.656 317.481C195.597 316.482 195.543 315.484 195.502 314.491C195.366 311.388 195.371 308.231 195.371 305.173L195.371 301.754C195.824 302.305 196.318 302.861 196.798 303.407C201.202 308.416 206.136 313.637 211.885 317.056C211.84 321.88 211.885 325.868 212.18 330.104C206.344 327.304 201.107 322.742 196.494 318.253C196.241 317.986 195.96 317.729 195.679 317.481L195.656 317.481ZM151.001 243.256C154.349 248.513 157.797 253.441 161.829 258.938L161.829 280.427L161.317 279.854L161.204 279.727C157.417 275.576 153.502 271.295 150.389 266.656C150.702 257.989 150.892 250.212 151.001 243.256ZM194.102 264.136C193.948 271.29 193.869 278.229 193.866 284.953C193.866 289.415 193.904 293.772 193.98 298.023C189.558 292.789 185.308 287.432 181.171 282.098C181.193 281.212 181.164 280.325 181.085 279.442C181.053 278.991 181.022 278.539 181.004 278.088C180.75 271.435 180.551 264.226 180.41 255.397C180.369 252.944 180.324 250.695 180.283 248.59C184.284 253.107 188.339 257.682 192.444 262.293L194.102 264.136ZM179.051 255.401C179.2 264.24 179.391 271.462 179.649 278.124C179.649 278.575 179.699 279.059 179.73 279.537L179.78 280.305C178.213 278.276 176.659 276.255 175.118 274.244C170.492 268.214 166.618 263.142 163.189 258.49L163.189 228.727C168.304 234.851 173.546 240.921 178.892 246.991L179.051 255.401ZM161.834 256.639C157.842 251.165 154.426 246.183 151.042 240.763C151.187 229.544 151.114 220.583 151.042 213.664C154.576 218.202 158.181 222.679 161.857 227.096L161.834 256.639ZM163.193 260.776C166.365 265.03 169.894 269.664 174.067 275.071C175.964 277.543 177.88 280.03 179.817 282.532C179.789 282.884 179.753 283.128 179.717 283.413C179.576 284.397 179.368 285.883 179.074 294.076C178.987 296.483 178.906 298.651 178.824 300.643C175.091 296.492 172.028 292.689 169.16 289.148C167.139 286.646 165.205 284.257 163.216 281.958L163.193 260.776ZM180.41 294.121C180.659 287.148 180.863 285.088 180.976 284.054C185.181 289.474 189.503 294.893 194.02 300.169C194.02 301.844 194.02 303.529 194.02 305.173C194.02 308.244 194.02 311.419 194.152 314.545C194.152 315.105 194.206 315.665 194.238 316.229C193.898 315.922 193.567 315.62 193.246 315.29L192.457 314.468C191.778 313.754 191.071 313.018 190.323 312.327C186.368 308.673 183.024 305.272 180.088 302.075C180.179 299.708 180.297 297.098 180.406 294.121L180.41 294.121ZM197.849 302.513C197.015 301.569 196.195 300.611 195.375 299.654L195.375 298.782C195.171 288.394 195.221 277.27 195.452 265.627C199.888 270.595 205.062 276.123 211.346 279.926C211.313 282.675 211.296 285.462 211.296 288.286C211.296 294.659 211.382 301.199 211.586 307.847C211.618 308.985 211.681 310.141 211.745 311.261C211.817 312.643 211.894 314.057 211.921 315.462C206.598 312.133 201.981 307.224 197.849 302.513ZM195.479 263.635C195.72 252.664 196.118 241.219 196.63 229.4C201.714 234.535 206.938 239.462 212.583 242.949C212.017 253.595 211.527 265.563 211.351 278.359C205.062 274.37 199.888 268.594 195.47 263.635L195.479 263.635ZM194.156 262.144L193.468 261.376C189 256.36 184.593 251.392 180.247 246.472L180.156 242.073C179.934 231.685 179.785 224.644 179.966 212.765C182.653 215.426 184.687 217.399 186.549 219.201C188.715 221.292 190.84 223.474 193.092 225.786L195.325 228.081C194.804 239.828 194.397 251.219 194.147 262.144L194.156 262.144ZM149.569 207.919L149.596 209.586C146.274 205.247 143.028 200.825 139.86 196.321C139.438 188.259 138.809 180.188 138.111 172.207L140.938 174.958C143.978 177.92 146.606 180.481 148.98 182.762C149.248 192.048 149.451 200.715 149.569 207.919ZM149.633 211.871C149.732 218.596 149.823 227.421 149.701 238.6C146.805 233.853 143.879 228.686 140.576 222.512C140.712 217.291 140.512 211.988 140.313 206.849L140.191 203.597C140.136 202.021 140.064 200.435 139.991 198.868C143.13 203.285 146.343 207.619 149.633 211.871ZM149.669 241.143C149.578 248.107 149.402 255.939 149.098 264.692C147.68 262.488 146.185 260.302 144.73 258.188C142.918 255.559 141.061 252.845 139.357 250.094L139.325 250.036C139.756 243.559 140.105 236.206 140.49 225.222C143.779 231.297 146.719 236.4 149.669 241.143ZM143.611 258.956C145.197 261.264 146.842 263.653 148.36 266.051C148.572 266.385 148.813 266.71 149.016 267.04C148.745 274.462 148.372 282.538 147.897 291.267C143.82 286.533 140.195 281.859 136.919 277.315L137.314 273.21C138.125 264.8 138.695 258.856 139.167 252.325C140.612 254.579 142.121 256.797 143.611 258.956ZM149.189 292.608C149.642 284.081 150.027 276.195 150.303 268.906C153.289 273.047 156.787 276.9 160.198 280.648L160.312 280.775C160.824 281.335 161.327 281.909 161.829 282.482L161.829 305.683C161.129 305.003 160.423 304.327 159.714 303.656C155.858 300.011 152.374 296.361 149.18 292.744L149.189 292.608ZM163.189 284.054C164.811 285.964 166.415 287.943 168.073 289.998C171.181 293.85 174.538 298.001 178.72 302.581L178.575 306.135C178.321 312.25 178.122 316.523 178.122 321.134C173.804 317.431 169.862 313.556 165.998 309.744L163.198 306.993L163.189 284.054ZM179.468 322.282C179.468 317.255 179.658 312.797 179.921 306.189L180.011 303.99C182.73 306.916 185.824 310.015 189.404 313.321C190.119 313.985 190.813 314.707 191.479 315.403C191.741 315.683 192.009 315.958 192.276 316.234C192.87 316.839 193.495 317.386 194.088 317.914C194.165 317.986 194.252 318.059 194.333 318.126C194.492 320.732 194.696 323.338 194.899 325.881C195.112 328.56 195.352 331.301 195.497 334.056L194.478 333.23C193.266 332.197 191.984 331.249 190.641 330.393C186.724 327.963 182.989 325.252 179.468 322.282ZM222.859 332.832C219.67 332.723 216.531 332.013 213.607 330.741C213.29 326.491 213.222 322.544 213.253 317.824C216.594 319.665 220.315 320.714 224.127 320.89C227.739 321.033 231.325 320.221 234.521 318.537C234.195 320.296 233.959 322.071 233.814 323.853C233.678 325.832 233.606 327.796 233.583 329.756C230.393 331.819 226.66 332.89 222.859 332.832ZM234.752 316.826C231.561 318.737 227.879 319.679 224.159 319.536C220.312 319.345 216.569 318.224 213.253 316.27C213.253 314.572 213.163 312.856 213.068 311.189C213.009 310.078 212.945 308.931 212.914 307.802C212.628 298.507 212.574 289.424 212.665 280.703C214.794 281.888 217.053 282.826 219.397 283.498C224.064 284.817 229.256 284.51 233.302 282.74C233.361 292.59 233.655 303.642 234.471 313.709C234.503 314.066 234.548 314.436 234.593 314.811C234.698 315.478 234.751 316.151 234.752 316.826ZM195.398 226.215L194.039 224.861C191.877 222.643 189.648 220.344 187.469 218.244C185.095 215.954 182.766 213.682 179.971 210.904C180.107 202.901 180.392 192.703 180.877 178.133C184.288 180.992 187.768 183.891 191.23 186.714C193.255 188.381 195.198 190.214 197.079 191.998C196.49 203.665 195.892 215.1 195.398 226.215ZM161.829 192.707C158.291 189.713 154.78 186.457 150.344 182.189C150.081 173.128 149.76 163.499 149.402 154.073C150.498 154.778 151.59 155.491 152.668 156.214C154.598 157.515 156.107 158.518 157.321 159.326C159.541 160.803 160.778 161.625 161.852 162.402L161.829 192.707ZM148.917 180.825C146.815 178.788 144.504 176.538 141.881 173.987L137.93 170.138C137.617 166.602 137.291 163.084 136.974 159.592L136.87 158.477C136.643 156.02 136.416 153.563 136.204 151.101L135.678 145.311C136.919 146.061 138.156 146.824 139.361 147.619C141.355 148.933 143.398 150.234 145.369 151.49C146.235 152.036 147.105 152.596 147.979 153.156C148.337 162.402 148.659 171.868 148.917 180.825ZM129.552 163.621C130.966 165.125 132.425 166.683 133.938 168.138L136.62 170.744C137.304 178.508 137.934 186.362 138.383 194.202L138.306 194.099C136.231 191.095 134.926 189.072 133.666 187.112C132.361 185.084 131.156 183.209 129.281 180.549C128.759 175.613 128.053 170.048 127.092 163.743L126.934 162.691C126.846 161.942 126.719 161.199 126.553 160.464C127.582 161.516 128.578 162.578 129.557 163.621L129.552 163.621ZM130.912 206.822L131.079 207.16C134.088 213.1 136.747 218.244 139.203 222.837L139.203 223.393C138.831 234.232 138.496 241.644 138.102 248.008C136.095 244.67 134.07 241.12 132.103 237.665C131.029 235.781 129.974 233.93 128.932 232.132C129.471 226.337 129.897 220.556 130.191 214.888L130.259 213.66C130.372 211.568 130.504 209.107 130.567 206.112L130.912 206.822ZM130.912 238.338C133.213 242.38 135.592 246.553 137.939 250.374C137.449 257.659 136.847 263.892 135.963 273.079L135.714 275.64C132.996 271.823 130.477 268.111 128.057 264.538L125.565 260.875C126.644 252.646 127.745 243.712 128.429 237.159C128.524 236.256 128.605 235.352 128.696 234.449L130.912 238.338ZM135.995 287.093C136.253 284.289 136.498 281.728 136.725 279.352C140.041 283.869 143.67 288.516 147.793 293.218C147.639 296.095 147.512 299.008 147.385 301.831C147.2 306.085 147.009 310.484 146.719 314.807L146.493 317.869C141.822 313.28 137.681 308.768 133.915 304.432C134.695 298.719 135.451 292.888 135.995 287.093ZM148.074 314.897C148.369 310.561 148.559 306.153 148.745 301.89C148.849 299.518 148.953 297.084 149.08 294.663C152.043 297.969 155.255 301.298 158.78 304.631C159.8 305.593 160.819 306.578 161.829 307.562L161.829 331.455C156.642 327.331 151.989 323.189 147.757 319.102C147.87 317.729 147.979 316.297 148.074 314.897ZM163.189 308.895C163.809 309.5 164.426 310.11 165.033 310.701C169.183 314.766 173.41 318.953 178.108 322.896C178.108 327.458 178.276 332.557 178.652 340.14L178.829 343.333C176.056 341.707 173.256 339.901 170.542 337.981C167.978 336.174 165.527 334.348 163.189 332.502L163.189 308.895ZM180.011 340.095C179.667 333.166 179.504 328.316 179.472 324.052C182.793 326.783 186.296 329.286 189.956 331.545C191.249 332.372 192.483 333.286 193.649 334.282C194.238 334.765 194.881 335.285 195.624 335.858L195.656 336.45C195.91 341.802 196.521 347.159 197.228 352.434L196.775 352.163C195.828 351.585 194.85 350.993 193.785 350.433C193.111 350.1 192.411 349.822 191.692 349.602C191.329 349.48 190.971 349.358 190.622 349.223C187.044 347.785 183.572 346.096 180.233 344.169C180.156 342.814 180.075 341.45 180.011 340.095ZM197.042 336.933C200.685 339.531 204.515 341.857 208.501 343.893C210.308 344.829 212.204 345.586 214.16 346.151C214.273 347.023 214.382 347.913 214.49 348.834C214.825 352.317 215.417 355.771 216.262 359.168C214.562 358.971 212.884 358.623 211.246 358.129C210.793 357.985 210.39 357.817 209.946 357.641C209.262 357.359 208.562 357.117 207.848 356.919C204.646 356.16 201.571 354.943 198.719 353.305C197.98 347.908 197.328 342.407 197.042 336.929L197.042 336.933ZM215.841 348.676L215.582 346.544C218.16 347.202 220.809 347.54 223.47 347.551C227.327 347.505 231.093 346.385 234.344 344.318L234.512 345.953C234.693 347.886 234.883 349.882 235.187 351.824C235.4 353.179 235.722 354.534 236.057 355.799C230.819 359.145 224.527 360.444 218.387 359.448L217.73 359.353C216.688 355.803 216.257 352.194 215.841 348.69L215.841 348.676ZM221.237 374.33C222.763 374.356 224.29 374.27 225.804 374.072C230.47 373.439 234.979 371.954 239.106 369.691L239.758 372.726C239.937 373.591 240.106 374.456 240.266 375.323C240.488 376.489 240.719 377.695 240.982 378.873C241.127 379.519 241.285 380.152 241.435 380.779C241.231 380.897 241.032 381.019 240.828 381.132C235.494 384.068 229.653 385.976 223.611 386.755C223.234 385.294 222.953 383.811 222.768 382.315C222.668 381.565 222.56 380.793 222.428 380.021C222.111 378.101 221.685 376.204 221.237 374.343L221.237 374.33ZM247.66 342.868C244.457 348.522 240.9 352.402 237.271 355.008C236.986 353.888 236.727 352.786 236.546 351.634C236.252 349.715 236.061 347.737 235.88 345.826C235.808 345.031 235.726 344.245 235.644 343.459C240.039 340.325 243.8 335.501 246.45 329.323L246.903 328.28C247.462 332.15 248.302 335.975 249.418 339.724C248.87 340.718 248.294 341.761 247.66 342.881L247.66 342.868ZM245.2 328.79C242.771 334.431 239.41 338.893 235.486 341.888C235.085 338.094 234.894 334.28 234.915 330.466C235.786 329.869 236.611 329.21 237.384 328.492C240.773 325.33 243.374 320.872 245.345 314.834C245.426 316.153 245.531 317.471 245.671 318.795C245.934 321.338 246.21 323.587 246.487 325.592C246.083 326.676 245.657 327.742 245.2 328.803L245.2 328.79ZM244.117 314.22C242.214 320.132 239.709 324.477 236.455 327.498C235.97 327.951 235.462 328.379 234.933 328.781C234.969 327.164 235.043 325.545 235.155 323.926C235.333 321.816 235.627 319.717 236.034 317.639L236.034 317.612C237.467 316.685 238.772 315.577 239.917 314.314C242.182 311.808 243.927 308.66 245.268 305.123C245.182 306.93 245.15 308.737 245.177 310.579C244.86 311.812 244.516 313.023 244.117 314.233L244.117 314.22ZM246.885 301.492C246.958 300.711 247.103 299.92 247.261 299.08C247.397 298.349 247.533 297.603 247.619 296.854C247.782 296.059 247.933 295.256 248.072 294.446C247.705 297.581 247.27 300.67 246.713 303.728C246.758 302.987 246.816 302.246 246.885 301.506L246.885 301.492ZM246.274 296.659C244.914 303.299 242.649 309.306 238.916 313.407C238.064 314.345 237.117 315.193 236.089 315.936C236.057 315.484 236.007 315.064 235.953 314.635C235.907 314.278 235.862 313.931 235.835 313.592C235.006 303.335 234.716 292.048 234.67 282.062C239.455 279.379 242.749 274.276 245.064 268.345C245.031 277.144 245.453 285.939 246.328 294.695C246.381 295.354 246.363 296.017 246.274 296.673L246.274 296.659ZM234.661 280.481C234.661 270.879 234.843 262.637 234.988 257.921C235.019 256.986 235.024 256.024 235.033 255.09C234.98 252.626 235.131 250.162 235.486 247.723C235.558 247.294 235.622 246.86 235.672 246.427C237.566 245.628 239.306 244.506 240.814 243.112C243.179 240.957 244.856 238.491 246.387 235.858C245.73 244.521 245.2 254.222 245.082 264.181C242.939 271.101 239.704 277.315 234.661 280.495L234.661 280.481ZM241.195 140.23C241.167 141.554 241.127 142.899 241.036 144.223C240.311 154.493 239.505 164.615 238.721 174.42C231.553 174.556 224.585 171.882 218.786 168.607L219.143 163.973C220.688 144.625 221.178 137.642 221.432 133.23C227.666 136.617 234.054 139.182 241.195 140.23ZM238.612 175.78C237.81 185.797 236.981 196.149 236.256 206.492C236.179 207.603 236.138 208.723 236.116 209.83C230.52 210.837 223.117 209.861 216.18 205.358L216.208 204.64C216.321 201.293 216.416 198.606 218.681 170.084C224.494 173.286 231.435 175.856 238.626 175.757L238.612 175.78ZM214.839 204.473C214.214 204.021 213.58 203.624 212.964 203.222C211.695 202.391 210.381 201.528 209.167 200.566L207.486 199.238C206.258 198.281 204.989 197.283 203.775 196.267C201.963 194.74 200.2 193.105 198.501 191.47C199.059 181.123 199.657 170.595 200.264 159.945L200.427 157.081L200.776 157.357C204.645 160.387 208.668 163.544 212.8 166.426C214.209 167.401 215.736 168.386 217.354 169.33C215.066 198.105 214.953 201.122 214.839 204.45L214.839 204.473ZM198.909 159.868C198.325 170.125 197.749 180.269 197.206 190.246C195.565 188.701 193.885 187.139 192.122 185.693C188.389 182.622 184.633 179.488 180.963 176.412C181.153 170.96 181.371 164.913 181.62 158.156C181.786 153.576 181.964 148.997 182.154 144.417L182.182 143.694C184.596 145.361 187.052 147.077 189.571 148.852C192.824 151.147 196.014 153.617 199.122 156.079L198.909 159.868ZM180.786 144.363C180.605 148.949 180.427 153.53 180.251 158.107C180.016 164.43 179.798 170.129 179.635 175.305L179.25 174.985C175.444 171.796 171.507 168.499 167.602 165.279C165.468 163.517 164.326 162.569 163.18 161.724L163.18 131.012C163.465 131.188 163.755 131.355 164.031 131.536C169.468 135.05 175.014 138.762 180.85 142.787L180.786 144.363ZM161.82 160.744C160.887 160.094 159.754 159.34 158.042 158.201C156.832 157.393 155.323 156.395 153.393 155.099C152.034 154.195 150.675 153.292 149.316 152.42C148.93 142.394 148.505 132.651 148.07 124.124C148.708 124.373 149.365 124.626 150.04 124.892C154.172 126.509 158.196 128.149 161.82 130.208L161.82 160.744ZM147.92 151.521L146.108 150.365C144.137 149.114 142.103 147.818 140.118 146.508C138.609 145.515 137.064 144.571 135.528 143.654C134.772 135.411 133.938 127.056 132.851 118.763C136.407 119.879 140.766 121.347 146.679 123.591C147.105 131.965 147.535 141.585 147.92 151.521ZM118.674 126.121L119.172 128.379C119.625 130.384 120.079 132.444 120.391 134.494L119.689 134.115C117.827 133.121 115.901 132.087 114.089 130.953C112.076 129.668 109.892 128.671 107.601 127.99C107.047 125.748 106.347 123.544 105.508 121.392C105.236 120.651 104.964 119.915 104.71 119.183C103.7 116.293 102.649 113.371 101.62 110.516C103.321 110.646 105.008 110.918 106.663 111.329C107.166 111.469 107.678 111.632 108.167 111.781C108.82 111.988 109.499 112.205 110.188 112.377C110.877 112.548 111.502 112.661 112.29 112.806C113.282 112.987 114.456 113.203 115.915 113.56C116.699 116.957 117.591 120.994 118.674 126.103L118.674 126.121ZM99.9303 110.344C99.9938 110.344 100.053 110.344 100.116 110.344C101.213 113.389 102.345 116.528 103.424 119.626C103.682 120.362 103.954 121.107 104.23 121.853C104.91 123.709 105.589 125.61 106.097 127.525L106.051 127.525C104.239 126.952 102.345 126.355 100.297 126.346C98.1815 126.346 95.6714 126.486 93.1342 127.665C91.8058 128.3 90.5393 129.056 89.351 129.924C88.7122 128.158 86.6824 123.515 84.3355 118.14L82.7678 114.486C86.2157 112.025 89.4235 110.674 92.8986 110.191C95.2381 109.924 97.6029 109.97 99.9303 110.326L99.9303 110.344ZM113.876 149.186C115.489 150.243 116.961 151.54 119.277 153.829C120.183 154.733 121.161 155.55 122.104 156.35C122.824 156.955 123.572 157.587 124.27 158.233C124.405 158.359 124.537 158.495 124.673 158.621L124.786 159.127C125.017 160.067 125.13 160.442 125.203 160.685C125.389 161.415 125.519 162.158 125.593 162.908L125.756 163.96C126.558 169.244 127.183 174.005 127.672 178.304C126.481 176.665 125.053 174.741 123.282 172.397C121.749 170.258 119.99 168.289 118.035 166.525L117.949 166.458C116.78 160.058 115.348 154.389 113.876 149.186ZM122.185 173.201C124.714 176.534 126.53 179.013 127.958 181.037C128.796 189.076 129.126 195.413 129.199 200.507C127.406 197.023 125.426 193.637 123.268 190.363C122.362 189.008 121.388 187.613 120.323 186.299C120.296 184.411 120.101 182.432 119.662 178.368C119.295 174.949 118.842 171.737 118.33 168.68C119.719 170.096 121.007 171.606 122.185 173.201ZM122.131 191.082C124.731 195.079 127.097 199.223 129.217 203.493C129.217 207.675 129.027 210.923 128.882 213.574L128.818 214.807C128.556 219.834 128.189 224.951 127.731 230.091C125.466 226.265 123.327 222.769 121.257 219.91C120.35 218.655 119.268 217.169 118.022 215.719C118.896 208.38 119.53 201.329 119.938 194.451L120.074 192.193C120.174 190.639 120.242 189.483 120.282 188.448C120.939 189.334 121.551 190.223 122.14 191.095L122.131 191.082ZM120.156 220.705C122.484 223.926 124.949 227.986 127.518 232.421C127.379 233.948 127.228 235.474 127.065 237.001C126.422 243.148 125.411 251.4 124.401 259.186C121.923 255.573 119.503 252.199 117.057 249.15C115.937 247.759 114.818 246.404 113.654 245.149L114.519 239.779L115.326 234.743C116.286 228.817 117.106 223.117 117.791 217.58C118.606 218.592 119.385 219.644 120.165 220.719L120.156 220.705ZM103.202 294.921C104.561 288.597 106.002 282.107 107.583 275.721C108.43 276.529 109.304 277.406 110.215 278.372C113.305 281.638 116.427 285.377 119.671 289.352C119.15 291.827 118.615 294.37 118.194 296.903C117.433 301.447 116.59 306.049 115.77 310.503L115.253 313.334C115.095 314.202 114.95 315.078 114.8 315.945C110.759 311.803 106.817 307.815 103.863 305.187C103.02 304.437 102.205 303.723 101.403 303.041C102.024 300.313 102.622 297.59 103.202 294.921ZM146.864 330.727C147.037 327.805 147.281 324.856 147.521 321.993L147.616 320.854C151.889 324.919 156.592 329.07 161.829 333.189L161.829 354.516C155.337 350.736 150.598 347.836 146.058 344.58C146.257 341.025 146.52 336.549 146.864 330.727ZM163.175 334.246C165.289 335.872 167.479 337.492 169.745 339.106C172.744 341.233 175.852 343.22 178.915 344.977L179.101 347.827C179.255 350.117 179.409 352.488 179.554 354.819L180.034 363.852C175.807 362.165 171.705 360.185 167.756 357.926C166.134 356.995 164.625 356.119 163.189 355.297L163.175 334.246ZM180.904 354.764C180.782 352.42 180.623 350.049 180.451 347.75L180.319 345.79C183.477 347.57 186.749 349.14 190.115 350.487C190.482 350.632 190.863 350.758 191.243 350.889C191.894 351.086 192.527 351.335 193.137 351.634C194.161 352.172 195.081 352.732 196.05 353.324C196.503 353.599 196.956 353.879 197.437 354.159L198.125 359.046C198.61 362.442 199.108 365.956 199.53 369.434L199.58 369.854C198.646 369.515 197.622 369.113 196.476 368.63C194.943 368.055 193.351 367.653 191.728 367.433C190.749 367.261 189.82 367.103 188.932 366.869C186.377 366.191 183.861 365.376 181.393 364.43L180.904 354.764ZM200.903 369.262C200.481 365.78 199.997 362.262 199.494 358.874L198.95 355.017C201.653 356.462 204.531 357.555 207.513 358.269C208.171 358.453 208.817 358.677 209.448 358.938C209.901 359.114 210.354 359.294 210.807 359.452C212.72 360.023 214.68 360.417 216.665 360.631C216.738 360.848 216.797 361.083 216.874 361.291C217.254 362.522 217.537 363.782 217.721 365.057C217.834 365.721 217.952 366.412 218.097 367.09C218.473 368.838 218.903 370.595 219.325 372.293L219.497 373.006C219.125 373.006 218.754 373.006 218.378 373.006C215.12 373.043 213.983 372.772 212.887 372.505C212.29 372.352 211.685 372.234 211.074 372.153C210.29 372.058 209.561 371.986 208.859 371.918C206.188 371.739 203.552 371.215 201.016 370.36L200.903 369.262ZM243.859 385.35C243.648 384.04 243.366 382.742 243.016 381.461C247.207 378.937 250.868 375.64 253.94 372.677C255.299 371.372 256.54 370.021 257.827 368.567C258.703 371.354 259.396 374.195 259.902 377.071L260.224 378.72L260.618 380.775C255.471 385.314 250.125 389.681 244.842 392.969C244.584 390.558 244.257 388.028 243.859 385.346L243.859 385.35ZM261.556 378.462L261.239 376.814C260.283 371.846 259.526 369.276 258.865 367.383L259.141 367.072C259.916 366.168 260.74 365.301 261.542 364.452C262.408 363.549 263.3 362.582 264.147 361.607C265.833 359.651 267.437 357.587 268.986 355.595C269.834 354.502 270.699 353.396 271.578 352.294C273.582 356.807 275.288 361.447 276.684 366.182C274.26 368.309 271.7 370.667 269.027 373.133C266.694 375.287 264.274 377.514 261.805 379.718L261.556 378.462ZM267.899 354.764C266.358 356.747 264.764 358.798 263.101 360.722C262.276 361.679 261.393 362.619 260.536 363.526C259.802 364.308 259.046 365.116 258.321 365.938L258.235 365.712C257.798 364.617 257.423 363.498 257.111 362.361C256.771 361.101 256.359 359.859 255.96 358.658C255.63 357.668 255.29 356.643 254.995 355.622C254.85 355.121 254.719 354.611 254.592 354.096L254.986 353.522C255.371 352.953 255.679 352.506 255.892 352.203C259.01 347.994 261.116 344.25 263.341 340.289L264.877 337.602C266.816 342.001 268.814 346.522 270.939 350.916C269.888 352.199 268.896 353.491 267.913 354.764L267.899 354.764ZM262.186 339.625C259.979 343.545 257.895 347.249 254.828 351.368C254.651 351.607 254.438 351.919 254.18 352.271L254.121 352.032C253.822 350.758 253.514 349.444 253.133 348.161C252.78 346.955 252.467 345.704 252.164 344.494C251.96 343.672 251.756 342.85 251.534 342.032C251.398 341.531 251.23 340.998 251.04 340.379L250.859 339.86C253.332 335.258 255.452 330.477 257.202 325.556C257.619 324.445 258.04 323.298 258.511 322.101L258.964 323.144C259.802 325.131 260.613 327.168 261.393 329.142C262.299 331.4 263.205 333.749 264.215 336.043C263.5 337.276 262.834 338.46 262.186 339.625ZM255.942 325.1C254.37 329.529 252.492 333.843 250.32 338.013C249.228 333.987 248.415 329.891 247.887 325.755C250.075 319.883 251.593 313.84 253.16 307.16L253.287 307.612C254.552 311.921 256.049 316.16 257.773 320.308C257.07 322.078 256.481 323.65 255.938 325.1L255.942 325.1ZM246.555 258.743C246.795 249.62 247.343 240.844 247.973 233.035L248.131 232.751L248.466 232.137C249.331 230.626 250.105 229.067 250.786 227.467C250.167 231.366 249.747 235.164 249.527 238.862L249.264 241.323L249.078 243.225C248.517 248.439 247.674 253.619 246.555 258.743ZM253.464 214.405C253.162 215.435 252.873 216.541 252.599 217.724C252.435 218.221 252.322 218.583 252.218 218.921C252.055 219.432 251.919 219.874 251.634 220.66C251.303 221.563 251.017 222.503 250.727 223.406C250.374 224.553 250.007 225.741 249.558 226.87C249.169 227.82 248.732 228.751 248.249 229.657C248.942 221.676 249.69 214.902 250.22 210.082C250.619 206.469 250.886 204.062 250.9 203.127L250.9 202.35L250.9 201.659C251.063 201.492 251.217 201.32 251.389 201.162C253.822 198.859 255.548 196.104 257.215 193.439C257.668 192.726 258.122 191.998 258.575 191.28L258.516 191.56C256.395 200.517 254.742 208.027 253.464 214.405ZM257.152 138.451C256.346 138.65 255.531 138.808 254.71 138.925C250.685 139.453 246.609 139.483 242.577 139.015C242.604 137.489 242.631 135.917 242.735 134.372C243.22 127.096 243.641 120.001 243.963 113.28C244.017 112.151 244.035 110.981 244.054 109.852C244.081 108.222 244.112 106.551 244.248 104.925C249.429 106.395 254.711 107.482 260.052 108.177L260.015 108.592C259.499 115.155 258.856 122.051 258.09 129.088C257.813 131.644 257.56 134.241 257.32 136.766L257.152 138.451ZM242.703 109.83C242.703 110.95 242.667 112.088 242.613 113.217C242.287 119.924 241.874 127.015 241.389 134.282C241.285 135.804 241.254 137.34 241.226 138.835C234.127 137.782 227.756 135.176 221.536 131.721L221.649 129.418C221.762 127.078 221.894 124.45 222.247 119.03C222.754 111.284 223.221 103.8 223.606 96.4968C229.739 99.8548 236.212 102.554 242.916 104.55C242.758 106.293 242.703 108.082 242.703 109.83ZM220.892 118.944C220.534 124.364 220.408 127.006 220.294 129.332L220.213 130.953C215.397 128.185 210.644 124.937 205.678 121.541L202.507 119.386C203.114 107.784 203.68 96.2394 204.151 84.8894C206.657 86.3799 209.004 87.8206 211.242 89.1982C215.007 91.5151 218.586 93.7147 222.288 95.7652C221.862 103.281 221.409 110.977 220.883 118.944L220.892 118.944ZM204.908 122.675C210.082 126.229 215.066 129.625 220.122 132.493C219.882 136.874 219.429 143.536 217.802 163.865L217.485 167.826C216.126 167.004 214.803 166.155 213.589 165.315C209.479 162.456 205.483 159.312 201.619 156.282C201.256 155.993 200.885 155.704 200.522 155.419C201.17 143.979 201.818 132.462 202.425 120.999L204.908 122.675ZM199.208 154.385C196.322 152.127 193.368 149.868 190.346 147.723C187.573 145.767 184.882 143.893 182.236 142.068C182.689 131.193 183.101 120.014 183.319 108.999C185.24 110.096 187.233 111.257 189.395 112.558C193.531 115.033 197.387 117.575 201.102 120.096C200.508 131.513 199.865 142.985 199.208 154.385ZM181.991 108.868C181.778 119.617 181.362 130.524 180.94 141.156C175.354 137.322 170.012 133.754 164.802 130.375C164.276 130.036 163.746 129.711 163.207 129.391L163.207 98.5248C164.512 99.0758 165.794 99.7307 167.049 100.377C167.606 100.661 168.163 100.946 168.716 101.217C173.537 103.606 177.61 105.733 182.005 108.231L181.991 108.868ZM145.854 109.107C146.108 112.874 146.366 117.264 146.62 122.096C140.626 119.838 136.249 118.375 132.679 117.264C132.434 115.439 132.176 113.619 131.904 111.803C130.93 105.34 129.992 98.7822 129.077 92.0616C129.33 92.0616 129.589 92.0978 129.838 92.1158L130.49 92.1655C135.492 92.5298 140.278 93.0974 144.848 93.8682C145.144 98.7069 145.473 103.786 145.836 109.107L145.854 109.107ZM130.558 112.007C130.803 113.61 131.011 115.213 131.251 116.826C130.205 116.505 129.226 116.211 128.288 115.922C125.914 115.213 123.862 114.604 121.619 113.831C119.861 113.226 118.37 112.788 117.088 112.449C116.246 108.786 115.539 105.882 114.877 103.168C114.062 99.83 113.296 96.6775 112.39 92.6171C112.277 92.1158 112.191 91.6145 112.114 91.1086C114.46 91.1538 116.585 91.3029 118.543 91.4429C119.983 91.5468 121.338 91.6461 122.593 91.6822C124.292 91.7319 126.009 91.8358 127.708 91.9532C128.601 98.7867 129.552 105.453 130.54 112.007L130.558 112.007ZM89.9355 78.9276L90.4792 80.7342C90.8099 81.8227 91.2041 82.9293 91.5847 84.0042C92.3674 86.0321 92.9738 88.1235 93.397 90.255L93.397 90.3228C92.8986 90.3679 92.4002 90.4041 91.9018 90.4221C89.2605 90.5558 86.6474 91.0278 84.1271 91.8268C81.0406 92.8434 78.1204 94.3057 75.4597 96.1671L75.3601 95.851C74.9478 94.496 74.2636 92.7301 73.3982 90.4673C72.3426 87.7122 71.0422 84.3294 69.7328 80.4271C73.468 78.0501 77.4437 76.0715 81.5944 74.524C83.2361 73.9524 84.911 73.4803 86.6099 73.1104C87.0992 72.9929 87.5885 72.8755 88.0779 72.7536C88.7258 75.0208 89.3556 77.0894 89.9174 78.9276L89.9355 78.9276ZM84.5303 93.123C86.9471 92.3523 89.4538 91.8969 91.9879 91.7681C92.5588 91.7455 93.1297 91.7003 93.696 91.6506C94.2341 93.7974 94.9044 95.9091 95.7031 97.9737C95.9659 98.6873 96.2287 99.401 96.4734 100.11C97.5018 103.059 98.5711 106.04 99.6222 108.949C97.3336 108.612 95.0103 108.578 92.7128 108.849C89.0882 109.351 85.7581 110.724 82.2106 113.217C80.7607 109.866 79.3516 106.591 78.3504 104.125C77.3944 101.781 76.5879 99.6087 75.8947 97.5311C78.5255 95.6333 81.4314 94.1468 84.5122 93.123L84.5303 93.123ZM77.0908 104.613C78.1238 107.16 79.5872 110.561 81.0869 114.016C80.6021 114.382 80.1128 114.766 79.619 115.177C75.7316 118.388 71.8215 122.404 68.0429 126.27L67.4584 126.866C64.6539 121.446 61.9626 115.701 59.6429 110.539C60.7484 109.635 61.8539 108.696 62.9549 107.775C66.0041 105.205 69.1756 102.549 72.193 100.214C73.0176 99.5771 73.8558 98.9403 74.7167 98.3215C75.3872 100.309 76.162 102.386 77.0727 104.613L77.0908 104.613ZM69.017 127.196C72.773 123.347 76.6559 119.368 80.4843 116.202C80.8785 115.877 81.2636 115.575 81.6488 115.299L83.1076 118.655C85.373 123.84 87.5115 128.736 88.0915 130.398C88.1322 130.511 88.1639 130.628 88.1957 130.746C84.0682 134.015 80.7154 138.383 77.8746 142.095L77.6164 142.439C77.1905 142.99 76.7102 143.627 76.1665 144.309C74.2092 139.792 71.5089 134.557 68.8312 129.517L68.0927 128.121L69.017 127.196ZM101.068 165.807C101.86 165.117 102.727 164.518 103.655 164.023C107.492 162.022 111.656 163.034 116.721 167.185C117.351 170.708 117.899 174.452 118.33 178.476C118.638 181.335 118.824 183.142 118.914 184.618C116.758 182.329 114.225 180.49 111.099 179.881C108.285 179.334 105.594 180.07 103.043 182.062C102.775 176.609 102.109 171.182 101.049 165.825L101.068 165.807ZM108.915 210.972C111.923 211.645 114.379 213.628 116.617 216.166C115.906 222.074 115.04 228.176 114.007 234.53L113.187 239.593L112.49 243.961C110.401 241.91 108.14 240.248 105.49 239.349C103.14 238.558 100.597 238.547 98.2404 239.318C98.6662 236.771 99.0725 234.253 99.4591 231.766C100.519 224.991 101.353 218.565 101.96 212.422C104.896 210.503 107.211 210.606 108.897 210.981L108.915 210.972ZM105.073 240.61C107.791 241.513 110.057 243.351 112.236 245.578C110.741 254.751 109.096 264.095 106.835 273.128C102.119 268.96 97.7465 266.85 92.4138 267.505C94.7471 258.54 96.4915 249.53 97.9776 240.831C100.23 239.893 102.75 239.817 105.055 240.619L105.073 240.61ZM79.3426 319.084C80.1944 316.13 80.9601 313.104 81.6986 310.177C82.3193 307.729 82.9626 305.209 83.6468 302.721C84.1905 300.76 84.707 298.782 85.2099 296.799C90.5381 297.034 94.7562 299.32 99.9077 303.547C99.5573 305.098 99.2054 306.641 98.852 308.177C97.5607 313.723 96.3646 319.292 95.2274 324.684C94.6429 327.394 94.1717 329.345 93.7413 331.057C87.7652 326.69 83.6694 324.44 78.1374 323.406C78.4908 322.083 78.8986 320.651 79.3426 319.084ZM111.339 343.925C111.583 342.809 111.814 341.757 112.027 340.659C112.385 338.853 112.666 337.01 112.934 335.239C113.079 334.282 113.224 333.324 113.387 332.367C113.717 330.375 114.098 328.352 114.465 326.396L114.882 324.179C115.208 322.413 115.48 320.615 115.738 318.876L116.712 319.879C120.337 323.614 123.767 327.141 126.109 329.363C127.115 330.309 128.08 331.212 129.004 332.073L129.004 332.245C128.909 334.991 128.574 337.76 128.248 340.442L128.044 342.123L127.668 345.388C127.214 349.453 126.721 353.622 126.05 357.714C120.731 353.608 115.629 349.322 111.035 345.397L111.339 343.925ZM127.278 358.585C128.016 354.24 128.524 349.801 129.013 345.487L129.389 342.226L129.593 340.551C129.883 338.157 130.173 335.687 130.304 333.212C135.941 338.383 140.245 342.005 144.658 345.225L144.232 352.723C143.947 357.826 143.82 360.157 143.43 365.947L143.194 369.384C137.663 366.13 132.345 362.527 127.273 358.599L127.278 358.585ZM144.785 366.056C145.174 360.256 145.306 357.926 145.591 352.813L145.963 346.183C150.493 349.385 155.269 352.294 161.82 356.119L161.82 377.433L161.784 377.433C157.801 376.192 153.897 374.711 150.095 372.997C148.251 372.166 146.38 371.218 144.499 370.175L144.785 366.056ZM182.444 380.703C182.163 376.918 181.937 373.896 181.493 365.893C183.823 366.764 186.196 367.517 188.602 368.151C189.544 368.395 190.545 368.571 191.506 368.738C193.028 368.942 194.524 369.313 195.964 369.845C197.391 370.446 198.642 370.929 199.77 371.322C199.969 373.128 200.151 374.935 200.327 376.687C200.604 379.456 200.889 382.315 201.233 385.12C201.315 385.739 201.41 386.357 201.505 386.972C200.866 386.895 200.209 386.818 199.571 386.696C199.353 386.655 199.118 386.615 198.923 386.57C198.064 386.374 197.189 386.253 196.308 386.208C191.737 386.078 187.187 385.531 182.716 384.573C182.635 383.11 182.544 381.863 182.444 380.703ZM211.319 388.864C212.433 388.796 213.584 388.787 214.676 388.783C216.18 388.783 217.73 388.783 219.275 388.602C219.628 388.561 220.004 388.525 220.403 388.485C221.055 388.421 221.762 388.349 222.555 388.259C222.899 390.026 223.141 391.811 223.28 393.606L223.371 394.537C223.615 397.021 223.824 399.401 224.019 401.731C219.406 402.915 214.771 403.913 210.222 404.69C208.355 404.994 206.474 405.203 204.586 405.318C204.237 399.681 203.875 394.528 203.653 392.175C203.54 390.951 203.349 389.74 203.159 388.561C205.865 388.937 208.602 389.039 211.328 388.864L211.319 388.864ZM210.449 406.027C214.98 405.259 219.551 404.283 224.123 403.118C224.454 407.571 224.648 411.858 224.657 416.315L224.204 416.505C213.122 420.895 208.8 422.087 205.551 422.774C205.397 418.804 205.053 412.58 204.69 406.673C206.623 406.556 208.548 406.339 210.458 406.022L210.449 406.027ZM225.487 402.761C225.69 402.712 225.89 402.662 226.089 402.608C231.532 401.1 236.789 398.99 241.761 396.316C242.409 395.982 243.057 395.621 243.705 395.246C244.068 399.068 244.237 402.906 244.212 406.745C238.369 410.179 232.29 413.197 226.021 415.778C225.998 411.383 225.799 407.156 225.487 402.761ZM245.014 394.469C250.351 391.213 255.743 386.868 260.931 382.315C261.735 386.343 262.297 390.415 262.612 394.51L262.612 394.555C257.098 398.484 251.629 402.301 245.589 405.918C245.58 402.296 245.39 398.534 244.996 394.469L245.014 394.469ZM262.113 381.272C264.804 378.882 267.432 376.462 269.96 374.127C272.489 371.792 274.858 369.61 277.133 367.605C278.625 372.33 279.828 377.142 280.735 382.012C275.189 385.58 270.096 389.239 265.158 392.748L263.907 393.651C263.535 389.494 262.93 385.361 262.095 381.272L262.113 381.272ZM272.534 351.12C273.029 350.517 273.529 349.926 274.034 349.345L275.991 347.086C279.035 343.568 282.184 339.928 285.546 336.671C288.429 341.946 291.02 347.374 293.307 352.931C289.058 355.884 284.346 359.669 278.809 364.344C278.474 364.628 278.134 364.917 277.794 365.216C276.417 360.78 274.763 355.812 272.529 351.12L272.534 351.12ZM284.767 335.542L284.635 335.669C281.215 338.957 278.043 342.647 274.958 346.183L273.001 348.441C272.629 348.893 272.257 349.308 271.891 349.746C269.784 345.356 267.79 340.835 265.86 336.45L265.724 336.134C266.485 334.828 267.292 333.483 268.189 332.069L269.643 329.765C272.158 325.791 274.274 322.449 276.204 319.648L276.376 319.951C278.125 323.018 279.937 326.193 281.6 329.373C282.397 330.89 283.208 332.376 284.069 333.948L284.871 335.411L284.767 335.542ZM268.501 329.065L267.043 331.364C266.336 332.48 265.683 333.555 265.063 334.603C264.229 332.62 263.432 330.615 262.652 328.663C261.873 326.712 261.057 324.635 260.215 322.638C259.893 321.884 259.567 321.098 259.241 320.299C259.694 319.224 260.147 318.072 260.686 316.808C261.198 315.62 261.696 314.427 262.199 313.24C263.676 309.735 265.208 306.14 266.898 302.648L268.887 306.361C270.4 309.193 271.963 312.128 273.553 314.987C274.183 316.117 274.822 317.246 275.461 318.366C273.408 321.297 271.175 324.829 268.497 329.065L268.501 329.065ZM259.893 191.876C260.088 191.059 260.201 190.246 260.31 189.456C260.346 189.189 260.382 188.914 260.428 188.638L260.795 188.105C261.962 186.532 263.032 184.89 263.998 183.187L264.297 182.676C262.145 188.006 260.111 193.34 258.28 198.656C258.779 196.492 259.313 194.239 259.889 191.876L259.893 191.876ZM266.934 175.545L266.327 176.575C264.392 179.795 263.45 181.43 262.824 182.509C262.109 183.747 261.887 184.131 261.121 185.246C261.923 181.827 263.151 177.279 264.533 172.171C265.371 169.059 266.272 165.73 267.183 162.235C267.944 161.666 268.656 161.133 269.272 160.649C270.599 159.615 271.845 158.477 273.055 157.379C273.721 156.77 274.414 156.142 275.098 155.546C275.551 155.153 276.004 154.746 276.458 154.335L275.674 156.11C273.087 161.955 270.477 167.853 267.971 173.801C267.595 174.42 267.251 175.007 266.929 175.545L266.934 175.545ZM275.71 153.215C275.202 153.667 274.704 154.118 274.206 154.543C273.503 155.157 272.806 155.79 272.135 156.399C270.948 157.483 269.72 158.603 268.438 159.606L267.736 160.143C269.729 152.465 271.75 144.164 273.363 135.885C274.061 135.678 274.754 135.474 275.452 135.28C277.312 134.732 279.142 134.085 280.934 133.343C281.65 133.058 282.366 132.773 283.091 132.502C283.815 132.231 284.658 131.906 285.437 131.599L286.398 131.233C283.643 137.985 280.712 144.715 277.767 151.404C277.056 152.014 276.376 152.619 275.705 153.215L275.71 153.215ZM274.034 125.85C273.363 128.98 272.779 131.689 272.366 133.871L272.185 134.819C270.867 135.212 269.498 135.619 268.157 135.967C267.251 136.197 266.345 136.491 265.502 136.771C264.111 137.281 262.674 137.658 261.212 137.895C260.813 137.949 260.414 137.981 259.993 138.017C259.571 138.053 259.032 138.098 258.547 138.166L258.674 136.879C258.919 134.372 259.168 131.78 259.445 129.232C260.21 122.182 260.858 115.272 261.375 108.696L261.402 108.344C265.74 108.857 270.104 109.126 274.473 109.148C275.452 109.148 276.439 109.184 277.423 109.215C276.258 115.507 275.044 121.139 274.029 125.85L274.034 125.85ZM274.487 107.784C270.165 107.763 265.848 107.497 261.556 106.989L261.705 105.9C261.991 103.917 262.376 101.199 263.01 91.7003C263.349 86.6057 263.593 81.6375 263.744 76.7958C269.634 78.8554 275.402 80.5942 281.138 82.0395C280.386 91.3074 279.081 100.06 277.676 107.851C276.607 107.833 275.538 107.797 274.473 107.793L274.487 107.784ZM261.642 91.619C261.012 101.068 260.627 103.755 260.346 105.72L260.197 106.831C254.854 106.133 249.572 105.038 244.393 103.556L244.47 102.974C244.819 100.299 244.994 97.6043 244.996 94.907L245.05 92.6714C245.3 84.8172 245.417 77.0894 245.399 69.592C246.523 70.0768 247.652 70.557 248.788 71.0328C253.41 72.9884 257.931 74.7544 262.38 76.3442C262.232 81.2973 261.986 86.3889 261.642 91.619ZM243.691 92.6307C243.67 93.3744 243.652 94.1272 243.637 94.889C243.633 97.5271 243.464 100.162 243.129 102.779C243.107 102.91 243.093 103.046 243.075 103.177C236.332 101.154 229.828 98.4134 223.674 95.0019C224.331 82.857 224.825 71.2134 225.088 59.746C228.015 61.3494 230.883 62.8805 233.737 64.2941C237.117 65.9698 240.533 67.5054 244.017 69.0094C244.063 76.6739 243.949 84.5868 243.691 92.6307ZM222.397 94.2747C218.917 92.3281 215.537 90.246 211.976 88.0645C209.547 86.5696 206.992 84.9978 204.237 83.3674C204.722 71.6019 205.103 60.0531 205.338 48.8658C209.905 51.255 214.282 53.7029 218.586 56.0922C220.35 57.0768 222.084 58.0418 223.788 58.9872C223.516 70.4818 223.031 82.1298 222.374 94.2747L222.397 94.2747ZM202.914 82.586C198.95 80.269 194.578 77.8437 189.598 75.3596C187.786 74.4563 186.046 73.6252 184.307 72.8258C184.547 63.1018 184.76 52.1764 184.864 39.4895C186.345 40.0676 187.881 40.6864 189.49 41.3548C194.619 43.4911 199.408 45.79 203.988 48.1567C203.739 59.3215 203.367 70.8431 202.892 82.586L202.914 82.586ZM188.991 76.579C194.202 79.1715 198.741 81.7053 202.851 84.1216C202.398 95.4355 201.822 106.944 201.22 118.515C197.695 116.135 194.039 113.736 190.124 111.397C187.714 109.952 185.507 108.66 183.382 107.454C183.5 101.998 183.668 96.1626 183.835 90.0473C183.976 85.1243 184.125 79.9167 184.288 74.3117C185.802 75.0344 187.369 75.7841 188.969 76.579L188.991 76.579ZM182.444 90.0066C182.277 95.8781 182.118 101.447 181.991 106.695C177.814 104.347 173.89 102.287 169.273 100.006C168.725 99.7352 168.177 99.4506 167.624 99.1706C166.179 98.4299 164.693 97.6666 163.162 97.0569L163.162 66.2137C166.978 67.2937 170.728 68.5936 174.393 70.1069C177.207 71.2044 180.016 72.3922 182.875 73.693C182.757 79.5193 182.603 84.9165 182.444 90.0066ZM144.726 92.4817C140.213 91.7319 135.491 91.1764 130.558 90.8151L129.91 90.7654C129.561 90.7428 129.208 90.7157 128.859 90.6886C127.799 82.8209 126.771 74.7182 125.76 66.2633L125.656 65.4323C131.417 64.6774 137.217 64.2596 143.027 64.1812C143.48 72.5593 144.064 81.9672 144.739 92.4817L144.726 92.4817ZM111.37 66.1595C109.948 66.3943 108.525 66.6608 107.107 66.9498C105.662 59.868 104.447 52.5738 103.482 45.3248C105.086 44.688 106.708 44.0557 108.33 43.4776C112.186 42.1 116.699 40.5644 121.365 39.1372C122.439 51.3318 123.567 59.9402 124.134 64.2535C119.961 64.8045 115.72 65.4639 111.37 66.1595ZM87.6837 71.4438C87.2306 71.5612 86.7458 71.6741 86.2792 71.787C84.5279 72.1664 82.8015 72.6521 81.1096 73.2413C76.9759 74.7823 73.0119 76.7422 69.2798 79.0902C67.5083 73.7252 66.0857 68.2519 65.0209 62.7043C70.8739 59.146 77.013 56.0778 83.375 53.5313C84.6481 60.288 86.2203 66.3401 87.6837 71.4528L87.6837 71.4438ZM68.0973 79.8354C64.4727 82.1389 60.6351 84.8804 55.9367 88.2361L53.8435 89.7311C53.1005 90.2641 52.3574 90.7383 51.6008 91.208C49.4548 85.576 47.6498 79.8206 46.1956 73.973C52.7516 70.3598 58.7911 66.6246 63.784 63.4721C64.8729 69.015 66.3135 74.4835 68.0973 79.8445L68.0973 79.8354ZM54.6364 90.8331L56.7251 89.3382C61.283 86.0863 65.0299 83.408 68.5367 81.1633C69.819 84.9526 71.083 88.2497 72.116 90.9415C72.9723 93.1772 73.6474 94.9432 74.0461 96.2394L74.2772 96.9665C73.2578 97.6847 72.2882 98.4163 71.3594 99.13C68.3193 101.483 65.1387 104.152 62.0578 106.727C61.061 107.567 60.0582 108.405 59.0493 109.242C56.5303 103.588 54.5186 98.7235 53.3723 95.8194C52.9404 94.7294 52.5115 93.6228 52.0856 92.4997C52.9328 91.9894 53.771 91.4519 54.6364 90.8422L54.6364 90.8331ZM52.1082 96.3162C53.2772 99.288 55.3658 104.319 57.962 110.146C52.738 114.464 47.4687 118.583 42.3898 121.437C39.7755 116.225 37.2429 110.995 34.7645 105.86L33.6046 103.457C38.1354 101.384 42.7658 98.5609 48.2978 94.8754C49.1678 94.2928 50.0513 93.7598 50.9076 93.2404C51.3063 94.2792 51.7065 95.3075 52.1082 96.3252L52.1082 96.3162ZM58.5374 111.428C60.8888 116.649 63.6118 122.417 66.439 127.882C61.8629 132.557 57.1917 137.168 52.4843 140.311C51.1749 137.985 49.8927 135.687 48.6331 133.388C46.703 129.847 44.8273 126.247 43.0014 122.629C48.0985 119.802 53.318 115.724 58.5374 111.437L58.5374 111.428ZM67.1005 129.147C67.2772 129.485 67.4539 129.824 67.6351 130.158C70.4351 135.425 73.2578 140.89 75.2151 145.515C72.4287 149.024 68.6953 153.5 65.3833 156.72C65.1704 156.928 64.9302 157.172 64.7173 157.397C64.1997 157.969 63.631 158.492 63.0183 158.96C60.7166 154.787 58.3607 150.641 56.0137 146.522L53.1548 141.481C57.894 138.356 62.5471 133.799 67.1005 129.156L67.1005 129.147ZM90.5517 181.99C93.3607 176.272 96.2831 170.577 99.8805 166.905C100.88 172.289 101.485 177.738 101.693 183.209C99.8973 185.02 98.3605 187.069 97.1258 189.298C95.5511 192.107 94.1515 195.011 92.9348 197.992C92.6631 192.601 91.865 187.249 90.5517 182.012L90.5517 181.99ZM91.7342 244.679C93.1835 243.435 94.7723 242.362 96.4688 241.481C94.9963 250.063 93.2475 258.933 90.9277 267.74C88.6829 268.247 86.5151 269.048 84.4805 270.12C82.0905 271.323 79.7824 272.681 77.5711 274.185C78.4138 271.927 79.2565 269.624 80.0177 267.311C81.1775 263.793 82.9491 258.174 84.8157 251.445C86.9603 249.038 89.2722 246.785 91.7342 244.702L91.7342 244.679ZM72.4332 279.203C72.7639 278.959 73.0947 278.697 73.4345 278.431C73.9329 278.038 74.4403 277.64 74.9568 277.297C74.3678 278.878 73.7788 280.481 73.217 282.076C72.0345 285.458 69.5924 292.152 66.9691 299.415C66.8921 299.415 66.8151 299.415 66.7244 299.415C66.4792 299.427 66.2352 299.459 65.995 299.509C65.0963 299.745 64.2247 300.074 63.3943 300.489C63.0817 300.629 62.7736 300.769 62.4882 300.896C55.905 303.646 54.3328 304.139 52.1988 304.658C52.6066 303.904 52.9646 303.254 53.3315 302.59C54.3011 300.815 55.3069 298.976 57.5044 294.695C59.0493 291.682 60.3315 289.275 61.4597 287.116L62.1076 285.883C64.8895 284.519 68.0882 282.41 72.4332 279.226L72.4332 279.203ZM89.1426 360.816C92.1555 342.669 93.329 338.004 94.5297 333.347L95.3769 333.984C98.3899 336.265 102.232 339.566 106.704 343.387C107.61 344.178 108.575 344.995 109.549 345.826C108.643 350.198 107.469 356.372 105.793 369.899C105.68 370.843 105.558 371.792 105.435 372.745C104.361 371.963 103.306 371.195 102.264 370.455C100.451 369.136 98.5892 367.745 96.7995 366.39C94.2895 364.556 91.7478 362.655 89.1426 360.839L89.1426 360.816ZM107.125 370.066C108.702 357.325 109.816 351.142 110.709 346.833C115.339 350.785 120.464 355.071 125.805 359.168C124.899 364.768 124.401 370.504 123.921 376.06L123.798 377.455L123.15 384.84L123.123 385.174C117.233 381.33 111.756 377.351 106.672 373.657C106.826 372.478 106.98 371.281 107.125 370.089L107.125 370.066ZM122.983 386.71C122.199 395.612 121.469 403.994 120.871 412.865C117.7 411.121 114.56 409.324 111.901 407.675C110.51 406.813 109.11 405.954 107.714 405.096C106.242 404.193 104.751 403.29 103.26 402.355C104.135 393.43 105.159 385.445 106.119 377.966L106.473 375.188C111.583 378.923 117.102 382.898 122.987 386.732L122.983 386.71ZM124.274 387.541C129.856 391.178 135.665 394.454 141.668 397.35L141.215 408.109C141.015 412.982 140.843 417.675 140.698 422.223C140.485 422.16 140.272 422.096 140.064 422.038C139.303 421.837 138.554 421.595 137.821 421.311C134.323 419.874 128.211 416.875 122.149 413.601C122.779 404.748 123.499 396.402 124.279 387.563L124.274 387.541ZM124.41 386.019L124.501 384.957L125.148 377.573L125.271 376.177C125.724 370.884 126.204 365.428 127.029 360.103C132.14 364.037 137.505 367.631 143.09 370.861C142.823 374.696 142.637 376.846 142.547 378.277C142.306 381.439 142.306 381.439 142.03 388.512L141.745 395.86C135.768 392.952 129.98 389.672 124.414 386.041L124.41 386.019ZM143.389 388.566C143.661 381.497 143.661 381.498 143.901 378.377C144.005 377.022 144.16 375.039 144.4 371.602C146.126 372.541 147.843 373.408 149.538 374.167C153.39 375.911 157.345 377.419 161.381 378.684C161.499 378.72 161.648 378.774 161.834 378.846L161.834 403.091C161.617 403.037 161.381 402.987 161.191 402.933L160.778 402.834C154.696 401.305 148.778 399.187 143.108 396.51L143.389 388.566ZM163.184 379.397C163.302 379.452 163.42 379.501 163.542 379.56C169.292 382.19 175.292 384.239 181.452 385.675L181.552 387.112C181.878 391.827 182.046 396.637 182.204 401.284C182.263 402.969 182.322 404.649 182.39 406.334C180.927 406.271 179.341 406.176 177.601 406.036C172.676 405.634 168.018 404.59 163.184 403.416L163.184 379.397ZM183.573 401.239C183.409 396.578 183.246 391.755 182.92 387.017L182.848 385.973C187.276 386.903 191.78 387.434 196.304 387.559C197.107 387.6 197.904 387.712 198.687 387.893C198.909 387.938 199.14 387.983 199.349 388.024C200.141 388.173 200.93 388.263 201.696 388.349C201.718 388.351 201.741 388.351 201.764 388.349C201.976 389.636 202.189 390.955 202.312 392.269C202.534 394.613 202.892 399.749 203.245 405.367C202.846 405.39 202.457 405.408 202.081 405.426C200.069 405.512 198.27 405.679 196.363 405.878C192.178 406.337 187.967 406.512 183.758 406.402L183.573 401.239ZM196.49 407.233C198.379 407.056 200.164 406.889 202.135 406.781C202.525 406.781 202.923 406.749 203.327 406.727C203.698 412.734 204.047 419.07 204.201 423.022L203.857 423.09C202.892 423.275 201.895 423.474 200.73 423.754C200.087 423.912 199.294 424.12 198.374 424.359C195.058 425.231 190.219 426.496 184.542 427.43C184.352 421.076 184.089 414.563 183.808 407.734C188.042 407.848 192.278 407.681 196.49 407.233ZM198.719 425.692C199.625 425.452 200.413 425.24 201.052 425.091C202.185 424.82 203.123 424.639 204.12 424.44L204.246 424.413L204.246 424.495L204.314 426.645C204.473 431.387 204.631 436.287 204.147 440.984C197.906 443.89 191.454 446.321 184.846 448.256C184.868 441.829 184.764 435.407 184.578 428.835C190.387 427.873 195.334 426.577 198.714 425.673L198.719 425.692ZM205.678 426.595L205.61 424.45L205.61 424.138C208.918 423.451 213.249 422.295 224.68 417.77C224.68 420.109 224.598 422.498 224.472 424.996L224.426 425.99C224.363 427.647 224.29 429.359 223.801 430.822C217.762 434.232 211.686 437.462 205.592 440.307C205.973 435.786 205.823 431.125 205.674 426.599L205.678 426.595ZM225.772 426.048L225.813 425.068C225.953 422.358 226.021 419.752 226.03 417.223C232.283 414.682 238.349 411.707 244.185 408.321C244.135 410.286 244.031 412.228 243.863 414.193L243.813 414.838C243.687 416.428 243.542 418.217 242.907 419.594C237.122 423.072 231.299 426.568 225.441 429.91C225.645 428.634 225.754 427.345 225.767 426.053L225.772 426.048ZM245.168 414.933L245.218 414.292C245.408 412.034 245.526 409.775 245.567 407.517C251.665 403.904 257.175 400.087 262.698 396.158C262.929 400.354 262.951 404.645 261.905 408.353C256.133 411.627 250.392 415.055 244.688 418.479C244.936 417.312 245.096 416.128 245.164 414.938L245.168 414.933ZM263.998 395.228L265.928 393.873C270.703 390.458 275.624 386.94 280.952 383.485C281.774 388.358 281.927 393.321 281.405 398.236C275.415 401.009 269.453 404.148 263.522 407.476C264.36 403.601 264.252 399.342 263.998 395.228ZM282.434 380.91L281.949 381.222C280.994 376.287 279.753 371.412 278.234 366.62L279.688 365.369C285.089 360.807 289.687 357.099 293.824 354.204C294.336 355.464 294.857 356.783 295.392 358.179C297.039 362.439 298.432 366.793 299.564 371.218C293.692 373.973 287.975 377.424 282.438 380.91L282.434 380.91ZM296.66 357.696C296.083 356.19 295.52 354.764 294.97 353.418C301.653 348.902 307.153 346.58 312.939 346.309C315.854 352.518 318.294 358.938 320.238 365.514C313.592 365.839 307.099 367.813 300.819 370.644C299.686 366.252 298.299 361.928 296.665 357.696L296.66 357.696ZM294.445 352.14C292.117 346.517 289.483 341.026 286.552 335.691C290.698 331.708 295.808 327.187 302.795 326.803C306.225 332.837 309.464 338.902 312.309 344.982C306.537 345.379 301.032 347.714 294.449 352.14L294.445 352.14ZM285.886 334.44L285.265 333.302C284.404 331.735 283.593 330.258 282.805 328.749C281.129 325.547 279.312 322.363 277.554 319.265L277.065 318.402C280.259 313.926 282.995 311.008 286.303 309.283C287.937 308.418 289.739 307.913 291.586 307.802C295.115 313.651 298.667 319.545 302.056 325.457C295.083 326.125 290.018 330.506 285.886 334.44ZM285.669 308.104C282.266 309.879 279.484 312.765 276.326 317.137C275.796 316.198 275.261 315.263 274.74 314.319C273.15 311.474 271.591 308.542 270.078 305.715C269.269 304.185 268.452 302.659 267.627 301.135L267.686 301.009L267.849 300.684C269.738 296.949 273.626 289.266 280.349 288.878C283.729 294.803 287.277 300.693 290.806 306.542C289.01 306.743 287.267 307.279 285.669 308.122L285.669 308.104ZM266.843 299.663C263.944 294.243 261.406 288.823 259.186 283.458L259.449 282.554C260.654 278.639 262.485 273.792 265.991 271.019C267.167 270.058 268.608 269.477 270.124 269.353C272.969 275.45 276.199 281.52 279.638 287.559C272.769 288.408 268.855 295.711 266.843 299.663ZM251.547 264.773C250.641 270.066 250.039 275.134 249.536 280.052C249.762 275.224 249.789 270.568 249.812 266.503L249.812 262.867L249.812 262.095C249.812 259.931 249.857 257.741 249.912 255.546C250.283 258.654 250.829 261.739 251.547 264.786L251.547 264.773ZM257.655 206.664L257.374 206.966L257.542 206.379C260.55 195.837 263.169 186.646 269.367 185.151C266.518 191.317 264.14 197.688 262.254 204.211C260.484 204.479 258.861 205.345 257.655 206.664ZM264.057 186.99C265.697 182.804 267.41 178.62 269.195 174.438C271.505 170.662 274.591 166.467 279.448 165.627C276.063 171.611 272.869 177.631 270.056 183.693C267.699 183.98 265.545 185.16 264.039 186.99L264.057 186.99ZM271.591 168.82C273.354 164.755 275.144 160.69 276.92 156.679L278.881 152.24C282.184 149.435 285.8 146.964 290.693 146.576C287.168 152.398 283.634 158.26 280.272 164.159C276.598 164.448 273.793 166.399 271.591 168.82ZM280.059 149.561C282.823 143.265 285.555 136.938 288.124 130.592C292.46 128.98 296.796 127.647 302.02 127.566C298.626 133.478 295.07 139.354 291.536 145.18C286.842 145.316 283.195 147.213 280.059 149.561ZM288.804 128.898C291.495 122.173 293.987 115.426 296.126 108.682C301.318 108.308 306.999 107.937 312.341 108.041C309.473 114.125 306.229 120.181 302.795 126.206C297.471 126.166 293.094 127.358 288.804 128.898ZM296.56 107.296C298.76 100.319 300.501 93.2074 301.771 86.005C307.842 86.7999 313.977 87.2877 320.261 87.4864C318.321 94.0648 315.881 100.486 312.962 106.695C307.588 106.555 301.83 106.912 296.56 107.296ZM295.102 107.4C294.957 107.4 294.807 107.422 294.648 107.431C289.959 107.775 285.533 108.1 282.125 108.027C281.088 108.005 280.055 107.964 279.022 107.924C280.413 100.205 281.695 91.5513 282.447 82.3873C288.371 83.8362 294.366 84.9834 300.407 85.8243C299.118 93.1249 297.346 100.332 295.102 107.4ZM281.392 54.7688C281.964 63.4015 281.909 72.0642 281.228 80.6891C275.479 79.2302 269.684 77.4733 263.771 75.3957C264.066 64.66 263.889 54.6198 263.237 45.3745C269.254 48.7574 275.325 51.9505 281.392 54.7688ZM261.819 44.5706C262.507 53.8836 262.725 64.0412 262.426 74.917C258.108 73.3859 253.772 71.6696 249.318 69.7727C248.001 69.2186 246.693 68.6616 245.395 68.1016C245.336 56.0109 244.942 44.548 244.185 34.1645C250.021 37.7055 255.901 41.2103 261.819 44.5706ZM242.762 33.3244C243.537 43.7576 243.963 55.3153 244.031 67.528C240.764 66.1098 237.543 64.6555 234.367 63.0837C231.331 61.5752 228.273 59.9222 225.142 58.2194C225.391 46.3907 225.391 34.7336 225.074 22.8778C231.005 26.2561 236.904 29.8016 242.762 33.3244ZM223.674 22.0964C224.01 33.9658 224.023 45.6364 223.783 57.4742C222.279 56.6432 220.761 55.7941 219.216 54.9269C214.712 52.4067 210.132 49.8458 205.329 47.3482C205.51 38.3152 205.587 29.5622 205.542 21.1118C205.542 18.3251 205.497 15.4662 205.465 12.6117C211.582 15.4571 217.653 18.6819 223.674 22.0964ZM204.115 11.9614C204.156 15.0326 204.183 18.1038 204.201 21.1028C204.246 29.3319 204.169 37.8726 204.002 46.6391C199.566 44.3809 194.94 42.1542 189.993 40.0947C188.18 39.3495 186.495 38.6675 184.855 38.0307C184.932 28.0943 184.941 17.0695 184.855 4.70786C191.449 6.63738 197.888 9.06216 204.115 11.9614ZM183.486 4.35105C183.582 16.645 183.573 27.6246 183.486 37.5338C175.363 34.4716 169.051 32.8322 163.175 32.1502L163.175 1.36112C170.045 1.49821 176.87 2.50286 183.486 4.35105ZM183.486 38.9746C183.387 51.6208 183.178 62.5191 182.938 72.2251C180.22 71.0057 177.574 69.8811 174.901 68.8377C171.099 67.3563 167.198 65.8343 163.189 64.8135L163.189 33.5232C169.042 34.2187 175.336 35.8989 183.486 38.9746ZM142.954 62.8218C137.114 62.9042 131.283 63.328 125.493 64.0909C124.922 59.7551 123.785 51.0743 122.706 38.7397C129.009 36.8518 135.506 35.2033 140.988 34.4445C141.16 34.4174 141.328 34.3949 141.495 34.3723C141.858 42.2536 142.325 51.6208 142.954 62.8218ZM35.648 79.4696C38.8195 77.9385 41.9458 76.308 44.9678 74.6595C46.4375 80.5197 48.253 86.2883 50.4047 91.9352L50.3186 91.9894C49.4124 92.5404 48.4655 93.1095 47.5276 93.7372C42.05 97.3911 37.4875 100.178 32.9975 102.219L32.7891 101.79C30.791 97.6621 28.2584 90.9506 26.2648 83.3854C29.464 82.2572 32.5967 80.9499 35.648 79.4696ZM31.5703 102.377L31.7561 102.761C25.8344 105.277 19.8991 106.496 12.0428 106.691C9.12945 100.484 6.6925 94.0653 4.75283 87.4909C11.6429 87.2811 18.4629 86.0465 24.9871 83.828C27.0078 91.4519 29.5632 98.2267 31.5703 102.377ZM32.3496 103.994L33.5321 106.438C36.0195 111.591 38.5567 116.826 41.1846 122.074C39.5182 122.959 37.7779 123.698 35.9833 124.282C32.1321 125.497 27.7419 126.089 22.1962 126.202C18.771 120.172 15.527 114.111 12.6816 108.032C20.4836 107.784 26.4234 106.523 32.3587 103.994L32.3496 103.994ZM36.3956 125.574C38.2585 124.967 40.0654 124.201 41.7962 123.284C43.6085 126.897 45.4979 130.511 47.4325 134.043C48.7057 136.373 50.0014 138.699 51.3335 141.052C49.7795 142.03 48.1217 142.832 46.3904 143.446C42.0998 144.914 37.4648 145.153 33.4415 145.167C29.9076 139.331 26.3554 133.451 22.9664 127.552C28.3082 127.403 32.5988 126.771 36.4047 125.574L36.3956 125.574ZM46.8163 144.729C48.6244 144.089 50.3564 143.252 51.9813 142.236L54.804 147.204C57.1238 151.269 59.4571 155.383 61.7361 159.511C61.416 159.724 61.1131 159.961 60.8299 160.22C60.617 160.401 60.4131 160.577 60.2228 160.708C55.692 163.806 50.1011 164.123 44.7004 164.118C41.3296 158.21 37.7865 152.334 34.2797 146.504C38.2079 146.467 42.6571 146.16 46.8435 144.747L46.8163 144.729ZM60.9704 161.833C61.2196 161.661 61.4597 161.453 61.6908 161.259C61.9107 161.061 62.1439 160.879 62.3885 160.713C65.6642 166.697 68.8131 172.74 71.6131 178.851C66.6565 183.403 62.2345 183.756 54.9082 183.634C52.072 177.555 48.8552 171.498 45.448 165.477C50.6674 165.446 56.3943 164.99 60.9976 161.833L60.9704 161.833ZM72.2021 180.156C74.9512 186.177 77.2721 192.383 79.1478 198.728C78.1958 199.815 77.1157 200.784 75.9309 201.614C72.1794 204.17 67.2002 204.22 62.7238 204.179C60.832 197.615 58.445 191.203 55.5833 184.998C62.8325 185.075 67.3633 184.451 72.2293 180.156L72.2021 180.156ZM83.8144 215.502C83.2538 209.94 82.1923 204.439 80.6429 199.067C84.1271 195.033 86.9044 189.46 89.6093 183.927C90.9298 189.564 91.6256 195.329 91.6843 201.117L90.7782 203.375C88.6578 208.7 86.6099 213.827 83.9821 217.828C83.9594 217.042 83.9141 216.275 83.8416 215.502L83.8144 215.502ZM91.5983 204.916C91.4941 207.869 91.2539 210.742 90.973 213.669C90.5743 217.815 89.9536 222.096 89.197 226.365C88.7439 227.168 88.2908 227.972 87.8377 228.772C85.5361 232.837 83.307 236.771 80.797 239.964C81.4403 237.498 82.0112 234.996 82.4778 232.462C83.3065 228.412 83.8125 224.302 83.9911 220.172C87.0856 216.108 89.3374 210.652 91.6254 204.916L91.5983 204.916ZM88.4267 230.484C87.0041 237.678 85.2552 244.693 83.5652 250.808C82.4326 252.068 81.3406 253.328 80.2623 254.575C77.8474 257.375 75.5141 260.076 73.0131 262.302C75.6819 256 78.0006 249.555 79.9588 242.999C83.1665 239.652 85.7808 235.199 88.4494 230.484L88.4267 230.484ZM55.1619 269.326C59.6519 269.244 64.74 269.149 68.9037 266.891C69.2164 266.72 69.5244 266.543 69.8099 266.358C65.9542 275.418 63.7976 279.659 61.0429 284.903C56.2312 287.229 52.5568 287.36 45.4526 287.468C48.8506 281.457 52.0629 275.405 54.8946 269.33L55.1619 269.326ZM44.7775 288.837C51.6778 288.733 55.538 288.67 60.0461 286.827C58.9587 288.896 57.7263 291.231 56.2539 294.103C54.0655 298.371 53.0823 300.196 52.0946 301.957C51.56 302.937 51.0435 303.877 50.3593 305.169L49.8292 305.345C49.1998 305.576 48.5529 305.757 47.8946 305.887C43.9755 306.546 39.8661 306.505 35.8881 306.465C35.3444 306.465 34.8053 306.465 34.2661 306.465C37.7865 300.634 41.325 294.758 44.6868 288.85L44.7775 288.837ZM48.1166 307.224C48.577 307.144 49.0313 307.033 49.4758 306.889C47.8221 310.083 45.2441 315.218 40.3147 325.253L40.2422 325.393C39.463 325.513 38.6781 325.593 37.8907 325.633C34.5968 325.755 31.226 325.633 27.9684 325.547C26.3373 325.493 24.67 325.448 22.9846 325.425C26.369 319.517 29.9166 313.637 33.4415 307.811C34.248 307.811 35.0545 307.811 35.8655 307.811C39.9341 307.883 44.1024 307.924 48.1393 307.246L48.1166 307.224ZM37.927 326.983C38.4616 326.983 38.9917 326.916 39.5218 326.852C36.317 333.477 33.5412 339.87 31.1943 346.034C29.9801 345.98 28.9289 345.921 28.1632 345.858C23.1023 345.442 17.8784 345.018 12.6907 344.927C15.5586 338.853 18.7981 332.796 22.2052 326.766C24.1036 326.766 26.0247 326.843 27.8913 326.902C31.2124 327.024 34.6059 327.132 37.9496 327.006L37.927 326.983ZM28.0635 347.208C28.7567 347.267 29.6538 347.317 30.6914 347.366C28.2034 353.954 26.1422 360.695 24.5204 367.546C17.9984 366.343 11.3921 365.65 4.76182 365.473C6.70933 358.899 9.15233 352.481 12.0699 346.273C17.4298 346.359 22.8396 346.802 28.0862 347.231L28.0635 347.208ZM32.1412 347.425C33.6771 347.488 35.4169 347.547 37.2021 347.606C42.34 347.773 49.34 348.003 50.382 348.373L50.4454 348.468L50.4726 348.504C48.1196 356.788 46.2726 364.66 44.9315 372.121C44.1264 371.749 43.2767 371.482 42.4033 371.326C42.1088 371.263 41.8143 371.2 41.538 371.128C40.1788 370.784 38.8195 370.455 37.4603 370.157C33.7904 369.348 29.8985 368.517 25.8707 367.781C27.515 360.874 29.6097 354.082 32.1412 347.448L32.1412 347.425ZM52.6474 374.723C51.8319 374.456 50.9664 374.226 50.1328 374C48.7935 373.678 47.4792 373.26 46.2001 372.749C47.5231 365.321 49.3566 357.461 51.7005 349.168C52.3726 349.295 53.0551 349.361 53.7393 349.363C54.0972 349.363 54.437 349.363 54.7089 349.412C59.8642 349.961 64.9593 350.972 69.9322 352.434L69.6196 353.82C67.5626 362.89 65.9361 371.295 64.7082 379.248C61.1063 377.713 57.1827 376.227 52.6474 374.745L52.6474 374.723ZM70.9471 354.118L71.2325 352.845C72.2519 353.179 73.2487 353.536 74.1911 353.915C78.962 355.844 83.4021 358.513 87.661 361.444L87.0675 364.985C85.9665 371.548 84.5756 379.822 83.3795 389.374C77.4578 385.608 72.1658 382.563 65.995 379.799C67.2228 371.81 68.8629 363.314 70.9471 354.141L70.9471 354.118ZM88.4086 365.211L88.8979 362.302C91.2992 363.996 93.6552 365.753 95.9795 367.492C97.7918 368.847 99.6268 370.202 101.462 371.557C102.685 372.436 103.94 373.339 105.227 374.267L104.774 377.785C103.84 385.084 102.839 392.866 101.978 401.533C100.56 400.629 99.151 399.726 97.7646 398.823L93.6643 396.113C90.3976 393.945 87.4436 391.989 84.6481 390.192C85.8578 380.409 87.2986 371.927 88.4086 365.234L88.4086 365.211ZM142.084 422.643C142.234 417.973 142.411 413.158 142.615 408.14L143.022 397.956C148.622 400.566 154.458 402.638 160.452 404.143L160.86 404.243C161.186 404.324 161.508 404.401 161.829 404.482L161.829 428.099C160.661 427.941 159.487 427.751 158.314 427.521C152.857 426.408 147.511 424.807 142.343 422.738C142.257 422.724 142.171 422.697 142.084 422.665L142.084 422.643ZM163.189 404.812C167.964 405.968 172.581 406.984 177.497 407.386C179.309 407.531 180.927 407.63 182.444 407.689L182.444 407.775C182.734 414.667 182.993 421.234 183.183 427.647C177.125 428.551 170.207 429.043 163.189 428.27L163.189 404.812ZM183.224 429.007C183.414 435.65 183.518 442.132 183.486 448.613C176.874 450.459 170.054 451.465 163.189 451.607L163.189 429.63C169.865 430.279 176.598 430.077 183.224 429.029L183.224 429.007ZM303.357 390.029C303.365 383.94 302.625 377.873 301.155 371.963C307.498 369.095 313.986 367.103 320.637 366.837C322.509 373.437 323.523 380.249 323.654 387.107C316.791 387.234 309.971 388.224 303.357 390.052L303.357 390.029ZM259.046 230.696C259.426 236.38 260.384 242.011 261.905 247.502C260.237 247.748 258.699 248.543 257.537 249.76C254.551 252.718 253.106 257.077 252.2 261.304C251.124 255.567 250.625 249.738 250.709 243.902C250.736 243.667 250.759 243.45 250.791 243.202C251.434 238.284 252.381 232.746 255.485 229.228C256.355 228.17 257.577 227.458 258.928 227.218C258.937 228.383 258.976 229.55 259.046 230.718L259.046 230.696ZM323.641 65.8433C323.512 72.7094 322.501 79.5306 320.632 86.1405C314.397 85.9665 308.174 85.4781 301.988 84.6771C303.183 77.5037 303.65 70.2286 303.384 62.9618C309.987 64.7732 316.793 65.7489 323.641 65.8659L323.641 65.8433ZM161.829 1.36112L161.829 32.0056C155.677 31.4366 149.877 31.8972 142.8 32.8321C142.483 25.9038 142.252 20.1588 142.053 15.3578C141.871 10.8413 141.722 7.22807 141.572 4.32847C147.06 2.80925 152.69 1.8528 158.372 1.47403C159.514 1.40629 160.674 1.37015 161.829 1.36112ZM21.6933 62.9211C21.8926 69.3888 23.0525 76.2177 24.6564 82.5137C18.1214 84.7438 11.2821 85.9623 4.37674 86.1269C2.51376 79.5223 1.5058 72.7073 1.37738 65.8478C8.24612 65.731 15.0724 64.7476 21.6933 62.9211ZM66.0947 227.173C70.9154 227.173 76.2979 227.074 80.3348 223.939C81.1379 223.309 81.8866 222.612 82.573 221.857C82.3182 225.336 81.8476 228.797 81.1639 232.218C80.5296 235.646 79.7141 238.993 78.7672 242.312C77.9977 243.104 77.166 243.834 76.2798 244.494C72.6008 247.204 67.6396 247.398 63.1406 247.452C64.6464 241.991 65.5966 236.392 65.9769 230.741C66.0448 229.535 66.0811 228.352 66.0901 227.173L66.0947 227.173ZM1.38191 387.125C1.51491 380.263 2.53056 373.446 4.40395 366.841C11.0629 366.999 17.6987 367.685 24.2486 368.892C22.6558 375.828 21.7948 382.91 21.6797 390.025C15.0603 388.217 8.23973 387.242 1.37736 387.125L1.38191 387.125ZM65.0979 409.55L63.2403 408.488C63.5647 399.363 64.4118 390.264 65.7775 381.236C71.9212 384.013 77.2086 387.107 83.1892 390.91C82.1652 399.369 81.3134 408.8 80.9555 418.912C75.4869 415.633 70.2992 412.521 65.0979 409.55ZM141.532 448.653C141.604 440.894 141.767 432.769 142.035 424.097C147.216 426.159 152.571 427.757 158.037 428.871C159.301 429.124 160.561 429.323 161.82 429.49L161.82 451.621C160.661 451.621 159.504 451.583 158.35 451.508C152.664 451.132 147.031 450.176 141.541 448.653L141.532 448.653Z" fill="#1A1A1A"/>
</svg>
