<svg width="327" height="329" viewBox="0 0 327 329" fill="none" xmlns="http://www.w3.org/2000/svg">
<path d="M130.859 183.252L134.267 167.478L136.222 152.234L134.263 138.498L132.06 131.921" stroke="#1A1A1A" stroke-linecap="round" stroke-linejoin="round"/>
<path d="M145.344 197.224L147.422 181.823L149.581 166.279L151.281 150.822L152.359 140.201" stroke="#1A1A1A" stroke-linecap="round" stroke-linejoin="round"/>
<path d="M183.317 142.514L183.966 157.425L184.946 172.682L185.973 187.83L186.116 202.429L187.361 217.419L186.552 231.276L185.043 244.625L171.611 252.934L155.873 245.77L147.646 238.73L138.705 232.215L129.164 226.153L118.241 220.882L109.001 214.988L97.416 210.289L85.4882 205.86L75.1872 200.836L74.2328 187.555L75.4863 173.212L76.724 158.771L76.7942 144.694L76.0561 130.808L76.012 116.513L73.8203 104.174" stroke="#1A1A1A" stroke-linecap="round" stroke-linejoin="round"/>
<path d="M195.329 181.559L195.988 196.329L197.15 211.209L197.469 225.56L195.652 238.72L193.594 251.589L183.933 258.01L181.18 270.386L180.109 279.929" stroke="#1A1A1A" stroke-linecap="round" stroke-linejoin="round"/>
<path d="M76.4297 241.706L76.825 227.114" stroke="#1A1A1A" stroke-linecap="round" stroke-linejoin="round"/>
<path d="M194.668 137.816L195.305 152.189L195.075 166.838L195.328 181.559L185.976 187.83L171.619 195.125L156.897 188.006L147.426 181.824L141.246 174.378L134.267 167.478L124.998 161.734L113.218 157.192L102.586 152.294L89.5408 148.506L76.7976 144.694L63.0859 140.968" stroke="#1A1A1A" stroke-linecap="round" stroke-linejoin="round"/>
<path d="M61 97.7939L73.8238 104.174L84.6402 101.635L96.2595 95.9732L107.709 89.3001L118.999 81.2551L130.199 75.5596L140.661 81.7655L151.28 91.6789L161.998 100.066L172.837 107.2L183.802 115.476L194.913 121.411L206.218 123.504L217.696 126.154L226.653 121.026L228.772 119.813L239.668 115.309L250.426 110.416L261.099 103.641L270.87 96.6015L282.175 100.41" stroke="#1A1A1A" stroke-linecap="round" stroke-linejoin="round"/>
<path d="M65.7552 236.067L65.6797 221.89L66.0243 208.721" stroke="#1A1A1A" stroke-linecap="round" stroke-linejoin="round"/>
<path d="M279.423 141.942L278.934 155.764L278.758 169.457L278.938 183.022L278.364 196.457L279.652 209.777L277.837 222.957L278.007 235.919L268.744 242.201L259.794 249.503L248.355 252.819L236.485 255.689L223.986 257.767L212.266 261.505" stroke="#1A1A1A" stroke-linecap="round" stroke-linejoin="round"/>
<path d="M106.008 76.6328L118.994 81.2538L129.446 87.0755L140.065 96.1025L150.797 105.12L161.633 110.594L172.831 107.199L183.864 105.138L194.752 100.641L205.509 95.1317L216.123 90.2006L222.159 85.5073" stroke="#1A1A1A" stroke-linecap="round" stroke-linejoin="round"/>
<path d="M269.574 215.045L270.209 228.809L268.742 242.2" stroke="#1A1A1A" stroke-linecap="round" stroke-linejoin="round"/>
<path d="M95.6875 82.627L107.709 89.2993L118.121 93.8189L128.752 103.57L139.454 109.93L150.802 105.12L161.998 100.065L173.048 94.6569L183.958 89.6469L194.719 86.0146L205.514 95.1322L216.444 102.831L227.588 105.933L238.912 108.456L250.426 110.415L259.264 111.085" stroke="#1A1A1A" stroke-linecap="round" stroke-linejoin="round"/>
<path d="M216.798 227.358L216.5 241.025" stroke="#1A1A1A" stroke-linecap="round" stroke-linejoin="round"/>
<path d="M73.8203 104.174L85.9879 110.231L98.0007 116.125L109.635 121.669L113.353 123.415L121.169 127.084L125.796 129.14L132.056 131.921L136.243 133.798L143.219 136.924L152.36 140.202L160.478 139.045L172.166 132.921L183.632 136.568L195.144 134.526L205.007 131.405L206.492 130.935L215.539 129.708" stroke="#1A1A1A" stroke-linecap="round" stroke-linejoin="round"/>
<path d="M248.842 225.266L248.807 238.804L248.359 252.819" stroke="#1A1A1A" stroke-linecap="round" stroke-linejoin="round"/>
<path d="M171.674 277.976L159.698 271.674L150.164 265.169L147.979 252.476L147.65 238.73L146.329 225.305L138.185 218.479L137.48 204.681L138.594 189.925L130.859 183.252" stroke="#1A1A1A" stroke-linecap="round" stroke-linejoin="round"/>
<path d="M282.174 100.41L282.858 113.909L283.999 128.006L279.427 141.942L270.238 146.162L259.689 150.885L247.118 154.865L236.985 160.013L226.619 165.2L217.925 171.278L206.148 176.129L195.328 181.559" stroke="#1A1A1A" stroke-linecap="round" stroke-linejoin="round"/>
<path d="M87.1077 245.767L86.8549 232.347L86.1826 219.166L85.4922 205.861L86.8176 191.552L88.9585 176.793L89.8589 162.459L89.5414 148.507L88.0802 134.877L88.3252 120.424L85.9918 110.231" stroke="#1A1A1A" stroke-linecap="round" stroke-linejoin="round"/>
<path d="M61 97.7935L73.4819 92.8906L84.6402 101.635L95.078 108.477L105.65 115.569L106.581 116.121L116.337 121.894L118.405 123.149L127.167 128.467L138.809 122.735L150.29 115.663L161.638 110.595L172.62 117.436L183.746 122.887L195.037 126.906L206.496 130.935L217.696 126.154L226.209 125.358L237.317 120.585L248.231 115.912L259.264 111.085L270.801 105.804L282.175 100.41" stroke="#1A1A1A" stroke-linecap="round" stroke-linejoin="round"/>
<path d="M269.164 173.741L268.137 187.112L269.491 201.419L269.578 215.045L260.683 220.775L259.851 233.904L259.797 249.502" stroke="#1A1A1A" stroke-linecap="round" stroke-linejoin="round"/>
<path d="M75.185 200.836L63.0781 195.413" stroke="#1A1A1A" stroke-linecap="round" stroke-linejoin="round"/>
<path d="M63.5625 112.963L76.0184 116.513L88.3276 120.424L101.254 124.193L113.349 128.396L125.203 132.811L134.266 138.498L143.6 144.231L151.288 150.823L161.104 156.688L171.67 163.423L183.972 157.425L195.308 152.189L204.185 146.032L214.781 140.786L225.164 135.593L235.481 130.515L247.028 126.08L257.929 121.5L270.206 117.591L282.861 113.91" stroke="#1A1A1A" stroke-linecap="round" stroke-linejoin="round"/>
<path d="M150.165 265.169L138.318 259.961L127.583 254.359L117.299 248.688L109.352 242.073L108.43 228.938L109.005 214.987L109.996 200.735L110.127 186.744L111.239 172.206L113.218 157.192L113.926 142.598L113.347 128.396L109.64 121.669" stroke="#1A1A1A" stroke-linecap="round" stroke-linejoin="round"/>
<path d="M128.603 267.039L127.577 254.359L127.039 240.941L129.163 226.152L130.148 211.785" stroke="#1A1A1A" stroke-linecap="round" stroke-linejoin="round"/>
<path d="M171.68 277.976L171.656 265.301L171.622 252.934L171.602 239.705L171.611 224.916L171.616 210.225L171.626 195.125L171.662 178.809L171.674 163.423L171.701 147.447" stroke="#1A1A1A" stroke-linecap="round" stroke-linejoin="round"/>
<path d="M260.687 220.775L248.844 225.265" stroke="#1A1A1A" stroke-linecap="round" stroke-linejoin="round"/>
<path d="M139.376 272.478L138.314 259.961L137.414 246.676L138.706 232.215L138.182 218.479L130.149 211.785L129.477 198.042L120.266 192.113L110.123 186.744L99.535 181.706L88.9552 176.793L75.4868 173.212L63.9062 168.451" stroke="#1A1A1A" stroke-linecap="round" stroke-linejoin="round"/>
<path d="M161.453 57.9043L173.654 60.5678L184.316 60.9577" stroke="#1A1A1A" stroke-linecap="round" stroke-linejoin="round"/>
<path d="M73.4844 92.8904L85.0403 88.3838L96.2619 95.9727L106.683 101.741L117.281 109.807L127.974 115.961L139.457 109.93L150.292 115.663L161.267 120.191L172.4 125.779L183.689 130.662L195.15 134.526L204.866 133.999L209.695 132.058L215.545 129.708L221.888 127.121L226.212 125.358" stroke="#1A1A1A" stroke-linecap="round" stroke-linejoin="round"/>
<path d="M216.499 241.025L205.313 246.366L201.812 258.315L202.122 268.297" stroke="#1A1A1A" stroke-linecap="round" stroke-linejoin="round"/>
<path d="M161.897 282.689L151.052 276.709L139.378 272.478L128.606 267.039L118.863 260.183L117.297 248.688L117.689 234.883L118.243 220.881L119.874 206.276L120.267 192.113L122.684 176.948L124.996 161.733L125.769 147.061L125.198 132.81L121.171 127.084" stroke="#1A1A1A" stroke-linecap="round" stroke-linejoin="round"/>
<path d="M76.8272 227.115L65.6797 221.891" stroke="#1A1A1A" stroke-linecap="round" stroke-linejoin="round"/>
<path d="M64.4375 127.037L76.0559 130.807L88.076 134.876L102.405 138.117L113.921 142.597L125.766 147.061L136.219 152.234L144.721 158.382L149.582 166.279L159.547 172.161L171.651 178.809L184.946 172.681L195.071 166.837L205.838 161.444L215.883 155.884L225.555 150.315L235.548 145.035L246.344 140.234L258.558 136.148L271.562 132.492L283.996 128.005" stroke="#1A1A1A" stroke-linecap="round" stroke-linejoin="round"/>
<path d="M85.0391 88.3851L95.6891 82.6285L106.014 76.6349L116.38 71.0353L130.2 75.5604L141.273 70.8945L151.732 76.2909L162.335 85.3578L173.05 94.6585L183.871 105.14L194.829 111.799L205.941 116.929L217.254 119.058L228.165 113.203L239.669 115.31L248.232 115.913" stroke="#1A1A1A" stroke-linecap="round" stroke-linejoin="round"/>
<path d="M204.861 133.999L204.18 146.032L205.839 161.444L206.146 176.129L207.566 191.192L208.787 206.048L208.53 220.076L206.864 233.276L205.306 246.366L193.591 251.589L190.501 263.759L190.635 273.109L180.106 279.929L171.727 286.691" stroke="#1A1A1A" stroke-linecap="round" stroke-linejoin="round"/>
<path d="M109.348 242.073L98.5975 236.918L86.8513 232.346L76.8224 227.115L75.3062 214.351L75.1875 200.836" stroke="#1A1A1A" stroke-linecap="round" stroke-linejoin="round"/>
<path d="M118.869 260.184L109.66 252.751L99.1994 247.741L87.1115 245.766L76.4344 241.707L65.7578 236.067" stroke="#1A1A1A" stroke-linecap="round" stroke-linejoin="round"/>
<path d="M138.656 63.4392L150.139 60.6768L163.004 63.7208L173.458 68.5685L184.03 78.0675L194.655 75.0654L202.67 73.5888" stroke="#1A1A1A" stroke-linecap="round" stroke-linejoin="round"/>
<path d="M270.802 105.804L270.203 117.591L271.566 132.492L270.238 146.162L270.156 160.213L269.166 173.741L261.072 179.643L252.081 185.299L241.738 190.495L231.144 195.718L219.451 200.572L208.79 206.048L197.149 211.209L187.364 217.419L171.604 224.916L154.855 217.878L145.936 211.295L145.348 197.224L138.594 189.925L141.246 174.378L144.725 158.383L143.597 144.23L143.222 136.924" stroke="#1A1A1A" stroke-linecap="round" stroke-linejoin="round"/>
<path d="M127.391 66.8656L138.657 63.4396L152.208 66.7229L163.005 63.7212L173.655 60.5674L184.103 66.3357L194.657 75.0657L205.33 82.871" stroke="#1A1A1A" stroke-linecap="round" stroke-linejoin="round"/>
<path d="M116.375 71.0339L127.386 66.865L141.268 70.8931L152.203 66.7224L162.664 72.6517L173.455 68.5683L184.098 66.3351L194.665 65.1504L202.666 73.5886L212.172 79.8012L222.16 85.5079L232.449 91.0175L245.233 92.6079" stroke="#1A1A1A" stroke-linecap="round" stroke-linejoin="round"/>
<path d="M130.15 211.785L119.873 206.276L109.994 200.735L98.9253 195.856L86.8153 191.551L74.2344 187.554L63.0469 181.993" stroke="#1A1A1A" stroke-linecap="round" stroke-linejoin="round"/>
<path d="M150.141 60.6773L161.454 57.9041L173.844 57L184.317 60.9575L194.67 65.1511" stroke="#1A1A1A" stroke-linecap="round" stroke-linejoin="round"/>
<path d="M151.053 276.71L150.164 265.169" stroke="#1A1A1A" stroke-linecap="round" stroke-linejoin="round"/>
<path d="M278.945 183.021L268.142 187.113L260.795 193.412L260.906 207.232L260.688 220.775" stroke="#1A1A1A" stroke-linecap="round" stroke-linejoin="round"/>
<path d="M279.654 209.776L269.578 215.045" stroke="#1A1A1A" stroke-linecap="round" stroke-linejoin="round"/>
<path d="M215.542 129.708L214.778 140.785L215.887 155.885L217.925 171.278L218.38 185.847L219.451 200.572L219.116 214.515L216.792 227.359L206.866 233.276L195.651 238.72L185.046 244.625L183.932 258.01L171.649 265.302L157.689 258.854L147.979 252.477L137.417 246.676L127.043 240.942L117.69 234.883L108.429 228.938L97.8606 223.738L86.182 219.166L75.3093 214.351L66.0226 208.721L63.0838 195.413L63.0487 181.994L63.9091 168.452L64.3116 154.779L63.086 140.969L64.4411 127.038L63.5596 112.963L61 97.7939" stroke="#1A1A1A" stroke-linecap="round" stroke-linejoin="round"/>
<path d="M99.1975 247.741L98.603 236.918L97.8631 223.737L97.4219 210.289L98.9295 195.856L99.5403 181.705L101.597 166.828L102.588 152.294L102.411 138.117L101.254 124.192L98.0066 116.124" stroke="#1A1A1A" stroke-linecap="round" stroke-linejoin="round"/>
<path d="M109.656 252.751L109.352 242.073" stroke="#1A1A1A" stroke-linecap="round" stroke-linejoin="round"/>
<path d="M171.729 286.69L161.899 282.689L159.699 271.673L157.69 258.853L155.877 245.769L154.838 232.148L154.855 217.877L154.633 203.573L156.898 188.006L159.551 172.16L161.101 156.687L162.01 143.814" stroke="#1A1A1A" stroke-linecap="round" stroke-linejoin="round"/>
<path d="M278.761 169.456L269.164 173.741" stroke="#1A1A1A" stroke-linecap="round" stroke-linejoin="round"/>
<path d="M259.265 111.085L257.927 121.499L258.563 136.148L259.691 150.885L260.078 165.191L261.072 179.643L260.793 193.412L252.611 199.498L242.3 204.764L231.792 210.08L219.117 214.514L208.533 220.076L197.469 225.56L186.556 231.275L171.596 239.704L154.839 232.149L146.33 225.305L145.936 211.294L137.481 204.681L129.481 198.042L130.86 183.252L122.686 176.948L111.24 172.206L101.596 166.828L89.8593 162.458L76.7284 158.771L64.3125 154.778" stroke="#1A1A1A" stroke-linecap="round" stroke-linejoin="round"/>
<path d="M162.016 143.815L171.7 147.447L183.326 142.514" stroke="#1A1A1A" stroke-linecap="round" stroke-linejoin="round"/>
<path d="M152.359 140.202L162.006 143.815L171.93 140.159L183.631 136.568L194.664 137.816" stroke="#1A1A1A" stroke-linecap="round" stroke-linejoin="round"/>
<path d="M226.208 125.358L225.159 135.593L225.557 150.316L226.617 165.2L228.782 180.463L231.142 195.718L231.789 210.08L229.655 222.998L226.941 235.47L224.255 247.783L212.348 252.637L201.807 258.316L190.502 263.76L181.177 270.386L171.672 277.976L171.727 286.691" stroke="#1A1A1A" stroke-linecap="round" stroke-linejoin="round"/>
<path d="M248.235 115.911L247.029 126.079L246.351 140.234L247.122 154.864L249.992 170.296L252.085 185.299L252.614 199.498L250.68 212.437L248.845 225.264L238.296 230.491L235.617 242.787L236.493 255.687" stroke="#1A1A1A" stroke-linecap="round" stroke-linejoin="round"/>
<path d="M278.373 196.456L269.497 201.418L260.907 207.231L250.681 212.437L241.171 218.117L229.661 222.997L216.797 227.358" stroke="#1A1A1A" stroke-linecap="round" stroke-linejoin="round"/>
<path d="M237.313 120.586L235.473 130.515L235.547 145.036L236.98 160.014L238.565 174.95L241.733 190.496L242.294 204.765L241.162 218.118L238.287 230.492L226.938 235.471L216.49 241.027L212.345 252.638L212.265 261.505L202.113 268.298L190.633 273.11" stroke="#1A1A1A" stroke-linecap="round" stroke-linejoin="round"/>
<path d="M224.259 247.782L223.992 257.767" stroke="#1A1A1A" stroke-linecap="round" stroke-linejoin="round"/>
<path d="M278.934 155.763L270.151 160.212L260.072 165.19L249.984 170.296L238.565 174.948L228.779 180.462L218.376 185.846L207.564 191.192L195.983 196.328L186.115 202.428L171.605 210.224L154.628 203.573L145.344 197.223" stroke="#1A1A1A" stroke-linecap="round" stroke-linejoin="round"/>
<path d="M277.842 222.956L270.217 228.809L259.854 233.904L248.807 238.804L235.614 242.788L224.258 247.782" stroke="#1A1A1A" stroke-linecap="round" stroke-linejoin="round"/>
<path d="M85.9922 110.231L95.0788 108.478L106.682 101.741L118.122 93.8196L129.452 87.0767L140.662 81.7655L151.731 76.29L162.669 72.6523L173.258 79.8045L183.959 89.6477L194.759 100.642L205.705 107.618L216.833 111.491L228.164 113.202L238.913 108.457L249.556 102.361L257.886 94.7349L270.871 96.6014" stroke="#1A1A1A" stroke-linecap="round" stroke-linejoin="round"/>
<path d="M98.0078 116.124L105.653 115.569L117.283 109.807L128.756 103.57L140.074 96.1032L151.283 91.6784L162.338 85.3564L173.261 79.804L184.034 78.0674L194.723 86.0148L205.333 82.8706L216.132 90.2013L227.075 96.6348L238.203 100.859L249.559 102.36L261.103 103.64L270.805 105.804" stroke="#1A1A1A" stroke-linecap="round" stroke-linejoin="round"/>
<path d="M205.336 82.87L212.183 79.8008" stroke="#1A1A1A" stroke-linecap="round" stroke-linejoin="round"/>
<path d="M109.641 121.668L116.339 121.894L127.973 115.961L138.811 122.734L149.76 125.905L160.884 130.636L172.171 132.92L183.689 130.662L195.038 126.905L206.22 123.503L217.254 119.057L228.774 119.812L237.319 120.584" stroke="#1A1A1A" stroke-linecap="round" stroke-linejoin="round"/>
<path d="M121.172 127.084L127.166 128.467L131.459 130.131L138.11 132.709L149.206 135.719L160.882 130.637L172.397 125.78L183.745 122.887L194.913 121.411L205.94 116.928L216.832 111.491L227.588 105.934L238.199 100.859L245.236 92.6084L257.884 94.7348" stroke="#1A1A1A" stroke-linecap="round" stroke-linejoin="round"/>
<path d="M143.219 136.924L149.204 135.719L160.478 139.045L171.93 140.159L183.317 142.514L194.664 137.816L199.516 136L204.86 133.999" stroke="#1A1A1A" stroke-linecap="round" stroke-linejoin="round"/>
<path d="M132.062 131.922L138.114 132.709L149.761 125.906L161.268 120.192L172.623 117.437L183.805 115.477L194.83 111.798L205.707 107.619L216.447 102.832L227.075 96.6357L232.456 91.0186" stroke="#1A1A1A" stroke-linecap="round" stroke-linejoin="round"/>
<path d="M17.8544 3.11256C21.9619 0.00318843 28.165 5.04541 31.9372 8.74304C35.7094 12.4407 39.4816 17.1468 44.7626 18.3233C52.307 20.0881 59.2645 14.3735 65.2162 9.49938C82.8197 -4.61885 123.224 3.11256 145.103 3.11256H320.132C320.909 3.11248 321.679 3.26738 322.397 3.56825C323.114 3.86912 323.765 4.30996 324.311 4.86514C324.857 5.42032 325.287 6.07877 325.577 6.80221C325.867 7.52564 326.01 8.29964 325.999 9.07919V322.117C325.999 323.678 325.381 325.174 324.281 326.277C323.18 327.38 321.688 328 320.132 328H7.9629C6.40666 328 4.91416 327.38 3.81373 326.277C2.71329 325.174 2.09507 323.678 2.09507 322.117V180.095C2.09507 154.715 -0.168221 134.21 11.9866 111.352C17.2676 101.352 21.9619 89.5867 17.7706 79.0821C15.0881 72.107 8.96882 67.1488 4.77752 60.9301C0.586209 54.7113 -1.00649 45.2992 4.69369 40.425C7.04082 38.4081 10.1424 37.6518 12.8248 36.0551C17.8544 32.8617 20.3692 26.6429 20.6207 20.6763C20.8721 14.7097 13.7469 6.22193 17.8544 3.11256Z" stroke="#1A1A1A" stroke-width="2" stroke-miterlimit="10"/>
</svg>
