<svg xmlns="http://www.w3.org/2000/svg" fill="none" viewBox="0 0 325 453">
  <path fill="#1A1A1A" d="M162.5 453a82.74 82.74 0 0 0 21.93-3.21c20.07-5.56 39.91-17.48 59.3-29.13h.03l.06-.03a845.2 845.2 0 0 1 18.78-11.08c.14-.02.27-.1.37-.2a251.89 251.89 0 0 1 19.15-9.94.67.67 0 0 0 .38-.17 135.35 135.35 0 0 1 20.43-7.63c6.95-2 14.15-3.04 21.39-3.1h.68v-.69a81.2 81.2 0 0 0-3.2-21.76l-.03-.1c-5.57-19.94-17.53-39.75-29.21-59.1-3.76-6.24-7.55-12.51-11.15-18.83a266.37 266.37 0 0 1-10.29-19.71c-5.8-12.53-9.97-25.12-10.72-37.66-.51-8.52.66-17.04 3-25.52a133.84 133.84 0 0 1 7.61-20.3.65.65 0 0 0 .23-.5 268.26 268.26 0 0 1 9.9-18.96.68.68 0 0 0 .3-.5 794.46 794.46 0 0 1 11.17-18.8c15.93-26.3 32.39-53.5 32.39-80.85v-.67h-.68a80.71 80.71 0 0 1-21.57-3.16 133.2 133.2 0 0 1-20.24-7.57.7.7 0 0 0-.4-.19 265.54 265.54 0 0 1-19.14-9.93.68.68 0 0 0-.37-.21 860.94 860.94 0 0 1-18.76-11.07C217.4 16.48 190.14.09 162.6 0h-.17c-1.38 0-2.77.04-4.16.12C132.25 1.7 106.25 17.3 81.11 32.4a864.6 864.6 0 0 1-18.96 11.17A264.76 264.76 0 0 1 42.6 53.72C28.67 60.13 14.65 64.52.7 64.52H.03v.67c0 27.35 16.48 54.59 32.42 80.93l.07.12c3.74 6.18 7.5 12.4 11.08 18.66.02.16.1.3.23.4 3.6 6.33 7 12.7 9.96 19.08a.7.7 0 0 0 .18.38c7.01 15.2 11.59 30.53 10.65 45.86a83.44 83.44 0 0 1-3 17.28l-.04.1a134.9 134.9 0 0 1-7.61 20.22c-.1.1-.16.23-.18.37a253.17 253.17 0 0 1-9.96 19.07.65.65 0 0 0-.25.43 833.06 833.06 0 0 1-11.18 18.87C20.74 326.24 8.83 346 3.24 365.87A81 81 0 0 0 0 387.79v.68h.68a81.4 81.4 0 0 1 21.16 2.94.68.68 0 0 0 .5.21c.06 0 .12 0 .17-.02a128.91 128.91 0 0 1 19.88 7.48.68.68 0 0 0 .64.3 279.9 279.9 0 0 1 21.38 11.34c5.32 3.05 10.64 6.25 16.27 9.63 25.31 15.21 51.5 30.95 77.57 32.52a61.42 61.42 0 0 0 4.26.13Zm-41.58-11.97c.25-9.57.66-17.98 1.17-25.93a197.7 197.7 0 0 0 15.25 7.47c.78.3 1.58.57 2.39.79l.97.28c-.27 8.7-.45 16.86-.51 24.65a137 137 0 0 1-19.27-7.26Zm-19.58-10.1c.36-10.01 1-18.92 1.78-27.05l3.89 2.4c1.4.85 2.78 1.7 4.17 2.57a195.3 195.3 0 0 0 9.6 5.53c-.53 7.99-.95 16.42-1.2 26.02a269.93 269.93 0 0 1-18.24-9.48Zm-19.03-11.2a334.9 334.9 0 0 1 2.17-28c2.63 1.69 5.4 3.52 8.45 5.54l4.1 2.71c1.59 1.05 3.18 2.08 4.82 3.09a454.62 454.62 0 0 0-1.81 27.1 745 745 0 0 1-17.73-10.44ZM43.68 398.2c.12-8.07.89-16.12 2.3-24.07 1.25.48 2.52.87 3.82 1.2.85.22 1.66.44 2.44.7 4.63 1.5 8.6 3.02 12.28 4.62a241.4 241.4 0 0 0-2.58 27.1 259.28 259.28 0 0 0-18.28-9.55h.02Zm-20.63-7.82c.08-7.16.94-14.29 2.55-21.26 4.03.73 7.92 1.56 11.6 2.37 1.33.3 2.69.62 4.02.96l.9.21c.81.13 1.6.38 2.33.74l.24.13a153.28 153.28 0 0 0-2.37 24.05 132.3 132.3 0 0 0-19.29-7.2h.02Zm39.7-141.58c4.81-.05 10.2-.18 14.34-3.22.3-.24.61-.46.9-.73a207.39 207.39 0 0 1-7.2 19.24c-.8.6-1.64 1.14-2.53 1.62-3.76 2.04-8.3 2.18-12.71 2.26 2.88-6.2 5.3-12.6 7.2-19.17Zm16.74-25.93c-3.67 2.85-8.8 2.94-13.4 2.95a82.07 82.07 0 0 0-2.96-20.29c4.57.04 9.61-.08 13.59-2.8a18.54 18.54 0 0 0 2.89-2.47 90.76 90.76 0 0 1 2.87 15.35c.13 1.35.18 2.7.16 4.04a18.4 18.4 0 0 1-3.15 3.22ZM42.31 55.35c.14 6.04.92 12.06 2.33 17.94-3.1 1.7-6.32 3.38-9.59 4.97-2.96 1.44-6 2.71-9.1 3.82a92.92 92.92 0 0 1-2.9-19.53 136.5 136.5 0 0 0 19.26-7.2Zm19.55-10.06c0 2.22.13 4.58.37 7.35.3 3.25.74 6.4 1.29 9.4l-.2.13A364.1 364.1 0 0 1 45.89 72.6a83.7 83.7 0 0 1-2.22-17.89c6.1-2.83 12.17-6.03 18.2-9.43Zm19.12-11.22c.34 6.07 1.05 12.12 2.15 18.11a126.91 126.91 0 0 0-18.35 9.09c-.5-2.82-.9-5.75-1.17-8.76a77.76 77.76 0 0 1-.36-8 865.8 865.8 0 0 0 17.73-10.44Zm19.03-11.25a285.9 285.9 0 0 0 1.98 21.65l-2.26.9c-2.08.84-4.23 1.72-6.35 2.52a137.36 137.36 0 0 0-8.96 3.73 141.4 141.4 0 0 1-2.1-18.35 869.82 869.82 0 0 1 17.71-10.45h-.02Zm19.57-10.24a667.2 667.2 0 0 0 1.66 25.18 296.18 296.18 0 0 0-13.38 4.45c-1.53.55-3.05 1.14-4.56 1.74a283.45 283.45 0 0 1-1.97-21.88 273.88 273.88 0 0 1 18.26-9.49h-.01Zm20.64-7.87c.14 2.84.28 6.35.45 10.7.2 4.83.43 10.62.75 17.62l-.63.08c-5.48.77-11.94 2.4-18.22 4.27-.62-7.3-1.21-15.81-1.66-25.4 6.24-2.9 12.7-5.34 19.3-7.27Zm21.6 28.67v31.11c-.8-.18-1.61-.34-2.43-.47a97.45 97.45 0 0 0-15.08-1.2c-.63-11.29-1.1-20.71-1.46-28.63 7.07-.94 12.84-1.4 18.98-.81Zm140.19 29.17c.3 7.33-.15 14.67-1.36 21.91a178.38 178.38 0 0 1-18.08-3.44c.68-8.52.76-17.07.23-25.6a135.34 135.34 0 0 0 19.2 7.13Zm-47.53 165.78a15.92 15.92 0 0 0-2.83 4.83l.16-1.28c.6-4.19 1.43-9.16 2.6-15.2l.14-.39c0-.05.07-.21.1-.36.52-1.54 1-3.09 1.46-4.63a14.01 14.01 0 0 1 2.51-3.7 6.78 6.78 0 0 1 3.23-1.92 81.88 81.88 0 0 0-2.9 20.17 7.04 7.04 0 0 0-4.47 2.48Zm-1.38 35.53c.84-4.68 2.15-9.9 5.41-13.14 1-1.04 2.35-1.7 3.79-1.87a135.73 135.73 0 0 0 7.25 19.23 9 9 0 0 0-4.38 1.9c-3.58 2.84-5.5 7.52-6.77 11.49-1.7-4.24-3.16-8.42-4.37-12.56-.4-1.36-.77-2.77-1.1-4.17l.17-.88Zm29.76 133.69a57 57 0 0 0-.63-14.91l.96-.61c5.41-3.4 11-6.77 16.72-9.48a72.3 72.3 0 0 1 2.1 17.86 136.18 136.18 0 0 0-19.16 7.14h.01ZM71.53 351.54c.63-2.9 1.08-5.15 1.48-7.18 1-5.04 1.82-9.18 4.73-19.61 5.52 1.02 9.56 3.29 15.61 7.74l-.07.28c-1.22 4.73-2.37 9.2-5.37 27.22a70.89 70.89 0 0 0-13.2-7.3c-1-.41-2.09-.8-3.18-1.15Zm-17.76-3.51c-.57 0-1.15-.05-1.72-.14l.22-.76 1.13-3.93c1.32-4.62 2.7-9.4 4.3-14 .45-1.32 1-2.84 1.59-4.52.19 0 .38 0 .58-.04l.8-.08a60.32 60.32 0 0 1 15.71 0 224.27 224.27 0 0 0-4.7 19.55 461 461 0 0 1-1.46 7.04 87.87 87.87 0 0 0-15.38-3.04 6.77 6.77 0 0 0-1.07-.08Zm-21.14-1.91c2.4-6.25 5.24-12.74 8.52-19.47l.3-.04c.6-.1 1.23-.13 1.9-.17.65-.04 1.23-.08 1.86-.16 4.08-.54 6.15-.86 7.67-1.09 1.53-.23 2.4-.37 4.08-.54.3-.03.6-.04.9-.02l-1.43 4.1c-1.63 4.66-3 9.45-4.33 14.1l-1.12 3.92-.12.4c-1.16-.4-4.8-.59-13.62-.88-1.6-.05-3.18-.09-4.6-.15h-.01Zm18.68-39.8.42-.11h.06c2.62-.63 3.81-.9 11.2-4 .3-.13.63-.28.96-.45.74-.38 1.52-.68 2.33-.9.05 0 .1 0 .16-.03l-.04.12c-2.75 7.57-5.78 15.92-8.06 22.31a10.3 10.3 0 0 0-1.53 0c-1.7.18-2.61.32-4.13.55-1.52.23-3.6.55-7.64 1.08-.58.08-1.2.12-1.78.16-.45.02-.93.06-1.4.1a964.68 964.68 0 0 1 9.46-18.82Zm30-50.86 1.44-1.65a340.87 340.87 0 0 1-4.02 13.1 226.1 226.1 0 0 1-3.08 8.53l-.13.05c-.14.04-.28.09-.4.15-.9.5-1.75 1.08-2.53 1.74-.32.26-.64.5-.96.74a93.8 93.8 0 0 1-8.43 5.67 232.7 232.7 0 0 0 8.73-18.84c3.37-2.52 6.3-5.94 9.39-9.49Zm9.21-28.63a76.72 76.72 0 0 1 5.83-9.03 27.5 27.5 0 0 1 4.12-4.34c-.6 5.75-1.36 11.75-2.38 18.07-.43 2.73-.88 5.5-1.36 8.3a24.59 24.59 0 0 0-5.89 3.82 65.22 65.22 0 0 0-5.28 5c1.8-6.66 3.6-14.21 4.96-21.82Zm2.52-25.46c1.5-3.9 3.27-7.7 5.29-11.37a28.77 28.77 0 0 1 3.47-4.88c.07 2.54.08 5.15 0 7.84-.14 5.97-.52 12.15-1.15 18.66a26.25 26.25 0 0 0-5.37 5.4 63.38 63.38 0 0 0-4.13 6.08 152.57 152.57 0 0 0 1.9-21.72Zm-4.38-18.6c-2.6 5.3-5.26 10.72-8.44 14.71a143.6 143.6 0 0 0-6.97-18.3c2.38-2.36 4.88-5.61 7.84-10.13l.72-1.08c.63-.95 1.28-1.91 1.84-2.9a105.9 105.9 0 0 1 5.38 16.53l.06.25-.43.92Zm-25-22.58a13.4 13.4 0 0 0 2.03-1.8A124.5 124.5 0 0 0 75.8 147l.06.14c.66 1.68 1.47 3.34 2.24 4.94a95.42 95.42 0 0 1 1.65 3.51 108.8 108.8 0 0 1 1.52 3.76 95.1 95.1 0 0 0 1.7 4.14 30.16 30.16 0 0 1-2.27 3.73l-.74 1.1c-2.76 4.23-5.1 7.3-7.29 9.54a274.7 274.7 0 0 0-8.99-17.69Zm22.3-107.74c2.7-1.21 5.35-2.32 7.9-3.27 2.14-.81 4.3-1.69 6.38-2.53l1.95-.8c.95 7.18 2.16 14.38 3.59 21.38l-3.38.73c-2.08.45-4.23.9-6.34 1.32-1.78.34-3.51.84-5.19 1.31l-1.86.52A197.58 197.58 0 0 1 84.66 53l1.3-.56Zm73.21 12.9c.9.15 1.78.33 2.66.53v30.68l-.07-.03a116.8 116.8 0 0 0-15.64-3.81c-.68-10.63-1.25-20.1-1.73-28.54 4.95 0 9.9.4 14.78 1.18Zm135.5 43.44a309.37 309.37 0 0 1-7.56 20.74c-.72.26-1.43.54-2.15.81l-2.34.9-2.18.86a54.99 54.99 0 0 1-6.78 2.3l.05-.27c.41-2.16.99-4.86 1.67-7.98 1.02-4.77 2.26-10.48 3.42-16.87a150.74 150.74 0 0 0 15.86-.5ZM250.4 285.27a305.6 305.6 0 0 1 2-17.19l.34 1.2c1.43 4.84 3.1 9.6 5.01 14.26a292.3 292.3 0 0 0-4.69 18.07 121.23 121.23 0 0 1-2.9-14.14l.24-2.2Zm15.7 15.9c-1.87 3.8-3.54 7.73-5.15 11.54l-1.51 3.56c-.33.78-.64 1.51-.9 2.22a117.47 117.47 0 0 1-4.72-14.09l.07-.28a337.56 337.56 0 0 1 4.71-18.6c2.16 5.19 4.66 10.4 7.49 15.65h.02Zm-102.9 76.78v-21.07l3.88 2.24a98.54 98.54 0 0 0 13.03 6.25c.46 8.48.7 11.56 1 15.44l.25 3.48a93.6 93.6 0 0 1-17.25-5.94l-.93-.4h.02Zm-67-45.02-1.3-.98c.47-1.86.98-3.93 1.64-6.97a1162.4 1162.4 0 0 1 4.53-20.43l1.89 1.65c3.08 2.74 7.43 7.16 11.58 11.43l-.14.93c-.26 1.75-.54 3.57-.86 5.35l-.42 2.21c-.37 1.96-.75 4-1.08 6l-.46 2.89c-.27 1.77-.55 3.61-.9 5.38-.22 1.09-.46 2.13-.69 3.24l-.15.71-2.27-1.95a272.53 272.53 0 0 0-11.37-9.46Zm-35.66-9.74-.74.08c2.26-6.32 5.2-14.45 7.89-21.84l.31-.85c.41-.13.8-.28 1.2-.45l.5-.2a56.72 56.72 0 0 1 7.63-2.26c2.12-.53 4.3-.83 6.48-.9a181.1 181.1 0 0 1-1.47 5.58c-.7 2.48-1.33 5.03-1.96 7.48-.74 2.92-1.5 5.93-2.34 8.87l-1.28 4.47a62.52 62.52 0 0 0-8.83-.53c-2.47.05-4.94.23-7.39.55Zm16.21-46.78c.26-.16.57-.38.95-.64a60.18 60.18 0 0 1 7.4-4.42 27.8 27.8 0 0 1 5.47-2.19c-1.31 4.97-2.5 10.02-3.66 14.9-.88 3.75-1.81 7.57-2.76 11.38-2.4.05-4.8.36-7.14.94a57.72 57.72 0 0 0-7.8 2.3l-.52.2a.6.6 0 0 0-.09.03c2.5-6.88 4.77-13.14 5.9-16.37.72-2.05 1.47-4.1 2.25-6.13Zm26.35-92.61c2.47-2.22 5.05-3.09 7.7-2.57 3.3.64 5.92 2.88 8.16 5.54 0 1.44-.1 2.92-.24 5.35l-.14 2.26c-.39 6.48-.97 13.12-1.78 20.02-2.1-2.17-4.62-4.06-7.62-4.74a10 10 0 0 0-7.1 1.06c.59-6.16.94-12.05 1.07-17.73.08-3.17.06-6.23-.05-9.2Zm-13.08-3.83c-1.26-4.84-3-10.83-5.58-16.47.31-.6.67-1.17 1.06-1.72.24-.34.46-.68.67-1 2.61-4.18 5.54-8.42 8.75-11.39 1.41 4.11 2.8 8.45 3.66 11.8.35 1.37.67 2.75.96 4.15-3.71 3.5-6.7 8.98-9.52 14.63Zm-13.27-34.22c.73-.9 1.36-1.77 1.93-2.48l.26-.34c2.67-3.5 5.8-7.59 9.6-10.72a30.22 30.22 0 0 0 1.38 3.66c.26.6.53 1.23.76 1.84.77 1.98 2.24 5.91 3.76 10.27-.55.48-1.1 1-1.65 1.58-3.02 3.11-5.62 7.05-7.77 10.48l-.63.96-.63.93c-.45-1.03-.85-2.08-1.25-3.1-.49-1.26-1-2.55-1.54-3.8-.55-1.26-1.1-2.4-1.67-3.57a71.6 71.6 0 0 1-2.2-4.84l-.35-.88ZM91.24 71.9c1.65-.46 3.35-.96 5.07-1.28 2.13-.4 4.3-.88 6.38-1.34l3.36-.72.55 2.6.15.65a382.97 382.97 0 0 0 2.78 13.13 40.13 40.13 0 0 1 .98 4.81c-1.07 0-2.18.04-3.36.1-1.41.08-2.85.03-4.24 0-1.04-.03-2.1-.07-3.17-.06-1.46 0-2.9.18-4.3.33l-.68.08c0-.06-.02-.1-.03-.16a38.34 38.34 0 0 0-1.89-6.48 68.56 68.56 0 0 1-1.08-3.21l-.55-1.81a566.9 566.9 0 0 1-1.84-6.13l1.87-.51Zm20.35-4.39c4.33-.7 8.57-1.35 12.73-1.9l.1.82c1 8.36 2.02 16.38 3.07 24.17-1.62-.11-3.26-.2-4.89-.25a95.2 95.2 0 0 1-3.99-.24c-2.04-.14-4.26-.3-6.73-.34a35.2 35.2 0 0 0-1.03-5.13c-.16-.69-.33-1.36-.48-2.05-.79-3.55-1.56-7.26-2.3-11.02l-.14-.68-.55-2.6c1.4-.29 2.8-.55 4.21-.78Zm50.24 30.5v30.63a98.57 98.57 0 0 0-11.3-5.03l-2.54-.98c-.27-5.07-.53-9.68-.8-13.6-.35-5.21-.68-10.18-.98-14.9a114.48 114.48 0 0 1 15.62 3.86V98Zm98.27 41.37 1.28-.13c1.55-.25 3.06-.65 4.53-1.18.84-.28 1.7-.56 2.57-.78 1.14-.3 2.26-.63 3.4-.96a436.67 436.67 0 0 1-5.9 25.13l-.17.13c-1.9 1.42-4.05 3.02-5.69 4.45a17.74 17.74 0 0 1-5.27 3.16l-.08.04.34-2.63c.83-6.32 1.61-12.3 2.33-18.1.37-2.98.68-5.99.97-8.95.56-.1 1.12-.16 1.69-.2v.02Zm-.85 48.05c-.05.23-.08.45-.12.7l-.77 1.1c-.8 1.16-1.54 2.35-2.27 3.5-1.56 2.5-3.05 4.87-5.08 6.93 0-.33.05-.65.09-.98 1.1-9.63 2.26-18.87 3.45-27.82.26-.15.52-.27.8-.38 2.07-.8 4-1.96 5.67-3.42a77.87 77.87 0 0 1 4.4-3.49c-.76 2.88-1.5 5.64-2.21 8.26-1.74 6.45-3.25 12.03-3.96 15.6Zm-10.91 81.63c.04.97.07 1.67.04 1.98-.02.45-.06.9-.1 1.35a31.8 31.8 0 0 0-.14 1.98 70.55 70.55 0 0 0 .02 6.01c-.16 3.37-.45 6.81-.87 10.2-.73-8.59-.94-17.47-.84-26.2a82.74 82.74 0 0 0 1.76-6.84c-.14 5.54.03 9.34.13 11.51v.01Zm4.07 35.38c-1.54 6.64-2.95 12.64-4.9 18.38-.16-1.3-.32-2.67-.45-4.14a84.7 84.7 0 0 1-.46-7.92 122.5 122.5 0 0 0 3.1-18.07c.7 4 1.66 7.92 2.7 11.74h.01Zm-11.26 90.68a74.59 74.59 0 0 1-15.4 6.19l-.36.09c-.18-2.26-.4-4.58-.63-6.99l-.1-.9a46.97 46.97 0 0 0-.72-5.4 50.57 50.57 0 0 0 17.57-5.74l.31-.18c.3 1.12.54 2.25.72 3.39.45 2.9.78 5.61 1.05 8.2l-2.46 1.34h.02Zm-37.86-7.91-.35-.04-.33-2.2a235.2 235.2 0 0 1-.9-8.4l-.5-4.76c2.45.78 4.98 1.26 7.54 1.44.7.06 1.41.13 2.18.23.56.07 1.11.18 1.66.32 1.19.29 2.4.58 5.83.54h1.44c.45 1.94.9 3.92 1.25 5.9.13.74.23 1.51.33 2.25.19 1.5.46 2.99.82 4.45l-1.97.2-1.14.12c-1.48.13-2.97.19-4.46.17-1.12 0-2.26 0-3.43.09-2.66.17-5.33.06-7.97-.31Zm-72.89-55.74c.12-1.9.4-3.85.68-5.72.18-1.16.36-2.36.5-3.54.55-4.76 1.21-9.58 1.85-14.25l.25-1.74c3.79 4.34 7.97 8.84 12.68 13.41l-.18 2.26c-.24 2.87-.49 5.83-.67 8.77l-.75 12.96a177.29 177.29 0 0 1-14.36-12.15Zm-14.4-14.3c.18-1.2.37-2.4.59-3.61l.52-2.84c.82-4.45 1.66-9.07 2.42-13.62a162 162 0 0 1 1.25-6.42l1.5 1.84c3.13 3.87 6.48 8 10.2 12.31l-.39 2.92c-.64 4.68-1.31 9.49-1.87 14.28-.13 1.16-.31 2.35-.48 3.5a91.16 91.16 0 0 0-.61 4.73l-2.08-1.94c-2.33-2.19-5.74-5.7-9.36-9.43l-1.69-1.72Zm-27.77-32.79c1.2-5.1 2.45-10.38 3.82-15.53 4.44-.7 8.75.76 14.4 5.82a653.43 653.43 0 0 0-4.58 19.96c-.53 2.44-1.07 4.94-1.63 7.43-4.65-3.8-8.93-6.28-14.69-6.58.93-3.72 1.82-7.45 2.68-11.1Zm19.75-10.26a328.7 328.7 0 0 0 5.4-27.25c.91 1 1.76 2.06 2.63 3.14 2.71 3.37 5.38 7.17 8.15 11.2-1.12 8.5-2.2 16.17-2.77 19.5a157.1 157.1 0 0 1-1.36 6.93 195.42 195.42 0 0 0-8.82-10.2 84.2 84.2 0 0 0-3.25-3.26l.02-.06Zm-4.99-111.28c-.8.42-1.55.92-2.26 1.48a84.87 84.87 0 0 0-.81-3.46c-.9-3.54-2.4-8.13-3.88-12.42 2.2-1.77 4.5-2.9 6.95-3.02 2.05-.07 4.09.32 5.95 1.17 1.28.6 2.31 1.09 3.23 1.59a189.04 189.04 0 0 1 4.15 17.02c-4.95-3.66-9.32-4.44-13.31-2.36h-.02Zm-13.27-31.55a22.9 22.9 0 0 1 3.98-2.4c2.3-1.07 4.6-1.2 6.58-1.2 1.84 0 3.54.55 5.35 1.12l.78.24.09.45a38.38 38.38 0 0 0 1.89 6.48c.37 1.06.76 2.16 1.08 3.21l.45 1.55c.56 1.83 1.13 3.71 1.7 5.65-.64-.32-1.36-.65-2.13-1.02a14.59 14.59 0 0 0-6.58-1.28c-2.46.1-4.9 1.1-7.36 3a294.23 294.23 0 0 0-3.63-9.84c-.24-.63-.52-1.27-.79-1.88-.46-1-.86-2.02-1.2-3.07-.1-.3-.16-.62-.24-.96l.03-.05Zm5.87-39.84c1.35-.15 2.78-.3 4.17-.32 1.03 0 2.08 0 3.1.06 1.42.05 2.9.1 4.36 0 1.22-.07 2.37-.1 3.48-.1.1.6.2 1.2.33 1.8.9 4.07 1.68 7.23 2.5 10.58.61 2.55 1.27 5.26 2.05 8.58-1.2-.27-2.18-.45-3.04-.61a39.4 39.4 0 0 1-2.02-.41 33 33 0 0 1-1.94-.58c-.5-.16-1.02-.32-1.55-.47a31.55 31.55 0 0 0-5.27-.86l-.65-.07a1004.94 1004.94 0 0 1-4.15-11.6 53.92 53.92 0 0 1-1.92-5.98c.18.02.36-.02.55-.02Zm35.83 26.85a626.78 626.78 0 0 1 2.67 24.47l-.37-.21c-2.36-1.4-4.8-2.85-7.13-4.42a58.49 58.49 0 0 0-4.7-2.83 89.37 89.37 0 0 0-1.39-7.22l-.5-2.26a793.5 793.5 0 0 0-2.6-11.87c1.1.3 2.34.68 3.76 1.17 2.26.78 4.33 1.4 6.72 2.1l3.54 1.07Zm123.46 21.97c.72-.1 1.43-.23 2.13-.4-.27 2.8-.57 5.66-.9 8.47-.72 5.8-1.52 11.76-2.35 18.09l-.45 3.6-.23.16c-1.1.71-2.45 1.6-7.21 3.08-1.88.58-3.8.94-5.76 1.07.78-9.75 1.58-19.82 2.3-30.04.09-1.3.13-2.62.16-3.9 4.1.45 8.23.4 12.31-.13Zm-5.29 60.82-.94 1.05a21.3 21.3 0 0 1-2.35 2.4 30.3 30.3 0 0 1-5.44 3.76c-1.07.53-2.2.94-3.36 1.22 0-.98.06-1.97.12-2.95.73-10.38 1.57-20.8 2.37-30.87 2.13-.13 4.23-.51 6.26-1.14 3.95-1.23 5.7-2.1 6.8-2.78-1.13 8.62-2.27 17.49-3.31 26.73-.1.89-.13 1.73-.15 2.59Zm-2.95 31.55c-1.91 3.5-3.78 6.77-6.74 9.48a16.53 16.53 0 0 1-4.07 2.76c.1-1.43.12-2.88.14-4.3 0-1.04.04-2.11.1-3.16.32-6.85.72-13.77 1.21-21.16.1-1.61.13-3.23.16-4.8v-.5a19 19 0 0 0 4-1.47 31.4 31.4 0 0 0 5.71-3.92c.86-.75 1.66-1.55 2.39-2.42-.03.9-.3 3.39-.67 6.77-.6 5.45-1.47 13.38-2.23 22.72Zm6.48 121.19c-2.56 3.71-7.1 9.9-13.1 13.74l-.43-1.9-.2-.9c-.2-.94-.38-1.91-.56-2.85-.2-1.12-.41-2.26-.69-3.42l-.54-2.13c4.29-2.96 8.09-7.26 11.23-12.8l1.12-2c.1.3.18.6.25.9.22.8.42 1.62.63 2.43.3 1.22.62 2.49.98 3.73.37 1.23.68 2.54.97 3.79.12.44.24.93.34 1.4Zm3.84 12.36.34.9a79.09 79.09 0 0 1-4.32 4.6c-3.07 2.97-6.44 6-10.33 8.4-.12-.5-.25-1-.35-1.5-.26-1.15-.49-2.35-.71-3.5l-.52-2.63-.74-3.47c5.92-3.66 10.47-9.49 13.24-13.44l.12.46c.3 1.04.64 2.08.98 3.09.4 1.18.8 2.4 1.13 3.6.33 1.19.72 2.35 1.18 3.49h-.02Zm-36.3 5.74a162.6 162.6 0 0 1-1.22-5.17c-.14-.65-.26-1.32-.37-1.97-.2-1.35-.5-2.68-.9-3.97 6.32 1.01 12.8-.3 18.23-3.68.15.55.3 1.1.42 1.66.27 1.1.46 2.26.68 3.34.17.96.35 1.94.56 2.9l.2.9.53 2.36a36.84 36.84 0 0 1-13.2 4.43c-1.55.2-3.12.28-4.7.24l-.23-1.04ZM121.13 289c.57-2.63 1.14-5.35 1.6-8.06a728.2 728.2 0 0 0 2.57-18.05l1.63 2.4c2.7 3.98 5.5 8.14 8.6 12.4l-.87 9.28c-.5 5.36-1.2 10.77-1.9 16.08-3.41-3.96-6.5-7.78-9.41-11.36l-2.22-2.7Zm8.44-105.65c1.12 1.66 2.02 3.04 2.96 4.52 1.26 1.96 2.57 4 4.66 7.01l1.36 1.9c.12 2.3.23 4.59.3 6.87l.13 3.25c.16 4.32.33 8.75.3 13.14a885.6 885.6 0 0 1-6.96-13.48l-.17-.35-1.54-3.02c-.02-5.07-.27-11.47-1.04-19.84Zm-8.95-47.19.08.75c.3 2.38.72 4.75 1.3 7.08.27 1.22.55 2.47.77 3.7.28 1.42.5 2.91.73 4.35.22 1.45.45 2.88.7 4.32-.4-.36-.81-.7-1.22-1.05-.9-.78-1.88-1.58-2.75-2.44-2.97-2.94-4.65-4.33-6.9-5.6-.7-2.4-1.4-4.7-2.08-6.94l-.45-1.55a83.73 83.73 0 0 0-1.1-3.27 39.16 39.16 0 0 1-1.79-6.01c1.92.64 3.75 1.51 5.45 2.6 1.86 1.17 3.8 2.2 5.69 3.22l1.57.84Zm4.22 15.68c-.23-1.45-.46-2.95-.73-4.4a88.39 88.39 0 0 0-.8-3.74 59.56 59.56 0 0 1-1.23-6.73 53 53 0 0 1 3.75 2.29c2.35 1.6 4.81 3.05 7.19 4.46l1.22.72.61 6.78c.22 2.46.46 4.92.67 7.37l.1 1.12.82 8.97-1.57-1.5a134.3 134.3 0 0 1-4.33-4.49 128 128 0 0 0-4.64-4.76c-.43-2-.76-4.07-1.06-6.09ZM179.59 177c-.5 14.36-.79 24.54-.94 32.55-3-3-6.59-6.6-11.27-11.38l-1.25-1.3a86.43 86.43 0 0 0-2.93-2.94v-30.52c.9.7 1.93 1.55 3.56 2.89 3.9 3.21 7.83 6.51 11.64 9.7l1.19 1Zm34.85 28.82.34.23-.15 3.16c-.19 3.38-.46 7.23-.73 11.7-.39 6-.83 12.87-1.25 20.44-5.6-3.57-10.84-8.63-15.95-13.82.49-11.15 1.07-22.62 1.7-34.33 1.46 1.36 2.95 2.76 4.5 4.06a130.8 130.8 0 0 0 3.74 3l1.68 1.33c1.26 1 2.6 1.88 3.9 2.71.73.52 1.49 1 2.22 1.52Zm21.65 5.42v.2c0 1.56-.05 3.16-.16 4.73-.49 7.4-.9 14.33-1.22 21.19-.05 1.05-.07 2.14-.09 3.2 0 1.62-.05 3.28-.2 4.9-1.69.6-3.46.92-5.25.98-5.44.19-10.46-1.5-15.2-4.28.43-7.85.9-14.98 1.3-21.16a1409.82 1409.82 0 0 0 .84-14.11 33 33 0 0 0 11.4 4.28c2.83.51 5.73.54 8.58.08v-.01Zm-2.78 70c-3.8 1.84-9.02 2.22-13.54.94a31.07 31.07 0 0 1-7.08-3.04c.16-12.8.65-24.77 1.2-35.45 4.76 2.69 9.8 4.3 15.32 4.1 1.7-.05 3.4-.34 5.03-.84l-.1.54a45.7 45.7 0 0 0-.44 7.59c0 .9 0 1.88-.05 2.8-.14 4.51-.33 12.2-.33 21.22l-.01 2.14Zm-9.84 64.96a31.06 31.06 0 0 1-8.08-1.1l-.15-.96c-.73-4.63-1.2-8.4-1.51-11.9a26.22 26.22 0 0 0 9.1 1.93 20.4 20.4 0 0 0 10.72-2.84c.02 3.83.24 7.66.66 11.47a19.53 19.53 0 0 1-10.74 3.41v-.01Zm-26.53-11.03c-.17-3.16-.42-6.33-.66-9.4-.17-2.07-.33-4.2-.46-6.32 4.83 4.68 10.33 9.4 16.51 12.2.3 3.72.8 7.72 1.59 12.7l.05.32a29.5 29.5 0 0 1-4.82-2c-6.24-3.26-9.72-5.61-12.2-7.5Zm-35.11-140.65v30.44a564.2 564.2 0 0 1-10.85-13.55l-.05-3.5c-.12-6.85-.3-15.03-.55-23.8 3.99 3.82 7.25 6.83 10.55 9.62.3.25.6.52.9.8Zm16.76 16.91c-.21 12.7-.06 19.9.17 30.66l.06 2.8a904.44 904.44 0 0 1-15.65-18.3v-30.78c.66.66 1.31 1.34 1.95 2l1.26 1.3c5.29 5.37 9.17 9.27 12.24 12.32h-.03Zm17.07 106.05c-.06-1-.12-2-.16-2.99-.13-3.1-.13-6.26-.13-9.32v-3.42c.45.56.95 1.11 1.43 1.66 4.4 5 9.34 10.23 15.08 13.65-.04 4.82 0 8.8.3 13.04-5.84-2.8-11.07-7.36-15.69-11.85-.25-.26-.53-.52-.81-.77h-.02ZM151 243.26a289.9 289.9 0 0 0 10.83 15.68v21.49l-.51-.58-.12-.12c-3.78-4.15-7.7-8.44-10.81-13.07.31-8.67.5-16.45.61-23.4Zm43.1 20.88a988.5 988.5 0 0 0-.23 20.81c0 4.47.03 8.82.11 13.07a488.98 488.98 0 0 1-12.8-15.92c.01-.89-.02-1.78-.1-2.66l-.08-1.35c-.25-6.65-.45-13.86-.59-22.7l-.13-6.8c4 4.52 8.06 9.1 12.16 13.7l1.66 1.85Zm-15.05-8.74c.15 8.84.34 16.06.6 22.72 0 .45.05.94.08 1.42l.05.76a2022.94 2022.94 0 0 1-16.6-21.81v-29.76a919.32 919.32 0 0 0 15.71 18.26l.16 8.41Zm-17.22 1.24a262.47 262.47 0 0 1-10.79-15.88c.15-11.22.07-20.18 0-27.1 3.54 4.54 7.14 9.02 10.82 13.44l-.03 29.54Zm1.36 4.14a2212.11 2212.11 0 0 0 16.62 21.76c-.02.34-.06.59-.1.87-.13.99-.34 2.47-.64 10.67-.08 2.4-.16 4.57-.25 6.56-3.73-4.15-6.8-7.95-9.66-11.5a277.3 277.3 0 0 0-5.94-7.18l-.03-21.18Zm17.22 33.34c.25-6.97.45-9.03.57-10.07 4.2 5.42 8.52 10.84 13.04 16.12v5c0 3.07 0 6.25.13 9.38 0 .56.06 1.12.09 1.68-.34-.3-.67-.61-1-.94l-.78-.82a46.8 46.8 0 0 0-2.14-2.14 175.2 175.2 0 0 1-10.23-10.25l.32-7.96Zm17.44 8.4c-.84-.95-1.66-1.9-2.47-2.87v-.87c-.2-10.39-.16-21.51.07-33.15 4.44 4.97 9.61 10.5 15.9 14.3a696.5 696.5 0 0 0 .24 27.92c.03 1.13.1 2.3.16 3.41.07 1.38.14 2.8.17 4.2-5.32-3.33-9.94-8.24-14.07-12.95Zm-2.37-38.88c.24-10.98.64-22.42 1.15-34.24 5.08 5.13 10.3 10.06 15.95 13.55a899.09 899.09 0 0 0-1.23 35.4c-6.29-3.98-11.46-9.76-15.88-14.72Zm-1.32-1.5-.7-.76-13.21-14.9-.1-4.4a692.94 692.94 0 0 1-.18-29.32c2.68 2.67 4.72 4.64 6.58 6.44 2.16 2.1 4.29 4.27 6.54 6.59l2.23 2.3a1596.8 1596.8 0 0 0-1.17 34.05Zm-44.6-54.22.04 1.67a406.98 406.98 0 0 1-9.74-13.27 693.12 693.12 0 0 0-1.75-24.11l2.83 2.75c3.04 2.96 5.67 5.52 8.04 7.8.27 9.29.47 17.96.59 25.16Zm.07 3.95c.1 6.73.2 15.55.07 26.73-2.9-4.75-5.82-9.91-9.12-16.09.13-5.22-.07-10.52-.27-15.66l-.12-3.25c-.05-1.58-.13-3.16-.2-4.73 3.14 4.41 6.35 8.75 9.64 13Zm.04 29.27c-.1 6.97-.27 14.8-.57 23.55-1.42-2.2-2.91-4.39-4.37-6.5a199.84 199.84 0 0 1-5.37-8.1l-.04-.05c.44-6.48.78-13.83 1.17-24.82a302.13 302.13 0 0 0 9.18 15.92Zm-6.06 17.82c1.59 2.3 3.23 4.7 4.75 7.1.21.32.45.65.66.98-.28 7.42-.65 15.5-1.12 24.23a208 208 0 0 1-10.98-13.95l.4-4.11c.8-8.41 1.38-14.35 1.85-20.88a235.3 235.3 0 0 0 4.44 6.63Zm5.58 33.65c.45-8.53.84-16.42 1.11-23.7 2.99 4.14 6.49 7.99 9.9 11.74l.11.13 1.52 1.7v23.2c-.7-.68-1.4-1.35-2.12-2.02-3.85-3.65-7.34-7.3-10.53-10.92v-.13Zm14-8.56c1.62 1.91 3.22 3.9 4.88 5.95 3.11 3.85 6.47 8 10.65 12.58l-.15 3.56c-.25 6.11-.45 10.38-.45 15-4.32-3.7-8.26-7.58-12.12-11.4l-2.8-2.75-.01-22.94Zm16.28 38.23c0-5.02.19-9.48.45-16.1l.1-2.19c2.71 2.93 5.8 6.02 9.38 9.33.72.67 1.41 1.39 2.08 2.08l.8.83c.59.6 1.22 1.16 1.8 1.68l.25.22c.16 2.6.37 5.2.57 7.75.21 2.68.45 5.42.6 8.18l-1.02-.83a34.51 34.51 0 0 0-3.84-2.84 95.02 95.02 0 0 1-11.17-8.1Zm43.39 10.55a25.2 25.2 0 0 1-9.25-2.09c-.32-4.25-.39-8.2-.36-12.92a24.91 24.91 0 0 0 10.88 3.07c3.6.14 7.2-.67 10.4-2.35a52.58 52.58 0 0 0-.72 5.31c-.13 1.98-.2 3.95-.23 5.9a19.21 19.21 0 0 1-10.72 3.08Zm11.9-16a19.19 19.19 0 0 1-10.6 2.7 23.8 23.8 0 0 1-10.9-3.26c0-1.7-.1-3.41-.2-5.08-.05-1.11-.12-2.26-.15-3.39a658.5 658.5 0 0 1-.25-27.1 31.94 31.94 0 0 0 6.74 2.8 21.3 21.3 0 0 0 13.9-.76c.06 9.85.35 20.9 1.17 30.97l.12 1.1c.1.67.16 1.34.16 2.02Zm-39.36-90.61-1.36-1.36c-2.16-2.22-4.4-4.52-6.57-6.62-2.38-2.29-4.7-4.56-7.5-7.34.14-8 .42-18.2.9-32.77 3.42 2.86 6.9 5.76 10.36 8.58a109.4 109.4 0 0 1 5.85 5.29c-.59 11.66-1.19 23.1-1.68 34.22Zm-33.57-33.51c-3.54-3-7.05-6.25-11.49-10.52-.26-9.06-.58-18.7-.94-28.12 1.1.7 2.19 1.42 3.27 2.14l4.65 3.12a146.8 146.8 0 0 1 4.53 3.07l-.02 30.3Zm-12.91-11.89-7.04-6.83-3.95-3.85c-.31-3.54-.64-7.06-.96-10.55l-.1-1.11-.67-7.38-.52-5.79a110 110 0 0 1 3.68 2.3c2 1.32 4.04 2.62 6 3.88l2.62 1.67c.36 9.24.68 18.7.94 27.66Zm-19.37-17.2c1.42 1.5 2.88 3.06 4.39 4.52l2.68 2.6c.68 7.77 1.31 15.62 1.76 23.46l-.07-.1c-2.08-3-3.38-5.03-4.64-6.99-1.3-2.03-2.51-3.9-4.39-6.56a365.9 365.9 0 0 0-2.19-16.8l-.16-1.06c-.08-.75-.21-1.5-.38-2.23 1.03 1.06 2.03 2.12 3 3.16Zm1.36 43.2.17.34c3 5.94 5.67 11.08 8.12 15.68v.55a895 895 0 0 1-1.1 24.62 587 587 0 0 1-6-10.34l-3.17-5.54c.54-5.8.97-11.57 1.26-17.24l.07-1.23c.11-2.1.24-4.55.3-7.55l.35.71Zm0 31.52c2.3 4.04 4.68 8.21 7.03 12.03-.5 7.29-1.1 13.52-1.98 22.7l-.25 2.57a567.56 567.56 0 0 1-7.65-11.1l-2.5-3.67a991.96 991.96 0 0 0 2.87-23.71c.1-.9.17-1.8.27-2.71l2.21 3.89Zm5.09 48.75c.25-2.8.5-5.36.72-7.74 3.32 4.52 6.95 9.17 11.07 13.87-.15 2.88-.28 5.79-.4 8.61-.19 4.25-.38 8.65-.67 12.98l-.23 3.06c-4.67-4.59-8.8-9.1-12.58-13.44.78-5.71 1.54-11.54 2.09-17.34Zm12.07 27.8c.3-4.33.49-8.74.68-13 .1-2.37.2-4.8.33-7.23 2.96 3.3 6.17 6.64 9.7 9.97 1.02.96 2.04 1.95 3.05 2.93v23.9a194.01 194.01 0 0 1-14.07-12.36c.11-1.37.22-2.8.31-4.2Zm15.12-6 1.84 1.81c4.15 4.07 8.38 8.25 13.08 12.2 0 4.56.17 9.66.54 17.24l.18 3.2a116.32 116.32 0 0 1-8.29-5.36 163.3 163.3 0 0 1-7.35-5.48v-23.6ZM180 340.1a401.3 401.3 0 0 1-.54-16.04 95.36 95.36 0 0 0 10.49 7.5 33.8 33.8 0 0 1 3.69 2.73c.59.49 1.23 1 1.97 1.58l.04.59c.25 5.35.86 10.7 1.57 15.98l-.45-.27a53.26 53.26 0 0 0-3-1.73c-.67-.33-1.37-.6-2.09-.83-.36-.12-.72-.24-1.07-.38a81.85 81.85 0 0 1-10.39-5.05c-.07-1.36-.16-2.72-.22-4.07Zm17.03-3.16a91.13 91.13 0 0 0 11.46 6.96c1.8.94 3.7 1.7 5.66 2.26l.33 2.68c.33 3.49.93 6.94 1.77 10.34-1.7-.2-3.38-.55-5.01-1.04-.46-.14-.86-.31-1.3-.49-.69-.28-1.39-.52-2.1-.72a34.14 34.14 0 0 1-9.13-3.62c-.74-5.4-1.4-10.9-1.68-16.37Zm18.8 11.75-.26-2.14c2.58.66 5.23 1 7.89 1.01a20.73 20.73 0 0 0 10.87-3.23l.17 1.63c.18 1.94.37 3.93.68 5.87.21 1.36.53 2.71.87 3.98a25.3 25.3 0 0 1-17.67 3.65l-.66-.1c-1.04-3.55-1.47-7.16-1.89-10.66v-.01Zm5.4 25.65c1.52.03 3.05-.06 4.56-.26a38.4 38.4 0 0 0 13.3-4.38l.66 3.04c.18.86.35 1.73.5 2.6.23 1.16.46 2.37.72 3.54l.46 1.9a48.6 48.6 0 0 1-17.82 5.98 34.92 34.92 0 0 1-.85-4.44 79.98 79.98 0 0 0-1.53-7.97v-.01Zm26.42-31.46c-3.2 5.65-6.76 9.53-10.39 12.14a36.64 36.64 0 0 1-.72-3.38c-.3-1.92-.49-3.9-.67-5.8-.07-.8-.15-1.58-.24-2.37 4.4-3.13 8.16-7.96 10.81-14.14l.45-1.04a80.4 80.4 0 0 0 2.52 11.44l-1.76 3.16v-.01Zm-2.46-14.08c-2.43 5.64-5.79 10.1-9.71 13.1-.4-3.8-.6-7.61-.58-11.42.88-.6 1.7-1.26 2.47-1.98 3.4-3.16 6-7.62 7.97-13.66.08 1.32.18 2.64.32 3.97.26 2.54.54 4.79.82 6.8-.4 1.08-.83 2.14-1.29 3.2v-.01Zm-1.08-14.57c-1.9 5.91-4.41 10.26-7.66 13.28-.49.45-1 .88-1.53 1.28a58.14 58.14 0 0 1 1.1-11.14v-.03a19.63 19.63 0 0 0 3.89-3.3 28.84 28.84 0 0 0 5.35-9.19 89.95 89.95 0 0 0-.1 5.46 56.67 56.67 0 0 1-1.05 3.65v-.01Zm2.76-12.73c.08-.78.22-1.57.38-2.41.14-.73.27-1.48.36-2.23l.45-2.4c-.36 3.13-.8 6.22-1.36 9.28.05-.74.1-1.48.17-2.22v-.02Zm-.6-4.83c-1.37 6.64-3.63 12.65-7.36 16.75a18.3 18.3 0 0 1-2.83 2.53 23.5 23.5 0 0 0-.14-1.3c-.04-.36-.09-.7-.11-1.05a429.7 429.7 0 0 1-1.17-31.53c4.79-2.68 8.08-7.78 10.4-13.71-.04 8.8.38 17.59 1.26 26.34.05.66.03 1.33-.06 1.98v-.01Zm-11.62-16.18c0-9.6.18-17.84.33-22.56.03-.93.03-1.9.04-2.83a44.5 44.5 0 0 1 .64-8.66c1.9-.8 3.64-1.92 5.14-3.32a29.46 29.46 0 0 0 5.58-7.25 447.65 447.65 0 0 0-1.3 28.32c-2.15 6.92-5.39 13.13-10.43 16.31Zm6.53-140.25a84.57 84.57 0 0 1-.15 4c-.73 10.26-1.53 20.39-2.32 30.19-7.17.14-14.13-2.54-19.93-5.81l.35-4.64c1.55-19.34 2.04-26.33 2.3-30.74 6.23 3.39 12.61 5.95 19.75 7Zm-2.58 35.55c-.8 10.02-1.63 20.37-2.35 30.71a67.92 67.92 0 0 0-.14 3.34c-5.6 1-13 .03-19.94-4.47l.03-.72c.11-3.35.2-6.03 2.47-34.56 5.81 3.2 12.75 5.78 19.95 5.68l-.02.02Zm-23.77 28.7c-.63-.46-1.26-.86-1.88-1.26a51.56 51.56 0 0 1-3.8-2.65l-1.67-1.33a166.7 166.7 0 0 1-3.72-2.97 108.68 108.68 0 0 1-5.27-4.8c.56-10.35 1.16-20.88 1.76-31.53l.17-2.86.35.28c3.87 3.03 7.89 6.18 12.02 9.07a70.2 70.2 0 0 0 4.55 2.9c-2.28 28.77-2.4 31.8-2.51 35.12v.02Zm-15.93-44.61c-.59 10.25-1.16 20.4-1.7 30.38a100.1 100.1 0 0 0-5.09-4.56c-3.73-3.07-7.49-6.2-11.16-9.28a9221.9 9221.9 0 0 1 1.2-32l.02-.72c2.42 1.67 4.87 3.39 7.4 5.16 3.24 2.3 6.43 4.77 9.54 7.23l-.21 3.79Zm-18.12-15.5-.54 13.74c-.23 6.32-.45 12.02-.62 17.2l-.38-.32c-3.8-3.2-7.74-6.5-11.65-9.71-2.13-1.76-3.27-2.71-4.42-3.56v-30.7c.28.17.57.33.85.52a672.43 672.43 0 0 1 16.82 11.25l-.06 1.57Zm-18.97 16.37c-.93-.65-2.07-1.4-3.78-2.54-1.2-.8-2.72-1.8-4.65-3.1-1.36-.9-2.71-1.8-4.07-2.68a2299.5 2299.5 0 0 0-1.25-28.3l1.97.77c4.13 1.62 8.16 3.26 11.78 5.32v30.53Zm-13.9-9.22-1.81-1.16c-1.97-1.25-4-2.54-6-3.85-1.5-1-3.05-1.94-4.58-2.86-.76-8.24-1.6-16.6-2.68-24.89 3.56 1.12 7.92 2.59 13.83 4.83.42 8.38.85 18 1.24 27.93Zm-29.25-25.4.5 2.26c.45 2 .9 4.06 1.22 6.11l-.7-.38a88.82 88.82 0 0 1-5.6-3.16 25.63 25.63 0 0 0-6.49-2.96 53.5 53.5 0 0 0-2.1-6.6c-.26-.74-.54-1.47-.79-2.2a951.82 951.82 0 0 0-3.09-8.67c1.7.13 3.39.4 5.04.8l1.5.46c.66.2 1.34.42 2.03.6.69.17 1.31.28 2.1.43 1 .18 2.17.4 3.63.75.78 3.4 1.67 7.43 2.75 12.54v.02Zm-18.74-15.78h.19a910.5 910.5 0 0 1 3.3 9.29l.81 2.22a65.4 65.4 0 0 1 1.87 5.68h-.05c-1.81-.58-3.7-1.17-5.75-1.18-2.12 0-4.63.14-7.17 1.32a24 24 0 0 0-3.78 2.25c-.64-1.76-2.67-6.4-5.01-11.78l-1.57-3.65c3.45-2.46 6.65-3.82 10.13-4.3 2.34-.27 4.7-.22 7.03.14v.01Zm13.95 38.85c1.6 1.05 3.08 2.35 5.4 4.64.9.9 1.88 1.72 2.82 2.52.72.6 1.47 1.24 2.17 1.88l.4.4.12.5c.23.94.34 1.31.41 1.56.19.72.32 1.47.4 2.22l.16 1.05a391.1 391.1 0 0 1 1.91 14.34 376.62 376.62 0 0 0-4.39-5.9 36.72 36.72 0 0 0-5.25-5.88l-.08-.06a184.7 184.7 0 0 0-4.07-17.27Zm8.3 24.01c2.53 3.33 4.35 5.81 5.78 7.84a215.4 215.4 0 0 1 1.24 19.47 110.6 110.6 0 0 0-5.93-10.15 54.97 54.97 0 0 0-2.95-4.06 87.94 87.94 0 0 0-.66-7.93c-.36-3.42-.82-6.63-1.33-9.69a42.58 42.58 0 0 1 3.86 4.52Zm-.05 17.88c2.6 4 4.97 8.14 7.09 12.41 0 4.19-.2 7.43-.34 10.08l-.06 1.24c-.26 5.02-.63 10.14-1.09 15.28-2.26-3.83-4.4-7.32-6.47-10.18a62.49 62.49 0 0 0-3.24-4.2c.88-7.33 1.51-14.38 1.92-21.26l.13-2.26c.1-1.55.17-2.7.21-3.74.66.88 1.27 1.77 1.86 2.65v-.02Zm-1.97 29.63c2.32 3.22 4.79 7.28 7.36 11.71-.14 1.53-.3 3.05-.45 4.58-.65 6.15-1.66 14.4-2.67 22.19-2.48-3.62-4.9-7-7.34-10.04a75.62 75.62 0 0 0-3.4-4l.86-5.37.8-5.04a461.9 461.9 0 0 0 2.47-17.16c.82 1.01 1.6 2.06 2.38 3.14l-.01-.01Zm-16.96 74.21a649.9 649.9 0 0 1 4.38-19.2c.85.8 1.72 1.69 2.64 2.65 3.09 3.27 6.2 7 9.45 10.98a180.6 180.6 0 0 0-1.48 7.55c-.76 4.55-1.6 9.15-2.42 13.6l-.52 2.83c-.16.87-.3 1.75-.45 2.62a245.47 245.47 0 0 0-10.94-10.76 146.2 146.2 0 0 0-2.46-2.15c.62-2.73 1.22-5.45 1.8-8.12Zm43.66 35.8c.18-2.92.42-5.86.66-8.73l.1-1.14c4.27 4.07 8.97 8.22 14.2 12.34v21.33c-6.48-3.78-11.22-6.68-15.76-9.94l.8-13.85Zm16.31 3.53c2.12 1.62 4.3 3.24 6.58 4.86 3 2.12 6.1 4.11 9.16 5.87l.2 2.85.44 6.99.48 9.03a97.54 97.54 0 0 1-12.27-5.92l-4.57-2.63-.01-21.05Zm17.73 20.51a311.9 311.9 0 0 0-.45-7.01l-.13-1.96a81.99 81.99 0 0 0 9.8 4.7c.36.14.74.27 1.12.4.65.2 1.29.44 1.9.74 1.02.54 1.94 1.1 2.91 1.7.45.27.9.55 1.39.83l.69 4.89c.48 3.4.98 6.9 1.4 10.38l.05.42c-.93-.34-1.96-.74-3.1-1.22a21.9 21.9 0 0 0-4.75-1.2c-.98-.17-1.91-.33-2.8-.56a74.33 74.33 0 0 1-7.54-2.44l-.49-9.67Zm20 14.5c-.42-3.48-.9-7-1.4-10.39l-.55-3.85a35.89 35.89 0 0 0 8.56 3.25c.66.18 1.3.4 1.94.67.45.17.9.35 1.36.51 1.91.57 3.87.97 5.85 1.18l.21.66c.38 1.23.67 2.5.85 3.77.11.66.23 1.35.38 2.03.37 1.75.8 3.5 1.22 5.2l.18.72h-1.12c-3.26.03-4.4-.24-5.5-.5-.59-.16-1.2-.28-1.8-.36a90.8 90.8 0 0 0-2.22-.23 30.9 30.9 0 0 1-7.84-1.56l-.12-1.1Zm42.96 16.09a37.2 37.2 0 0 0-.84-3.89c4.19-2.52 7.85-5.82 10.92-8.78 1.36-1.3 2.6-2.66 3.89-4.11a67.19 67.19 0 0 1 2.07 8.5l.32 1.65.4 2.05c-5.15 4.54-10.5 8.91-15.78 12.2a188.3 188.3 0 0 0-.98-7.62Zm17.7-6.89-.32-1.65a64.2 64.2 0 0 0-2.38-9.43l.28-.3c.78-.91 1.6-1.78 2.4-2.63a79.2 79.2 0 0 0 2.6-2.84c1.7-1.96 3.3-4.02 4.85-6.01.84-1.1 1.7-2.2 2.59-3.3 2 4.5 3.7 9.15 5.1 13.88a425.87 425.87 0 0 0-7.65 6.95 582.19 582.19 0 0 1-7.22 6.59l-.25-1.26Zm6.34-23.7a147.77 147.77 0 0 1-4.8 5.96c-.82.96-1.7 1.9-2.56 2.8-.74.79-1.5 1.6-2.22 2.42l-.08-.23a31.6 31.6 0 0 1-1.13-3.35c-.34-1.26-.75-2.5-1.15-3.7-.33-1-.67-2.02-.97-3.04l-.4-1.52.4-.58.9-1.32c3.12-4.2 5.23-7.95 7.45-11.91l1.54-2.69c1.94 4.4 3.93 8.92 6.06 13.32-1.05 1.28-2.04 2.57-3.03 3.84h-.01Zm-5.71-15.13c-2.21 3.92-4.3 7.62-7.36 11.74l-.65.9-.06-.24c-.3-1.27-.6-2.59-.99-3.87-.35-1.2-.66-2.46-.97-3.67-.2-.82-.4-1.64-.63-2.46-.13-.5-.3-1.03-.49-1.65l-.18-.52c2.47-4.6 4.6-9.38 6.34-14.3.42-1.12.84-2.26 1.31-3.46l.45 1.04c.84 2 1.65 4.03 2.43 6 .9 2.26 1.81 4.6 2.82 6.9a227.9 227.9 0 0 0-2.02 3.58Zm-6.25-14.53a101.3 101.3 0 0 1-5.62 12.91 90.7 90.7 0 0 1-2.43-12.25c2.19-5.88 3.7-11.92 5.27-18.6l.13.45c1.26 4.31 2.76 8.55 4.48 12.7a247.9 247.9 0 0 0-1.83 4.79Zm-9.38-66.36c.23-9.12.78-17.9 1.41-25.7l.16-.29.34-.61a44.39 44.39 0 0 0 2.32-4.67c-.62 3.9-1.04 7.7-1.26 11.4l-.27 2.45-.18 1.9c-.56 5.22-1.4 10.4-2.53 15.52Zm6.9-44.34c-.3 1.03-.59 2.14-.86 3.32l-.38 1.2c-.16.51-.3.95-.59 1.74-.33.9-.61 1.84-.9 2.75a46.08 46.08 0 0 1-1.17 3.46c-.4.95-.83 1.88-1.31 2.79.7-7.98 1.44-14.76 1.97-19.58.4-3.61.67-6.02.68-6.95v-1.48l.49-.49c2.43-2.3 4.16-5.06 5.82-7.72l1.37-2.16-.06.28a680.28 680.28 0 0 0-5.06 22.84Zm3.7-75.95c-.81.2-1.63.36-2.45.48-4.03.52-8.1.55-12.13.08.02-1.52.05-3.1.16-4.64.48-7.27.9-14.37 1.22-21.09.06-1.13.07-2.3.1-3.43.02-1.63.05-3.3.19-4.92a109.81 109.81 0 0 0 15.8 3.25l-.04.41a690.32 690.32 0 0 1-1.92 20.5c-.28 2.55-.53 5.15-.77 7.68l-.17 1.68Zm-14.46-28.62c0 1.12-.03 2.26-.09 3.39-.32 6.7-.74 13.8-1.22 21.06-.1 1.52-.14 3.06-.16 4.56-7.1-1.06-13.47-3.66-19.7-7.12l.12-2.3c.11-2.34.24-4.97.6-10.39.5-7.75.97-15.23 1.36-22.53a99.08 99.08 0 0 0 19.3 8.05 58.91 58.91 0 0 0-.2 5.28Zm-21.8 9.11c-.37 5.42-.5 8.07-.6 10.4l-.09 1.61a224.3 224.3 0 0 1-14.53-9.4l-3.17-2.16c.6-11.6 1.17-23.15 1.64-34.5 2.5 1.49 4.85 2.93 7.1 4.3 3.76 2.33 7.34 4.52 11.04 6.58-.43 7.51-.88 15.2-1.4 23.17Zm-16 3.73a213.3 213.3 0 0 0 15.22 9.82c-.24 4.38-.7 11.05-2.32 31.38l-.31 3.96a76.44 76.44 0 0 1-3.9-2.52c-4.11-2.85-8.1-6-11.97-9.03l-1.1-.86c.65-11.44 1.3-22.96 1.9-34.42l2.49 1.67Zm-5.7 31.71a238.18 238.18 0 0 0-8.85-6.66 935.71 935.71 0 0 0-8.11-5.65c.45-10.88.86-22.06 1.08-33.07a242.38 242.38 0 0 1 17.78 11.1c-.6 11.41-1.23 22.89-1.9 34.28ZM182 108.88c-.22 10.75-.64 21.65-1.06 32.29a740.53 740.53 0 0 0-16.14-10.78c-.52-.34-1.05-.67-1.6-.99V98.52a56.9 56.9 0 0 1 3.85 1.86c.56.28 1.11.57 1.67.84 4.82 2.39 8.89 4.51 13.28 7.01v.64Zm-36.15.24c.26 3.76.52 8.15.77 12.99a254.6 254.6 0 0 0-13.94-4.84c-.25-1.82-.5-3.64-.78-5.46-.97-6.46-1.9-13.02-2.82-19.74.25 0 .5.04.76.06l.65.05c5 .36 9.79.93 14.36 1.7.3 4.84.62 9.92.99 15.24h.01Zm-15.3 2.9c.25 1.6.46 3.2.7 4.82-1.04-.33-2.02-.62-2.96-.9-2.38-.72-4.43-1.33-6.67-2.1a64.29 64.29 0 0 0-4.53-1.38c-.84-3.66-1.55-6.57-2.21-9.28-.82-3.34-1.58-6.5-2.49-10.55-.11-.5-.2-1-.28-1.51 2.35.04 4.47.2 6.43.33 1.44.1 2.8.2 4.05.24 1.7.05 3.42.16 5.12.27.9 6.84 1.84 13.5 2.83 20.06h.02Zm-40.6-33.09.54 1.8c.33 1.1.72 2.2 1.1 3.27a37.8 37.8 0 0 1 1.82 6.25v.07c-.5.05-1 .08-1.5.1-2.64.14-5.25.6-7.77 1.4a33.41 33.41 0 0 0-8.67 4.35l-.1-.32c-.41-1.35-1.1-3.12-1.96-5.38-1.06-2.76-2.36-6.14-3.67-10.04a63.25 63.25 0 0 1 11.86-5.9 43.21 43.21 0 0 1 5.02-1.42l1.47-.36a379.3 379.3 0 0 0 1.84 6.18h.02Zm-5.41 14.2A29.47 29.47 0 0 1 92 91.77c.57-.02 1.14-.07 1.7-.12a53.35 53.35 0 0 0 2.01 6.32 843.16 843.16 0 0 0 3.92 10.98 26.29 26.29 0 0 0-6.9-.1c-3.63.5-6.96 1.87-10.5 4.37a481.57 481.57 0 0 1-3.87-9.1c-.96-2.34-1.76-4.51-2.46-6.59a31.95 31.95 0 0 1 8.62-4.4h.02Zm-7.44 11.48c1.03 2.55 2.5 5.95 4 9.4-.49.37-.98.76-1.47 1.17-3.89 3.2-7.8 7.22-11.58 11.09l-.58.6c-2.8-5.42-5.5-11.17-7.82-16.33 1.1-.9 2.21-1.84 3.31-2.77 3.05-2.56 6.23-5.22 9.24-7.56.83-.63 1.67-1.27 2.53-1.89a106.8 106.8 0 0 0 2.35 6.3h.02Zm-8.07 22.59c3.75-3.85 7.64-7.83 11.46-11 .4-.32.78-.63 1.17-.9l1.46 3.36c2.26 5.18 4.4 10.08 4.98 11.74l.1.35c-4.12 3.26-7.47 7.63-10.32 11.34l-.25.35c-.43.55-.91 1.19-1.45 1.87a219.8 219.8 0 0 0-7.34-14.8l-.74-1.39.93-.92Zm32.05 38.6a13.9 13.9 0 0 1 2.59-1.78c3.83-2 8-.99 13.06 3.16.63 3.53 1.18 7.27 1.61 11.3.3 2.86.5 4.66.58 6.14-2.15-2.3-4.69-4.13-7.81-4.74-2.81-.55-5.5.19-8.06 2.18-.27-5.45-.93-10.88-2-16.24l.03-.01Zm7.85 45.17c3 .68 5.46 2.66 7.7 5.2-.71 5.9-1.58 12-2.61 18.36l-.82 5.06-.7 4.37c-2.09-2.05-4.35-3.71-7-4.61-2.35-.8-4.9-.8-7.25-.03.43-2.55.83-5.07 1.22-7.55 1.06-6.78 1.9-13.2 2.5-19.35 2.94-1.92 5.25-1.81 6.94-1.44h.02Zm-3.85 29.64c2.72.9 4.99 2.74 7.17 4.97-1.5 9.17-3.14 18.52-5.4 27.55-4.72-4.17-9.1-6.28-14.43-5.63a319.42 319.42 0 0 0 5.57-26.67 9.93 9.93 0 0 1 7.08-.21l.01-.01Zm-25.73 78.47c.85-2.95 1.62-5.98 2.36-8.9a385.7 385.7 0 0 1 1.95-7.46 277.5 277.5 0 0 0 1.56-5.92c5.33.23 9.55 2.52 14.7 6.75l-1.06 4.63a810.33 810.33 0 0 0-3.62 16.5c-.59 2.71-1.06 4.67-1.49 6.38-5.97-4.37-10.07-6.62-15.6-7.65.35-1.33.76-2.76 1.2-4.33Zm32 24.85c.24-1.12.47-2.17.69-3.27.36-1.8.64-3.65.9-5.42l.46-2.87c.33-2 .7-4.02 1.08-5.97l.41-2.22c.33-1.77.6-3.56.86-5.3l.97 1c3.63 3.73 7.06 7.26 9.4 9.48 1 .95 1.97 1.85 2.9 2.71v.18a95.8 95.8 0 0 1-.76 8.2l-.2 1.67-.38 3.27c-.46 4.06-.95 8.23-1.62 12.32a396.14 396.14 0 0 1-15.02-12.31l.3-1.47Zm15.94 14.65c.74-4.34 1.24-8.78 1.73-13.1l.38-3.25.2-1.68c.3-2.4.58-4.86.71-7.34a163 163 0 0 0 14.36 12.02l-.43 7.5a857 857 0 0 1-.8 13.22l-.24 3.43a151.32 151.32 0 0 1-15.92-10.78v-.02Zm17.5 7.48c.4-5.8.53-8.13.81-13.25l.37-6.63c4.53 3.2 9.3 6.11 15.86 9.94v21.31h-.04A102.98 102.98 0 0 1 150.1 373a75.86 75.86 0 0 1-5.6-2.82l.3-4.12Zm37.66 14.64c-.28-3.78-.5-6.8-.95-14.8a76.2 76.2 0 0 0 7.11 2.25c.94.25 1.94.42 2.9.59 1.53.2 3.02.57 4.46 1.1 1.43.6 2.68 1.09 3.81 1.48.2 1.8.38 3.62.56 5.37.27 2.77.56 5.63.9 8.43l.28 1.85c-.64-.08-1.3-.15-1.94-.27l-.65-.13c-.86-.2-1.73-.32-2.61-.36a75.06 75.06 0 0 1-13.6-1.64 124.4 124.4 0 0 0-.27-3.87Zm28.88 8.16c1.11-.06 2.26-.07 3.36-.08 1.5 0 3.05 0 4.6-.18l1.12-.12 2.16-.22c.34 1.77.58 3.55.72 5.35l.1.93c.24 2.48.44 4.86.64 7.2a172.66 172.66 0 0 1-13.8 2.95c-1.87.3-3.75.51-5.63.63-.35-5.64-.72-10.8-.94-13.14-.11-1.23-.3-2.44-.5-3.62 2.72.38 5.45.48 8.18.3h-.01Zm-.87 17.17c4.53-.77 9.1-1.75 13.67-2.91.33 4.45.53 8.74.54 13.2l-.46.19c-11.08 4.38-15.4 5.58-18.65 6.26-.15-3.97-.5-10.19-.86-16.1 1.93-.11 3.86-.33 5.77-.65h-.01Zm15.04-3.27.6-.15a75.83 75.83 0 0 0 17.62-7.36c.36 3.82.53 7.66.5 11.5a144.4 144.4 0 0 1-18.19 9.03c-.02-4.4-.22-8.62-.53-13.02Zm19.52-8.3c5.34-3.25 10.73-7.6 15.92-12.14.8 4.02 1.37 8.1 1.68 12.19v.05a253.26 253.26 0 0 1-17.02 11.36c-.01-3.62-.2-7.39-.6-11.45h.02Zm17.1-13.19c2.7-2.39 5.32-4.8 7.85-7.14 2.53-2.34 4.9-4.52 7.17-6.52 1.5 4.72 2.7 9.53 3.6 14.4-5.54 3.57-10.63 7.23-15.57 10.74l-1.25.9c-.38-4.16-.98-8.29-1.81-12.38h.01Zm10.42-30.15c.5-.6 1-1.2 1.5-1.77l1.96-2.26c3.05-3.52 6.2-7.16 9.56-10.42a165.8 165.8 0 0 1 7.76 16.26 202.62 202.62 0 0 0-15.52 12.29c-1.37-4.44-3.03-9.4-5.26-14.1Zm12.24-15.58-.13.13c-3.43 3.29-6.6 6.98-9.68 10.51l-1.96 2.26-1.1 1.3a401.1 401.1 0 0 1-6.04-13.29l-.14-.32c.76-1.3 1.57-2.65 2.47-4.06l1.45-2.3c2.52-3.98 4.63-7.32 6.56-10.12l.18.3c1.75 3.07 3.56 6.24 5.22 9.42.8 1.52 1.6 3 2.47 4.58l.8 1.46-.1.13Zm-16.27-6.48-1.46 2.3c-.7 1.12-1.36 2.2-1.98 3.24-.83-1.98-1.63-3.99-2.4-5.94-.79-1.95-1.6-4.03-2.45-6.02l-.97-2.34c.45-1.08.9-2.23 1.45-3.5l1.5-3.56c1.49-3.5 3.02-7.1 4.7-10.6l2 3.72c1.51 2.83 3.07 5.77 4.66 8.63l1.91 3.38a286.79 286.79 0 0 0-6.96 10.7Zm-8.6-137.18c.19-.82.3-1.63.41-2.42.04-.27.07-.55.12-.82l.37-.53a48.01 48.01 0 0 0 3.2-4.92l.3-.51a328.97 328.97 0 0 0-6.02 15.98c.5-2.17 1.03-4.42 1.6-6.78h.01Zm7.03-16.34-.6 1.03c-1.94 3.22-2.88 4.86-3.5 5.94a32 32 0 0 1-1.7 2.74c.8-3.42 2.02-7.97 3.4-13.08.84-3.11 1.74-6.44 2.65-9.93.76-.57 1.48-1.1 2.1-1.6 1.32-1.02 2.57-2.16 3.78-3.26a71.7 71.7 0 0 1 2.04-1.83l1.36-1.22-.79 1.78c-2.58 5.84-5.2 11.74-7.7 17.7-.38.61-.72 1.2-1.04 1.73Zm8.78-22.32c-.5.45-1 .9-1.5 1.32l-2.07 1.86a64.7 64.7 0 0 1-3.7 3.2l-.7.54a408.48 408.48 0 0 0 5.62-24.25c.7-.21 1.4-.42 2.1-.61 1.85-.55 3.68-1.2 5.47-1.94l2.16-.84 2.35-.9.96-.37a804.46 804.46 0 0 1-8.63 20.17c-.71.61-1.4 1.22-2.06 1.81Zm-1.68-27.37c-.67 3.13-1.25 5.84-1.66 8.02l-.19.95c-1.31.4-2.68.8-4.02 1.15-.9.23-1.81.52-2.66.8-1.39.51-2.83.89-4.29 1.13-.4.05-.8.08-1.22.12-.42.03-.96.08-1.44.15l.12-1.3c.25-2.5.5-5.09.77-7.64.77-7.05 1.42-13.96 1.94-20.53l.02-.36c4.34.52 8.7.79 13.07.8.98 0 1.97.04 2.95.08-1.16 6.29-2.38 11.92-3.4 16.63h.01Zm.46-18.07c-4.32-.02-8.64-.28-12.93-.8l.14-1.08c.3-1.98.68-4.7 1.31-14.2.34-5.1.58-10.06.73-14.9a201.1 201.1 0 0 0 17.4 5.24 267.74 267.74 0 0 1-3.46 25.81l-3.2-.06Zm-12.85-16.16c-.63 9.45-1.01 12.13-1.3 14.1l-.14 1.11c-5.35-.7-10.63-1.8-15.8-3.27l.07-.59c.35-2.67.52-5.37.53-8.06l.05-2.24c.25-7.85.37-15.58.35-23.08a255.57 255.57 0 0 0 16.98 6.75c-.15 4.96-.4 10.05-.74 15.28Zm-17.95 1.01-.05 2.26c0 2.64-.18 5.27-.51 7.89l-.06.4a98.24 98.24 0 0 1-19.4-8.18c.66-12.14 1.16-23.79 1.42-35.25a207.79 207.79 0 0 0 18.93 9.26 631.2 631.2 0 0 1-.33 23.62Zm-21.3 1.64c-3.47-1.94-6.85-4.02-10.41-6.2a496.8 496.8 0 0 0-7.74-4.7 1716 1716 0 0 0 1.1-34.5c4.56 2.39 8.94 4.83 13.25 7.22l5.2 2.9a1159 1159 0 0 1-1.42 35.28h.03ZM202.92 82.6a226.08 226.08 0 0 0-18.6-9.76c.24-9.73.45-20.65.55-33.34a193.52 193.52 0 0 1 19.12 8.67 1787.8 1787.8 0 0 1-1.09 34.43h.02ZM189 76.58c5.21 2.6 9.75 5.13 13.86 7.54-.45 11.32-1.03 22.82-1.63 34.4a236.33 236.33 0 0 0-11.1-7.12 325.33 325.33 0 0 0-6.74-3.95c.12-5.45.29-11.29.46-17.4l.45-15.74c1.51.72 3.08 1.47 4.68 2.27h.02ZM182.44 90c-.16 5.87-.32 11.44-.45 16.68-4.18-2.34-8.1-4.4-12.72-6.68l-1.65-.84a52.04 52.04 0 0 0-4.46-2.11V66.2c3.82 1.08 7.57 2.38 11.23 3.9 2.82 1.1 5.63 2.28 8.49 3.58-.12 5.83-.28 11.23-.44 16.32Zm-37.71 2.47a156 156 0 0 0-14.17-1.66l-.65-.05-1.05-.08c-1.06-7.87-2.09-15.97-3.1-24.43l-.1-.83a149.2 149.2 0 0 1 17.37-1.25c.45 8.38 1.03 17.79 1.7 28.3Zm-33.36-26.32a116 116 0 0 0-4.26.79 319.95 319.95 0 0 1-3.63-21.63c1.6-.63 3.23-1.26 4.85-1.84 3.86-1.38 8.37-2.92 13.03-4.34a559.3 559.3 0 0 0 2.77 25.11c-4.17.55-8.41 1.21-12.76 1.9Zm-23.69 5.28-1.4.35c-1.75.38-3.48.86-5.17 1.45a64.57 64.57 0 0 0-11.83 5.85 131.04 131.04 0 0 1-4.26-16.39c5.85-3.55 12-6.62 18.36-9.17a198 198 0 0 0 4.3 17.92Zm-19.58 8.4c-3.63 2.3-7.46 5.04-12.16 8.4l-2.1 1.5c-.74.52-1.48 1-2.24 1.47a150.22 150.22 0 0 1-5.4-17.24c6.55-3.61 12.6-7.35 17.58-10.5a133.16 133.16 0 0 0 4.32 16.37Zm-13.46 11 2.09-1.5c4.55-3.25 8.3-5.93 11.8-8.18 1.29 3.8 2.55 7.09 3.59 9.78.85 2.24 1.53 4 1.93 5.3l.23.73a87.34 87.34 0 0 0-2.92 2.16c-3.04 2.35-6.22 5.02-9.3 7.6l-3.01 2.51a357.56 357.56 0 0 1-6.96-16.74 42 42 0 0 0 2.55-1.66Zm-2.53 5.48c1.17 2.97 3.26 8 5.85 13.83-5.22 4.31-10.5 8.43-15.57 11.29-2.61-5.22-5.15-10.44-7.63-15.58l-1.16-2.4c4.54-2.08 9.17-4.9 14.7-8.58.87-.59 1.75-1.12 2.6-1.64l1.2 3.09v-.01Zm6.43 15.1a343.48 343.48 0 0 0 7.9 16.46c-4.58 4.68-9.25 9.29-13.96 12.43-1.3-2.32-2.59-4.62-3.85-6.92-1.93-3.54-3.8-7.14-5.63-10.76 5.1-2.83 10.32-6.9 15.54-11.2Zm8.56 17.73c.18.34.35.67.54 1 2.8 5.28 5.62 10.74 7.58 15.36a126.58 126.58 0 0 1-10.5 11.89c-.52.57-1.09 1.1-1.7 1.56-2.3-4.17-4.66-8.32-7-12.44l-2.87-5.04c4.74-3.12 9.4-7.68 13.95-12.32v-.01Zm23.45 52.84c2.81-5.72 5.73-11.41 9.33-15.09 1 5.39 1.6 10.84 1.81 16.3a27.74 27.74 0 0 0-4.56 6.1 78.25 78.25 0 0 0-4.2 8.7A82.84 82.84 0 0 0 90.55 182Zm1.18 62.69a24.86 24.86 0 0 1 4.74-3.2 306.89 306.89 0 0 1-5.54 26.26c-2.25.5-4.41 1.3-6.45 2.38a61.26 61.26 0 0 0-6.9 4.06c.83-2.25 1.68-4.56 2.44-6.87 1.16-3.52 2.93-9.14 4.8-15.87a68.68 68.68 0 0 1 6.91-6.74v-.02Zm-19.3 34.52c.33-.24.66-.5 1-.77.5-.4 1.01-.79 1.53-1.13a284.1 284.1 0 0 0-1.74 4.78c-1.19 3.38-3.63 10.07-6.25 17.34h-.25c-.24 0-.48.04-.72.09-.9.24-1.78.56-2.6.98l-.91.4c-6.59 2.76-8.16 3.25-10.3 3.77l1.14-2.07c.97-1.77 1.98-3.61 4.17-7.9 1.55-3 2.83-5.42 3.96-7.57l.65-1.24c2.78-1.36 5.98-3.47 10.32-6.65v-.03Zm16.71 81.62c3.02-18.15 4.19-22.82 5.39-27.47l.85.63c3.01 2.28 6.85 5.59 11.32 9.4.91.8 1.88 1.62 2.85 2.45-.9 4.37-2.08 10.54-3.76 24.07l-.36 2.85a361.34 361.34 0 0 1-8.64-6.36c-2.5-1.83-5.04-3.74-7.65-5.55v-.02Zm17.98 9.25c1.58-12.75 2.7-18.93 3.59-23.24 4.63 3.96 9.75 8.24 15.1 12.34-.91 5.6-1.4 11.33-1.89 16.89l-.12 1.4-.65 7.38-.03.33a395.86 395.86 0 0 1-16.45-11.51c.16-1.18.31-2.38.45-3.57v-.02Zm15.86 16.64c-.78 8.9-1.51 17.28-2.1 26.16a205.3 205.3 0 0 1-8.98-5.2l-4.19-2.57c-1.47-.9-2.96-1.81-4.45-2.75a793.7 793.7 0 0 1 2.86-24.38l.35-2.78A372.74 372.74 0 0 0 123 386.73v-.02Zm1.3.83a155.43 155.43 0 0 0 17.39 9.81l-.45 10.76c-.2 4.87-.38 9.56-.52 14.11l-.64-.18c-.76-.2-1.5-.44-2.24-.73-3.5-1.44-9.6-4.44-15.67-7.7.63-8.86 1.35-17.2 2.13-26.05v-.02Zm.13-1.52.1-1.06.64-7.39.12-1.4c.45-5.29.93-10.74 1.76-16.07a146.93 146.93 0 0 0 16.06 10.76c-.27 3.84-.45 5.99-.54 7.42-.24 3.16-.24 3.16-.52 10.23l-.28 7.35a159.19 159.19 0 0 1-17.34-9.82v-.02Zm18.98 2.55c.27-7.07.27-7.07.51-10.2.1-1.35.26-3.33.5-6.77a74.7 74.7 0 0 0 5.14 2.57 104.46 104.46 0 0 0 12.3 4.68v24.24c-.22-.05-.46-.1-.65-.16l-.41-.1a96.49 96.49 0 0 1-17.67-6.32l.28-7.94Zm19.8-9.17.35.16a94.8 94.8 0 0 0 17.91 6.12l.1 1.43c.33 4.72.5 9.53.65 14.17l.19 5.05c-1.46-.06-3.05-.15-4.79-.3-4.92-.4-9.58-1.44-14.42-2.61V379.4Zm20.38 21.84c-.16-4.66-.32-9.49-.65-14.22l-.07-1.05a76.1 76.1 0 0 0 13.45 1.59c.8.04 1.6.15 2.39.33a31.81 31.81 0 0 0 3.08.46c.2 1.29.42 2.6.54 3.92.22 2.34.58 7.48.94 13.1l-1.17.06a90.7 90.7 0 0 0-5.72.45c-4.18.46-8.4.63-12.6.52l-.19-5.16Zm12.92 6c1.89-.18 3.67-.35 5.64-.46.4 0 .8-.03 1.2-.05.37 6 .72 12.34.87 16.3l-.34.06c-.97.19-1.97.38-3.13.66l-2.36.6a141.4 141.4 0 0 1-13.83 3.08c-.19-6.35-.45-12.87-.73-19.7 4.23.12 8.47-.05 12.68-.5Zm2.23 18.45c.9-.24 1.7-.45 2.33-.6 1.13-.27 2.07-.45 3.07-.65l.13-.03v.08l.06 2.15c.16 4.75.32 9.65-.16 14.34a136.8 136.8 0 0 1-19.3 7.28c.02-6.43-.09-12.85-.27-19.43 5.8-.96 10.75-2.25 14.13-3.16v.02Zm6.96.9-.07-2.14v-.31c3.3-.69 7.64-1.84 19.07-6.37 0 2.34-.08 4.73-.2 7.23l-.05.99a17.76 17.76 0 0 1-.63 4.83 266.96 266.96 0 0 1-18.2 9.49c.37-4.52.22-9.19.07-13.71Zm20.1-.54.03-.98c.14-2.71.21-5.32.22-7.85a144.8 144.8 0 0 0 18.16-8.9c-.06 1.97-.16 3.9-.33 5.87l-.05.65c-.12 1.59-.27 3.38-.9 4.75a889.38 889.38 0 0 1-17.47 10.32c.2-1.28.31-2.56.33-3.86Zm19.39-11.12.05-.64a110 110 0 0 0 .35-6.77c6.1-3.62 11.6-7.43 17.13-11.36.23 4.2.25 8.48-.8 12.2a812.07 812.07 0 0 0-17.21 10.12c.25-1.17.4-2.35.47-3.54Zm18.83-19.7 1.93-1.36c4.77-3.41 9.7-6.93 15.02-10.38.82 4.87.98 9.83.45 14.75a259.74 259.74 0 0 0-17.88 9.24c.84-3.88.73-8.14.48-12.25Zm18.43-14.32-.48.31c-.96-4.93-2.2-9.8-3.72-14.6l1.46-1.25c5.4-4.56 10-8.27 14.13-11.17.52 1.26 1.04 2.58 1.57 3.98a114.3 114.3 0 0 1 4.17 13.04c-5.87 2.75-11.58 6.2-17.12 9.69Zm14.23-23.21a209.3 209.3 0 0 0-1.69-4.28c6.68-4.52 12.18-6.84 17.97-7.11a136.9 136.9 0 0 1 7.3 19.2c-6.65.33-13.14 2.3-19.42 5.13a117.3 117.3 0 0 0-4.15-12.94h-.01Zm-2.22-5.56a166.17 166.17 0 0 0-7.89-16.45c4.15-3.98 9.26-8.5 16.25-8.89 3.43 6.04 6.66 12.1 9.5 18.18-5.76.4-11.27 2.73-17.85 7.16Zm-8.55-17.7-.63-1.14c-.86-1.56-1.67-3.04-2.45-4.55-1.68-3.2-3.5-6.39-5.26-9.49l-.49-.86c3.2-4.47 5.94-7.4 9.24-9.12a12.95 12.95 0 0 1 5.29-1.48 920.63 920.63 0 0 1 10.47 17.66c-6.98.67-12.04 5.05-16.17 8.98Zm-.22-26.34c-3.4 1.78-6.19 4.66-9.34 9.04l-1.59-2.82c-1.59-2.85-3.15-5.78-4.66-8.6-.81-1.54-1.63-3.06-2.45-4.59l.06-.12.16-.33c1.89-3.73 5.78-11.41 12.5-11.8a841.42 841.42 0 0 0 10.46 17.66c-1.8.2-3.54.74-5.14 1.58v-.02Zm-18.83-8.44a181.43 181.43 0 0 1-7.65-16.2l.26-.9c1.2-3.92 3.04-8.77 6.54-11.54a7.5 7.5 0 0 1 4.13-1.67 254.3 254.3 0 0 0 9.52 18.2c-6.87.86-10.78 8.16-12.8 12.11Zm-15.3-34.89c-.9 5.3-1.5 10.36-2 15.28.22-4.83.25-9.48.27-13.55v-4.4c0-2.17.05-4.36.1-6.55.37 3.1.92 6.19 1.64 9.24v-.02Zm6.11-58.1-.28.3.17-.6c3.01-10.53 5.63-19.72 11.83-21.22a134.52 134.52 0 0 0-7.12 19.06 7.82 7.82 0 0 0-4.6 2.45Zm6.4-19.68c1.65-4.19 3.36-8.37 5.14-12.55 2.31-3.78 5.4-7.97 10.26-8.81-3.39 5.98-6.58 12-9.4 18.06a9.24 9.24 0 0 0-6.01 3.3h.02Zm7.54-18.17c1.76-4.06 3.55-8.13 5.33-12.14l1.96-4.44c3.3-2.8 6.92-5.28 11.81-5.66a775.9 775.9 0 0 0-10.42 17.58c-3.67.29-6.48 2.24-8.68 4.66Zm8.47-19.26c2.76-6.3 5.5-12.62 8.06-18.97 4.34-1.61 8.68-2.94 13.9-3.02a852.53 852.53 0 0 1-10.48 17.61c-4.7.14-8.35 2.03-11.48 4.38Zm8.74-20.66c2.7-6.73 5.19-13.47 7.33-20.22 5.19-.37 10.87-.74 16.21-.64a265.69 265.69 0 0 1-9.54 18.17c-5.33-.04-9.7 1.15-14 2.69Zm7.76-21.6a167.9 167.9 0 0 0 5.21-21.3c6.07.8 12.2 1.29 18.5 1.49a134.7 134.7 0 0 1-7.3 19.2c-5.38-.13-11.14.22-16.41.6Zm-1.46.1-.45.03c-4.7.34-9.12.67-12.52.6l-3.1-.1a271.57 271.57 0 0 0 3.42-25.54c5.92 1.45 11.92 2.6 17.96 3.43a167.6 167.6 0 0 1-5.3 21.58Zm-13.7-52.63c.56 8.63.5 17.3-.17 25.92a203.78 203.78 0 0 1-17.46-5.3c.3-10.73.12-20.77-.53-30.02a265.68 265.68 0 0 0 18.15 9.4Zm-19.58-10.2c.69 9.31.9 19.47.6 30.35a227.27 227.27 0 0 1-13.1-5.15c-1.32-.55-2.63-1.1-3.92-1.67a506.3 506.3 0 0 0-1.22-33.94 708.35 708.35 0 0 0 17.64 10.41Zm-19.06-11.25c.78 10.44 1.2 22 1.27 34.2a212.43 212.43 0 0 1-9.66-4.44 284.2 284.2 0 0 1-9.23-4.86c.25-11.83.25-23.49-.07-35.34a870.79 870.79 0 0 1 17.7 10.44ZM223.67 22.1c.34 11.87.35 23.54.11 35.37l-4.56-2.54c-4.5-2.52-9.09-5.08-13.9-7.58.19-9.03.27-17.79.22-26.24 0-2.78-.04-5.64-.07-8.5a255.99 255.99 0 0 1 18.2 9.49Zm-19.55-10.14c.04 3.07.06 6.14.08 9.14.05 8.23-.03 16.77-.2 25.54a201.1 201.1 0 0 0-19.15-8.6c.08-9.95.1-20.97 0-33.33a136.3 136.3 0 0 1 19.27 7.25Zm-20.63-7.6c.1 12.28.08 23.26 0 33.17-8.13-3.06-14.44-4.7-20.31-5.38V1.36a81.08 81.08 0 0 1 20.3 3Zm0 34.61c-.1 12.65-.31 23.55-.55 33.26a175.24 175.24 0 0 0-8.04-3.4c-3.8-1.47-7.7-3-11.71-4.02V33.52c5.85.7 12.15 2.38 20.3 5.45Zm-40.54 23.85c-5.84.08-11.67.5-17.46 1.27-.57-4.33-1.7-13.02-2.78-25.35 6.3-1.89 12.8-3.54 18.28-4.3l.5-.07c.37 7.88.83 17.25 1.46 28.45ZM35.65 79.47a212.1 212.1 0 0 0 9.32-4.81 153.14 153.14 0 0 0 5.43 17.28l-.08.05c-.9.55-1.85 1.12-2.8 1.75-5.47 3.65-10.03 6.44-14.52 8.48l-.21-.43c-2-4.13-4.53-10.84-6.53-18.4a90.3 90.3 0 0 0 9.39-3.92Zm-4.08 22.9.19.4c-5.93 2.5-11.86 3.73-19.72 3.92a135.3 135.3 0 0 1-7.29-19.2A69.42 69.42 0 0 0 25 83.83c2.02 7.62 4.57 14.4 6.58 18.55Zm.78 1.62 1.18 2.45c2.49 5.15 5.03 10.39 7.65 15.63a32.6 32.6 0 0 1-5.2 2.21c-3.85 1.22-8.24 1.8-13.78 1.92a261.52 261.52 0 0 1-9.52-18.17c7.8-.25 13.74-1.5 19.68-4.04h-.01Zm4.05 21.58a34.1 34.1 0 0 0 5.4-2.29c1.8 3.62 3.7 7.23 5.63 10.76 1.28 2.33 2.57 4.66 3.9 7.01a24.91 24.91 0 0 1-4.94 2.4c-4.29 1.46-8.93 1.7-12.95 1.72a893.24 893.24 0 0 1-10.47-17.62c5.34-.15 9.63-.78 13.43-1.98Zm10.42 19.16a26.3 26.3 0 0 0 5.16-2.5l2.82 4.97c2.32 4.07 4.66 8.18 6.94 12.31a7.5 7.5 0 0 0-.91.71c-.21.18-.42.36-.6.49-4.54 3.1-10.13 3.41-15.53 3.4a864.94 864.94 0 0 0-10.42-17.6c3.93-.04 8.38-.35 12.56-1.76l-.02-.02Zm14.15 17.1c.25-.17.49-.38.72-.57.22-.2.45-.38.7-.55a286.7 286.7 0 0 1 9.22 18.14c-4.95 4.55-9.38 4.9-16.7 4.78a262.14 262.14 0 0 0-9.46-18.15c5.22-.03 10.94-.49 15.55-3.65h-.03Zm11.23 18.33a140.86 140.86 0 0 1 6.95 18.57 18.02 18.02 0 0 1-3.22 2.88c-3.75 2.56-8.73 2.61-13.2 2.57A135.2 135.2 0 0 0 55.57 185c7.25.07 11.78-.55 16.65-4.84h-.03Zm11.61 35.34a92.94 92.94 0 0 0-3.17-16.43c3.49-4.04 6.26-9.61 8.97-15.14a78.88 78.88 0 0 1 2.07 17.19l-.9 2.25c-2.12 5.33-4.17 10.46-6.8 14.46-.02-.79-.07-1.56-.14-2.33h-.03Zm7.79-10.58a162.4 162.4 0 0 1-2.4 21.45l-1.36 2.4c-2.3 4.07-4.53 8-7.04 11.2.64-2.47 1.21-4.97 1.68-7.5a78.16 78.16 0 0 0 1.51-12.3c3.1-4.06 5.35-9.52 7.64-15.25h-.03Zm-3.17 25.56a288.72 288.72 0 0 1-4.86 20.33 259.36 259.36 0 0 0-3.3 3.76A82.18 82.18 0 0 1 73 262.3c2.67-6.3 5-12.75 6.95-19.3 3.2-3.35 5.82-7.8 8.49-12.52h-.02Zm-33.27 38.85c4.5-.09 9.58-.18 13.74-2.44.32-.17.62-.35.91-.53a216.28 216.28 0 0 1-8.77 18.54c-4.8 2.33-8.48 2.46-15.59 2.57 3.4-6.01 6.61-12.07 9.44-18.14h.27Zm-10.38 19.5c6.9-.1 10.76-.16 15.27-2-1.1 2.07-2.32 4.4-3.8 7.27a221.8 221.8 0 0 1-4.16 7.86c-.53.98-1.05 1.92-1.73 3.2l-.53.19c-.63.23-1.28.4-1.94.54-3.91.66-8.02.62-12 .57h-1.62a821.8 821.8 0 0 0 10.42-17.61l.09-.01Zm3.34 18.4c.46-.09.91-.2 1.36-.34-1.66 3.2-4.24 8.33-9.17 18.36l-.07.14c-.78.12-1.56.2-2.35.24-3.3.13-6.66 0-9.92-.08-1.63-.06-3.3-.1-4.99-.13a915.5 915.5 0 0 1 10.46-17.6h2.43c4.06.06 8.23.1 12.27-.57l-.02-.03Zm-10.2 19.75c.54 0 1.07-.06 1.6-.13a241.52 241.52 0 0 0-8.33 19.18 86.77 86.77 0 0 1-3.03-.17c-5.06-.42-10.28-.84-15.47-.93 2.87-6.08 6.1-12.13 9.52-18.16 1.9 0 3.81.07 5.68.13 3.32.12 6.72.23 10.06.1l-.02-.02Zm-9.86 20.23c.7.06 1.6.1 2.63.16a164.15 164.15 0 0 0-6.17 20.18c-6.52-1.2-13.13-1.9-19.76-2.08 1.95-6.57 4.4-12.99 7.31-19.2 5.36.09 10.77.53 16.02.96l-.03-.02Zm4.08.22 5.06.18c5.14.16 12.14.4 13.18.76l.07.1.02.03a245.97 245.97 0 0 0-5.54 23.62 10.5 10.5 0 0 0-2.53-.8 130.89 130.89 0 0 0-4.94-1.17 356.2 356.2 0 0 0-11.59-2.37 162.4 162.4 0 0 1 6.27-20.33v-.02Zm20.5 27.3c-.8-.27-1.67-.5-2.5-.73a28.66 28.66 0 0 1-3.94-1.25 244.88 244.88 0 0 1 5.5-23.58c.67.13 1.36.2 2.04.2.36 0 .7 0 .97.04a86.42 86.42 0 0 1 15.22 3.02l-.31 1.39a370.86 370.86 0 0 0-4.91 25.43c-3.6-1.54-7.53-3.02-12.06-4.5v-.03Zm18.3-20.61.3-1.27c1.01.33 2 .69 2.95 1.06a70.8 70.8 0 0 1 13.47 7.53l-.6 3.55a578.64 578.64 0 0 0-3.68 24.38A131.76 131.76 0 0 0 66 379.8a368.79 368.79 0 0 1 4.95-25.66v-.02Zm17.47 11.1.49-2.92c2.4 1.7 4.76 3.45 7.08 5.2l5.48 4.06 3.77 2.7-.46 3.53c-.93 7.3-1.93 15.08-2.8 23.74-1.41-.9-2.82-1.8-4.2-2.7l-4.1-2.72a752.43 752.43 0 0 0-9.02-5.92c1.2-9.78 2.65-18.26 3.76-24.96v-.02Zm53.67 57.42c.15-4.67.33-9.48.53-14.5l.41-10.18a97.42 97.42 0 0 0 17.43 6.18l.41.1.97.24v23.62a60.24 60.24 0 0 1-3.52-.58 92.96 92.96 0 0 1-15.97-4.78 1.42 1.42 0 0 1-.26-.07v-.03Zm21.1-17.83c4.78 1.16 9.4 2.17 14.32 2.58 1.8.14 3.43.24 4.94.3v.08c.3 6.9.55 13.46.74 19.88-6.06.9-12.97 1.4-20 .62v-23.46Zm20.04 24.2c.2 6.64.3 13.12.27 19.6a81.77 81.77 0 0 1-20.3 3v-21.98c6.68.65 13.4.45 20.03-.6V429Zm120.14-38.98c0-6.09-.74-12.16-2.2-18.07 6.34-2.86 12.83-4.86 19.48-5.12a79.87 79.87 0 0 1 3.01 20.27 81.88 81.88 0 0 0-20.3 2.94v-.02ZM259.05 230.7a83.93 83.93 0 0 0 2.85 16.8 7.57 7.57 0 0 0-4.36 2.26c-2.99 2.96-4.43 7.32-5.34 11.54a87.56 87.56 0 0 1-1.5-17.4l.1-.7c.63-4.92 1.58-10.45 4.69-13.97a5.76 5.76 0 0 1 3.44-2.01c0 1.16.05 2.33.12 3.5v-.02Zm64.6-164.86a80.13 80.13 0 0 1-3.02 20.3 184.5 184.5 0 0 1-18.64-1.46c1.2-7.18 1.66-14.45 1.4-21.72a81.86 81.86 0 0 0 20.25 2.9v-.02ZM161.82 1.36v30.65c-6.15-.57-11.95-.11-19.03.82-.32-6.93-.55-12.67-.75-17.47-.18-4.52-.33-8.13-.48-11.03a83.89 83.89 0 0 1 16.8-2.86c1.14-.06 2.3-.1 3.46-.1ZM21.69 62.92a92.8 92.8 0 0 0 2.97 19.6 67.8 67.8 0 0 1-20.28 3.6 80.23 80.23 0 0 1-3-20.27c6.87-.12 13.7-1.1 20.31-2.93Zm44.4 164.25c4.83 0 10.2-.1 14.24-3.23a18.4 18.4 0 0 0 2.24-2.08 109 109 0 0 1-3.8 20.46 21.5 21.5 0 0 1-2.49 2.17c-3.68 2.71-8.64 2.9-13.14 2.96a84.12 84.12 0 0 0 2.84-16.7c.06-1.22.1-2.4.11-3.58ZM1.4 387.13a80.02 80.02 0 0 1 3.01-20.29 126 126 0 0 1 19.85 2.05 101.77 101.77 0 0 0-2.57 21.13 82.39 82.39 0 0 0-20.3-2.9Zm63.7 22.42-1.85-1.06a236.7 236.7 0 0 1 2.54-27.25c6.14 2.77 11.43 5.87 17.4 9.67a330.23 330.23 0 0 0-2.22 28 871.12 871.12 0 0 0-15.86-9.36Zm76.44 39.1c.07-7.76.24-15.88.5-24.55a94.08 94.08 0 0 0 16 4.77c1.27.25 2.53.45 3.79.62v22.13a53.5 53.5 0 0 1-3.47-.11 83.5 83.5 0 0 1-16.8-2.86h-.02Z"/>
</svg>
