<svg xmlns="http://www.w3.org/2000/svg" width="151" height="22" fill="none"><g clip-path="url(#a)"><path fill="#191919" d="M.798 16.658v-2.37h2.101V3.38H.798V1.01h6.37c2.087 0 3.682.53 4.784 1.587 1.103 1.058 1.654 2.645 1.654 4.762v2.95c0 2.116-.551 3.703-1.654 4.761-1.102 1.059-2.697 1.588-4.783 1.588H.798ZM5.58 14.22h1.61c1.267 0 2.205-.328 2.817-.983.61-.656.916-1.602.916-2.84V7.293c0-1.267-.306-2.22-.916-2.862-.612-.655-1.55-.983-2.817-.983H5.58V14.22Zm11.357 2.437V5.615h2.57v11.043h-2.57Zm1.274-12.451c-.462 0-.864-.15-1.207-.447-.328-.313-.492-.723-.492-1.23 0-.506.164-.909.492-1.207.343-.313.745-.47 1.207-.47.492 0 .894.157 1.207.47.328.298.492.7.492 1.207 0 .507-.164.917-.492 1.23-.313.298-.715.447-1.207.447Zm4.689 6.974v-.335c0-1.163.23-2.154.692-2.973.462-.835 1.08-1.468 1.856-1.9a5.01 5.01 0 0 1 2.548-.67c1.043 0 1.833.185 2.37.558.55.372.953.775 1.207 1.207h.38V5.615h2.503v13.144c0 .73-.208 1.304-.626 1.721-.417.432-.983.648-1.699.648h-7.42v-2.235h6.549c.432 0 .648-.224.648-.67v-3.197h-.38a4.38 4.38 0 0 1-.67.782c-.284.253-.656.47-1.118.648-.462.18-1.043.269-1.744.269a5.143 5.143 0 0 1-2.548-.649 4.944 4.944 0 0 1-1.856-1.9c-.462-.834-.692-1.833-.692-2.995Zm5.811 3.286c.924 0 1.692-.29 2.303-.872.61-.596.916-1.423.916-2.481v-.224c0-1.073-.305-1.9-.916-2.48-.596-.582-1.364-.873-2.303-.873-.924 0-1.698.291-2.324.872-.611.581-.917 1.408-.917 2.481v.224c0 1.058.306 1.885.917 2.481.625.581 1.4.872 2.324.872Zm9.672 2.19V5.616h2.57v11.043h-2.57Zm1.274-12.45c-.462 0-.864-.15-1.207-.447-.328-.313-.492-.723-.492-1.23 0-.506.164-.909.492-1.207.343-.313.745-.47 1.207-.47.492 0 .894.157 1.207.47.328.298.492.7.492 1.207 0 .507-.164.917-.492 1.23-.313.298-.715.447-1.207.447Zm9.428 12.45c-.716 0-1.29-.208-1.722-.625-.417-.432-.625-1.014-.625-1.744v-6.55h-2.884V5.616h2.884V2.061h2.57v3.554h3.174v2.124H49.31v6.124c0 .447.209.671.626.671h2.213v2.124h-3.062Zm10.082.314c-.774 0-1.475-.135-2.101-.403a3.64 3.64 0 0 1-1.498-1.207c-.357-.522-.536-1.162-.536-1.922 0-.745.179-1.371.536-1.878.373-.507.88-.887 1.52-1.14.64-.268 1.371-.402 2.19-.402h3.198v-.671c0-.581-.18-1.05-.537-1.408-.357-.373-.916-.56-1.677-.56-.745 0-1.311.18-1.698.537-.373.343-.619.79-.738 1.342l-2.37-.783c.18-.58.463-1.11.85-1.587.402-.477.931-.857 1.587-1.14.656-.298 1.46-.447 2.414-.447 1.446 0 2.578.365 3.398 1.095.834.716 1.252 1.759 1.252 3.13v4.336c0 .447.208.671.626.671h.938v2.124h-1.81c-.537 0-.976-.135-1.32-.403-.342-.268-.513-.633-.513-1.095v-.045h-.38c-.09.209-.246.462-.47.76-.223.298-.566.56-1.028.783-.447.208-1.058.313-1.833.313Zm.425-2.102c.85 0 1.542-.238 2.079-.715.536-.492.805-1.147.805-1.967v-.224h-3.04c-.552 0-1 .12-1.342.358-.343.239-.514.589-.514 1.05 0 .448.179.813.536 1.096.358.268.85.402 1.476.402Zm9.727 1.789V1.01h2.57v15.648h-2.57Zm12.778 0V1.01h5.03l3.04 13.837h.38L93.61 1.01h5.007v15.648h-2.593V2.955h-.38l-3.04 13.703h-4.471l-3.04-13.703h-.38v13.703h-2.615Zm21.972.313c-.567 0-1.043-.187-1.431-.56-.373-.372-.559-.849-.559-1.43 0-.566.186-1.036.559-1.408.388-.373.864-.559 1.431-.559.566 0 1.036.186 1.408.559.373.372.559.85.559 1.43 0 .582-.186 1.058-.559 1.431-.372.358-.842.537-1.408.537Zm10.987 0c-1.937 0-3.487-.537-4.649-1.61-1.147-1.088-1.721-2.645-1.721-4.672V6.98c0-2.027.574-3.577 1.721-4.65 1.162-1.088 2.712-1.632 4.649-1.632 1.953 0 3.503.544 4.65 1.632 1.148 1.073 1.721 2.623 1.721 4.65v3.71c0 2.027-.573 3.584-1.721 4.672-1.147 1.073-2.697 1.61-4.65 1.61Zm0-2.415c1.163 0 2.065-.335 2.705-1.005.656-.686.984-1.61.984-2.772v-3.89c0-1.162-.328-2.079-.984-2.75-.64-.685-1.542-1.028-2.705-1.028-1.147 0-2.048.343-2.704 1.029-.641.67-.962 1.587-.962 2.75v3.889c0 1.162.321 2.086.962 2.771.656.671 1.557 1.006 2.704 1.006Zm11.005 2.415c-.567 0-1.044-.187-1.431-.56-.373-.372-.559-.849-.559-1.43 0-.566.186-1.036.559-1.408.387-.373.864-.559 1.431-.559.566 0 1.035.186 1.408.559.372.372.559.85.559 1.43 0 .582-.187 1.058-.559 1.431-.373.358-.842.537-1.408.537Zm4.897-.313v-2.37h2.102V3.38h-2.102V1.01h8.003c.939 0 1.759.164 2.459.492.715.313 1.267.767 1.654 1.364.402.58.603 1.281.603 2.1v.202c0 .715-.134 1.304-.402 1.766-.268.462-.588.82-.961 1.073a4.01 4.01 0 0 1-1.073.536v.38c.343.09.708.261 1.095.514.402.239.738.597 1.006 1.073.283.462.425 1.066.425 1.811v.224c0 .849-.209 1.587-.626 2.213-.403.61-.961 1.08-1.676 1.408-.701.328-1.513.492-2.437.492h-8.07Zm4.784-2.437h2.973c.715 0 1.281-.171 1.699-.514.432-.358.648-.857.648-1.498v-.2c0-.642-.209-1.133-.626-1.476-.417-.358-.991-.537-1.721-.537h-2.973v4.225Zm0-6.661h2.951c.685 0 1.236-.172 1.654-.514.432-.343.648-.82.648-1.431v-.224c0-.61-.216-1.087-.648-1.43-.418-.343-.969-.514-1.654-.514h-2.951V7.56Zm12.9 9.41c-.567 0-1.044-.186-1.431-.558-.372-.373-.558-.85-.558-1.43 0-.567.186-1.037.558-1.41.387-.372.864-.558 1.431-.558.566 0 1.035.186 1.408.559.373.372.559.85.559 1.43 0 .582-.186 1.058-.559 1.431-.373.358-.842.537-1.408.537Z"/></g><defs><clipPath id="a"><path fill="#fff" d="M.655.533h150v21.01h-150z"/></clipPath></defs></svg>