<svg width="120" height="34" viewBox="0 0 120 34" fill="none" xmlns="http://www.w3.org/2000/svg">
<path fill-rule="evenodd" clip-rule="evenodd" d="M46.9245 27.0695C46.9245 30.889 43.8603 33.2843 39.6307 33.2843C35.4228 33.2843 32.3586 30.889 32.3586 27.0695L32.3586 6.842C32.3586 3.02248 35.4229 0.627197 39.6308 0.627197C43.8603 0.627197 46.9245 3.02248 46.9245 6.842L46.9245 27.0695ZM38.4456 3.67038C36.7649 3.67038 35.4024 5.03287 35.4024 6.71359V16.1362C36.6988 15.5805 38.3762 15.0877 40.1411 15.0877C41.4999 15.0877 42.7368 15.3788 43.7712 15.7728V6.71359C43.7712 5.03287 42.4087 3.67038 40.728 3.67038H38.4456ZM43.7712 18.9117C42.9255 18.4451 41.6274 17.9437 40.1411 17.9437C38.2492 17.9437 36.384 18.7516 35.4024 19.3206V27.2553C35.4024 28.936 36.7649 30.2985 38.4456 30.2985H40.728C42.4087 30.2985 43.7712 28.936 43.7712 27.2553V18.9117ZM8.43278 10.5238V7.76165H14.8202C14.8202 7.76165 14.979 9.43286 14.8202 10.5238C14.6409 11.7557 14.378 12.2408 13.7352 12.9889C13.0402 13.7978 12.0878 14.086 11.4051 14.2925L11.3089 14.3217C10.3569 14.6117 9.66279 14.7417 8.10909 14.7417C3.90115 14.7417 0.836914 12.1206 0.836914 8.30113C0.836914 4.50319 3.90115 2.08633 8.10909 2.08633C12.7486 2.08633 14.8202 4.35214 14.8202 4.35214L12.5976 6.18637C12.5976 6.18637 11.3244 4.93478 8.10909 4.93478C5.36854 4.93478 4.03063 5.79794 4.03063 8.30113C4.03063 10.8259 5.36854 11.6891 8.10909 11.6891C9.66279 11.6891 11.3242 11.3006 11.9716 10.5238H8.43278ZM30.4557 6.61795C30.4557 8.25797 29.7436 10.1785 27.8446 10.9122L30.283 14.3217H26.5714L24.3703 11.2359H21.4787V14.3217H18.3498V2.28054H25.8593C29.4846 2.28054 30.4557 5.10741 30.4557 6.61795ZM27.4993 6.8769C27.4993 6.31584 27.3267 5.02109 25.8593 5.02109H21.4787V8.47376H26.0967C27.4777 8.47376 27.4993 6.94164 27.4993 6.8769ZM59.1064 2.28054V7.95586C59.1064 10.6101 58.2001 11.6891 55.9774 11.6891C53.7547 11.6891 52.8484 10.6101 52.8484 7.95586V2.28054H49.7194V7.95586C49.7194 12.0559 52.05 14.5159 55.9774 14.5159C59.9048 14.5159 62.2354 12.0559 62.2354 7.95586V2.28054H59.1064ZM74.3512 9.74693V2.28054H77.3076V14.3433H74.4807L68.2012 6.85532V14.3433H65.2448V2.28054H68.0501L74.3512 9.74693ZM92.6804 8.30113C92.6804 4.24424 90.6735 2.28054 87.1777 2.28054H80.5745V14.3433H87.1777C90.6735 14.3433 92.6804 12.358 92.6804 8.30113ZM87.263 5.02099C88.394 5.01894 89.4003 5.01711 89.4003 8.30113C89.4003 11.5834 88.3821 11.5824 87.2428 11.5812L87.1777 11.5812H83.7034V5.02109H87.1777L87.263 5.02099ZM30.8323 28.5349L28.3507 26.9381C27.7465 27.9307 26.5596 28.427 24.8117 28.427C22.0712 28.427 20.7333 27.5639 20.7333 25.0391C20.7333 22.5359 22.0712 21.6727 24.8117 21.6727C26.5596 21.6727 27.7465 22.1691 28.3507 23.1617L30.8323 21.5433C29.4944 19.7954 27.3581 18.8243 24.8117 18.8243C20.6038 18.8243 17.5395 21.2412 17.5395 25.0391C17.5395 28.8586 20.6038 31.2539 24.8117 31.2539C27.3581 31.2539 29.4944 30.3044 30.8323 28.5349ZM59.088 19.0185V26.4849L52.7869 19.0185H49.9816V31.0813H52.938V23.5933L59.2175 31.0813H62.0444V19.0185H59.088ZM64.4697 21.7591V19.0185H75.8203V21.7591H71.6987V31.0597H68.5697V21.7591H64.4697ZM87.7334 27.6502C89.6323 26.9165 90.3444 24.9959 90.3444 23.3559C90.3444 21.8454 89.3734 19.0185 85.7481 19.0185H78.2385V31.0597H81.3675V27.9739H84.2591L86.4602 31.0597H90.1718L87.7334 27.6502ZM85.7481 21.7591C87.2155 21.7591 87.3881 23.0538 87.3881 23.6149C87.3881 23.6796 87.3665 25.2117 85.9854 25.2117H81.3675V21.7591H85.7481ZM99.8583 18.8243C104.088 18.8243 107.152 21.2412 107.152 25.0391C107.152 28.8586 104.088 31.2539 99.8583 31.2539C95.6504 31.2539 92.5861 28.8586 92.5861 25.0391C92.5861 21.2412 95.6504 18.8243 99.8583 18.8243ZM103.958 25.0391C103.958 22.5359 102.62 21.6727 99.8583 21.6727C97.1178 21.6727 95.7799 22.5359 95.7799 25.0391C95.7799 27.5639 97.1178 28.427 99.8583 28.427C102.62 28.427 103.958 27.5639 103.958 25.0391ZM112.996 28.3191V19.0185H109.867V31.0813H119.837V28.3191H112.996Z" fill="#191919"/>
</svg>
