<svg width="102" height="48" viewBox="0 0 102 48" fill="none" xmlns="http://www.w3.org/2000/svg">
<path d="M8.81887 36.0833L6.72075 35.6956C4.0525 35.1482 1.77194 33.7799 1.77194 30.9064C1.77194 27.5768 5.32961 26.1172 8.36276 26.1172C11.7836 26.1172 14.6799 28.1241 14.8623 31.2941H11.7152C11.4643 29.3556 9.7767 28.7171 8.22592 28.7171C6.69795 28.7171 5.03314 29.2872 5.03314 30.7696C5.03314 31.9327 5.99098 32.5712 7.33651 32.8221L9.50304 33.2098C12.1941 33.7115 15.1588 34.7377 15.1588 38.1814C15.1588 41.5794 11.7836 43.2442 8.45398 43.2442C4.39458 43.2442 1.70353 41.0549 1.40705 37.4972H4.55422C4.91911 39.9374 6.60673 40.6444 8.56801 40.6444C10.0276 40.6444 11.8748 40.0971 11.8748 38.341C11.8748 36.9499 10.5749 36.3797 8.81887 36.0833ZM19.5687 26.4137V42.9478H16.4215V26.4137H19.5687ZM21.706 30.6783H24.8532V42.9478H21.706V30.6783ZM21.706 26.4137H24.8532V29.3328H21.706V26.4137ZM30.1376 30.6783V32.2975C30.8446 31.0432 32.1673 30.4047 33.6953 30.4047C36.6372 30.4047 37.9371 32.1835 37.9371 35.2167V42.9478H34.79V35.9008C34.79 34.3272 34.4479 32.9361 32.6691 32.9361C30.5937 32.9361 30.1376 34.6237 30.1376 36.5622V42.9478H26.9905V30.6783H30.1376ZM45.2282 40.1199C46.9842 40.1199 48.0561 38.6375 48.0561 36.4482C48.0561 34.2816 46.9842 32.7993 45.2282 32.7993C43.609 32.7993 42.4003 34.4185 42.4003 36.471C42.4003 38.5007 43.609 40.1199 45.2282 40.1199ZM47.942 30.6783H51.0664V41.7163C51.0664 45.73 48.8086 47.2352 45.0457 47.2352C42.4231 47.2352 40.1197 46.2774 39.6864 43.4267H42.6739C42.9476 44.4301 43.7914 44.9318 45.2054 44.9318C46.8474 44.9318 47.942 44.1564 47.942 42.3092V40.6672C47.1438 42.0127 45.7071 42.5144 44.43 42.5144C41.4196 42.5144 39.0935 40.0286 39.0935 36.4482C39.0935 32.9589 41.3512 30.4047 44.43 30.4047C45.9807 30.4047 47.3947 31.2029 47.942 32.2747V30.6783ZM63.0903 34.3729H60.1484C59.8975 33.3466 58.9853 32.6168 57.5257 32.6168C56.3626 32.6168 55.5416 33.0501 55.5416 33.8027C55.5416 34.4641 56.0205 34.9658 57.1836 35.2167L58.8256 35.5816C61.2658 36.1289 63.3411 36.7446 63.3411 39.2761C63.3411 41.7391 60.8097 43.2442 58.0274 43.2442C55.0171 43.2442 52.7365 41.6934 52.4401 38.8884H55.4732C55.6557 40.0743 56.4767 40.9637 58.1187 40.9637C59.487 40.9637 60.3308 40.4619 60.3308 39.5725C60.3308 38.6603 59.3958 38.3182 58.3239 38.0674L56.4995 37.6797C54.1961 37.2007 52.6681 36.2429 52.6681 34.008C52.6681 31.8186 55.0399 30.3591 57.6853 30.3591C60.2396 30.3591 62.657 31.545 63.0903 34.3729ZM67.7722 26.4137V32.2975C68.4792 31.0432 69.8019 30.4047 71.3299 30.4047C74.2718 30.4047 75.5717 32.1835 75.5717 35.2167V42.9478H72.4245V35.9008C72.4245 34.3272 72.0824 32.9361 70.3036 32.9361C68.2283 32.9361 67.7722 34.6237 67.7722 36.5622V42.9478H64.625V26.4137H67.7722ZM82.8627 32.8677C81.1295 32.8677 79.898 34.2588 79.898 36.8359C79.898 39.4129 81.1295 40.7812 82.8627 40.7812C84.5959 40.7812 85.8274 39.4129 85.8274 36.8359C85.8274 34.2588 84.5959 32.8677 82.8627 32.8677ZM82.8627 43.2442C79.7612 43.2442 76.7052 41.1233 76.7052 36.8359C76.7052 32.5256 79.7612 30.4047 82.8627 30.4047C85.9643 30.4047 89.0202 32.5256 89.0202 36.8359C89.0202 41.1233 85.9643 43.2442 82.8627 43.2442ZM90.7716 30.6783V27.3487H93.9188V30.6783H96.473V32.8449H93.9188V39.1848C93.9188 40.4391 94.3521 40.69 95.4696 40.69H96.4274V42.9478H94.124C91.2961 42.9478 90.7716 42.0811 90.7716 39.6409V32.8449H89.0384V30.6783H90.7716Z" fill="black"/>
<path d="M100.837 16.6248C90.3741 29.1554 36.1034 11.9259 36.1034 22.8901C36.1034 30.9723 53.759 16.6248 46.5037 8.29203C36.3323 -3.39005 13.8461 0.833064 1.0498 17.153" stroke="black" stroke-width="2.30769" stroke-dasharray="0.77 1.92"/>
</svg>
