<svg xmlns="http://www.w3.org/2000/svg" viewBox="0 0 145 86">
<style type="text/css">
	.st0{fill:#FFFFFF;}
	.st1{fill:#191919;}
</style>
<path class="st0" d="M35,74.8C29.3,58,23.3,41.1,20.2,23.5c10.2,2.9,16.3,12,25.1,17.8c2.6,1.5,4.3-0.8,5.2-3
	c2.9-7.3,2.3-14.4,4.4-21.7c2.5-9,12.3,1.2,18.4,1.6c2,0.2,4,0.6,5.8,0.2c0.9-0.2,1.8-0.4,2.7-0.6l2.5-0.7c6.1-1,10.3,3.9,15.1,7
	c4.3,2.7,7.2-2.3,8.6-5.9c3.3,13.7,7.4,27.1,9.4,41.3c0.2,1.4-1.9,4.3-4.3,5.1c-9.1,3.3-16.4-4.9-22.9-10.8
	c-1.6-1.4-4.3-1.8-5.2,0.1c-2.2,4.8-1.5,11.3-7.6,12.8c-0.8,0.4-1.8,0.6-2.7,0.9c-0.9,0.2-1.8,0.5-2.7,0.9c-3.9,0.9-5.1,5.4-8.2,7.5
	c-6.6,4.5-13.3-2.8-18.6-6.8c-1.8-1.2-3.3-2.8-5.3-2.8c-3.1-0.1-3.3,3.8-4.2,6.2C35.4,74,35,74.8,35,74.8z"/>
<path class="st1" d="M34.1,36.3c0,1.5-0.5,2.7-1.5,3.6c-1,0.9-2.3,1.4-3.7,1.4c-1.5,0-2.7-0.5-3.7-1.4c-1-0.9-1.5-2.1-1.5-3.6v-9.4
	h2.8v9.3c0,0.8,0.2,1.5,0.7,1.9c0.4,0.5,1,0.7,1.8,0.7c0.8,0,1.4-0.2,1.8-0.7c0.5-0.5,0.7-1.1,0.7-1.9v-9.3h2.8V36.3z"/>
<path class="st1" d="M48.8,41.2h-2.5l-5.7-8.8v8.8h-2.8V26.9h2.5l5.7,8.7v-8.7h2.8V41.2z"/>
<path class="st1" d="M63.1,34c0,1.6,0,2.6-0.1,3.1c-0.2,1.1-0.6,2-1.3,2.7c-0.9,0.9-2.2,1.4-3.8,1.4h-5.2V26.9h5.2
	c1.6,0,2.9,0.5,3.8,1.4c0.7,0.7,1.1,1.6,1.3,2.6C63,31.4,63.1,32.4,63.1,34z M60.3,34c0-1.1,0-2-0.1-2.4c-0.1-0.5-0.2-1-0.5-1.3
	c-0.5-0.6-1.2-0.9-2.1-0.9h-2.1v9.3h2.1c0.9,0,1.6-0.3,2.1-0.9c0.3-0.3,0.4-0.8,0.5-1.3C60.3,36,60.3,35.1,60.3,34z"/>
<path class="st1" d="M76.6,34c0,1.6-0.1,2.6-0.2,3.2c-0.2,1-0.6,1.8-1.2,2.5c-1,1-2.3,1.6-3.8,1.6c-1.5,0-2.8-0.5-3.9-1.6
	c-0.6-0.6-1.1-1.5-1.2-2.5c-0.1-0.6-0.2-1.7-0.2-3.2c0-1.6,0.1-2.6,0.2-3.2c0.2-1,0.6-1.8,1.2-2.5c1-1,2.3-1.6,3.9-1.6
	c1.5,0,2.8,0.5,3.8,1.6c0.7,0.7,1.1,1.5,1.2,2.5C76.5,31.4,76.6,32.5,76.6,34z M73.8,34c0-1.1,0-1.8,0-2.1c-0.1-0.9-0.3-1.5-0.7-1.9
	c-0.5-0.5-1-0.8-1.8-0.8c-0.7,0-1.3,0.3-1.8,0.8c-0.3,0.4-0.6,1-0.6,1.9c0,0.2,0,0.9,0,2.1c0,1.1,0,1.8,0,2.1
	c0.1,0.9,0.3,1.5,0.6,1.9c0.5,0.5,1.1,0.8,1.8,0.8c0.8,0,1.5-0.3,1.9-1C73.6,37.3,73.8,36.1,73.8,34z"/>
<path class="st1" d="M91,41.2h-2.5l-5.7-8.8v8.8H80V26.9h2.5l5.7,8.7v-8.7H91V41.2z"/>
<path class="st1" d="M104.3,41.2h-9.4V26.9h9.4v2.5h-6.6v3.3h5.6v2.5h-5.6v3.5h6.6V41.2z"/>
<path class="st1" d="M33.8,47.9l-4.7,14.3H27l-4.7-14.3h2.9l2.9,9.3l2.9-9.3H33.8z"/>
<path class="st1" d="M45.5,62.1h-9.4V47.9h9.4v2.5h-6.6v3.3h5.6v2.5h-5.6v3.5h6.6V62.1z"/>
<path class="st1" d="M59.8,62.1h-2.5l-5.7-8.8v8.8h-2.8V47.9h2.5l5.7,8.7v-8.7h2.8V62.1z"/>
<path class="st1" d="M72.9,50.4h-3.7v11.8h-2.8V50.4h-3.7v-2.5h10.2V50.4z"/>
<path class="st1" d="M86.1,57.2c0,1.5-0.5,2.7-1.5,3.6c-1,0.9-2.3,1.4-3.7,1.4c-1.5,0-2.7-0.5-3.7-1.4c-1-0.9-1.5-2.1-1.5-3.6v-9.4
	h2.8v9.3c0,0.8,0.2,1.5,0.7,1.9c0.4,0.5,1,0.7,1.8,0.7c0.8,0,1.4-0.2,1.8-0.7c0.5-0.5,0.7-1.1,0.7-1.9v-9.3h2.8V57.2z"/>
<path class="st1" d="M100.6,62.1h-3.2l-2.8-5.7h-2v5.7h-2.8V47.9h5.6c1.4,0,2.6,0.4,3.4,1.3c0.8,0.8,1.2,1.8,1.2,3.1
	c0,0.9-0.3,1.8-0.8,2.4c-0.5,0.6-1.1,1-1.8,1.3L100.6,62.1z M97.2,52.2c0-0.6-0.2-1-0.6-1.4c-0.4-0.3-0.9-0.5-1.5-0.5h-2.6v3.8h2.6
	c0.6,0,1.1-0.2,1.5-0.5C97,53.3,97.2,52.8,97.2,52.2z"/>
<path class="st1" d="M112.9,62.1h-9.4V47.9h9.4v2.5h-6.6v3.3h5.6v2.5h-5.6v3.5h6.6V62.1z"/>
<path class="st1" d="M125.5,57.9c0,1.3-0.5,2.4-1.5,3.2c-1,0.8-2.3,1.1-3.8,1.1c-2.2,0-4-0.6-5.2-1.9l1.8-1.8c0.8,0.8,2,1.2,3.4,1.2
	c1.7,0,2.5-0.6,2.5-1.8c0-0.5-0.1-0.9-0.4-1.2c-0.3-0.3-0.7-0.4-1.3-0.5l-1.7-0.2c-2.5-0.3-3.8-1.7-3.8-4c0-1.3,0.4-2.3,1.3-3.1
	c0.9-0.8,2.1-1.2,3.6-1.2c1.9,0,3.5,0.6,4.6,1.7l-1.8,1.7c-0.7-0.7-1.7-1-2.9-1c-0.7,0-1.3,0.2-1.6,0.5c-0.4,0.3-0.6,0.8-0.6,1.3
	c0,0.4,0.1,0.8,0.4,1c0.3,0.3,0.7,0.5,1.3,0.5l1.7,0.2c1.2,0.2,2.1,0.5,2.7,1.1C125.1,55.6,125.5,56.6,125.5,57.9z"/>
</svg>
