<svg width="106" height="86" viewBox="0 0 106 86" fill="none" xmlns="http://www.w3.org/2000/svg">
<path d="M15.5861 74.7731C9.84009 57.9919 3.84925 41.0599 0.78646 23.525C11.0122 26.4189 17.0841 35.5145 25.9113 41.3275C28.4912 42.817 30.2412 40.5307 31.098 38.3021C34.0405 30.971 33.4101 23.8705 35.4594 16.597C37.9477 7.57038 47.7865 17.8374 53.8819 18.2033C55.9288 18.3818 57.8516 18.7753 59.6797 18.4463C60.6107 18.2892 61.4808 18.0627 62.3355 17.8337L64.8633 17.1564C70.9657 16.1701 75.178 21.0387 79.9988 24.1087C84.3442 26.7608 87.1992 21.8159 88.5857 18.1731C91.8814 31.8291 96.0248 45.2578 98.0094 59.4469C98.2033 60.8488 96.0809 63.7801 93.7525 64.5857C84.6536 67.9325 77.3615 59.709 70.875 53.8141C69.2337 52.4365 66.5872 52.0552 65.6396 53.9448C63.4629 58.708 64.1266 65.2544 58.0012 66.7185C57.1617 67.0749 56.2474 67.3342 55.326 67.5811C54.4044 67.828 53.4885 68.0844 52.6169 68.4517C48.6963 69.389 47.537 73.8796 44.4637 75.9752C37.854 80.4724 31.1736 73.1755 25.9106 69.1336C24.1452 67.971 22.628 66.3784 20.6265 66.3694C17.5168 66.294 17.284 70.1729 16.4039 72.5574C15.9144 74.0485 15.5861 74.7731 15.5861 74.7731Z" fill="#EDFF1F" />
<path d="M14.6846 36.2678C14.6846 37.7512 14.1834 38.9607 13.1811 39.8962C12.1787 40.8184 10.9292 41.2795 9.43234 41.2795C7.93552 41.2795 6.68594 40.8184 5.6836 39.8962C4.68127 38.9607 4.1801 37.7512 4.1801 36.2678V26.8859H6.9666V36.1675C6.9666 36.9828 7.18711 37.6243 7.62814 38.092C8.06917 38.5598 8.67057 38.7937 9.43234 38.7937C10.1941 38.7937 10.7955 38.5598 11.2365 38.092C11.6909 37.6243 11.9181 36.9828 11.9181 36.1675V26.8859H14.6846V36.2678Z" fill="#191919" />
<path d="M29.3227 41.1592H26.8369L21.1838 32.3988V41.1592H18.3973V26.8859H20.8831L26.5362 35.6263V26.8859H29.3227V41.1592Z" fill="#191919" />
<path d="M43.6195 33.9624C43.6195 35.5528 43.5794 36.5952 43.4992 37.0897C43.3254 38.1856 42.8844 39.0877 42.1761 39.796C41.2673 40.7048 40.0111 41.1592 38.4073 41.1592H33.2553V26.8859H38.4073C40.0111 26.8859 41.2673 27.3403 42.1761 28.2491C42.8844 28.9574 43.3254 29.8395 43.4992 30.8953C43.5794 31.3764 43.6195 32.3988 43.6195 33.9624ZM40.833 33.9624C40.833 32.8131 40.7996 32.0045 40.7327 31.5367C40.6525 30.9888 40.4855 30.5611 40.2316 30.2538C39.7504 29.6657 39.0555 29.3717 38.1467 29.3717H36.0418V38.6734H38.1467C39.0555 38.6734 39.7504 38.3794 40.2316 37.7913C40.4855 37.4839 40.6525 37.0362 40.7327 36.4482C40.7996 35.9537 40.833 35.1251 40.833 33.9624Z" fill="#191919" />
<path d="M57.1392 34.0225C57.1392 35.5728 57.0791 36.6487 56.9588 37.2501C56.7851 38.239 56.3708 39.061 55.7159 39.7158C54.6735 40.7582 53.3905 41.2795 51.8669 41.2795C50.33 41.2795 49.0403 40.7582 47.9979 39.7158C47.3564 39.0743 46.9421 38.2524 46.755 37.2501C46.6481 36.662 46.5946 35.5862 46.5946 34.0225C46.5946 32.4589 46.6481 31.3831 46.755 30.795C46.9421 29.7927 47.3564 28.9708 47.9979 28.3293C49.0403 27.2868 50.33 26.7656 51.8669 26.7656C53.3905 26.7656 54.6735 27.2868 55.7159 28.3293C56.3708 28.9841 56.7851 29.806 56.9588 30.795C57.0791 31.3964 57.1392 32.4723 57.1392 34.0225ZM54.3527 34.0225C54.3527 32.9267 54.3394 32.2317 54.3126 31.9377C54.2324 31.0556 54.0119 30.4141 53.6511 30.0132C53.1967 29.5053 52.602 29.2514 51.8669 29.2514C51.1185 29.2514 50.5171 29.5053 50.0627 30.0132C49.7153 30.4141 49.5014 31.0556 49.4212 31.9377C49.3945 32.1782 49.3811 32.8732 49.3811 34.0225C49.3811 35.1719 49.3945 35.8668 49.4212 36.1074C49.5014 36.9895 49.7153 37.631 50.0627 38.0319C50.5171 38.5397 51.1185 38.7937 51.8669 38.7937C52.6955 38.7937 53.3437 38.4729 53.8115 37.8314C54.1723 37.3369 54.3527 36.0673 54.3527 34.0225Z" fill="#191919" />
<path d="M71.5085 41.1592H69.0227L63.3695 32.3988V41.1592H60.583V26.8859H63.0688L68.722 35.6263V26.8859H71.5085V41.1592Z" fill="#191919" />
<path d="M84.843 41.1592H75.441V26.8859H84.843V29.3717H78.2275V32.7195H83.8607V35.2053H78.2275V38.6734H84.843V41.1592Z" fill="#191919" />
<path d="M14.3237 47.865L9.59272 62.1383H7.50786L2.79688 47.865H5.6836L8.55029 57.1667L11.417 47.865H14.3237Z" fill="#191919" />
<path d="M26.0568 62.1383H16.6549V47.865H26.0568V50.3508H19.4414V53.6986H25.0746V56.1844H19.4414V59.6525H26.0568V62.1383Z" fill="#191919" />
<path d="M40.3241 62.1383H37.8383L32.1852 53.3779V62.1383H29.3987V47.865H31.8845L37.5376 56.6054V47.865H40.3241V62.1383Z" fill="#191919" />
<path d="M53.4381 50.3508H49.7094V62.1383H46.9229V50.3508H43.1942V47.865H53.4381V50.3508Z" fill="#191919" />
<path d="M66.5992 57.2469C66.5992 58.7304 66.098 59.9399 65.0957 60.8754C64.0934 61.7975 62.8438 62.2586 61.347 62.2586C59.8501 62.2586 58.6006 61.7975 57.5982 60.8754C56.5959 59.9399 56.0947 58.7304 56.0947 57.2469V47.865H58.8812V57.1467C58.8812 57.9619 59.1017 58.6034 59.5428 59.0712C59.9838 59.5389 60.5852 59.7728 61.347 59.7728C62.1087 59.7728 62.7101 59.5389 63.1512 59.0712C63.6056 58.6034 63.8328 57.9619 63.8328 57.1467V47.865H66.5992V57.2469Z" fill="#191919" />
<path d="M81.1171 62.1383H77.8895L75.1031 56.445H73.0984V62.1383H70.3119V47.865H75.9049C77.3216 47.865 78.4576 48.2927 79.3129 49.148C80.1281 49.9633 80.5357 50.9923 80.5357 52.2352C80.5357 53.1841 80.2751 53.9993 79.7539 54.6809C79.2861 55.2823 78.6781 55.7167 77.9296 55.984L81.1171 62.1383ZM77.7492 52.2352C77.7492 51.6739 77.5621 51.2195 77.1879 50.872C76.8137 50.5246 76.3259 50.3508 75.7245 50.3508H73.0984V54.1196H75.7245C76.3259 54.1196 76.8137 53.9459 77.1879 53.5984C77.5621 53.2509 77.7492 52.7965 77.7492 52.2352Z" fill="#191919" />
<path d="M93.4364 62.1383H84.0345V47.865H93.4364V50.3508H86.821V53.6986H92.4541V56.1844H86.821V59.6525H93.4364V62.1383Z" fill="#191919" />
<path d="M106 57.9285C106 59.2783 105.499 60.3408 104.496 61.1159C103.507 61.8777 102.244 62.2586 100.707 62.2586C98.4755 62.2586 96.7381 61.6305 95.4952 60.3742L97.2994 58.57C98.1013 59.3719 99.2506 59.7728 100.747 59.7728C102.431 59.7728 103.273 59.1848 103.273 58.0087C103.273 57.4741 103.133 57.0798 102.852 56.8259C102.572 56.5586 102.144 56.3849 101.569 56.3047L99.8454 56.0642C97.3195 55.7167 96.0565 54.3869 96.0565 52.0749C96.0565 50.7785 96.5042 49.7361 97.3997 48.9476C98.2951 48.1457 99.5046 47.7448 101.028 47.7448C102.953 47.7448 104.49 48.2994 105.639 49.4086L103.875 51.1527C103.193 50.4978 102.218 50.1704 100.948 50.1704C100.24 50.1704 99.6917 50.3442 99.3041 50.6916C98.9299 51.0257 98.7428 51.4534 98.7428 51.9746C98.7428 52.3889 98.8898 52.7364 99.1838 53.017C99.4912 53.2977 99.9255 53.4781 100.487 53.5583L102.171 53.7989C103.387 53.9726 104.296 54.3401 104.897 54.9014C105.632 55.5964 106 56.6054 106 57.9285Z" fill="#191919" />
</svg>
